<svg xmlns="http://www.w3.org/2000/svg" xmlns:xlink="http://www.w3.org/1999/xlink" width="1440" height="332" fill="none" xmlns:v="https://vecta.io/nano"><style><![CDATA[.B{opacity:.1}.C{opacity:.4}.D{fill:#000}.E{fill:#83649c}.F{fill:#d4dfec}.G{fill:#fbbebe}.H{fill:#65617d}.I{fill:#3f3d56}]]></style><path d="M0 180.5V0H1440V248.5L296 332L0 180.5Z" class="E"/><path d="M0 180.5V0H801L692 302.003L296 331L0 180.5Z" fill="url(#A)"/><g fill="#e7effd"><use xlink:href="#C"/><path d="M340.1 100.177a1.09 1.09 0 0 0 1.089-1.088 1.09 1.09 0 1 0-2.189 0 1.09 1.09 0 0 0 1.09 1.088zm220.524 50.67a1.09 1.09 0 0 0 1.089-1.088 1.09 1.09 0 0 0-1.089-1.089 1.09 1.09 0 0 0-1.09 1.089 1.09 1.09 0 0 0 1.09 1.088z"/><use xlink:href="#C" x="186.486" y="-36.365"/><path d="M165.78 130.447h-1.664v-1.663h-.298v1.663h-1.665v.298h1.665v1.663h.298v-1.663h1.664v-.298zm345.986-34.572H510.1v-1.663h-.304v1.663h-1.658v.297h1.658v1.663h.304v-1.663h1.665v-.297zm-306.554-6.728h-1.665v-1.663h-.304v1.663h-1.658v.304h1.658v1.657h.304V89.45h1.665v-.304zM736.538 54.07a2.54 2.54 0 0 0 2.537-2.536c0-1.4-1.135-2.534-2.537-2.534S734 50.135 734 51.536s1.136 2.536 2.538 2.536zm-717-33c1.402 0 2.538-1.135 2.538-2.536S20.94 16 19.538 16 17 17.135 17 18.536s1.136 2.536 2.538 2.536z"/><use xlink:href="#D"/><path d="M256.1 16a1.09 1.09 0 0 0-1.09 1.089 1.09 1.09 0 0 0 1.089 1.089 1.09 1.09 0 0 0 1.09-1.089 1.09 1.09 0 0 0-1.09-1.089zm318.927 9.142h1.665v1.663h.305v-1.663h1.658v-.304h-1.658V23.18h-.305v1.657h-1.665v.304zm75.737 64.446a1.09 1.09 0 0 0-1.089 1.089 1.09 1.09 0 0 0 1.089 1.089 1.09 1.09 0 0 0 1.09-1.089 1.09 1.09 0 0 0-1.09-1.089z"/><use xlink:href="#E"/><use xlink:href="#E" x="-1.082" y="76.033"/><path d="M549.255 40.74a1.09 1.09 0 0 0 1.09-1.089 1.09 1.09 0 0 0-1.09-1.089 1.09 1.09 0 0 0-1.089 1.089 1.09 1.09 0 0 0 1.089 1.089z"/><use xlink:href="#D" x="-584.933" y="-10.882"/><use xlink:href="#D" x="-269.643" y="-13.06"/><path d="M491.09 47.177a1.09 1.09 0 0 0 1.09-1.089 1.09 1.09 0 0 0-1.09-1.089A1.09 1.09 0 0 0 490 46.089a1.09 1.09 0 0 0 1.089 1.089z"/></g><path d="M18.5 162.5L0 180.5 176 271l529.5-5 23-63.076V175.5h-88V75H544v75.5h-98.5v42H300V105H176.5v31h-89v26.5h-69z" class="E"/><g class="D"><path opacity=".3" d="M18.5 162.5L0 180.5 176 271l529.5-5 22.608-62 .392-28.5h-88V75H544v75.5h-98.5v42H300V105H176.5v31h-89v26.5h-69z"/><path d="M713.11 188H652v7.367h61.11V188z" class="C"/></g><path d="M713.11 211.505H652v7.367h61.11v-7.367z" class="E"/><path d="M713.1 235.014H652v7.367h61.1v-7.367zM166.1 150H105v7.367h61.1V150zm0 23.505H105v7.367h61.1v-7.367zm0 23.51H105v7.367h61.1v-7.367zm0 23.986H105v7.367h61.1V221zM358 207h-51v7.367h51V207zm0 23.505h-51v7.367h51v-7.367zM213 124h-21v8.242h21V124z" class="C D"/><use xlink:href="#F" class="E"/><g class="D"><use xlink:href="#F" y="18.473" class="C"/><path d="M213 179.43h-21v8.243h21v-8.243z" class="C"/><use xlink:href="#F" y="55.426" class="C"/><use xlink:href="#F" y="73.905" class="C"/><use xlink:href="#F" y="92.38" class="C"/><path d="M249 124h-21v8.242h21V124z" class="C"/><use xlink:href="#F" x="36" class="C"/><use xlink:href="#F" x="36" y="18.473" class="C"/><path d="M249 179.43h-21v8.243h21v-8.243z" class="C"/><use xlink:href="#F" x="36" y="55.426" class="C"/><use xlink:href="#F" x="36" y="73.905" class="C"/><use xlink:href="#F" x="36" y="92.38" class="C"/><path d="M285 124h-21v8.242h21V124z" class="C"/><use xlink:href="#F" x="72" class="C"/><use xlink:href="#F" x="72" y="18.473" class="C"/></g><path d="M285 179.43h-21v8.243h21v-8.243z" class="E"/><g class="D"><use xlink:href="#F" x="72" y="55.426" class="C"/><use xlink:href="#F" x="72" y="73.905" class="C"/><use xlink:href="#F" x="72" y="92.38" class="C"/><path d="M80.224 194H68v8.242h12.224V194zm-22 0H46v8.242h12.224V194zm22 13H68v8.242h12.224V207zm0-26H68v8.242h12.224V181zm-22-13H46v8.242h12.224V168zm22 0H68v8.242h12.224V168zm-44 0H24v8.242h12.224V168z" class="C"/></g><path d="M58.224 181H46v8.242h12.224V181z" class="E"/><path d="M36.224 181H24v8.242h12.224V181zm539-92H563v8.242h12.223V89zm24.224 0h-12.224v8.242h12.224V89zm24.223 0h-12.223v8.242h12.223V89zm-48.447 25.188H563v8.242h12.223v-8.242z" class="C D"/><path d="M599.447 114.188h-12.224v8.242h12.224v-8.242z" class="E"/><path d="M623.67 114.188h-12.223v8.242h12.223v-8.242zm-48.447 25.182H563v8.242h12.223v-8.242zm24.224 0h-12.224v8.242h12.224v-8.242z" class="C D"/><path d="M623.67 139.37h-12.223v8.242h12.223v-8.242z" class="E"/><g class="D"><path d="M575.223 164.56H563v8.242h12.223v-8.242zm24.224 0h-12.224v8.242h12.224v-8.242zm24.223 0h-12.223v8.242h12.223v-8.242zm-48.447 25.186H563v8.242h12.223v-8.242zm24.224 0h-12.224v8.242h12.224v-8.242zm24.223 0h-12.223v8.242h12.223v-8.242zM575.223 215H563v8.242h12.223V215zm24.224 0h-12.224v8.242h12.224V215zm24.223 0h-12.223v8.242h12.223V215zM487 161h-21v8.242h21V161z" class="C"/><use xlink:href="#F" x="274" y="37" class="C"/><use xlink:href="#F" x="274" y="55.473" class="C"/></g><path d="M487 216.43h-21v8.243h21v-8.243z" class="E"/><g class="D"><use xlink:href="#F" x="274" y="92.426" class="C"/><path d="M526 161h-21v8.242h21V161z" class="C"/></g><use xlink:href="#F" x="313" y="37" class="E"/><g class="D"><use xlink:href="#F" x="313" y="55.473" class="C"/><path d="M526 216.43h-21v8.243h21v-8.243z" class="C"/><use xlink:href="#F" x="313" y="92.426" class="C"/></g><g class="I"><path d="M74 0v215l-5-.614V0h5zm149 0v290.916l-5 .084V0h5zm149 0v325.718l-4 .282V0h4zm148 1v301.74l-4 .26V1h4zm148 4v295.744l-4 .256V5h4z"/><path d="M739.5 170H0v-5h741.5l-2 5zM786 42c.004-.017-1 0 0 0H0v-5h787.586L786 42zM295.865 332L161.5 263.5c54.5-24.5 505-33 545 .5l-15 39-395.635 29z"/></g><g class="E"><use xlink:href="#G"/><use xlink:href="#H"/><use xlink:href="#I"/><use xlink:href="#J"/><use xlink:href="#K"/><use xlink:href="#L"/><path d="M598.87 206.16s-11.02 39.047-1.537 44.938 3.97-41.48 1.537-44.938z"/></g><g class="D"><use xlink:href="#G" class="B"/><use xlink:href="#H" class="B"/><use xlink:href="#I" class="B"/><use xlink:href="#J" class="B"/><use xlink:href="#K" class="B"/><use xlink:href="#L" class="B"/><path d="M598.87 206.16s-11.02 39.047-1.537 44.938 3.97-41.48 1.537-44.938z" class="B"/></g><g class="E"><path d="M577.712 232.514s-2.187 17.283 14.35 19.332l1.022-1.918s-14.333-12.02-15.372-17.414z"/><path d="M598.356 249.814l-4.216.896s-11.79-8.317-11.66-26.884c0 0 3.018 3.235 6.43 7.743 4.057 5.37 8.678 12.546 9.444 18.245z"/></g><path d="M598.356 249.814l-3.828.814c-3.648-3.197-5.09-11.54-5.616-19.06 4.057 5.37 8.678 12.546 9.444 18.245z" class="B D"/><g class="E"><path d="M599.657 251.595a2.44 2.44 0 0 1-1.003.367 2.4 2.4 0 0 1-1.064-.1c-9.87-2.306-8.07-34.425-8.07-34.425.547.257 2.68 4.372 4.92 9.617 4 9.284 8.384 22.212 5.217 24.54zm20.35-19.08s2.187 17.283-14.35 19.332l-1.022-1.918s14.35-12.02 15.372-17.414z"/><path d="M615.27 223.826c.12 18.578-11.664 26.884-11.664 26.884l-.383-.082-3.828-.814c.765-5.7 5.392-12.874 9.45-18.245 3.4-4.52 6.425-7.743 6.425-7.743z"/></g><path d="M608.828 231.57c-.492 7.016-1.777 14.753-4.894 18.343-.218.257-.455.497-.71.716l-3.828-.814c.738-5.7 5.375-12.874 9.433-18.245z" class="B D"/><path d="M603.163 249.912c-.592.72-1.34 1.296-2.188 1.683-.26.116-.53.206-.81.268-2.428.546-3.28-1.18-3.14-4.153.235-5.295 3.56-14.475 6.562-21.3 2.155-4.95 4.134-8.7 4.66-8.945-.027-.027 1.362 24.993-5.085 32.457z" class="E"/><g class="D"><path d="M599.657 251.595a2.73 2.73 0 0 1-1.558-.497c-4.643-2.89-4.736-13.737-3.63-24.043 3.98 9.284 8.356 22.212 5.19 24.54z" class="B"/><path d="M603.163 249.912c-.547 1.153-1.253 1.765-2.188 1.683a3.14 3.14 0 0 1-1.323-.497 7.04 7.04 0 0 1-2.625-3.388c.235-5.295 3.56-14.475 6.562-21.3 1.04 9.502 1.395 19.605-.426 23.512z" class="B"/></g><path d="M598.87 206.16s-9.483 39.047 0 44.938 2.433-41.48 0-44.938z" class="E"/><path d="M617.064 249.174h-39.46v6.53h6.02l.147.77 2.412 12.67h22.94l2.56-13.442h5.38v-6.53z" class="F"/><path d="M617.047 249.174h-39.46v6.53h6.02l.148.77 2.41 12.67h22.94l2.56-13.442h5.38v-6.53z" class="B D"/><path d="M613.733 253.016l-.66 3.46-2.412 12.67h-22.94l-3.074-16.13h29.087z" class="F"/><path d="M613.733 253.016l-.66 3.46h-27.764l-.662-3.46h29.087z" class="B D"/><path d="M618.6 249.174h-39.46v6.53h39.46v-6.53z" class="F"/><g class="E"><use xlink:href="#M"/><use xlink:href="#N"/><use xlink:href="#O"/><use xlink:href="#J" x="-335.356" y="-0.16"/><use xlink:href="#P"/><use xlink:href="#Q"/><path d="M263.515 206s-11.02 39.047-1.537 44.937 3.97-41.478 1.537-44.937z"/></g><g class="D"><use xlink:href="#M" class="B"/><use xlink:href="#N" class="B"/><use xlink:href="#O" class="B"/><use xlink:href="#J" x="-335.356" y="-0.16" class="B"/><use xlink:href="#P" class="B"/><use xlink:href="#Q" class="B"/><path d="M263.515 206s-11.02 39.047-1.537 44.937 3.97-41.478 1.537-44.937z" class="B"/></g><g class="E"><path d="M242.357 232.354s-2.187 17.283 14.35 19.332l1.023-1.918s-14.333-12.02-15.372-17.414z"/><path d="M263 249.653l-4.217.896s-11.8-8.316-11.66-26.883c0 0 3.02 3.234 6.43 7.742 4.058 5.372 8.68 12.546 9.445 18.245z"/></g><path d="M263 249.653l-3.828.814c-3.648-3.196-5.092-11.54-5.616-19.06 4.057 5.372 8.678 12.546 9.444 18.245z" class="B D"/><g class="E"><path d="M264.302 251.434a2.41 2.41 0 0 1-1.003.368 2.43 2.43 0 0 1-1.064-.1c-9.87-2.306-8.07-34.424-8.07-34.424.546.257 2.68 4.37 4.92 9.617 4 9.283 8.384 22.212 5.217 24.54zm20.348-19.08s2.187 17.283-14.35 19.332l-1.022-1.918s14.35-12.02 15.372-17.414z"/><path d="M279.915 223.666c.12 18.578-11.664 26.883-11.664 26.883l-.383-.082-3.828-.814c.765-5.7 5.392-12.873 9.45-18.245 3.402-4.518 6.426-7.742 6.426-7.742z"/></g><path d="M273.473 231.408c-.492 7.016-1.777 14.754-4.894 18.344-.218.257-.455.496-.71.715l-3.828-.814c.738-5.7 5.375-12.873 9.433-18.245z" class="B D"/><path d="M267.808 249.752c-.592.72-1.34 1.296-2.188 1.683a4.26 4.26 0 0 1-.809.267c-2.428.547-3.28-1.18-3.14-4.152.235-5.295 3.56-14.475 6.562-21.31 2.155-4.95 4.134-8.7 4.66-8.945-.027-.027 1.362 24.994-5.085 32.458z" class="E"/><g class="D"><path d="M264.302 251.435c-.558-.003-1.102-.177-1.558-.498-4.643-2.9-4.736-13.737-3.63-24.042 3.98 9.284 8.356 22.212 5.19 24.54z" class="B"/><path d="M267.808 249.752c-.547 1.153-1.253 1.765-2.188 1.683-.473-.063-.926-.233-1.323-.498-1.206-.83-2.124-2.013-2.625-3.387.235-5.295 3.56-14.475 6.562-21.31 1.04 9.502 1.395 19.606-.426 23.513z" class="B"/></g><path d="M263.515 206s-9.483 39.047 0 44.937 2.433-41.478 0-44.937z" class="E"/><path d="M281.71 249.014h-39.46v6.53h6.02l.148.77 2.412 12.672h22.94l2.56-13.442h5.38v-6.53z" class="F"/><path d="M281.692 249.014h-39.46v6.53h6.02l.148.77 2.41 12.672h22.94l2.56-13.442h5.38v-6.53z" class="B D"/><path d="M278.378 252.855l-.66 3.46-2.412 12.672h-22.94l-3.073-16.13h29.087z" class="F"/><path d="M278.378 252.855l-.66 3.46h-27.764l-.662-3.46h29.087z" class="B D"/><path d="M283.245 249.014h-39.46v6.53h39.46v-6.53z" class="F"/><path d="M503.89 232.205s-15.542 3.716-21.694 10.67c-2.06 2.324-5.12 4-8.276 5.194v-10.49c3.556-5.902 7.14-12.466 7.14-12.466.163-.322 1.46-4.85 1.46-4.85 2.917-2.266-.163-10.183-.163-10.183s1.784-5 .81-5.982-.164-3.555.647-4.688.648-2.588.648-3.556-1.295-2.427-3.402-3.233.163-2.1 1.46-2.426 1.62-3.395.163-5.01.163-2.584.97-4.36-2.605-1.456-2.605-1.456v-16.343s-.973-5.333-1.943-14.7-4.697-10.343-4.697-10.343c-1.997-.613-3.946-1.37-5.83-2.266-1.985-.92-4.042-1.676-6.152-2.26 0 0-4.37 0-7.936-1.084s-5.414-1.16-5.414-1.16l-.584-.286c-4.384-2.204-7.857-5.844-9.826-10.3-.1-.224-.2-.448-.28-.663a22.58 22.58 0 0 0 2.586-3.394v-.027 1.94c2.582-4.51 10.075-5.54 10.786-10.688a5.41 5.41 0 0 0 .05-.708v-.55c-.095-1.437-.594-2.87-.69-4.32-.032-.415-.032-.833 0-1.25v.027c.335-4 3.384-7.478 4.78-11.36.376-1.044.62-2.13.73-3.233v-.03c.036-.33.06-.667.068-1.003v-.945c-.043-2.066-.513-4.1-1.382-5.98s-2.117-3.562-3.67-4.946c-2.582-2.216-5.993-3.61-7.783-6.506-.833-1.343-1.24-2.937-2.15-4.236-1.713-2.454-4.857-3.452-7.833-3.806s-6.034-.237-8.878-1.16c-2.02-.654-3.85-1.813-5.89-2.396-2.22-.588-4.57-.49-6.734.282s-4.035 2.177-5.366 4.03c-1.073 1.55-1.775 3.403-3.225 4.612-2.967 2.48-8 1.406-10.6 4.263-1.427 1.572-1.6 3.712-1.418 5.897v.08c0 .166.032.336.05.506v.237c0 .076 0 .17.032.255l.303 2.315c0 .116.027.228.04.345l.08.703c0 .17.028.34.046.5s.03.448.045.636 0 .33.032.502c.3 5.967-1 11.907-3.715 17.24-2.45 4.75-6.093 9.13-6.727 14.436a15.38 15.38 0 0 0-.072 2.619v.31c0 .103.027.314.04.47s.036.362.058.54c0 .103.028.206.04.31.032.238.068.475.11.717l.027.152c.643 3.618 2.102 7.164 2.877 10.818a28.92 28.92 0 0 1 .579 4.088c-.002.01-.002.02 0 .027l.064 1.312v1.79a28.85 28.85 0 0 1-3.774 1.147c-2.264.322-8.9 6.143-8.425 7.612s-2.972 11.642-3.067 11.95l-5.436 37.165s-2.885 2.75-1.984 4.527-.177 4.85-.177 4.85-4.874 2.1-3.79 3.394.59 3.716-.154 5.333-1.962 4.527 0 5 .335 6.793.335 6.793 6.836-.78 6.342 3.233c-.163 1.276 4.78 4.787 6.84 6.193v19.317c-2.768-.766-6.02-1.76-8.095-2.718-4.208-1.94-27.85-5.656-33.032 5.5s7.125 26.024 10.2 27.64c0 0 2.918 2.26 3.565 3.394s4.372 1.455 4.372 1.455 3.886 1.79 4.856 2.745c.716.716 6.636 2.575 13.653 4.03 0 0-5.667 12.896 3.58 11.835s13.748-5.562 20.267-5.562c2.604 0 7.442-.362 12.312-.792a33.07 33.07 0 0 1 3.624.846 47.01 47.01 0 0 0 8.416 1.791s7.29 3.878 11.176 2.906c.32-.09.62-.24.88-.448h.1c.707-.174 1.51-.895 2.342-1.983 4.86.492 10.42 1.19 12.485 1.988 4.027 1.536 32.833-.59 32.833-.59s18.61.362 23.94 1.957 3.438-16.277-6.4-18.288a40.91 40.91 0 0 0-7.977-.779c.682-.694 1.304-1.443 1.862-2.24l5.89-.515 14.736-7.276c3.413-1.835 6.478-4.24 9.06-7.11l6.636-4.03c1.943-1.12 2.913-4.85 2.913-4.85 14.727-32.98-22.677-28.608-22.677-28.608zm-42.165-41.366v-1.63c.526.368.45.945 0 1.626v.004zm.154 11.432l1.047 1.343c1.046 1.344-.847 1.97-.71 4.196l.122 1.96-.458-7.5z" fill="url(#B)"/><g class="H"><path d="M377.59 253.485s-9.065-2.105-13.284-4.048-27.864-5.665-33.05 5.507 7.13 26.057 10.207 27.678 33.048-20.564 33.048-20.564l23.64 9.963 4.532-15.46-25.094-3.075z"/><path d="M473.813 256.56h-69.528a16.69 16.69 0 0 0-16.692 16.679v2.414c0 9.21 7.473 16.678 16.692 16.678h69.528c9.218 0 16.69-7.467 16.69-16.678v-2.414a16.69 16.69 0 0 0-16.691-16.679z"/></g><path d="M490.504 274.443c.004 3.52-1.034 6.96-2.982 9.89-.662.993-1.42 1.918-2.266 2.762-1.66 1.664-3.633 2.983-5.806 3.882a17.86 17.86 0 0 1-6.852 1.358h-67.103a17.91 17.91 0 0 1-12.659-5.24 17.88 17.88 0 0 1-5.243-12.648c0-4.744 1.886-9.294 5.243-12.65s7.91-5.24 12.66-5.24h67.107c4.748 0 9.3 1.884 12.657 5.238s5.244 7.902 5.245 12.645z" class="B D"/><path d="M434.474 275.5s-10.32 2.65-18.74 2.53-47.8 16.235-47.8 16.235-5.67 12.915 3.58 11.846 13.755-5.552 20.277-5.552 27.04-2.264 27.04-2.264l19.742-14.573-4.088-8.223zm6.458-121.887l-19.7 3.886-15.12-4.212c-.485-.326-13.768-18.2-13.768-18.2s6.716.073 11.992-2.966c.2-.1.376-.226.562-.34a11.68 11.68 0 0 0 4.985-6.109 10.57 10.57 0 0 0 .254-.833c.562-2.164.598-4.786-.154-7.96-1.813-7.55 2.356-9.628 7.88-9.446 7.98.262 18.845 5.24 18.845 5.24a22.15 22.15 0 0 0 1.708 7.382c.087.217.182.452.28.66 1.982 4.47 5.457 8.1 9.83 10.302l.584.3a22.84 22.84 0 0 0 1.854.788c14.113 5.344-10.025 21.528-10.025 21.528z" class="G"/><path d="M438.707 120.705c-3.52 3.98-8.295 6.643-13.535 7.545a23.36 23.36 0 0 1-15.281-2.587c.798-2.318.947-5.203.1-8.794-4.374-18.454 26.74-4.207 26.74-4.207a22.4 22.4 0 0 0 1.976 8.043z" class="B D"/><path d="M444.548 104.312c.008 4.36-1.217 8.635-3.535 12.33-.754 1.212-1.62 2.35-2.588 3.4-4.082 4.47-9.752 7.168-15.8 7.517a20.35 20.35 0 0 1-1.409.045 23.34 23.34 0 0 1-12.96-3.928c-3.836-2.56-6.826-6.2-8.59-10.46a23.29 23.29 0 0 1-1.328-13.467c.9-4.52 3.122-8.674 6.384-11.934s7.42-5.48 11.944-6.38 9.215-.438 13.478 1.326a23.33 23.33 0 0 1 10.469 8.585c2.563 3.833 3.93 8.34 3.93 12.95l.004.014z" class="G"/><path d="M440.932 153.614l-19.7 3.885-15.12-4.212c-.485-.326-13.768-18.21-13.768-18.21s6.716.073 11.992-2.966c.2-.11.376-.226.562-.34 1.677 1.812 7.165 6.934 15.8 6.897 1.107.001 2.213-.08 3.308-.24 2.602-.398 5.226-.656 7.845-.905 5.017-.526 12.7-2.047 16.72-6.476l.585.3a23.2 23.2 0 0 0 1.854.788c14.08 5.303-10.057 21.488-10.057 21.488z" class="B D"/><path d="M461.83 200.878c.158 3.564 2.755 43.704 2.755 43.704h-80.84l1.147-52.123.648-22.982-2.343-2.065L370.46 156.2c.096-.3 3.55-10.53 3.07-11.97s6.16-7.28 8.43-7.608c1.3-.3 2.56-.685 3.797-1.154 3.82-1.36 8.92-3.315 9.482-3.007.793.425 8.742-.313 9.064-.344 0 0 5.865 7.576 16.343 7.53 1.103-.006 2.205-.094 3.295-.263 2.6-.4 5.225-.657 7.845-.928 5.27-.548 13.465-2.2 17.304-7.156 0 0 1.853.077 5.416 1.16s7.94 1.087 7.94 1.087a40.24 40.24 0 0 1 6.155 2.264c1.886.895 3.836 1.652 5.832 2.264 0 0 3.726.97 4.7 10.357s1.958 14.73 1.958 14.73l-19.26 16.67v21.044z" class="E"/><path d="M370.466 228.882l2.833 4.533 10.61 3.736 7.293-13.287-6.722-4.533-10.772-4.207-6.155 3.56 2.914 10.198z" class="G"/><path d="M461.018 251.217s15.065-1.132 21.224-8.093 21.705-10.683 21.705-10.683 37.422-4.37 22.66 28.652c0 0-.97 3.723-2.915 4.855s-6.64 4.048-6.64 4.048l-57.48-5.017 1.445-13.762z" class="H"/><path d="M490.504 274.443c.004 3.52-1.034 6.96-2.982 9.89-9.67.856-31.1 2.866-35.572 4.116-5.507 1.526-16.652-1.132-17.87-1.43l-.113-.027s-2.148-6.512-3.173-10.678c-.453-1.893-.693-3.302-.394-3.406.975-.32 9.885-2.753 9.722-1.358s26.74-10.443 26.74-10.443l.825 10.36c2.733 3.125 22.82-1.52 22.82 2.975z" class="B D"/><path d="M518.205 265.785l-1.133 4.21a33.57 33.57 0 0 1-9.064 7.119c-5.348 2.754-14.743 7.287-14.743 7.287s-34.504 2.912-40.337 4.528-17.983-1.458-17.983-1.458-4.532-13.758-3.562-14.084 9.88-2.748 9.72-1.358 26.74-10.443 26.74-10.443l50.36 4.198z" class="H"/><path d="M422.137 302.076s16.96 1.182 20.993 2.718 32.85-.59 32.85-.59 18.618.362 23.952 1.956 3.44-16.302-6.404-18.31-23.716.947-23.716.947l-17.553-2.264c-1.9-.25-14.404.113-14.404.113l-15.717 15.428z" class="G"/><path d="M355.492 257.403s22.416 2.015 28.58 5.687l-28.58-5.687zm139.818-14.69s-17.553 4.266-24.433 10.542l24.433-10.542zm-138.513 9.596c.358.118 10.32 1.422 10.08 2.368s-10.08-2.368-10.08-2.368zm-15.654 24.97l1.296 4.86s2.914 2.265 3.563 3.397 4.373 1.458 4.373 1.458 3.9 1.78 4.863 2.75 11.498 4.048 21.383 5.343 28.185 3.723 32.074 5.018a46.86 46.86 0 0 0 8.425 1.78s7.288 3.885 11.176 2.916 10.528-18.617 10.528-18.617-25.593-5.986-26.404-7.93-25.434-11.004-25.434-11.004l-14.58.344-31.263 9.686z" class="B D"/><path d="M340.17 277.763l1.296 4.86s2.92 2.264 3.567 3.396 4.373 1.46 4.373 1.46 3.89 1.78 4.86 2.753 11.502 4.044 21.382 5.34 28.2 3.722 32.08 5.018c2.746.848 5.565 1.443 8.42 1.775 0 0 7.292 3.88 11.18 2.912s10.528-18.617 10.528-18.617-25.597-5.987-26.404-7.93-36.937-16.67-36.937-16.67l-11.33-2.6-23.014 18.295z" class="H"/><path d="M373.294 154.583l-2.833 1.62-5.438 37.23s-2.887 2.753-1.985 4.528-.177 4.855-.177 4.855-4.877 2.106-3.793 3.4.59 3.722-.154 5.34-1.963 4.528 0 5.018.335 6.792.335 6.792 6.84-.78 6.345 3.234c-.204 1.62 7.732 6.792 7.732 6.792s-9.02-16.348 11.185-14.083l1.736-9.216s1.736-5.19 0-6.793.4-9.306.4-9.306l.38-33.425-13.723-5.986z" class="E"/><path d="M368.893 202.662c.358.593 11.267 1.8 11.98 3.745s-11.98-3.745-11.98-3.745zm-3.44 9.243s1.482-4.624 4.986-3.795-4.986 3.795-4.986 3.795zm-1.893 6.752s2.606-6.164 6.164-5.688-6.164 5.688-6.164 5.688z" class="B D"/><path d="M482.242 218.52l-1.137 6.793s-11.66 21.37-13.77 21.69-13.596-14.242-13.596-14.242l-3.078-14.247 12.115-2.296 5.38-5.312s13.597 1.3 14.086 7.613z" class="G"/><path d="M476.73 160.09l4.374 3.075v16.348s3.403-.326 2.592 1.458-2.43 2.75-.97 4.37 1.133 4.692-.163 5.018-3.562 1.617-1.46 2.427 3.403 2.264 3.403 3.238.164 2.427-.648 3.56-1.618 3.723-.648 4.697-.81 5.986-.81 5.986 3.082 7.934.163 10.198l-1.46 4.855s2.044-15.755-18.337-9.093l-.517-8.23c-.14-2.223 1.76-2.875.712-4.202s-3.667-4.375-2.43-5.18.812-2.264.322-3.4-2.198-1.132-.648-2.508 2.47-2.668 1.56-3.315-2.493-2.758-1.233-3.727 1.297-15.053 1.297-15.053 5.184-20.718 14.9-10.52z" class="E"/><g class="D"><path d="M474.674 187.94s6.227-1.7 6.43 0-6.43 0-6.43 0zm-6.998 4.66s8.54-2.133 9.604-.475-9.604.475-9.604.475zm-1.9 4.492s12.808-1.78 13.637.83-13.637-.83-13.637-.83zm1.9 5.57c.476.118 12.332.946 12.568 3.197s-12.568-3.197-12.568-3.197zm-78.26-28.032s9.735 7.436 17.263 1.77c0 0-12.726 1.155-17.263-1.77zm49.292 2.002s9.73 7.43 17.258 1.766c0 0-12.722 1.16-17.258-1.766z" class="B"/><path d="M444.548 104.312c.008 4.36-1.217 8.635-3.535 12.33-.195-6.5-1.722-12.984-5.257-18.404-3.236-4.98-13.075-13.672-19.837-11.25a4.79 4.79 0 0 0-1.857 1.232c-.513.55-.9 1.215-1.098 1.938-.67 2.545 1.292 3.623 2.552 5.63 2.136 3.476 2.97 7.596 2.356 11.63a16.08 16.08 0 0 1-.34 1.612c-1.065 3.994-3.503 8.564-.988 11.838 1.754 2.264 5.525 3.07 6.037 5.887a3.4 3.4 0 0 1 .045.806c-.117 1.906-1.744 3.587-2.456 5.457-.834 2.205-.363 4.397.503 6.61 1.124 2.9 2.92 5.81 3.354 8.863s-.503 5.887-1.61 8.753c-1.047 2.717-2.266 5.412-2.674 8.242-.784 5.38 1.192 11.602-2.198 15.85-.345.514-.876.873-1.482 1-2.17.226-1.813-3.673-3.55-4.98.186 2.264.363 4.628-.453 6.747s-2.964 3.922-5.212 3.564l-.775-5.086c-1.53 1.505-3.37 2.657-5.393 3.374a39.25 39.25 0 0 1 5.629-15.216c-5.706 2.745-9.033 8.686-12 14.274-1.85 3.492-3.767 7.305-3.12 11.204.263 1.59.948 3.102 1.097 4.7s-.43 3.47-1.92 4.076c-1.3.53-2.82-.104-3.758-1.164l-.163-.194a7.02 7.02 0 0 1-.258-.363 6.11 6.11 0 0 1-.431-.77c-.405-.957-.71-1.954-.906-2.975l-.1-.453c-1.51-6.616-2.87-13.44-1.763-20.133.408-2.464 1.15-4.91 1.06-7.41-.068-1.4-.356-2.8-.852-4.12-1.324-3.704-3.87-7.105-5.32-10.837a.31.31 0 0 1-.036-.081c-.762-1.975-1.138-4.443.272-6.028.725-.82 1.813-1.232 2.72-1.81 2.82-1.834 4.08-5.317 4.6-8.64a29.34 29.34 0 0 0 .354-4.528c3.82-1.36 8.92-3.315 9.48-3.007.793.426 8.742-.313 9.064-.344 2.42-1.395 4.532-3.446 5.566-6.45a10.57 10.57 0 0 0 .253-.833 23.32 23.32 0 0 1-8.824-8.353 23.29 23.29 0 0 1-.509-23.447c1.997-3.605 4.914-6.616 8.454-8.727s7.578-3.248 11.7-3.293 8.184 1.002 11.77 3.036 6.568 4.98 8.643 8.54 3.17 7.605 3.17 11.725l-.005-.022z" class="B"/></g><path d="M417.532 108.06c-1.07 3.994-3.503 8.564-.983 11.842 1.754 2.264 5.525 3.066 6.028 5.887.403 2.265-1.596 4.13-2.402 6.26-1.922 5.085 3.09 10.085 3.852 15.47.83 5.842-3.43 11.163-4.278 17-.784 5.38 1.192 11.598-2.198 15.85a2.35 2.35 0 0 1-1.482 1.001c-2.17.23-1.813-3.668-3.55-4.982.186 2.265.362 4.63-.453 6.748s-2.964 3.917-5.212 3.564l-.775-5.1c-1.53 1.505-3.37 2.656-5.394 3.374.797-5.406 2.712-10.587 5.625-15.212-5.706 2.745-9.028 8.686-11.997 14.27-1.853 3.49-3.766 7.31-3.122 11.208.262 1.59.947 3.097 1.096 4.7s-.43 3.465-1.92 4.076c-1.36.566-3.005-.186-3.92-1.36s-1.27-2.667-1.6-4.11c-1.55-6.757-2.996-13.73-1.868-20.57.408-2.468 1.15-4.913 1.06-7.41-.195-5.466-4.233-9.962-6.2-15.048-.766-1.98-1.138-4.442.272-6.027.725-.82 1.813-1.232 2.72-1.812 2.815-1.838 4.08-5.316 4.596-8.64.556-3.593.454-7.258-.304-10.814-1.138-5.32-3.748-10.52-3.1-15.923.635-5.316 4.278-9.7 6.73-14.46a34.18 34.18 0 0 0 3.472-19.993c-.422-3.193-1.16-6.888 1.006-9.274 2.6-2.862 7.637-1.784 10.605-4.266 1.45-1.21 2.153-3.07 3.227-4.62a11.33 11.33 0 0 1 5.38-4.041 11.34 11.34 0 0 1 6.725-.279c2.04.584 3.87 1.743 5.892 2.4 2.846.906 5.892.806 8.883 1.164s6.123 1.358 7.836 3.81c.907 1.304 1.32 2.894 2.153 4.243 1.8 2.898 5.203 4.293 7.786 6.517a15.09 15.09 0 0 1 4.556 7.423c.756 2.868.65 5.895-.305 8.703-1.54 4.288-5.107 8.083-4.804 12.63.123 1.87.907 3.704.662 5.557-.716 5.158-8.208 6.186-10.795 10.705.208-7.41-1.215-15.04-5.262-21.248-3.236-4.98-13.076-13.676-19.837-11.253-.707.26-1.343.683-1.856 1.233s-.9 1.214-1.1 1.937c-.67 2.54 1.29 3.623 2.55 5.63a17.13 17.13 0 0 1 2.35 6.412 17.1 17.1 0 0 1-.347 6.82z" class="I"/><path opacity=".04" d="M385.757 133.73a29.61 29.61 0 0 0-.648-6.93c-.965-4.528-2.986-8.962-3.172-13.508-.263 5.062 2.107 9.962 3.172 14.944.387 1.807.604 3.646.648 5.493zm19.307 36.748l1.242-2.133c-5.7 2.744-9.028 8.685-11.996 14.274-1.718 3.23-3.48 6.743-3.218 10.338.217-3.084 1.736-6.1 3.218-8.885 2.746-5.167 5.8-10.628 10.754-13.594zm-12.804 29.286c-.172 1.222-.78 2.382-1.894 2.84-1.36.562-3.005-.186-3.916-1.358s-1.274-2.663-1.604-4.112c-1.106-4.828-2.158-9.773-2.266-14.695-.1 5.402 1.042 10.845 2.266 16.153.33 1.444.688 2.943 1.604 4.112s2.542 1.92 3.916 1.358c1.5-.6 2.075-2.472 1.926-4.075-.032-.077-.032-.15-.032-.222zm25.798-96.567a16.41 16.41 0 0 1-.526 3.442c-.788 2.957-2.33 6.236-2.053 9.057.218-2.463 1.396-5.144 2.053-7.612.42-1.593.598-3.24.526-4.887zm-25.566-21.6c.038-1.727-.056-3.454-.28-5.167l-.453-3.908c-.104 1.743.213 3.623.453 5.366a33.59 33.59 0 0 1 .281 3.709zm30.088 44.25c0-.04 0-.073-.032-.114-.344 1.685-1.73 3.225-2.37 4.918a6.9 6.9 0 0 0-.399 3.17c.055-.586.2-1.162.4-1.712.802-2.132 2.8-4.016 2.402-6.262zm-38.54 43.32c-.2-5.466-4.233-9.962-6.205-15.048a10.34 10.34 0 0 1-.634-2.49 8.41 8.41 0 0 0 .634 3.949c1.94 5.018 5.865 9.433 6.182 14.777a13.06 13.06 0 0 0 .023-1.187zm51.73-73.295c-3.24-4.98-13.076-13.676-19.837-11.253a4.81 4.81 0 0 0-1.858 1.233 4.82 4.82 0 0 0-1.102 1.937c-.16.554-.177 1.14-.05 1.703 0-.08.027-.163.05-.245a4.8 4.8 0 0 1 1.101-1.938c.514-.55 1.15-.973 1.86-1.232 6.76-2.423 16.596 6.286 19.837 11.253 3.662 5.624 5.17 12.412 5.27 19.146.095-7.223-1.35-14.6-5.27-20.605zm16.043 10.54c-.7 5.145-8.157 6.182-10.772 10.674v1.485c2.583-4.528 10.08-5.547 10.8-10.705.063-.507.063-1.02 0-1.526-.004.024-.01.05-.02.072zm4.143-18.2c-1.54 4.293-5.108 8.084-4.804 12.635v.2c.335-4.008 3.385-7.486 4.78-11.376.63-1.777.898-3.66.793-5.543a13.88 13.88 0 0 1-.77 4.085zm-38.406 90.755a2.36 2.36 0 0 1-1.482 1.005c-2.17.23-1.813-3.668-3.55-4.98l.113 1.558c1.614 1.395 1.314 5.103 3.436 4.877a2.29 2.29 0 0 0 .84-.353 2.37 2.37 0 0 0 .642-.648c1.935-2.427 2.12-5.493 2.07-8.676-.05 2.653-.435 5.185-2.07 7.218zm-5.488 2.77c-.825 2.124-2.964 3.922-5.216 3.564l-.77-5.1c-1.463 1.435-3.208 2.55-5.126 3.275l-.272 1.557c2.025-.717 3.867-1.868 5.398-3.373l.77 5.1c2.266.353 4.4-1.44 5.216-3.564a11.6 11.6 0 0 0 .594-4.606 9.8 9.8 0 0 1-.594 3.147zm7.688-18.62a25.75 25.75 0 0 0-.195 4.126c.007-.893.072-1.784.195-2.668.8-5.565 4.713-10.66 4.36-16.18-.312 5-3.62 9.65-4.36 14.722z" class="D"/><path d="M469.222 209.957h-92.067c-2.62 0-4.745 2.123-4.745 4.742v48.15c0 2.62 2.125 4.742 4.745 4.742h92.067c2.62 0 4.745-2.123 4.745-4.742V214.7c0-2.62-2.125-4.742-4.745-4.742z" class="I"/><path d="M423.188 242.517c2.068 0 3.744-1.674 3.744-3.74s-1.676-3.74-3.744-3.74-3.743 1.675-3.743 3.74 1.676 3.74 3.743 3.74z" fill="#e7effd"/><g fill="#fff"><path opacity=".6" d="M1028.04 158.296v16.632c0 1.776-.36 3.384-1.08 4.824-.72 1.416-1.82 2.544-3.3 3.384-1.47.816-3.34 1.224-5.62 1.224-3.2 0-5.63-.864-7.3-2.592-1.65-1.752-2.48-4.056-2.48-6.912v-16.56h3.24v16.668c0 2.088.55 3.708 1.66 4.86 1.12 1.152 2.82 1.728 5.07 1.728 2.33 0 4-.612 5.04-1.836 1.06-1.248 1.6-2.844 1.6-4.788v-16.632h3.2zM1052.28 184h-3.67l-6.8-11.16-6.9 11.16h-3.42l8.53-13.392-8-12.312h3.6l6.3 10.08 6.33-10.08h3.42l-7.95 12.24 8.56 13.464zm13.18-25.704L1055.88 184h-3.1l9.57-25.704h3.1zm23.4 0v16.632c0 1.776-.36 3.384-1.08 4.824-.72 1.416-1.82 2.544-3.3 3.384-1.47.816-3.34 1.224-5.62 1.224-3.2 0-5.63-.864-7.3-2.592-1.65-1.752-2.48-4.056-2.48-6.912v-16.56h3.24v16.668c0 2.088.55 3.708 1.66 4.86 1.12 1.152 2.82 1.728 5.07 1.728 2.33 0 4-.612 5.04-1.836 1.06-1.248 1.6-2.844 1.6-4.788v-16.632h3.2zM1102.88 184h-9.3v-1.872l3.03-.684v-20.556l-3.03-.72v-1.872h9.3v1.872l-3.02.72v20.556l3.02.684V184zm34.9-13.104c0 4.344-1.2 7.62-3.57 9.828-2.35 2.184-5.64 3.276-9.86 3.276h-7.16v-25.704h7.92c2.6 0 4.83.48 6.73 1.44 1.9.96 3.36 2.376 4.4 4.248 1.03 1.848 1.55 4.152 1.55 6.912zm-3.42.108c0-3.432-.85-5.94-2.56-7.524-1.68-1.608-4.07-2.412-7.16-2.412h-4.2v20.16h3.5c6.96 0 10.44-3.408 10.44-10.224zm16.14-6.66c1.66 0 3.07.36 4.25 1.08 1.2.72 2.1 1.74 2.74 3.06.64 1.296.97 2.82.97 4.572v1.908h-13.2c.04 2.184.6 3.852 1.65 5.004 1.08 1.128 2.58 1.692 4.5 1.692 1.23 0 2.3-.108 3.24-.324.96-.24 1.95-.576 2.95-1.008v2.772c-.98.432-1.95.744-2.9.936-.96.216-2.1.324-3.42.324-1.83 0-3.45-.372-4.86-1.116-1.4-.744-2.5-1.848-3.28-3.312-.77-1.488-1.15-3.3-1.15-5.436 0-2.112.35-3.924 1.04-5.436.72-1.512 1.72-2.676 3-3.492 1.3-.816 2.8-1.224 4.5-1.224zm-.03 2.592c-1.52 0-2.72.492-3.6 1.476-.87.96-1.38 2.304-1.55 4.032h9.83c-.03-1.632-.4-2.952-1.16-3.96-.74-1.032-1.92-1.548-3.52-1.548zm25.46 11.736c0 1.872-.7 3.288-2.08 4.248-1.4.96-3.27 1.44-5.62 1.44-1.34 0-2.5-.108-3.5-.324-.96-.216-1.8-.516-2.56-.9v-2.88c.77.384 1.7.744 2.77 1.08a12.29 12.29 0 0 0 3.35.468c1.6 0 2.77-.252 3.5-.756.72-.528 1.08-1.224 1.08-2.088a2.26 2.26 0 0 0-.39-1.296c-.27-.384-.75-.768-1.44-1.152-.67-.384-1.65-.816-2.92-1.296-1.25-.48-2.3-.96-3.2-1.44s-1.57-1.056-2.05-1.728-.72-1.536-.72-2.592c0-1.632.66-2.892 1.98-3.78 1.34-.888 3.1-1.332 5.25-1.332 1.18 0 2.27.12 3.28.36 1.03.216 2 .528 2.88.936l-1.08 2.52a21.49 21.49 0 0 0-2.56-.864 10.44 10.44 0 0 0-2.73-.36c-1.3 0-2.3.216-3 .648-.67.408-1 .972-1 1.692 0 .528.16.984.47 1.368.3.36.83.72 1.55 1.08.74.336 1.72.744 2.95 1.224 1.22.456 2.27.924 3.13 1.404s1.52 1.068 1.98 1.764c.46.672.68 1.524.68 2.556zm6.3-21.204c.48 0 .9.168 1.26.504.38.312.57.816.57 1.512 0 .672-.2 1.176-.57 1.512-.36.336-.78.504-1.26.504-.53 0-.98-.168-1.34-.504s-.54-.84-.54-1.512c0-.696.18-1.2.54-1.512.36-.336.8-.504 1.34-.504zm1.54 7.236V184h-3.16v-19.296h3.16zm12.96-.36c1.27 0 2.4.24 3.42.72 1.03.48 1.9 1.212 2.63 2.196h.18l.43-2.556h2.52v19.62c0 2.76-.7 4.836-2.13 6.228-1.4 1.392-3.56 2.088-6.5 2.088-2.83 0-5.15-.408-6.95-1.224V188.5c1.9 1.008 4.27 1.512 7.13 1.512 1.65 0 2.95-.492 3.9-1.476.96-.96 1.44-2.28 1.44-3.96v-.756a34.64 34.64 0 0 1 .03-1.224l.07-1.152h-.14c-1.3 1.944-3.3 2.916-5.98 2.916-2.5 0-4.45-.876-5.86-2.628-1.4-1.752-2.1-4.2-2.1-7.344 0-3.072.7-5.508 2.1-7.308 1.4-1.824 3.36-2.736 5.83-2.736zm.43 2.664c-1.6 0-2.86.648-3.74 1.944-.9 1.272-1.34 3.096-1.34 5.472s.44 4.2 1.3 5.472c.9 1.248 2.17 1.872 3.85 1.872 1.95 0 3.36-.516 4.25-1.548.9-1.056 1.33-2.748 1.33-5.076v-.756c0-2.64-.45-4.524-1.37-5.652-.9-1.152-2.34-1.728-4.28-1.728zm24.16-2.664c2.3 0 4.05.564 5.22 1.692 1.18 1.104 1.77 2.904 1.77 5.4V184h-3.13v-12.348c0-3.096-1.44-4.644-4.32-4.644-2.14 0-3.62.6-4.43 1.8-.82 1.2-1.23 2.928-1.23 5.184V184h-3.16v-19.296h2.55l.47 2.628h.18c.62-1.008 1.5-1.752 2.6-2.232 1.1-.504 2.27-.756 3.5-.756zm20.42 0c1.66 0 3.07.36 4.25 1.08 1.2.72 2.1 1.74 2.74 3.06.64 1.296.97 2.82.97 4.572v1.908h-13.2c.04 2.184.6 3.852 1.65 5.004 1.08 1.128 2.58 1.692 4.5 1.692 1.23 0 2.3-.108 3.24-.324.96-.24 1.95-.576 2.95-1.008v2.772c-.98.432-1.95.744-2.9.936-.96.216-2.1.324-3.42.324-1.83 0-3.45-.372-4.86-1.116-1.4-.744-2.5-1.848-3.28-3.312-.77-1.488-1.15-3.3-1.15-5.436 0-2.112.35-3.924 1.04-5.436.72-1.512 1.72-2.676 3-3.492 1.3-.816 2.8-1.224 4.5-1.224zm-.03 2.592c-1.52 0-2.72.492-3.6 1.476-.87.96-1.38 2.304-1.55 4.032h9.83c-.03-1.632-.4-2.952-1.16-3.96-.74-1.032-1.92-1.548-3.52-1.548zm21.9-2.592a9.88 9.88 0 0 1 1.15.072 6.73 6.73 0 0 1 1.12.144l-.4 2.916a10.42 10.42 0 0 0-1.04-.18c-.36-.048-.7-.072-1.05-.072-.98 0-1.9.276-2.77.828-.86.528-1.56 1.284-2.1 2.268-.5.96-.75 2.088-.75 3.384V184h-3.17v-19.296h2.6l.36 3.528h.15c.62-1.056 1.42-1.968 2.4-2.736.98-.768 2.15-1.152 3.5-1.152z"/><path d="M1034.6 100.24c.6 0 1.8.656 3.55 1.968 1.8 1.28 2.7 2.24 2.7 2.88 0 1.12.37 2.96 1.1 5.52.73 2.56 1.58 4.88 2.54 6.96l4.85-6.192 5.8-7.2c1.56-1.76 2.73-2.64 3.5-2.64s1.57.432 2.4 1.296 1.25 1.728 1.25 2.592-.13 1.984-.4 3.36l-.86 3.792-1.3 4.752-1.3 4.8-.9 3.744-1.35 5.472-.53 1.872c-.16.416-.33.8-.52 1.152-.36.672-.85 1.008-1.5 1.008s-1.28-.624-1.92-1.872a9.15 9.15 0 0 1-.91-3.984c0-3.392.97-7.888 2.92-13.488l-2.35 3.12-2.3 2.976a49.47 49.47 0 0 1-1.83 2.16c-1.3 1.44-2.6 2.16-3.84 2.16-1.66 0-2.84-.656-3.55-1.968-.35-.672-.83-2.176-1.44-4.512l-1.25-4.896c-.4 3.296-.97 6.288-1.68 8.976l-1.4 5.28c-.22.832-.53 1.84-.9 3.024-.64 2.016-1.22 3.024-1.73 3.024-.57 0-1.37-.752-2.4-2.256-1-1.536-1.5-2.736-1.5-3.6s.93-5.184 2.8-12.96c1.9-7.776 2.83-12.688 2.83-14.736 0-1.056.46-1.584 1.4-1.584zm56.92 17.136c1.28 0 2.2.128 2.74.384.58.224.86.656.86 1.296 0 .864-1.4 1.744-4.17 2.64l.1 7.008c0 2.208-.17 3.872-.52 4.992-.36 1.088-.92 1.632-1.68 1.632-.77 0-1.38-.384-1.83-1.152-.4-.8-.77-2.096-1.05-3.888-.26-1.792-.53-4.16-.82-7.104-3.26.736-5.62 1.328-7.06 1.776-2.5 6.912-4.16 10.368-5 10.368-.67 0-1.57-.448-2.7-1.344-1.08-.896-1.63-1.824-1.63-2.784 0-.544.63-2.24 1.87-5.088-.54-.352-1.02-.848-1.44-1.488-.38-.672-.57-1.312-.57-1.92 0-1.056 1.58-2.064 4.75-3.024.26-.64.5-1.36.77-2.16l2.06-5.76c1.12-3.008 2-5.52 2.64-7.536.3-.96 1.28-1.856 2.98-2.688 1.73-.832 3.07-1.248 4.03-1.248 1.12 0 2.1 1.552 2.98 4.656.9 3.104 1.52 7.248 1.87 12.432h.8zm-11.08.816c.96-.128 2.35-.288 4.17-.48l-.48-4.752-.43-4.848c-.54 1.792-1.63 5.152-3.26 10.08zm48.9 15.456c0 1.312-.9 1.968-2.73 1.968-2.5 0-5.12-1.296-7.88-3.888-2.72-2.592-4.65-5.296-5.8-8.112l-1.06 3.12c-.2.544-.48 1.408-.86 2.592-.4 1.184-.7 2.064-.92 2.64a28.82 28.82 0 0 1-.67 1.824c-.48 1.216-.94 1.824-1.4 1.824-.74 0-1.63-.608-2.7-1.824-1.02-1.248-1.53-2.256-1.53-3.024s.36-2.192 1.1-4.272c2.18-6.368 3.42-12.176 3.74-17.424-.6-.48-1.15-1.152-1.63-2.016s-.72-1.584-.72-2.16c0-.96 1.23-1.968 3.7-3.024 2.5-1.056 5.36-1.584 8.6-1.584 3.26 0 5.98.768 8.16 2.304s3.26 3.536 3.26 6c0 1.824-.54 3.584-1.63 5.28-1.05 1.664-2.22 2.976-3.5 3.936l-3.5 2.544c-1.05.768-1.58 1.264-1.58 1.488 0 .768.26 1.504.77 2.208.5.672 1.23 1.472 2.16 2.4l2.4 2.304a52.14 52.14 0 0 1 1.63 1.536c.45.416.88.848 1.3 1.296.86.832 1.3 1.52 1.3 2.064zm-6.72-24.576c0-1.344-1.3-2.016-3.93-2.016-1.25 0-2.74.352-4.47 1.056.8 1.216 1.2 2.336 1.2 3.36 0 1.856-.25 3.904-.77 6.144.36-.256 1-.704 1.97-1.344l2.2-1.584c.54-.416 1.15-.944 1.82-1.584 1.32-1.248 1.97-2.592 1.97-4.032zm27.63 7.536c.58 0 1.58-1.376 3.02-4.128l4.47-8.208c1.5-2.752 2.62-4.128 3.36-4.128 1.1 0 1.98.496 2.7 1.488.73.992 1.1 2.176 1.1 3.552 0 .96-.83 2.816-2.5 5.568l-6.33 10.128c-2.56 4.032-4.53 7.456-5.9 10.272-.4.896-1.08 1.824-2 2.784s-1.83 1.44-2.7 1.44c-1.28 0-1.92-1.024-1.92-3.072 0-1.216 1.22-4.048 3.65-8.496.38-.704.65-1.232.8-1.584-1.4-.544-2.68-1.44-3.84-2.688-1.15-1.248-2.06-2.656-2.73-4.224-1.4-3.296-2.1-6.496-2.1-9.6 0-1.92.2-3.328.62-4.224.45-.896 1.34-1.344 2.7-1.344.7 0 1.23.496 1.58 1.488.35.96.67 2.352.96 4.176s.7 3.44 1.2 4.848c.55 1.376 1.2 2.72 1.97 4.032.8 1.28 1.44 1.92 1.92 1.92zm41.64.768c1.28 0 2.2.128 2.74.384.57.224.86.656.86 1.296 0 .864-1.4 1.744-4.17 2.64l.1 7.008c0 2.208-.17 3.872-.53 4.992-.35 1.088-.9 1.632-1.68 1.632-.76 0-1.37-.384-1.82-1.152-.42-.8-.77-2.096-1.06-3.888-.25-1.792-.52-4.16-.8-7.104-3.27.736-5.62 1.328-7.06 1.776-2.5 6.912-4.16 10.368-5 10.368-.67 0-1.57-.448-2.7-1.344-1.1-.896-1.63-1.824-1.63-2.784 0-.544.62-2.24 1.87-5.088-.54-.352-1.02-.848-1.44-1.488-.38-.672-.57-1.312-.57-1.92 0-1.056 1.58-2.064 4.75-3.024a39.47 39.47 0 0 0 .77-2.16c.28-.832.97-2.752 2.06-5.76 1.12-3.008 2-5.52 2.64-7.536.3-.96 1.28-1.856 2.98-2.688 1.72-.832 3.07-1.248 4.03-1.248 1.12 0 2.1 1.552 2.97 4.656.9 3.104 1.52 7.248 1.88 12.432h.8zm-11.1.816c.96-.128 2.36-.288 4.18-.48l-.48-4.752-.43-4.848-3.27 10.08zm30.3-17.952c.6 0 1.8.656 3.55 1.968 1.8 1.28 2.7 2.24 2.7 2.88 0 1.12.36 2.96 1.1 5.52s1.58 4.88 2.54 6.96c.96-1.12 2.58-3.184 4.85-6.192 2.3-3.04 4.24-5.44 5.8-7.2s2.74-2.64 3.5-2.64c.77 0 1.57.432 2.4 1.296.84.864 1.25 1.728 1.25 2.592s-.13 1.984-.38 3.36c-.26 1.344-.55 2.608-.87 3.792-.28 1.152-.72 2.736-1.3 4.752l-1.3 4.8-.9 3.744-.77 3.12a54.63 54.63 0 0 1-.57 2.352c-.2.8-.37 1.424-.53 1.872a9.93 9.93 0 0 1-.53 1.152c-.35.672-.85 1.008-1.5 1.008s-1.28-.624-1.92-1.872a9.15 9.15 0 0 1-.91-3.984c0-3.392.98-7.888 2.93-13.488-.55.704-1.33 1.744-2.35 3.12l-2.3 2.976c-.48.608-1.1 1.328-1.82 2.16-1.3 1.44-2.6 2.16-3.84 2.16-1.67 0-2.85-.656-3.55-1.968-.36-.672-.84-2.176-1.44-4.512l-1.25-4.896c-.42 3.296-.98 6.288-1.68 8.976l-1.4 5.28c-.23.832-.53 1.84-.92 3.024-.64 2.016-1.2 3.024-1.72 3.024-.58 0-1.38-.752-2.4-2.256-1-1.536-1.5-2.736-1.5-3.6s.93-5.184 2.78-12.96c1.9-7.776 2.83-12.688 2.83-14.736 0-1.056.47-1.584 1.4-1.584z"/></g><defs><linearGradient id="A" x1="400.515" y1="331.011" x2="400.515" y2="0" gradientUnits="userSpaceOnUse"><stop offset=".2" stop-color="gray" stop-opacity=".4"/><stop offset=".46" stop-color="gray" stop-opacity=".5"/><stop offset="1" stop-opacity=".4"/></linearGradient><linearGradient id="B" x1="430.015" y1="305.922" x2="430.015" y2="54.976" gradientUnits="userSpaceOnUse"><stop stop-color="gray" stop-opacity=".25"/><stop offset=".54" stop-color="gray" stop-opacity=".12"/><stop offset="1" stop-color="gray" stop-opacity=".1"/></linearGradient><path id="C" d="M202.674 196.55a1.09 1.09 0 0 0 1.09-1.089 1.09 1.09 0 0 0-1.09-1.088 1.09 1.09 0 0 0-1.089 1.088 1.09 1.09 0 0 0 1.089 1.089z"/><path id="D" d="M765.203 52.624a1.09 1.09 0 0 0 1.089-1.089 1.09 1.09 0 0 0-1.089-1.089 1.09 1.09 0 0 0-1.09 1.089 1.09 1.09 0 0 0 1.09 1.089z"/><path id="E" d="M47.837 22.167a1.09 1.09 0 0 0 1.09-1.089 1.09 1.09 0 0 0-1.09-1.089 1.09 1.09 0 0 0-1.09 1.089 1.09 1.09 0 0 0 1.09 1.089z"/><path id="F" d="M213 142.48h-21v8.242h21v-8.242z"/><path id="G" d="M577.712 232.514s-3.713 17.283 12.813 19.332l1.023-1.918s-12.797-12.02-13.836-17.414z"/><path id="H" d="M596.82 249.814l-4.21.896s-10.253-8.317-10.122-26.884c1.372 2.736 3.012 5.33 4.894 7.743 4.053 5.37 8.674 12.546 9.44 18.245z"/><path id="I" d="M598.12 251.595a2.43 2.43 0 0 1-1.003.367 2.41 2.41 0 0 1-1.064-.099c-9.844-2.306-6.535-34.425-6.535-34.425.547.257 1.143 4.372 3.412 9.617 3.98 9.284 8.356 22.212 5.2 24.54z"/><path id="J" d="M620.006 232.514s.64 17.283-15.886 19.332l-1.023-1.918s15.886-12.02 16.91-17.414z"/><path id="K" d="M615.27 223.826c.12 18.578-13.2 26.884-13.2 26.884l-.383-.082-3.828-.814c.76-5.7 5.392-12.874 9.45-18.245a41.54 41.54 0 0 1 7.962-7.743z"/><path id="L" d="M601.626 249.912c-.59.72-1.34 1.296-2.187 1.683a4.24 4.24 0 0 1-.804.268c-2.428.546-3.28-1.18-3.14-4.153.23-5.295 3.56-14.475 6.562-21.3 2.155-4.95 5.67-8.7 6.196-8.945-.033-.027-.18 24.993-6.628 32.457z"/><path id="M" d="M242.357 232.354s-3.713 17.283 12.813 19.332l1.022-1.918s-12.796-12.02-13.835-17.414z"/><path id="N" d="M261.464 249.653l-4.21.896S247 242.233 247.13 223.666c1.372 2.735 3.012 5.33 4.894 7.742 4.053 5.372 8.673 12.546 9.44 18.245z"/><path id="O" d="M262.766 251.434c-.303.196-.646.322-1.004.368a2.43 2.43 0 0 1-1.064-.1c-9.843-2.306-6.534-34.424-6.534-34.424.546.257 1.143 4.37 3.412 9.617 3.98 9.283 8.356 22.212 5.2 24.54z"/><path id="P" d="M279.915 223.666c.12 18.578-13.2 26.883-13.2 26.883l-.383-.082-3.828-.814c.76-5.7 5.392-12.873 9.45-18.245 2.295-2.925 4.973-5.53 7.962-7.742z"/><path id="Q" d="M266.27 249.752c-.59.72-1.34 1.296-2.187 1.683-.26.116-.528.205-.804.267-2.428.547-3.28-1.18-3.14-4.152.23-5.295 3.56-14.475 6.562-21.31 2.155-4.95 5.67-8.7 6.196-8.945-.033-.027-.18 24.994-6.628 32.458z"/></defs></svg>