<svg width="375" height="302" viewBox="0 0 375 302" fill="none" xmlns="http://www.w3.org/2000/svg">
<path d="M0 302V0H375V302H77.0833H0Z" fill="#83649C"/>
<path d="M0 302V0H375V302H0Z" fill="url(#paint0_linear)"/>
<path d="M41.5736 150.072C42.033 150.072 42.4054 149.7 42.4054 149.241C42.4054 148.782 42.033 148.41 41.5736 148.41C41.1141 148.41 40.7417 148.782 40.7417 149.241C40.7417 149.7 41.1141 150.072 41.5736 150.072Z" fill="#E7EFFD"/>
<path d="M146.495 76.4896C146.955 76.4896 147.327 76.1174 147.327 75.6583C147.327 75.1993 146.955 74.8271 146.495 74.8271C146.036 74.8271 145.664 75.1993 145.664 75.6583C145.664 76.1174 146.036 76.4896 146.495 76.4896Z" fill="#E7EFFD"/>
<path d="M216.832 69.6624C217.291 69.6624 217.664 69.2903 217.664 68.8312C217.664 68.3721 217.291 68 216.832 68C216.372 68 216 68.3721 216 68.8312C216 69.2903 216.372 69.6624 216.832 69.6624Z" fill="#E7EFFD"/>
<path d="M125.832 160.662C126.291 160.662 126.664 160.29 126.664 159.831C126.664 159.372 126.291 159 125.832 159C125.372 159 125 159.372 125 159.831C125 160.29 125.372 160.662 125.832 160.662Z" fill="#E7EFFD"/>
<path d="M13.4042 99.6016H12.1332V98.3315H11.9058V99.6016H10.6348V99.8287H11.9058V101.099H12.1332V99.8287H13.4042V99.6016Z" fill="#E7EFFD"/>
<path d="M277.576 73.2041H276.305V71.9341H276.073V73.2041H274.807V73.4313H276.073V74.7013H276.305V73.4313H277.576V73.2041Z" fill="#E7EFFD"/>
<path d="M43.5111 68.0669H42.2401V66.7969H42.0076V68.0669H40.7417V68.2992H42.0076V69.5641H42.2401V68.2992H43.5111V68.0669Z" fill="#E7EFFD"/>
<path d="M82.358 12.216C81.8986 12.216 81.5262 12.5882 81.5262 13.0472C81.5262 13.5063 81.8986 13.8784 82.358 13.8784C82.8175 13.8784 83.1899 13.5063 83.1899 13.0472C83.1899 12.5882 82.8175 12.216 82.358 12.216Z" fill="#E7EFFD"/>
<path d="M325.87 19.1973H327.141V20.4673H327.374V19.1973H328.64V18.9649H327.374V17.7001H327.141V18.9649H325.87V19.1973Z" fill="#E7EFFD"/>
<path d="M306.201 31.1067C306.66 31.1067 307.032 30.7346 307.032 30.2755C307.032 29.8165 306.66 29.4443 306.201 29.4443C305.741 29.4443 305.369 29.8165 305.369 30.2755C305.369 30.7346 305.741 31.1067 306.201 31.1067Z" fill="#E7EFFD"/>
<path d="M24.4666 31.8714C24.9261 31.8714 25.2985 31.4992 25.2985 31.0402C25.2985 30.5811 24.9261 30.209 24.4666 30.209C24.0072 30.209 23.6348 30.5811 23.6348 31.0402C23.6348 31.4992 24.0072 31.8714 24.4666 31.8714Z" fill="#E7EFFD"/>
<path d="M265.201 30.2083C265.661 30.2083 266.033 29.8362 266.033 29.3771C266.033 28.918 265.661 28.5459 265.201 28.5459C264.742 28.5459 264.37 28.918 264.37 29.3771C264.37 29.8362 264.742 30.2083 265.201 30.2083Z" fill="#E7EFFD"/>
<path d="M261.789 36.0218C262.249 36.0218 262.621 35.6496 262.621 35.1906C262.621 34.7315 262.249 34.3594 261.789 34.3594C261.33 34.3594 260.958 34.7315 260.958 35.1906C260.958 35.6496 261.33 36.0218 261.789 36.0218Z" fill="#E7EFFD"/>
<path d="M100.832 102.662C101.291 102.662 101.664 102.29 101.664 101.831C101.664 101.372 101.291 101 100.832 101C100.372 101 100 101.372 100 101.831C100 102.29 100.372 102.662 100.832 102.662Z" fill="#E7EFFD"/>
<path d="M355.832 86.0002C355.372 86.0002 355 86.3723 355 86.8314C355 87.2905 355.372 87.6626 355.832 87.6626C356.291 87.6626 356.664 87.2905 356.664 86.8314C356.664 86.3723 356.291 86.0002 355.832 86.0002Z" fill="#E7EFFD"/>
<path d="M240.832 122.662C241.291 122.662 241.664 122.29 241.664 121.831C241.664 121.372 241.291 121 240.832 121C240.372 121 240 121.372 240 121.831C240 122.29 240.372 122.662 240.832 122.662Z" fill="#E7EFFD"/>
<path d="M159.832 33.6624C160.291 33.6624 160.664 33.2903 160.664 32.8312C160.664 32.3721 160.291 32 159.832 32C159.372 32 159 32.3721 159 32.8312C159 33.2903 159.372 33.6624 159.832 33.6624Z" fill="#E7EFFD"/>
<path d="M7.76387 127.056V150.726H0V253L375 250.331V180.885H362.044V104.15H288.363V161.797H213.155V193.865H102.06V127.056H7.76387Z" fill="#83649C"/>
<path opacity="0.3" d="M7.76387 127.056V150.726H0V250.007L7.3821 253.803H375V180.885H362.044V104.15H288.363V161.797H213.155V193.865H102.06V127.056H7.76387Z" fill="black"/>
<path opacity="0.4" d="M146.345 204.937H107.404V210.562H146.345V204.937Z" fill="black"/>
<path opacity="0.4" d="M146.345 222.883H107.404V228.508H146.345V222.883Z" fill="black"/>
<path opacity="0.4" d="M35.6333 141.564H19.5991V147.857H35.6333V141.564Z" fill="black"/>
<path d="M35.6329 155.673H19.5986V161.966H35.6329V155.673Z" fill="#83649C"/>
<path opacity="0.4" d="M35.6329 169.778H19.5986V176.071H35.6329V169.778Z" fill="black"/>
<path opacity="0.4" d="M35.6329 183.887H19.5986V190.18H35.6329V183.887Z" fill="black"/>
<path opacity="0.4" d="M35.6329 197.992H19.5986V204.285H35.6329V197.992Z" fill="black"/>
<path opacity="0.4" d="M35.6329 212.103H19.5986V218.396H35.6329V212.103Z" fill="black"/>
<path opacity="0.4" d="M35.6329 226.208H19.5986V232.501H35.6329V226.208Z" fill="black"/>
<path opacity="0.4" d="M63.1207 141.564H47.0864V147.857H63.1207V141.564Z" fill="black"/>
<path opacity="0.4" d="M63.1192 155.673H47.085V161.966H63.1192V155.673Z" fill="black"/>
<path opacity="0.4" d="M63.1192 169.778H47.085V176.071H63.1192V169.778Z" fill="black"/>
<path opacity="0.4" d="M63.1192 183.887H47.085V190.18H63.1192V183.887Z" fill="black"/>
<path opacity="0.4" d="M63.1192 197.992H47.085V204.285H63.1192V197.992Z" fill="black"/>
<path opacity="0.4" d="M63.1192 212.103H47.085V218.396H63.1192V212.103Z" fill="black"/>
<path opacity="0.4" d="M63.1192 226.208H47.085V232.501H63.1192V226.208Z" fill="black"/>
<path opacity="0.4" d="M90.607 141.564H74.5728V147.857H90.607V141.564Z" fill="black"/>
<path opacity="0.4" d="M90.607 155.673H74.5728V161.966H90.607V155.673Z" fill="black"/>
<path opacity="0.4" d="M90.607 169.778H74.5728V176.071H90.607V169.778Z" fill="black"/>
<path d="M90.607 183.887H74.5728V190.18H90.607V183.887Z" fill="#83649C"/>
<path opacity="0.4" d="M90.607 197.992H74.5728V204.285H90.607V197.992Z" fill="black"/>
<path opacity="0.4" d="M90.607 212.103H74.5728V218.396H90.607V212.103Z" fill="black"/>
<path opacity="0.4" d="M90.607 226.208H74.5728V232.501H90.607V226.208Z" fill="black"/>
<path opacity="0.4" d="M312.204 114.841H302.871V121.134H312.204V114.841Z" fill="black"/>
<path opacity="0.4" d="M330.699 114.839H321.366V121.133H330.699V114.839Z" fill="black"/>
<path opacity="0.4" d="M349.194 114.839H339.861V121.133H349.194V114.839Z" fill="black"/>
<path opacity="0.4" d="M312.204 134.071H302.871V140.364H312.204V134.071Z" fill="black"/>
<path d="M330.699 134.071H321.366V140.364H330.699V134.071Z" fill="#83649C"/>
<path opacity="0.4" d="M349.194 134.071H339.861V140.364H349.194V134.071Z" fill="black"/>
<path opacity="0.4" d="M312.204 153.299H302.871V159.592H312.204V153.299Z" fill="black"/>
<path opacity="0.4" d="M330.699 153.299H321.366V159.592H330.699V153.299Z" fill="black"/>
<path d="M349.194 153.299H339.861V159.592H349.194V153.299Z" fill="#83649C"/>
<path opacity="0.4" d="M312.204 172.531H302.871V178.824H312.204V172.531Z" fill="black"/>
<path opacity="0.4" d="M330.699 172.531H321.366V178.824H330.699V172.531Z" fill="black"/>
<path opacity="0.4" d="M349.194 172.531H339.861V178.824H349.194V172.531Z" fill="black"/>
<path opacity="0.4" d="M312.204 191.762H302.871V198.055H312.204V191.762Z" fill="black"/>
<path opacity="0.4" d="M330.699 191.762H321.366V198.055H330.699V191.762Z" fill="black"/>
<path opacity="0.4" d="M349.194 191.762H339.861V198.055H349.194V191.762Z" fill="black"/>
<path opacity="0.4" d="M312.204 211.044H302.871V217.337H312.204V211.044Z" fill="black"/>
<path opacity="0.4" d="M330.699 211.044H321.366V217.337H330.699V211.044Z" fill="black"/>
<path opacity="0.4" d="M349.194 211.044H339.861V217.337H349.194V211.044Z" fill="black"/>
<path opacity="0.4" d="M244.841 169.814H228.807V176.107H244.841V169.814Z" fill="black"/>
<path opacity="0.4" d="M244.841 183.923H228.807V190.216H244.841V183.923Z" fill="black"/>
<path opacity="0.4" d="M244.841 198.029H228.807V204.322H244.841V198.029Z" fill="black"/>
<path d="M244.841 212.137H228.807V218.43H244.841V212.137Z" fill="#83649C"/>
<path opacity="0.4" d="M244.841 226.244H228.807V232.537H244.841V226.244Z" fill="black"/>
<path opacity="0.4" d="M274.62 169.814H258.586V176.107H274.62V169.814Z" fill="black"/>
<path d="M274.619 183.923H258.585V190.216H274.619V183.923Z" fill="#83649C"/>
<path opacity="0.4" d="M274.619 198.029H258.585V204.322H274.619V198.029Z" fill="black"/>
<path opacity="0.4" d="M274.619 212.137H258.585V218.43H274.619V212.137Z" fill="black"/>
<path opacity="0.4" d="M274.619 226.244H258.585V232.537H274.619V226.244Z" fill="black"/>
<path d="M70 2.76874e-06V244.929L66 245V0C67.4236 5.94106e-06 67.8392 -5.94106e-06 70 2.76874e-06Z" fill="#3F3D56"/>
<path d="M184 0V274.762C182.875 274.829 182.875 274.829 181 275V0H184Z" fill="#3F3D56"/>
<path d="M297 2V254.781C295.875 254.843 295.875 254.843 294 255V2H297Z" fill="#3F3D56"/>
<path d="M373.989 47H1.07522e-05C1.07522e-05 45.8 0 44.6 0 43H375C373.989 47 375 43 373.989 47Z" fill="#3F3D56"/>
<path d="M373.991 227H1.00001C1.00001 225.8 1 224.6 1 223H375C373.991 227 375 223 373.991 227Z" fill="#3F3D56"/>
<path d="M374.245 137C374.247 136.987 373.769 137 374.245 137H0C4.87577e-06 135.646 6.07738e-06 134.33 4.87577e-06 133H375C374.524 135.4 375 133 374.245 137Z" fill="#3F3D56"/>
<path d="M0 302V249.938C41.4538 233.211 344.575 227.066 375 249.938V302H0Z" fill="#3F3D56"/>
<path d="M298.548 233.539C298.548 233.539 295.713 246.735 308.331 248.299L309.112 246.835C309.112 246.835 299.341 237.656 298.548 233.539Z" fill="#83649C"/>
<path d="M313.137 246.747L310.214 247.369L309.922 247.431C309.922 247.431 302.093 241.082 302.193 226.905C303.241 228.994 304.493 230.974 305.93 232.817C309.024 236.918 312.553 242.396 313.137 246.747Z" fill="#83649C"/>
<path d="M314.131 248.107C313.9 248.256 313.638 248.352 313.365 248.387C313.092 248.422 312.815 248.396 312.553 248.311C305.037 246.55 307.563 222.027 307.563 222.027C307.981 222.223 308.436 225.365 310.169 229.37C313.209 236.458 316.549 246.329 314.131 248.107Z" fill="#83649C"/>
<path d="M330.841 233.539C330.841 233.539 331.329 246.735 318.711 248.299L317.93 246.835C317.93 246.835 330.06 237.656 330.841 233.539Z" fill="#83649C"/>
<path d="M327.225 226.905C327.317 241.09 317.145 247.431 317.145 247.431L316.853 247.369L313.93 246.747C314.511 242.396 318.047 236.918 321.145 232.817C322.898 230.583 324.943 228.595 327.225 226.905V226.905Z" fill="#83649C"/>
<path d="M316.807 246.822C316.356 247.372 315.785 247.811 315.137 248.107C314.94 248.195 314.734 248.264 314.523 248.311C312.67 248.728 312.018 247.41 312.127 245.14C312.302 241.098 314.845 234.089 317.137 228.869C318.782 225.089 321.467 222.227 321.868 222.04C321.843 222.019 321.73 241.123 316.807 246.822Z" fill="#83649C"/>
<path d="M314.703 213.416C314.703 213.416 306.29 243.23 313.53 247.727C320.77 252.225 316.561 216.057 314.703 213.416Z" fill="#83649C"/>
<path opacity="0.1" d="M298.548 233.539C298.548 233.539 295.713 246.735 308.331 248.299L309.112 246.835C309.112 246.835 299.341 237.656 298.548 233.539Z" fill="black"/>
<path opacity="0.1" d="M313.137 246.747L310.214 247.369L309.922 247.431C309.922 247.431 302.093 241.082 302.193 226.905C303.241 228.994 304.493 230.974 305.93 232.817C309.024 236.918 312.553 242.396 313.137 246.747Z" fill="black"/>
<path opacity="0.1" d="M314.131 248.107C313.9 248.256 313.638 248.352 313.365 248.387C313.092 248.422 312.815 248.396 312.553 248.311C305.037 246.55 307.563 222.027 307.563 222.027C307.981 222.223 308.436 225.365 310.169 229.37C313.209 236.458 316.549 246.329 314.131 248.107Z" fill="black"/>
<path opacity="0.1" d="M330.841 233.539C330.841 233.539 331.329 246.735 318.711 248.299L317.93 246.835C317.93 246.835 330.06 237.656 330.841 233.539Z" fill="black"/>
<path opacity="0.1" d="M327.225 226.905C327.317 241.09 317.145 247.431 317.145 247.431L316.853 247.369L313.93 246.747C314.511 242.396 318.047 236.918 321.145 232.817C322.898 230.583 324.943 228.595 327.225 226.905V226.905Z" fill="black"/>
<path opacity="0.1" d="M316.807 246.822C316.356 247.372 315.785 247.811 315.137 248.107C314.94 248.195 314.734 248.264 314.523 248.311C312.67 248.728 312.018 247.41 312.127 245.14C312.302 241.098 314.845 234.089 317.137 228.869C318.782 225.089 321.467 222.227 321.868 222.04C321.843 222.019 321.73 241.123 316.807 246.822Z" fill="black"/>
<path opacity="0.1" d="M314.703 213.416C314.703 213.416 306.29 243.23 313.53 247.727C320.77 252.225 316.561 216.057 314.703 213.416Z" fill="black"/>
<path d="M298.548 233.539C298.548 233.539 296.878 246.735 309.505 248.299L310.285 246.835C310.285 246.835 299.342 237.656 298.548 233.539Z" fill="#83649C"/>
<path d="M314.31 246.747L311.387 247.369L311.091 247.431C311.091 247.431 302.089 241.082 302.189 226.905C302.189 226.905 304.494 229.375 307.099 232.817C310.197 236.918 313.726 242.396 314.31 246.747Z" fill="#83649C"/>
<path opacity="0.1" d="M314.31 246.746L311.387 247.368C308.602 244.927 307.5 238.557 307.099 232.816C310.197 236.917 313.726 242.395 314.31 246.746Z" fill="black"/>
<path d="M315.304 248.107C315.073 248.256 314.811 248.352 314.538 248.387C314.265 248.422 313.987 248.396 313.726 248.311C306.189 246.55 307.563 222.027 307.563 222.027C307.98 222.223 309.609 225.365 311.321 229.37C314.381 236.458 317.722 246.329 315.304 248.107Z" fill="#83649C"/>
<path d="M330.841 233.539C330.841 233.539 332.511 246.735 319.885 248.299L319.104 246.835C319.104 246.835 330.06 237.656 330.841 233.539Z" fill="#83649C"/>
<path d="M327.225 226.905C327.317 241.09 318.319 247.431 318.319 247.431L318.027 247.369L315.104 246.747C315.689 242.396 319.221 236.918 322.319 232.817C324.916 229.366 327.225 226.905 327.225 226.905Z" fill="#83649C"/>
<path opacity="0.1" d="M322.307 232.816C321.931 238.173 320.95 244.081 318.57 246.822C318.404 247.018 318.222 247.201 318.027 247.368L315.104 246.746C315.668 242.395 319.208 236.917 322.307 232.816Z" fill="black"/>
<path d="M317.981 246.822C317.53 247.372 316.958 247.811 316.311 248.107C316.112 248.195 315.905 248.264 315.693 248.311C313.839 248.728 313.188 247.41 313.296 245.14C313.476 241.098 316.014 234.089 318.307 228.869C319.952 225.089 321.463 222.227 321.864 222.04C321.843 222.019 322.904 241.123 317.981 246.822Z" fill="#83649C"/>
<path opacity="0.1" d="M315.304 248.106C314.878 248.104 314.463 247.971 314.114 247.726C310.569 245.519 310.498 237.238 311.341 229.369C314.381 236.458 317.721 246.329 315.304 248.106Z" fill="black"/>
<path opacity="0.1" d="M317.98 246.822C317.562 247.702 317.024 248.169 316.31 248.107C315.948 248.059 315.603 247.929 315.299 247.727C314.378 247.094 313.678 246.19 313.295 245.14C313.474 241.098 316.013 234.088 318.305 228.869C319.099 236.124 319.37 243.839 317.98 246.822Z" fill="black"/>
<path d="M314.703 213.416C314.703 213.416 307.463 243.23 314.703 247.727C321.943 252.225 316.561 216.057 314.703 213.416Z" fill="#83649C"/>
<path d="M328.595 246.259H298.465V251.245H303.062L303.175 251.833L305.016 261.508H322.532L324.373 251.833L324.486 251.245H328.595V246.259Z" fill="#D4DFEC"/>
<path opacity="0.1" d="M328.582 246.259H298.452V251.245H303.049L303.162 251.833L305.003 261.508H322.519L324.361 251.833L324.473 251.245H328.582V246.259Z" fill="black"/>
<path d="M326.052 249.192L325.547 251.833L323.705 261.508H306.189L304.348 251.833L303.843 249.192H326.052Z" fill="#D4DFEC"/>
<path opacity="0.1" d="M326.052 249.192L325.547 251.833H304.348L303.843 249.192H326.052Z" fill="black"/>
<path d="M329.767 246.259H299.637V251.245H329.767V246.259Z" fill="#D4DFEC"/>
<path d="M42.4923 233.416C42.4923 233.416 39.6571 246.612 52.2753 248.177L53.0561 246.712C53.0561 246.712 43.2856 237.534 42.4923 233.416Z" fill="#83649C"/>
<path d="M57.0814 246.625L54.1586 247.247L53.8664 247.309C53.8664 247.309 46.0375 240.959 46.1377 226.783C47.1854 228.872 48.4371 230.852 49.8747 232.695C52.9686 236.796 56.4969 242.274 57.0814 246.625Z" fill="#83649C"/>
<path d="M58.0758 247.985C57.8445 248.134 57.5828 248.23 57.3097 248.266C57.0367 248.301 56.7592 248.275 56.4974 248.189C48.9817 246.429 51.5078 221.905 51.5078 221.905C51.9254 222.101 52.3805 225.243 54.1133 229.248C57.153 236.337 60.4933 246.208 58.0758 247.985Z" fill="#83649C"/>
<path d="M74.785 233.416C74.785 233.416 75.2735 246.612 62.6553 248.177L61.8745 246.712C61.8745 246.712 74.0042 237.534 74.785 233.416Z" fill="#83649C"/>
<path d="M71.1695 226.783C71.2614 240.968 61.0901 247.309 61.0901 247.309L60.7978 247.247L57.875 246.625C58.4554 242.274 61.992 236.796 65.0901 232.695C66.8427 230.461 68.8874 228.473 71.1695 226.783V226.783Z" fill="#83649C"/>
<path d="M60.7522 246.699C60.3008 247.249 59.7295 247.689 59.082 247.984C58.8848 248.073 58.6792 248.141 58.4682 248.189C56.6143 248.606 55.963 247.287 56.0715 245.018C56.2469 240.975 58.7897 233.966 61.082 228.747C62.7272 224.967 65.4119 222.105 65.8128 221.917C65.7877 221.896 65.675 241 60.7522 246.699Z" fill="#83649C"/>
<path d="M58.6475 213.294C58.6475 213.294 50.234 243.108 57.4742 247.605C64.7143 252.103 60.5055 215.935 58.6475 213.294Z" fill="#83649C"/>
<path opacity="0.1" d="M42.4923 233.416C42.4923 233.416 39.6571 246.612 52.2753 248.177L53.0561 246.712C53.0561 246.712 43.2856 237.534 42.4923 233.416Z" fill="black"/>
<path opacity="0.1" d="M57.0814 246.625L54.1586 247.247L53.8664 247.309C53.8664 247.309 46.0375 240.959 46.1377 226.783C47.1854 228.872 48.4371 230.852 49.8747 232.695C52.9686 236.796 56.4969 242.274 57.0814 246.625Z" fill="black"/>
<path opacity="0.1" d="M58.0758 247.985C57.8445 248.134 57.5828 248.23 57.3097 248.266C57.0367 248.301 56.7592 248.275 56.4974 248.189C48.9817 246.429 51.5078 221.905 51.5078 221.905C51.9254 222.101 52.3805 225.243 54.1133 229.248C57.153 236.337 60.4933 246.208 58.0758 247.985Z" fill="black"/>
<path opacity="0.1" d="M74.785 233.416C74.785 233.416 75.2735 246.612 62.6553 248.177L61.8745 246.712C61.8745 246.712 74.0042 237.534 74.785 233.416Z" fill="black"/>
<path opacity="0.1" d="M71.1695 226.783C71.2614 240.968 61.0901 247.309 61.0901 247.309L60.7978 247.247L57.875 246.625C58.4554 242.274 61.992 236.796 65.0901 232.695C66.8427 230.461 68.8874 228.473 71.1695 226.783V226.783Z" fill="black"/>
<path opacity="0.1" d="M60.7522 246.699C60.3008 247.249 59.7295 247.689 59.082 247.984C58.8848 248.073 58.6792 248.141 58.4682 248.189C56.6143 248.606 55.963 247.287 56.0715 245.018C56.2469 240.975 58.7897 233.966 61.082 228.747C62.7272 224.967 65.4119 222.105 65.8128 221.917C65.7877 221.896 65.675 241 60.7522 246.699Z" fill="black"/>
<path opacity="0.1" d="M58.6475 213.294C58.6475 213.294 50.234 243.108 57.4742 247.605C64.7143 252.103 60.5055 215.935 58.6475 213.294Z" fill="black"/>
<path d="M42.4925 233.416C42.4925 233.416 40.8224 246.612 53.4488 248.177L54.2296 246.712C54.2296 246.712 43.2859 237.534 42.4925 233.416Z" fill="#83649C"/>
<path d="M58.2544 246.625L55.3316 247.247L55.0352 247.309C55.0352 247.309 46.0329 240.959 46.1332 226.783C46.1332 226.783 48.438 229.253 51.0435 232.695C54.1416 236.796 57.6699 242.274 58.2544 246.625Z" fill="#83649C"/>
<path opacity="0.1" d="M58.2544 246.625L55.3316 247.247C52.5466 244.806 51.4443 238.435 51.0435 232.694C54.1416 236.795 57.6699 242.273 58.2544 246.625Z" fill="black"/>
<path d="M59.2489 247.985C59.0176 248.134 58.7559 248.23 58.4829 248.266C58.2098 248.301 57.9323 248.275 57.6706 248.189C50.134 246.429 51.5077 221.905 51.5077 221.905C51.9253 222.101 53.5537 225.243 55.2656 229.248C58.3261 236.337 61.6665 246.208 59.2489 247.985Z" fill="#83649C"/>
<path d="M74.7854 233.416C74.7854 233.416 76.4556 246.612 63.8291 248.177L63.0483 246.712C63.0483 246.712 74.0046 237.534 74.7854 233.416Z" fill="#83649C"/>
<path d="M71.1696 226.783C71.2614 240.968 62.2634 247.309 62.2634 247.309L61.9711 247.247L59.0483 246.625C59.6329 242.274 63.1653 236.796 66.2635 232.695C68.8606 229.244 71.1696 226.783 71.1696 226.783Z" fill="#83649C"/>
<path opacity="0.1" d="M66.251 232.694C65.8752 238.051 64.8939 243.959 62.5139 246.7C62.348 246.896 62.1664 247.079 61.9711 247.247L59.0483 246.625C59.612 242.273 63.1528 236.795 66.251 232.694Z" fill="black"/>
<path d="M61.9253 246.699C61.4739 247.249 60.9026 247.689 60.2551 247.984C60.0565 248.073 59.8495 248.141 59.6372 248.189C57.7833 248.606 57.1319 247.287 57.2405 245.018C57.42 240.975 59.9587 233.966 62.251 228.747C63.8961 224.967 65.4076 222.105 65.8085 221.917C65.7876 221.896 66.8481 241 61.9253 246.699Z" fill="#83649C"/>
<path opacity="0.1" d="M59.2482 247.984C58.8221 247.982 58.4068 247.85 58.0583 247.605C54.5133 245.398 54.4423 237.116 55.2857 229.248C58.3255 236.336 61.6658 246.207 59.2482 247.984Z" fill="black"/>
<path opacity="0.1" d="M61.9246 246.7C61.507 247.58 60.9684 248.048 60.2544 247.985C59.8931 247.937 59.5475 247.807 59.2439 247.605C58.3231 246.972 57.6225 246.068 57.2397 245.019C57.4193 240.976 59.9579 233.967 62.2502 228.748C63.0436 236.003 63.315 243.717 61.9246 246.7Z" fill="black"/>
<path d="M58.6476 213.294C58.6476 213.294 51.4074 243.108 58.6476 247.605C65.8877 252.103 60.5056 215.935 58.6476 213.294Z" fill="#83649C"/>
<path d="M72.5395 246.137H42.4097V251.122H47.0068L47.1195 251.711L48.9609 261.386H66.4768L68.3182 251.711L68.4309 251.122H72.5395V246.137Z" fill="#D4DFEC"/>
<path opacity="0.1" d="M72.5264 246.137H42.3965V251.122H46.9936L47.1064 251.711L48.9477 261.386H66.4636L68.305 251.711L68.4177 251.122H72.5264V246.137Z" fill="black"/>
<path d="M69.9962 249.069L69.491 251.71L67.6496 261.385H50.1337L48.2923 251.71L47.7871 249.069H69.9962Z" fill="#D4DFEC"/>
<path opacity="0.1" d="M69.9962 249.069L69.491 251.71H48.2923L47.7871 249.069H69.9962Z" fill="black"/>
<path d="M73.7114 246.137H43.5815V251.122H73.7114V246.137Z" fill="#D4DFEC"/>
<path d="M242.182 233.302C242.182 233.302 230.315 236.14 225.618 241.45C224.044 243.224 221.709 244.503 219.299 245.416V237.405C222.014 232.899 224.75 227.887 224.75 227.887C224.874 227.641 225.863 224.184 225.863 224.184C228.091 222.454 225.739 216.41 225.739 216.41C225.739 216.41 227.102 212.584 226.358 211.842C225.614 211.1 226.233 209.127 226.853 208.262C227.472 207.397 227.347 206.286 227.347 205.548C227.347 204.809 226.358 203.695 224.75 203.079C223.141 202.464 224.874 201.476 225.863 201.226C226.853 200.977 227.102 198.635 225.988 197.4C224.874 196.166 226.112 195.428 226.728 194.07C227.344 192.713 224.739 192.959 224.739 192.959V180.48C224.739 180.48 223.996 176.408 223.256 169.249C222.515 162.09 219.669 161.351 219.669 161.351C218.144 160.883 216.656 160.305 215.217 159.621C213.702 158.919 212.131 158.342 210.52 157.895C210.52 157.895 207.183 157.895 204.461 157.068C201.739 156.24 200.327 156.182 200.327 156.182L199.881 155.963C196.534 154.281 193.882 151.501 192.379 148.1C192.303 147.929 192.234 147.758 192.165 147.594C192.904 146.793 193.565 145.925 194.14 145.002V144.982C194.14 145.108 194.14 145.235 194.14 145.361C194.14 145.412 194.14 145.467 194.14 145.518C194.14 145.823 194.14 146.127 194.14 146.431V146.462C196.111 143.019 201.832 142.233 202.375 138.301C202.4 138.122 202.412 137.942 202.413 137.761V137.737C202.413 137.607 202.413 137.474 202.413 137.34C202.34 136.243 201.96 135.149 201.887 134.041C201.863 133.724 201.863 133.405 201.887 133.087V133.108C202.143 130.055 204.471 127.398 205.536 124.434C205.823 123.637 206.01 122.808 206.093 121.966V121.942C206.121 121.689 206.138 121.432 206.145 121.176C206.145 121.114 206.145 121.049 206.145 120.988C206.145 120.81 206.145 120.646 206.145 120.454C206.113 118.877 205.754 117.323 205.09 115.889C204.427 114.454 203.474 113.169 202.289 112.112C200.317 110.42 197.713 109.357 196.346 107.145C195.71 106.119 195.399 104.902 194.703 103.91C193.396 102.037 190.996 101.274 188.723 101.004C186.451 100.734 184.116 100.823 181.944 100.119C180.402 99.6195 179.004 98.734 177.448 98.2895C175.752 97.8409 173.958 97.916 172.307 98.5045C170.655 99.093 169.225 100.167 168.209 101.582C167.39 102.765 166.854 104.18 165.747 105.103C163.481 106.997 159.639 106.177 157.653 108.358C156.564 109.558 156.439 111.193 156.571 112.861C156.571 112.881 156.571 112.902 156.571 112.922C156.571 113.049 156.595 113.179 156.609 113.309C156.609 113.37 156.609 113.432 156.609 113.49C156.609 113.548 156.609 113.62 156.633 113.685C156.702 114.283 156.789 114.878 156.865 115.452C156.865 115.541 156.885 115.627 156.896 115.716L156.958 116.252C156.958 116.382 156.979 116.512 156.993 116.642C157.006 116.772 157.017 116.984 157.027 117.128C157.038 117.271 157.027 117.381 157.051 117.511C157.273 122.067 156.296 126.602 154.215 130.673C152.344 134.301 149.563 137.645 149.079 141.696C149.004 142.36 148.985 143.029 149.024 143.696C149.024 143.775 149.024 143.853 149.024 143.932C149.024 144.011 149.044 144.171 149.055 144.291C149.065 144.411 149.082 144.568 149.1 144.705C149.1 144.783 149.12 144.862 149.131 144.941C149.155 145.122 149.183 145.303 149.214 145.488L149.235 145.604C149.726 148.366 150.839 151.074 151.431 153.864C151.653 154.893 151.801 155.936 151.874 156.985C151.872 156.992 151.872 156.999 151.874 157.006C151.894 157.348 151.912 157.673 151.922 158.008C151.922 158.459 151.922 158.914 151.922 159.375C150.983 159.732 150.02 160.024 149.041 160.251C147.312 160.497 142.238 164.941 142.608 166.063C142.978 167.184 140.339 174.952 140.266 175.188L136.116 203.565C136.116 203.565 133.912 205.664 134.601 207.021C135.289 208.379 134.466 210.724 134.466 210.724C134.466 210.724 130.744 212.327 131.571 213.315C132.397 214.304 132.02 216.153 131.453 217.387C130.886 218.622 129.956 220.844 131.453 221.213C132.951 221.582 131.709 226.4 131.709 226.4C131.709 226.4 136.928 225.805 136.551 228.868C136.427 229.843 140.2 232.523 141.774 233.596V248.346C139.661 247.761 137.177 247.002 135.593 246.27C132.38 244.79 114.329 241.952 110.372 250.469C106.415 258.985 115.813 270.34 118.161 271.574C118.161 271.574 120.389 273.3 120.883 274.165C121.378 275.03 124.221 275.276 124.221 275.276C124.221 275.276 127.189 276.644 127.929 277.372C128.475 277.919 132.996 279.338 138.353 280.449C138.353 280.449 134.026 290.296 141.086 289.486C148.145 288.675 151.583 285.239 156.56 285.239C158.549 285.239 162.243 284.962 165.961 284.634C166.895 284.797 167.819 285.013 168.728 285.28C170.823 285.931 172.974 286.389 175.155 286.648C175.155 286.648 180.72 289.609 183.687 288.867C183.932 288.799 184.16 288.682 184.358 288.525H184.427C184.967 288.391 185.579 287.841 186.216 287.01C189.927 287.386 194.171 287.92 195.748 288.528C198.823 289.701 220.817 288.077 220.817 288.077C220.817 288.077 235.026 288.354 239.097 289.571C243.168 290.788 241.722 277.143 234.209 275.608C232.204 275.211 230.164 275.011 228.119 275.013C228.639 274.483 229.114 273.911 229.54 273.304C232.245 273.061 234.036 272.911 234.036 272.911C234.036 272.911 241.206 269.454 245.288 267.355C247.894 265.954 250.234 264.117 252.205 261.926C252.205 261.926 255.789 259.703 257.272 258.849C258.756 257.994 259.496 255.146 259.496 255.146C270.741 229.966 242.182 233.302 242.182 233.302ZM209.988 201.719C209.988 201.305 209.988 200.888 209.988 200.474C210.389 200.754 210.33 201.195 209.988 201.715V201.719ZM210.105 210.447C210.406 210.837 210.697 211.192 210.904 211.473C211.703 212.498 210.257 212.977 210.361 214.676C210.385 215.056 210.42 215.586 210.455 216.174C210.302 213.722 210.178 211.705 210.105 210.444V210.447Z" fill="url(#paint1_linear)"/>
<path d="M145.748 249.55C145.748 249.55 138.827 247.943 135.606 246.459C132.384 244.976 114.331 242.134 110.372 250.664C106.413 259.194 115.815 270.559 118.165 271.797C120.515 273.035 143.399 256.096 143.399 256.096L161.448 263.703L164.909 251.898L145.748 249.55Z" fill="#65617D"/>
<path d="M219.217 251.899H166.131C159.092 251.899 153.386 257.6 153.386 264.634V266.476C153.386 273.51 159.092 279.211 166.131 279.211H219.217C226.256 279.211 231.962 273.51 231.962 266.476V264.634C231.962 257.6 226.256 251.899 219.217 251.899Z" fill="#65617D"/>
<path opacity="0.1" d="M231.962 265.553C231.965 268.24 231.173 270.867 229.685 273.105C229.179 273.863 228.6 274.57 227.955 275.214C226.687 276.484 225.181 277.492 223.522 278.178C221.863 278.865 220.085 279.217 218.29 279.215H167.055C163.429 279.215 159.953 277.776 157.389 275.214C154.826 272.653 153.386 269.179 153.386 265.557C153.386 261.934 154.826 258.461 157.389 255.899C159.953 253.338 163.429 251.899 167.055 251.899H218.293C221.918 251.899 225.394 253.337 227.957 255.898C230.521 258.459 231.961 261.932 231.962 265.553V265.553Z" fill="black"/>
<path d="M189.18 266.352C189.18 266.352 181.301 268.374 174.871 268.284C168.442 268.195 138.367 280.68 138.367 280.68C138.367 280.68 134.038 290.542 141.101 289.725C148.163 288.909 151.603 285.486 156.583 285.486C161.562 285.486 177.228 283.758 177.228 283.758L192.301 272.631L189.18 266.352Z" fill="#FBBEBE"/>
<path d="M194.111 173.295L179.979 176.079L179.062 176.262C179.062 176.262 167.888 173.295 167.518 173.046C167.147 172.797 157.005 159.143 157.005 159.143C157.005 159.143 162.133 159.198 166.161 156.878C166.307 156.795 166.448 156.705 166.59 156.619C168.362 155.551 169.707 153.903 170.397 151.954C170.469 151.75 170.532 151.539 170.591 151.318C171.02 149.665 171.047 147.663 170.473 145.239C169.089 139.475 172.272 137.888 176.491 138.027C182.585 138.227 190.879 142.027 190.879 142.027C190.987 143.967 191.428 145.873 192.184 147.663C192.25 147.829 192.322 148.009 192.398 148.168C193.912 151.581 196.565 154.361 199.904 156.034L200.35 156.256C200.8 156.47 201.274 156.674 201.766 156.857C212.542 160.937 194.111 173.295 194.111 173.295Z" fill="#FBBEBE"/>
<path opacity="0.1" d="M192.412 148.168C189.725 151.209 186.079 153.241 182.078 153.929C178.077 154.618 173.961 153.921 170.411 151.954C171.02 150.184 171.134 147.982 170.487 145.24C167.147 131.15 190.903 142.027 190.903 142.027C191.021 144.15 191.532 146.233 192.412 148.168V148.168Z" fill="black"/>
<path d="M196.873 135.651C196.879 138.981 195.943 142.245 194.174 145.067C193.598 145.992 192.936 146.861 192.198 147.663C189.081 151.077 184.751 153.137 180.135 153.403C179.789 153.427 179.418 153.438 179.058 153.438C175.536 153.438 172.092 152.394 169.163 150.438C166.234 148.483 163.951 145.703 162.603 142.451C161.255 139.2 160.903 135.621 161.59 132.169C162.277 128.717 163.973 125.546 166.464 123.057C168.955 120.568 172.129 118.873 175.584 118.186C179.039 117.5 182.62 117.852 185.874 119.199C189.129 120.546 191.911 122.827 193.868 125.754C195.825 128.68 196.869 132.121 196.869 135.641L196.873 135.651Z" fill="#FBBEBE"/>
<path opacity="0.1" d="M194.111 173.295L179.979 176.078L179.062 176.261C179.062 176.261 167.888 173.295 167.518 173.046C167.147 172.797 157.005 159.142 157.005 159.142C157.005 159.142 162.133 159.198 166.161 156.877C166.307 156.795 166.448 156.705 166.59 156.618C167.871 158.001 172.061 161.912 178.647 161.884C179.492 161.884 180.336 161.823 181.173 161.701C183.159 161.397 185.163 161.2 187.163 161.009C190.993 160.608 196.852 159.447 199.928 156.065L200.375 156.286C200.825 156.501 201.299 156.705 201.79 156.888C212.542 160.937 194.111 173.295 194.111 173.295Z" fill="black"/>
<path d="M210.068 209.383C210.189 212.104 212.172 242.753 212.172 242.753H150.448L150.866 223.455L151.213 208.02L151.323 202.955L151.818 185.407L150.029 183.83L140.305 175.269C140.378 175.041 143.015 167.23 142.648 166.13C142.281 165.031 147.351 160.571 149.084 160.322C150.07 160.093 151.038 159.798 151.984 159.44C154.901 158.403 158.794 156.909 159.223 157.144C159.829 157.469 165.899 156.905 166.144 156.881C166.144 156.881 170.622 162.666 178.623 162.631C179.465 162.627 180.306 162.56 181.138 162.431C183.125 162.126 185.128 161.929 187.129 161.722C191.153 161.304 197.41 160.041 200.341 156.259C200.341 156.259 201.756 156.318 204.476 157.144C207.196 157.97 210.538 157.974 210.538 157.974C212.149 158.422 213.721 159 215.238 159.703C216.678 160.386 218.167 160.964 219.691 161.431C219.691 161.431 222.536 162.171 223.28 169.339C224.024 176.507 224.775 180.587 224.775 180.587L210.068 193.315C210.068 193.315 209.947 206.651 210.068 209.383Z" fill="#83649C"/>
<path d="M140.308 230.765L142.471 234.226L150.572 237.078L156.14 226.934L151.008 223.472L142.782 220.26L138.083 222.978L140.308 230.765Z" fill="#FBBEBE"/>
<path d="M209.448 247.818C209.448 247.818 220.95 246.953 225.653 241.639C230.356 236.324 242.225 233.482 242.225 233.482C242.225 233.482 270.798 230.145 259.527 255.359C259.527 255.359 258.787 258.201 257.302 259.065C255.818 259.93 252.233 262.157 252.233 262.157L208.344 258.326L209.448 247.818Z" fill="#65617D"/>
<path opacity="0.1" d="M231.962 265.552C231.964 268.239 231.172 270.866 229.685 273.104C222.3 273.758 205.946 275.293 202.524 276.247C198.319 277.412 189.81 275.383 188.879 275.154L188.793 275.134C188.793 275.134 187.153 270.162 186.37 266.981C186.024 265.535 185.841 264.46 186.069 264.38C186.813 264.135 193.617 262.278 193.492 263.343C193.367 264.408 213.909 255.37 213.909 255.37L214.538 263.281C216.625 265.667 231.962 262.119 231.962 265.552Z" fill="black"/>
<path d="M253.113 258.942L252.247 262.158C250.271 264.355 247.93 266.194 245.327 267.593C241.243 269.695 234.07 273.157 234.07 273.157C234.07 273.157 207.725 275.38 203.272 276.614C198.818 277.849 189.541 275.501 189.541 275.501C189.541 275.501 186.08 264.996 186.821 264.748C187.561 264.499 194.364 262.649 194.243 263.71C194.122 264.772 214.66 255.737 214.66 255.737L253.113 258.942Z" fill="#65617D"/>
<path d="M179.761 286.652C179.761 286.652 192.71 287.554 195.79 288.726C198.869 289.899 220.871 288.277 220.871 288.277C220.871 288.277 235.086 288.553 239.159 289.771C243.232 290.988 241.786 277.323 234.27 275.791C226.754 274.259 216.161 276.514 216.161 276.514C216.161 276.514 204.209 274.975 202.759 274.785C201.309 274.595 191.762 274.871 191.762 274.871L179.761 286.652Z" fill="#FBBEBE"/>
<path opacity="0.1" d="M128.875 252.542C128.875 252.542 145.99 254.08 150.696 256.884L128.875 252.542Z" fill="black"/>
<path opacity="0.1" d="M235.629 241.325C235.629 241.325 222.227 244.582 216.974 249.374L235.629 241.325Z" fill="black"/>
<path opacity="0.1" d="M129.871 248.652C130.144 248.742 137.751 249.738 137.567 250.46C137.384 251.183 129.871 248.652 129.871 248.652Z" fill="black"/>
<path opacity="0.1" d="M117.919 267.718L118.909 271.428C118.909 271.428 121.134 273.157 121.629 274.021C122.124 274.886 124.968 275.135 124.968 275.135C124.968 275.135 127.937 276.493 128.681 277.233C129.425 277.973 137.461 280.325 145.008 281.313C152.555 282.302 166.528 284.156 169.497 285.145C171.595 285.795 173.749 286.249 175.93 286.503C175.93 286.503 181.495 289.47 184.464 288.73C187.433 287.99 192.503 274.516 192.503 274.516C192.503 274.516 172.961 269.945 172.342 268.461C171.723 266.978 152.922 260.059 152.922 260.059L141.79 260.322L117.919 267.718Z" fill="black"/>
<path d="M117.175 268.087L118.165 271.797C118.165 271.797 120.394 273.526 120.888 274.391C121.383 275.255 124.228 275.504 124.228 275.504C124.228 275.504 127.197 276.863 127.937 277.606C128.678 278.35 136.72 280.694 144.264 281.683C151.807 282.672 165.788 284.525 168.757 285.514C170.854 286.162 173.006 286.616 175.186 286.869C175.186 286.869 180.754 289.833 183.723 289.093C186.692 288.353 191.762 274.878 191.762 274.878C191.762 274.878 172.217 270.307 171.601 268.824C170.985 267.34 143.399 256.096 143.399 256.096L134.747 254.118L117.175 268.087Z" fill="#65617D"/>
<path d="M142.467 174.035L140.304 175.273L136.152 203.698C136.152 203.698 133.947 205.8 134.636 207.156C135.325 208.511 134.501 210.862 134.501 210.862C134.501 210.862 130.778 212.47 131.605 213.459C132.432 214.448 132.055 216.301 131.487 217.536C130.919 218.77 129.989 220.993 131.487 221.367C132.985 221.74 131.743 226.553 131.743 226.553C131.743 226.553 136.965 225.959 136.588 229.022C136.432 230.26 142.491 234.209 142.491 234.209C142.491 234.209 135.605 221.726 151.032 223.455L152.357 216.419C152.357 216.419 153.682 212.456 152.357 211.232C151.032 210.008 152.655 204.127 152.655 204.127L152.945 178.606L142.467 174.035Z" fill="#83649C"/>
<path opacity="0.1" d="M139.108 210.745C139.382 211.198 147.711 212.128 148.254 213.605C148.798 215.081 139.108 210.745 139.108 210.745Z" fill="black"/>
<path opacity="0.1" d="M136.481 217.803C136.481 217.803 137.613 214.272 140.288 214.905C142.963 215.538 136.481 217.803 136.481 217.803Z" fill="black"/>
<path opacity="0.1" d="M135.034 222.958C135.034 222.958 137.024 218.252 139.74 218.615C142.457 218.978 135.034 222.958 135.034 222.958Z" fill="black"/>
<path d="M225.653 222.853L224.784 228.039C224.784 228.039 215.881 244.356 214.272 244.602C212.662 244.847 203.89 233.727 203.89 233.727L201.541 222.849L210.79 221.096L214.898 217.041C214.898 217.041 225.279 218.033 225.653 222.853Z" fill="#FBBEBE"/>
<path d="M221.445 178.24L224.785 180.587V193.07C224.785 193.07 227.383 192.821 226.764 194.183C226.145 195.545 224.909 196.282 226.023 197.52C227.138 198.757 226.889 201.102 225.899 201.351C224.909 201.6 223.179 202.585 224.785 203.204C226.39 203.823 227.383 204.933 227.383 205.676C227.383 206.42 227.508 207.53 226.889 208.394C226.269 209.258 225.653 211.236 226.394 211.98C227.134 212.723 225.774 216.551 225.774 216.551C225.774 216.551 228.127 222.608 225.899 224.337C225.899 224.337 224.909 227.795 224.785 228.044C224.785 228.044 226.345 216.015 210.784 221.101C210.784 221.101 210.496 216.516 210.389 214.818C210.282 213.121 211.732 212.623 210.932 211.61C210.133 210.597 208.133 208.269 209.078 207.654C210.022 207.039 209.697 205.925 209.323 205.057C208.95 204.189 207.645 204.193 208.828 203.142C210.012 202.091 210.714 201.105 210.019 200.611C209.323 200.116 208.116 198.505 209.078 197.765C210.04 197.025 210.067 186.272 210.067 186.272C210.067 186.272 214.026 170.453 221.445 178.24Z" fill="#83649C"/>
<path opacity="0.1" d="M219.875 199.504C219.875 199.504 224.63 198.215 224.785 199.504C224.941 200.794 219.875 199.504 219.875 199.504Z" fill="black"/>
<path opacity="0.1" d="M214.531 203.055C214.531 203.055 221.051 201.427 221.864 202.692C222.677 203.958 214.531 203.055 214.531 203.055Z" fill="black"/>
<path opacity="0.1" d="M213.082 206.492C213.082 206.492 222.861 205.133 223.494 207.125C224.127 209.116 213.082 206.492 213.082 206.492Z" fill="black"/>
<path opacity="0.1" d="M214.531 210.745C214.895 210.835 223.947 211.468 224.127 213.186C224.307 214.905 214.531 210.745 214.531 210.745Z" fill="black"/>
<path opacity="0.1" d="M154.777 189.342C154.777 189.342 162.21 195.019 167.958 190.694C167.958 190.694 158.241 191.575 154.777 189.342Z" fill="black"/>
<path opacity="0.1" d="M192.413 190.87C192.413 190.87 199.842 196.544 205.59 192.218C205.59 192.218 195.877 193.103 192.413 190.87Z" fill="black"/>
<path opacity="0.1" d="M196.873 135.651C196.879 138.981 195.943 142.245 194.174 145.067C194.025 140.112 192.859 135.154 190.16 131.015C187.689 127.211 180.176 120.576 175.013 122.426C174.473 122.624 173.987 122.946 173.595 123.366C173.203 123.787 172.916 124.294 172.757 124.846C172.245 126.789 173.743 127.612 174.705 129.144C176.336 131.798 176.974 134.944 176.505 138.023C176.439 138.438 176.353 138.849 176.245 139.254C175.432 142.304 173.57 145.793 175.491 148.293C176.83 150.022 179.709 150.637 180.1 152.788C180.136 152.991 180.147 153.197 180.135 153.403C180.045 154.859 178.802 156.142 178.259 157.57C177.622 159.254 177.982 160.927 178.643 162.618C179.501 164.824 180.872 167.054 181.204 169.385C181.536 171.715 180.82 173.88 179.976 176.068C179.176 178.143 178.245 180.2 177.934 182.361C177.335 186.469 178.844 191.22 176.256 194.463C175.992 194.856 175.586 195.13 175.124 195.227C173.466 195.4 173.74 192.423 172.414 191.424C172.556 193.153 172.691 194.958 172.068 196.576C171.446 198.194 169.805 199.57 168.089 199.297L167.497 195.414C166.329 196.563 164.924 197.442 163.379 197.99C163.987 193.861 165.451 189.904 167.677 186.372C163.32 188.468 160.78 193.004 158.514 197.271C157.102 199.937 155.638 202.848 156.133 205.825C156.334 207.039 156.856 208.194 156.97 209.414C157.085 210.635 156.642 212.063 155.503 212.526C154.51 212.931 153.351 212.447 152.635 211.637L152.51 211.489C152.441 211.399 152.375 211.306 152.313 211.212C152.189 211.024 152.079 210.828 151.984 210.624C151.675 209.893 151.443 209.132 151.292 208.353L151.216 208.007C150.063 202.955 149.025 197.745 149.87 192.634C150.181 190.753 150.749 188.886 150.679 186.977C150.627 185.901 150.408 184.84 150.029 183.831C149.018 181.002 147.074 178.406 145.966 175.557C145.954 175.537 145.945 175.516 145.939 175.494C145.357 173.987 145.07 172.102 146.146 170.892C146.7 170.266 147.53 169.952 148.222 169.509C150.375 168.109 151.337 165.45 151.735 162.912C151.914 161.768 152.004 160.612 152.005 159.454C154.922 158.417 158.815 156.923 159.244 157.158C159.85 157.483 165.919 156.92 166.165 156.895C168.013 155.831 169.625 154.264 170.414 151.972C170.487 151.768 170.549 151.557 170.608 151.336C167.838 149.842 165.513 147.641 163.87 144.958C162.228 142.274 161.327 139.204 161.259 136.059C161.19 132.914 161.958 129.807 163.482 127.055C165.006 124.303 167.234 122.004 169.937 120.392C172.64 118.78 175.722 117.912 178.87 117.878C182.018 117.843 185.119 118.643 187.857 120.195C190.595 121.748 192.872 123.998 194.456 126.716C196.04 129.434 196.876 132.523 196.876 135.669L196.873 135.651Z" fill="black"/>
<path d="M176.245 138.514C175.429 141.564 173.571 145.052 175.495 147.556C176.834 149.285 179.713 149.897 180.097 152.051C180.405 153.78 178.879 155.204 178.263 156.829C176.796 160.712 180.623 164.53 181.204 168.641C181.838 173.101 178.585 177.164 177.938 181.621C177.339 185.729 178.848 190.476 176.259 193.723C175.998 194.117 175.591 194.391 175.128 194.487C173.47 194.663 173.744 191.686 172.418 190.683C172.56 192.412 172.695 194.217 172.072 195.835C171.449 197.454 169.809 198.826 168.093 198.557L167.501 194.67C166.333 195.819 164.928 196.699 163.383 197.246C163.991 193.119 165.454 189.163 167.677 185.632C163.321 187.727 160.784 192.264 158.518 196.527C157.102 199.193 155.642 202.108 156.133 205.085C156.334 206.298 156.857 207.45 156.971 208.674C157.085 209.898 156.642 211.319 155.504 211.786C154.465 212.218 153.209 211.644 152.51 210.748C151.811 209.853 151.541 208.712 151.289 207.609C150.105 202.45 149.001 197.125 149.863 191.904C150.174 190.02 150.742 188.152 150.673 186.247C150.524 182.074 147.441 178.64 145.939 174.757C145.354 173.246 145.07 171.365 146.146 170.155C146.7 169.529 147.531 169.215 148.223 168.772C150.372 167.368 151.337 164.713 151.732 162.175C152.157 159.431 152.078 156.633 151.5 153.918C150.631 149.855 148.638 145.886 149.133 141.761C149.617 137.701 152.399 134.354 154.272 130.72C156.68 126.017 157.604 120.694 156.922 115.455C156.6 113.017 156.036 110.196 157.691 108.373C159.677 106.188 163.521 107.011 165.788 105.116C166.895 104.193 167.432 102.772 168.252 101.589C169.277 100.169 170.709 99.0927 172.36 98.5037C174.01 97.9146 175.801 97.8404 177.495 98.2908C179.052 98.7368 180.45 99.622 181.993 100.123C184.166 100.815 186.492 100.739 188.776 101.012C191.06 101.285 193.451 102.049 194.759 103.92C195.451 104.916 195.766 106.129 196.403 107.16C197.769 109.373 200.375 110.438 202.348 112.135C204.039 113.642 205.249 115.614 205.826 117.803C206.403 119.993 206.323 122.304 205.594 124.448C204.417 127.723 201.694 130.62 201.925 134.092C202.019 135.52 202.618 136.92 202.431 138.334C201.884 142.272 196.164 143.057 194.188 146.508C194.347 140.851 193.26 135.025 190.17 130.285C187.7 126.481 180.187 119.843 175.024 121.692C174.484 121.891 173.999 122.214 173.607 122.634C173.215 123.054 172.928 123.561 172.768 124.113C172.256 126.053 173.754 126.879 174.716 128.411C175.637 129.906 176.247 131.571 176.51 133.307C176.773 135.043 176.683 136.814 176.245 138.514Z" fill="#3F3D56"/>
<g opacity="0.2">
<path opacity="0.2" d="M151.984 158.112C152.028 156.336 151.861 154.56 151.489 152.822C150.752 149.364 149.209 145.979 149.067 142.508C148.866 146.373 150.676 150.115 151.489 153.918C151.785 155.298 151.95 156.702 151.984 158.112V158.112Z" fill="black"/>
<path opacity="0.2" d="M166.725 186.173C167.026 185.623 167.338 185.076 167.673 184.544C163.32 186.639 160.78 191.176 158.514 195.443C157.202 197.908 155.856 200.591 156.057 203.336C156.223 200.982 157.382 198.686 158.514 196.552C160.611 192.607 162.943 188.437 166.725 186.173Z" fill="black"/>
<path opacity="0.2" d="M156.95 208.533C156.818 209.467 156.354 210.352 155.503 210.701C154.465 211.13 153.209 210.56 152.513 209.664C151.818 208.768 151.541 207.631 151.288 206.524C150.444 202.838 149.641 199.063 149.558 195.304C149.475 199.429 150.354 203.585 151.288 207.638C151.541 208.741 151.814 209.885 152.513 210.777C153.212 211.669 154.455 212.243 155.503 211.815C156.642 211.348 157.088 209.927 156.974 208.703C156.95 208.644 156.95 208.589 156.95 208.533Z" fill="black"/>
<path opacity="0.2" d="M176.647 134.801C176.607 135.688 176.472 136.569 176.245 137.429C175.643 139.686 174.467 142.19 174.678 144.344C174.844 142.463 175.744 140.416 176.245 138.532C176.566 137.315 176.702 136.057 176.647 134.801Z" fill="black"/>
<path opacity="0.2" d="M157.126 118.301C157.155 116.983 157.083 115.664 156.911 114.356C156.783 113.395 156.621 112.371 156.565 111.372C156.486 112.703 156.728 114.138 156.911 115.469C157.035 116.409 157.106 117.354 157.126 118.301V118.301Z" fill="black"/>
<path opacity="0.2" d="M180.101 152.085C180.101 152.054 180.101 152.03 180.077 151.999C179.814 153.285 178.755 154.461 178.267 155.754C177.977 156.526 177.873 157.355 177.962 158.174C178.004 157.727 178.107 157.287 178.267 156.867C178.879 155.239 180.405 153.8 180.101 152.085Z" fill="black"/>
<path opacity="0.2" d="M150.672 185.162C150.52 180.988 147.44 177.555 145.935 173.672C145.695 173.06 145.532 172.422 145.451 171.77C145.367 172.799 145.533 173.834 145.935 174.785C147.416 178.616 150.413 181.987 150.655 186.068C150.672 185.767 150.683 185.462 150.672 185.162Z" fill="black"/>
<path opacity="0.2" d="M190.17 129.2C187.696 125.397 180.187 118.758 175.024 120.608C174.484 120.806 173.998 121.129 173.606 121.549C173.213 121.97 172.925 122.476 172.764 123.028C172.642 123.452 172.629 123.899 172.726 124.328C172.726 124.266 172.747 124.204 172.764 124.142C172.925 123.589 173.213 123.083 173.605 122.662C173.998 122.242 174.484 121.919 175.024 121.721C180.187 119.871 187.696 126.521 190.17 130.314C192.966 134.608 194.119 139.791 194.195 144.933C194.268 139.418 193.164 133.792 190.17 129.2Z" fill="black"/>
<path opacity="0.2" d="M202.42 137.239C201.877 141.167 196.191 141.959 194.194 145.389C194.194 145.766 194.194 146.146 194.194 146.523C196.167 143.065 201.89 142.287 202.434 138.349C202.482 137.962 202.482 137.57 202.434 137.184C202.431 137.202 202.426 137.221 202.42 137.239V137.239Z" fill="black"/>
<path opacity="0.2" d="M205.583 123.349C204.406 126.627 201.683 129.521 201.915 132.996C201.915 133.045 201.915 133.097 201.915 133.148C202.171 130.088 204.5 127.433 205.566 124.463C206.045 123.106 206.251 121.667 206.171 120.23C206.133 121.294 205.935 122.345 205.583 123.349V123.349Z" fill="black"/>
<path opacity="0.2" d="M176.259 192.645C175.998 193.04 175.591 193.315 175.128 193.412C173.47 193.589 173.743 190.612 172.418 189.609C172.453 190.003 172.484 190.401 172.504 190.798C173.736 191.863 173.508 194.695 175.128 194.522C175.357 194.476 175.575 194.384 175.769 194.253C175.964 194.122 176.13 193.954 176.259 193.758C177.737 191.905 177.879 189.564 177.84 187.133C177.802 189.16 177.508 191.092 176.259 192.645Z" fill="black"/>
<path opacity="0.2" d="M172.069 194.761C171.439 196.383 169.806 197.755 168.086 197.482C167.89 196.189 167.694 194.894 167.498 193.596C166.381 194.691 165.048 195.542 163.584 196.096C163.508 196.49 163.435 196.887 163.376 197.285C164.922 196.738 166.329 195.858 167.498 194.709C167.694 196.007 167.89 197.302 168.086 198.596C169.816 198.865 171.439 197.496 172.069 195.874C172.456 194.745 172.61 193.549 172.522 192.358C172.504 193.178 172.351 193.99 172.069 194.761V194.761Z" fill="black"/>
<path opacity="0.2" d="M177.937 180.542C177.804 181.587 177.754 182.64 177.788 183.692C177.794 183.011 177.844 182.33 177.937 181.656C178.557 177.406 181.536 173.516 181.266 169.301C181.027 173.112 178.501 176.67 177.937 180.542Z" fill="black"/>
</g>
<path d="M215.712 216.315H145.416C143.415 216.315 141.793 217.936 141.793 219.936V256.701C141.793 258.701 143.415 260.321 145.416 260.321H215.712C217.713 260.321 219.335 258.701 219.335 256.701V219.936C219.335 217.936 217.713 216.315 215.712 216.315Z" fill="#3F3D56"/>
<path d="M180.563 241.176C182.142 241.176 183.422 239.898 183.422 238.32C183.422 236.743 182.142 235.464 180.563 235.464C178.985 235.464 177.705 236.743 177.705 238.32C177.705 239.898 178.985 241.176 180.563 241.176Z" fill="#E7EFFD"/>
<defs>
<linearGradient id="paint0_linear" x1="103.265" y1="96.9334" x2="103.265" y2="1.15554e-05" gradientUnits="userSpaceOnUse">
<stop offset="0.2" stop-color="#808080" stop-opacity="0.4"/>
<stop offset="0.46" stop-color="#808080" stop-opacity="0.5"/>
<stop offset="1" stop-opacity="0.4"/>
</linearGradient>
<linearGradient id="paint1_linear" x1="185.776" y1="289.588" x2="185.776" y2="97.9818" gradientUnits="userSpaceOnUse">
<stop stop-color="#808080" stop-opacity="0.25"/>
<stop offset="0.54" stop-color="#808080" stop-opacity="0.12"/>
<stop offset="1" stop-color="#808080" stop-opacity="0.1"/>
</linearGradient>
</defs>
</svg>
