<svg width="1440" height="332" viewBox="0 0 1440 332" fill="none" xmlns="http://www.w3.org/2000/svg">
<path d="M0 180.5V0H1440V248.5L296 332L0 180.5Z" fill="#83649C"/>
<path d="M0 180.5V0H801L692 302.003L296 331L0 180.5Z" fill="url(#paint0_linear)"/>
<path opacity="0.6" d="M968.88 160.012V179.416C968.88 181.488 968.46 183.364 967.62 185.044C966.78 186.696 965.492 188.012 963.756 188.992C962.048 189.944 959.864 190.42 957.204 190.42C953.48 190.42 950.638 189.412 948.678 187.396C946.746 185.352 945.78 182.664 945.78 179.332V160.012H949.56V179.458C949.56 181.894 950.204 183.784 951.492 185.128C952.808 186.472 954.782 187.144 957.414 187.144C960.13 187.144 962.09 186.43 963.294 185.002C964.526 183.546 965.142 181.684 965.142 179.416V160.012H968.88ZM997.165 190H992.881L984.943 176.98L976.879 190H972.889L982.843 174.376L973.519 160.012H977.719L985.069 171.772L992.461 160.012H996.451L987.169 174.292L997.165 190ZM1012.53 160.012L1001.36 190H997.75L1008.92 160.012H1012.53ZM1039.84 160.012V179.416C1039.84 181.488 1039.42 183.364 1038.58 185.044C1037.74 186.696 1036.45 188.012 1034.71 188.992C1033.01 189.944 1030.82 190.42 1028.16 190.42C1024.44 190.42 1021.6 189.412 1019.64 187.396C1017.7 185.352 1016.74 182.664 1016.74 179.332V160.012H1020.52V179.458C1020.52 181.894 1021.16 183.784 1022.45 185.128C1023.77 186.472 1025.74 187.144 1028.37 187.144C1031.09 187.144 1033.05 186.43 1034.25 185.002C1035.48 183.546 1036.1 181.684 1036.1 179.416V160.012H1039.84ZM1056.19 190H1045.36V187.816L1048.89 187.018V163.036L1045.36 162.196V160.012H1056.19V162.196L1052.67 163.036V187.018L1056.19 187.816V190ZM1096.92 174.712C1096.92 179.78 1095.53 183.602 1092.76 186.178C1090.02 188.726 1086.18 190 1081.25 190H1072.89V160.012H1082.13C1085.16 160.012 1087.78 160.572 1089.99 161.692C1092.2 162.812 1093.91 164.464 1095.11 166.648C1096.32 168.804 1096.92 171.492 1096.92 174.712ZM1092.93 174.838C1092.93 170.834 1091.93 167.908 1089.95 166.06C1087.99 164.184 1085.2 163.246 1081.59 163.246H1076.67V186.766H1080.75C1088.87 186.766 1092.93 182.79 1092.93 174.838ZM1111.76 167.068C1113.7 167.068 1115.35 167.488 1116.72 168.328C1118.12 169.168 1119.18 170.358 1119.91 171.898C1120.67 173.41 1121.05 175.188 1121.05 177.232V179.458H1105.63C1105.69 182.006 1106.33 183.952 1107.56 185.296C1108.82 186.612 1110.57 187.27 1112.81 187.27C1114.24 187.27 1115.5 187.144 1116.59 186.892C1117.71 186.612 1118.86 186.22 1120.04 185.716V188.95C1118.89 189.454 1117.76 189.818 1116.64 190.042C1115.52 190.294 1114.19 190.42 1112.65 190.42C1110.52 190.42 1108.63 189.986 1106.98 189.118C1105.35 188.25 1104.08 186.962 1103.15 185.254C1102.26 183.518 1101.81 181.404 1101.81 178.912C1101.81 176.448 1102.22 174.334 1103.03 172.57C1103.87 170.806 1105.03 169.448 1106.51 168.496C1108.03 167.544 1109.78 167.068 1111.76 167.068ZM1111.72 170.092C1109.96 170.092 1108.56 170.666 1107.52 171.814C1106.51 172.934 1105.91 174.502 1105.72 176.518H1117.18C1117.15 174.614 1116.71 173.074 1115.84 171.898C1114.97 170.694 1113.6 170.092 1111.72 170.092ZM1141.44 183.784C1141.44 185.968 1140.62 187.62 1139 188.74C1137.38 189.86 1135.19 190.42 1132.45 190.42C1130.88 190.42 1129.52 190.294 1128.37 190.042C1127.25 189.79 1126.26 189.44 1125.39 188.992V185.632C1126.29 186.08 1127.37 186.5 1128.63 186.892C1129.91 187.256 1131.22 187.438 1132.53 187.438C1134.41 187.438 1135.77 187.144 1136.61 186.556C1137.45 185.94 1137.87 185.128 1137.87 184.12C1137.87 183.56 1137.71 183.056 1137.4 182.608C1137.1 182.16 1136.54 181.712 1135.72 181.264C1134.94 180.816 1133.81 180.312 1132.32 179.752C1130.87 179.192 1129.62 178.632 1128.58 178.072C1127.55 177.512 1126.75 176.84 1126.19 176.056C1125.63 175.272 1125.35 174.264 1125.35 173.032C1125.35 171.128 1126.12 169.658 1127.66 168.622C1129.23 167.586 1131.27 167.068 1133.79 167.068C1135.16 167.068 1136.44 167.208 1137.61 167.488C1138.82 167.74 1139.94 168.104 1140.97 168.58L1139.71 171.52C1138.76 171.128 1137.77 170.792 1136.73 170.512C1135.7 170.232 1134.63 170.092 1133.54 170.092C1132.03 170.092 1130.87 170.344 1130.05 170.848C1129.27 171.324 1128.88 171.982 1128.88 172.822C1128.88 173.438 1129.06 173.97 1129.42 174.418C1129.79 174.838 1130.39 175.258 1131.23 175.678C1132.1 176.07 1133.25 176.546 1134.67 177.106C1136.1 177.638 1137.32 178.184 1138.33 178.744C1139.34 179.304 1140.11 179.99 1140.64 180.802C1141.17 181.586 1141.44 182.58 1141.44 183.784ZM1148.76 159.046C1149.32 159.046 1149.81 159.242 1150.23 159.634C1150.68 159.998 1150.91 160.586 1150.91 161.398C1150.91 162.182 1150.68 162.77 1150.23 163.162C1149.81 163.554 1149.32 163.75 1148.76 163.75C1148.15 163.75 1147.63 163.554 1147.21 163.162C1146.79 162.77 1146.58 162.182 1146.58 161.398C1146.58 160.586 1146.79 159.998 1147.21 159.634C1147.63 159.242 1148.15 159.046 1148.76 159.046ZM1150.57 167.488V190H1146.87V167.488H1150.57ZM1165.68 167.068C1167.17 167.068 1168.5 167.348 1169.67 167.908C1170.88 168.468 1171.9 169.322 1172.74 170.47H1172.95L1173.45 167.488H1176.39V190.378C1176.39 193.598 1175.57 196.02 1173.91 197.644C1172.29 199.268 1169.76 200.08 1166.31 200.08C1163.01 200.08 1160.31 199.604 1158.21 198.652V195.25C1160.42 196.426 1163.19 197.014 1166.52 197.014C1168.45 197.014 1169.97 196.44 1171.06 195.292C1172.18 194.172 1172.74 192.632 1172.74 190.672V189.79C1172.74 189.454 1172.75 188.978 1172.78 188.362C1172.81 187.718 1172.84 187.27 1172.86 187.018H1172.7C1171.18 189.286 1168.86 190.42 1165.72 190.42C1162.81 190.42 1160.53 189.398 1158.88 187.354C1157.25 185.31 1156.44 182.454 1156.44 178.786C1156.44 175.202 1157.25 172.36 1158.88 170.26C1160.53 168.132 1162.8 167.068 1165.68 167.068ZM1166.19 170.176C1164.31 170.176 1162.85 170.932 1161.82 172.444C1160.78 173.928 1160.26 176.056 1160.26 178.828C1160.26 181.6 1160.77 183.728 1161.78 185.212C1162.81 186.668 1164.31 187.396 1166.27 187.396C1168.54 187.396 1170.19 186.794 1171.23 185.59C1172.26 184.358 1172.78 182.384 1172.78 179.668V178.786C1172.78 175.706 1172.25 173.508 1171.18 172.192C1170.12 170.848 1168.45 170.176 1166.19 170.176ZM1194.38 167.068C1197.07 167.068 1199.1 167.726 1200.47 169.042C1201.84 170.33 1202.53 172.43 1202.53 175.342V190H1198.87V175.594C1198.87 171.982 1197.19 170.176 1193.83 170.176C1191.34 170.176 1189.62 170.876 1188.67 172.276C1187.71 173.676 1187.24 175.692 1187.24 178.324V190H1183.54V167.488H1186.52L1187.07 170.554H1187.28C1188.01 169.378 1189.02 168.51 1190.3 167.95C1191.59 167.362 1192.95 167.068 1194.38 167.068ZM1218.2 167.068C1220.13 167.068 1221.78 167.488 1223.16 168.328C1224.56 169.168 1225.62 170.358 1226.35 171.898C1227.1 173.41 1227.48 175.188 1227.48 177.232V179.458H1212.07C1212.12 182.006 1212.77 183.952 1214 185.296C1215.26 186.612 1217.01 187.27 1219.25 187.27C1220.68 187.27 1221.94 187.144 1223.03 186.892C1224.15 186.612 1225.3 186.22 1226.47 185.716V188.95C1225.33 189.454 1224.19 189.818 1223.07 190.042C1221.95 190.294 1220.62 190.42 1219.08 190.42C1216.95 190.42 1215.06 189.986 1213.41 189.118C1211.79 188.25 1210.51 186.962 1209.59 185.254C1208.69 183.518 1208.25 181.404 1208.25 178.912C1208.25 176.448 1208.65 174.334 1209.46 172.57C1210.3 170.806 1211.47 169.448 1212.95 168.496C1214.46 167.544 1216.21 167.068 1218.2 167.068ZM1218.16 170.092C1216.39 170.092 1214.99 170.666 1213.96 171.814C1212.95 172.934 1212.35 174.502 1212.15 176.518H1223.62C1223.59 174.614 1223.14 173.074 1222.27 171.898C1221.41 170.694 1220.03 170.092 1218.16 170.092ZM1243.71 167.068C1244.13 167.068 1244.58 167.096 1245.06 167.152C1245.56 167.18 1245.99 167.236 1246.36 167.32L1245.9 170.722C1245.53 170.638 1245.13 170.568 1244.68 170.512C1244.26 170.456 1243.85 170.428 1243.46 170.428C1242.31 170.428 1241.23 170.75 1240.23 171.394C1239.22 172.01 1238.41 172.892 1237.79 174.04C1237.2 175.16 1236.91 176.476 1236.91 177.988V190H1233.21V167.488H1236.24L1236.66 171.604H1236.82C1237.55 170.372 1238.49 169.308 1239.64 168.412C1240.79 167.516 1242.14 167.068 1243.71 167.068Z" fill="white"/>
<path d="M950.472 133V82.6H958.824L966.096 110.248C966.768 112.744 967.176 114.4 967.32 115.216C967.512 113.68 967.92 112.024 968.544 110.248L976.032 82.6H983.88V133H976.464V105.64C976.464 103.528 976.512 102.136 976.608 101.464L975.24 105.64L967.536 133H966.816L959.112 105.64L957.744 101.464C957.84 102.808 957.888 104.2 957.888 105.64V133H950.472ZM1030.05 133L1026.74 121.912H1010.75L1007.44 133H998.223L1014.71 82.6H1022.78L1039.26 133H1030.05ZM1013.06 114.136H1024.43L1019.97 99.16C1019.49 97.624 1019.08 95.752 1018.74 93.544C1018.17 96.472 1017.76 98.344 1017.52 99.16L1013.06 114.136ZM1087.52 97.864C1087.52 101.128 1086.63 104.08 1084.85 106.72C1083.13 109.36 1080.61 111.232 1077.29 112.336L1087.45 133H1077.94L1068.15 113.272H1062.17V133H1053.61V82.6H1071.03C1074.01 82.6 1076.6 83.032 1078.81 83.896C1081.01 84.712 1082.72 85.864 1083.92 87.352C1085.17 88.792 1086.08 90.4 1086.65 92.176C1087.23 93.904 1087.52 95.8 1087.52 97.864ZM1062.17 90.664V105.208H1071.17C1073.86 105.208 1075.78 104.536 1076.93 103.192C1078.13 101.8 1078.73 100.048 1078.73 97.936C1078.73 95.92 1078.16 94.216 1077.01 92.824C1075.85 91.384 1073.91 90.664 1071.17 90.664H1062.17ZM1131.53 82.6H1140.96L1126.13 113.272V133H1117.63V113.272L1102.8 82.6H1112.3L1121.88 104.128L1131.53 82.6ZM1184.75 133L1181.44 121.912H1165.45L1162.14 133H1152.92L1169.41 82.6H1177.48L1193.96 133H1184.75ZM1167.76 114.136H1179.13L1174.67 99.16C1174.19 97.624 1173.78 95.752 1173.44 93.544C1172.87 96.472 1172.46 98.344 1172.22 99.16L1167.76 114.136ZM1208.31 133V82.6H1216.66L1223.93 110.248C1224.6 112.744 1225.01 114.4 1225.16 115.216C1225.35 113.68 1225.76 112.024 1226.38 110.248L1233.87 82.6H1241.72V133H1234.3V105.64C1234.3 103.528 1234.35 102.136 1234.44 101.464L1233.08 105.64L1225.37 133H1224.65L1216.95 105.64L1215.58 101.464C1215.68 102.808 1215.72 104.2 1215.72 105.64V133H1208.31Z" fill="white"/>
<path d="M202.674 196.549C203.276 196.549 203.764 196.062 203.764 195.46C203.764 194.859 203.276 194.372 202.674 194.372C202.073 194.372 201.585 194.859 201.585 195.46C201.585 196.062 202.073 196.549 202.674 196.549Z" fill="#E7EFFD"/>
<path d="M340.09 100.177C340.691 100.177 341.179 99.6899 341.179 99.0886C341.179 98.4874 340.691 98 340.09 98C339.488 98 339 98.4874 339 99.0886C339 99.6899 339.488 100.177 340.09 100.177Z" fill="#E7EFFD"/>
<path d="M560.624 150.847C561.225 150.847 561.713 150.36 561.713 149.759C561.713 149.157 561.225 148.67 560.624 148.67C560.022 148.67 559.534 149.157 559.534 149.759C559.534 150.36 560.022 150.847 560.624 150.847Z" fill="#E7EFFD"/>
<path d="M389.16 160.185C389.762 160.185 390.25 159.698 390.25 159.096C390.25 158.495 389.762 158.008 389.16 158.008C388.559 158.008 388.071 158.495 388.071 159.096C388.071 159.698 388.559 160.185 389.16 160.185Z" fill="#E7EFFD"/>
<path d="M165.78 130.447H164.116V128.784H163.818V130.447H162.153V130.745H163.818V132.408H164.116V130.745H165.78V130.447Z" fill="#E7EFFD"/>
<path d="M511.766 95.8751H510.101V94.2118H509.797V95.8751H508.139V96.1727H509.797V97.836H510.101V96.1727H511.766V95.8751Z" fill="#E7EFFD"/>
<path d="M205.212 89.1474H203.547V87.484H203.243V89.1474H201.585V89.4516H203.243V91.1082H203.547V89.4516H205.212V89.1474Z" fill="#E7EFFD"/>
<path d="M736.538 54.0712C737.939 54.0712 739.075 52.936 739.075 51.5356C739.075 50.1352 737.939 49 736.538 49C735.136 49 734 50.1352 734 51.5356C734 52.936 735.136 54.0712 736.538 54.0712Z" fill="#E7EFFD"/>
<path d="M19.5376 21.0712C20.9392 21.0712 22.0753 19.936 22.0753 18.5356C22.0753 17.1352 20.9392 16 19.5376 16C18.1361 16 17 17.1352 17 18.5356C17 19.936 18.1361 21.0712 19.5376 21.0712Z" fill="#E7EFFD"/>
<path d="M765.203 52.6243C765.804 52.6243 766.292 52.1369 766.292 51.5356C766.292 50.9344 765.804 50.447 765.203 50.447C764.601 50.447 764.113 50.9344 764.113 51.5356C764.113 52.1369 764.601 52.6243 765.203 52.6243Z" fill="#E7EFFD"/>
<path d="M256.09 16C255.488 16 255 16.4874 255 17.0886C255 17.6899 255.488 18.1772 256.09 18.1772C256.691 18.1772 257.179 17.6899 257.179 17.0886C257.179 16.4874 256.691 16 256.09 16Z" fill="#E7EFFD"/>
<path d="M575.017 25.1424H576.682V26.8058H576.987V25.1424H578.645V24.8382H576.987V23.1815H576.682V24.8382H575.017V25.1424Z" fill="#E7EFFD"/>
<path d="M650.754 89.5875C650.153 89.5875 649.665 90.0749 649.665 90.6761C649.665 91.2774 650.153 91.7648 650.754 91.7648C651.356 91.7648 651.844 91.2774 651.844 90.6761C651.844 90.0749 651.356 89.5875 650.754 89.5875Z" fill="#E7EFFD"/>
<path d="M47.8375 22.1666C48.4393 22.1666 48.927 21.6792 48.927 21.078C48.927 20.4768 48.4393 19.9894 47.8375 19.9894C47.2358 19.9894 46.748 20.4768 46.748 21.078C46.748 21.6792 47.2358 22.1666 47.8375 22.1666Z" fill="#E7EFFD"/>
<path d="M46.7548 98.2012C47.3565 98.2012 47.8443 97.7138 47.8443 97.1125C47.8443 96.5113 47.3565 96.0239 46.7548 96.0239C46.1531 96.0239 45.6653 96.5113 45.6653 97.1125C45.6653 97.7138 46.1531 98.2012 46.7548 98.2012Z" fill="#E7EFFD"/>
<path d="M549.255 40.7408C549.857 40.7408 550.345 40.2534 550.345 39.6522C550.345 39.051 549.857 38.5636 549.255 38.5636C548.653 38.5636 548.166 39.051 548.166 39.6522C548.166 40.2534 548.653 40.7408 549.255 40.7408Z" fill="#E7EFFD"/>
<path d="M180.269 41.7416C180.87 41.7416 181.358 41.2542 181.358 40.653C181.358 40.0517 180.87 39.5643 180.269 39.5643C179.667 39.5643 179.179 40.0517 179.179 40.653C179.179 41.2542 179.667 41.7416 180.269 41.7416Z" fill="#E7EFFD"/>
<path d="M495.559 39.5643C496.16 39.5643 496.648 39.0769 496.648 38.4757C496.648 37.8745 496.16 37.3871 495.559 37.3871C494.957 37.3871 494.469 37.8745 494.469 38.4757C494.469 39.0769 494.957 39.5643 495.559 39.5643Z" fill="#E7EFFD"/>
<path d="M491.089 47.1772C491.691 47.1772 492.179 46.6899 492.179 46.0886C492.179 45.4874 491.691 45 491.089 45C490.488 45 490 45.4874 490 46.0886C490 46.6899 490.488 47.1772 491.089 47.1772Z" fill="#E7EFFD"/>
<path d="M18.5 162.5L0 180.5L176 271L705.5 266L728.5 202.924V175.5H640.5V75H544V150.5H445.5V192.5H300V105H176.5V136H87.5V162.5H18.5Z" fill="#83649C"/>
<path opacity="0.3" d="M18.5 162.5L0 180.5L176 271L705.5 266L728.108 204L728.5 175.5H640.5V75H544V150.5H445.5V192.5H300V105H176.5V136H87.5V162.5H18.5Z" fill="black"/>
<path opacity="0.4" d="M713.109 188H652V195.367H713.109V188Z" fill="black"/>
<path d="M713.109 211.505H652V218.872H713.109V211.505Z" fill="#83649C"/>
<path opacity="0.4" d="M713.109 235.014H652V242.381H713.109V235.014Z" fill="black"/>
<path opacity="0.4" d="M166.109 150H105V157.367H166.109V150Z" fill="black"/>
<path opacity="0.4" d="M166.109 173.505H105V180.872H166.109V173.505Z" fill="black"/>
<path opacity="0.4" d="M166.109 197.014H105V204.381H166.109V197.014Z" fill="black"/>
<path opacity="0.4" d="M166.109 221H105V228.367H166.109V221Z" fill="black"/>
<path opacity="0.4" d="M358 207H307V214.367H358V207Z" fill="black"/>
<path opacity="0.4" d="M358 230.505H307V237.872H358V230.505Z" fill="black"/>
<path opacity="0.4" d="M213 124H192V132.242H213V124Z" fill="black"/>
<path d="M213 142.479H192V150.721H213V142.479Z" fill="#83649C"/>
<path opacity="0.4" d="M213 160.953H192V169.195H213V160.953Z" fill="black"/>
<path opacity="0.4" d="M213 179.431H192V187.674H213V179.431Z" fill="black"/>
<path opacity="0.4" d="M213 197.906H192V206.148H213V197.906Z" fill="black"/>
<path opacity="0.4" d="M213 216.385H192V224.627H213V216.385Z" fill="black"/>
<path opacity="0.4" d="M213 234.859H192V243.101H213V234.859Z" fill="black"/>
<path opacity="0.4" d="M249 124H228V132.242H249V124Z" fill="black"/>
<path opacity="0.4" d="M249 142.479H228V150.721H249V142.479Z" fill="black"/>
<path opacity="0.4" d="M249 160.953H228V169.195H249V160.953Z" fill="black"/>
<path opacity="0.4" d="M249 179.431H228V187.674H249V179.431Z" fill="black"/>
<path opacity="0.4" d="M249 197.906H228V206.148H249V197.906Z" fill="black"/>
<path opacity="0.4" d="M249 216.385H228V224.627H249V216.385Z" fill="black"/>
<path opacity="0.4" d="M249 234.859H228V243.101H249V234.859Z" fill="black"/>
<path opacity="0.4" d="M285 124H264V132.242H285V124Z" fill="black"/>
<path opacity="0.4" d="M285 142.479H264V150.721H285V142.479Z" fill="black"/>
<path opacity="0.4" d="M285 160.953H264V169.195H285V160.953Z" fill="black"/>
<path d="M285 179.431H264V187.674H285V179.431Z" fill="#83649C"/>
<path opacity="0.4" d="M285 197.906H264V206.148H285V197.906Z" fill="black"/>
<path opacity="0.4" d="M285 216.385H264V224.627H285V216.385Z" fill="black"/>
<path opacity="0.4" d="M285 234.859H264V243.101H285V234.859Z" fill="black"/>
<path opacity="0.4" d="M80.2235 194H68V202.242H80.2235V194Z" fill="black"/>
<path opacity="0.4" d="M58.2235 194H46V202.242H58.2235V194Z" fill="black"/>
<path opacity="0.4" d="M80.2235 207H68V215.242H80.2235V207Z" fill="black"/>
<path opacity="0.4" d="M80.2235 181H68V189.242H80.2235V181Z" fill="black"/>
<path opacity="0.4" d="M58.2235 168H46V176.242H58.2235V168Z" fill="black"/>
<path opacity="0.4" d="M80.2235 168H68V176.242H80.2235V168Z" fill="black"/>
<path opacity="0.4" d="M36.2235 168H24V176.242H36.2235V168Z" fill="black"/>
<path d="M58.2235 181H46V189.242H58.2235V181Z" fill="#83649C"/>
<path opacity="0.4" d="M36.2235 181H24V189.242H36.2235V181Z" fill="black"/>
<path opacity="0.4" d="M575.223 89H563V97.2421H575.223V89Z" fill="black"/>
<path opacity="0.4" d="M599.447 89H587.224V97.2421H599.447V89Z" fill="black"/>
<path opacity="0.4" d="M623.67 89H611.447V97.2421H623.67V89Z" fill="black"/>
<path opacity="0.4" d="M575.223 114.188H563V122.43H575.223V114.188Z" fill="black"/>
<path d="M599.447 114.188H587.224V122.43H599.447V114.188Z" fill="#83649C"/>
<path opacity="0.4" d="M623.67 114.188H611.447V122.43H623.67V114.188Z" fill="black"/>
<path opacity="0.4" d="M575.223 139.371H563V147.613H575.223V139.371Z" fill="black"/>
<path opacity="0.4" d="M599.447 139.371H587.224V147.613H599.447V139.371Z" fill="black"/>
<path d="M623.67 139.371H611.447V147.613H623.67V139.371Z" fill="#83649C"/>
<path opacity="0.4" d="M575.223 164.559H563V172.801H575.223V164.559Z" fill="black"/>
<path opacity="0.4" d="M599.447 164.559H587.224V172.801H599.447V164.559Z" fill="black"/>
<path opacity="0.4" d="M623.67 164.559H611.447V172.801H623.67V164.559Z" fill="black"/>
<path opacity="0.4" d="M575.223 189.746H563V197.988H575.223V189.746Z" fill="black"/>
<path opacity="0.4" d="M599.447 189.746H587.224V197.988H599.447V189.746Z" fill="black"/>
<path opacity="0.4" d="M623.67 189.746H611.447V197.988H623.67V189.746Z" fill="black"/>
<path opacity="0.4" d="M575.223 215H563V223.242H575.223V215Z" fill="black"/>
<path opacity="0.4" d="M599.447 215H587.224V223.242H599.447V215Z" fill="black"/>
<path opacity="0.4" d="M623.67 215H611.447V223.242H623.67V215Z" fill="black"/>
<path opacity="0.4" d="M487 161H466V169.242H487V161Z" fill="black"/>
<path opacity="0.4" d="M487 179.479H466V187.721H487V179.479Z" fill="black"/>
<path opacity="0.4" d="M487 197.953H466V206.195H487V197.953Z" fill="black"/>
<path d="M487 216.431H466V224.674H487V216.431Z" fill="#83649C"/>
<path opacity="0.4" d="M487 234.906H466V243.148H487V234.906Z" fill="black"/>
<path opacity="0.4" d="M526 161H505V169.242H526V161Z" fill="black"/>
<path d="M526 179.479H505V187.721H526V179.479Z" fill="#83649C"/>
<path opacity="0.4" d="M526 197.953H505V206.195H526V197.953Z" fill="black"/>
<path opacity="0.4" d="M526 216.431H505V224.674H526V216.431Z" fill="black"/>
<path opacity="0.4" d="M526 234.906H505V243.148H526V234.906Z" fill="black"/>
<path d="M74 1.00275e-05V215C72.3281 214.813 70.6615 214.609 69 214.386V0C71.5 0 71.5 -1.00275e-05 74 1.00275e-05Z" fill="#3F3D56"/>
<path d="M223 3.28858e-06V290.916L218 291V0C219.779 7.05652e-06 220.299 -7.05652e-06 223 3.28858e-06Z" fill="#3F3D56"/>
<path d="M372 0V325.718C370.5 325.797 370.5 325.797 368 326V0H372Z" fill="#3F3D56"/>
<path d="M520 1V302.739C518.5 302.812 518.5 302.812 516 303V1H520Z" fill="#3F3D56"/>
<path d="M668 5V300.744C666.5 300.816 666.5 300.816 664 301V5H668Z" fill="#3F3D56"/>
<path d="M739.5 170H2.12607e-05C2.12607e-05 168.5 0 167 0 165H741.5C739.5 170 741.5 165 739.5 170Z" fill="#3F3D56"/>
<path d="M786 42C786.004 41.9832 785 42 786 42H0C1.02402e-05 40.308 1.27639e-05 38.6622 1.02402e-05 37H787.586C786.586 40 787.586 37 786 42Z" fill="#3F3D56"/>
<path d="M295.865 332L161.5 263.5C216 239 666.5 230.5 706.5 264L691.5 303L295.865 332Z" fill="#3F3D56"/>
<path d="M577.712 232.514C577.712 232.514 573.999 249.797 590.525 251.846L591.547 249.928C591.547 249.928 578.751 237.907 577.712 232.514Z" fill="#83649C"/>
<path d="M596.819 249.814L592.991 250.628L592.608 250.71C592.608 250.71 582.355 242.393 582.486 223.826C583.858 226.562 585.498 229.155 587.38 231.569C591.433 236.94 596.054 244.115 596.819 249.814Z" fill="#83649C"/>
<path d="M598.121 251.595C597.818 251.79 597.475 251.916 597.117 251.962C596.76 252.009 596.396 251.975 596.053 251.863C586.21 249.557 589.519 217.438 589.519 217.438C590.065 217.695 590.661 221.81 592.931 227.055C596.912 236.339 601.287 249.267 598.121 251.595Z" fill="#83649C"/>
<path d="M620.006 232.514C620.006 232.514 620.646 249.797 604.12 251.846L603.097 249.928C603.097 249.928 618.983 237.907 620.006 232.514Z" fill="#83649C"/>
<path d="M615.27 223.826C615.39 242.404 602.069 250.71 602.069 250.71L601.686 250.628L597.858 249.814C598.618 244.115 603.25 236.94 607.308 231.569C609.603 228.643 612.281 226.039 615.27 223.826V223.826Z" fill="#83649C"/>
<path d="M601.626 249.912C601.035 250.632 600.286 251.208 599.438 251.595C599.18 251.711 598.911 251.801 598.634 251.863C596.206 252.409 595.353 250.682 595.495 247.71C595.725 242.415 599.056 233.235 602.058 226.4C604.212 221.449 607.729 217.701 608.254 217.455C608.221 217.427 608.073 242.448 601.626 249.912Z" fill="#83649C"/>
<path d="M598.87 206.16C598.87 206.16 587.851 245.207 597.333 251.098C606.816 256.988 601.303 209.619 598.87 206.16Z" fill="#83649C"/>
<path opacity="0.1" d="M577.712 232.514C577.712 232.514 573.999 249.797 590.525 251.846L591.547 249.928C591.547 249.928 578.751 237.907 577.712 232.514Z" fill="black"/>
<path opacity="0.1" d="M596.819 249.814L592.991 250.628L592.608 250.71C592.608 250.71 582.355 242.393 582.486 223.826C583.858 226.562 585.498 229.155 587.38 231.569C591.433 236.94 596.054 244.115 596.819 249.814Z" fill="black"/>
<path opacity="0.1" d="M598.121 251.595C597.818 251.79 597.475 251.916 597.117 251.962C596.76 252.009 596.396 251.975 596.053 251.863C586.21 249.557 589.519 217.438 589.519 217.438C590.065 217.695 590.661 221.81 592.931 227.055C596.912 236.339 601.287 249.267 598.121 251.595Z" fill="black"/>
<path opacity="0.1" d="M620.006 232.514C620.006 232.514 620.646 249.797 604.12 251.846L603.097 249.928C603.097 249.928 618.983 237.907 620.006 232.514Z" fill="black"/>
<path opacity="0.1" d="M615.27 223.826C615.39 242.404 602.069 250.71 602.069 250.71L601.686 250.628L597.858 249.814C598.618 244.115 603.25 236.94 607.308 231.569C609.603 228.643 612.281 226.039 615.27 223.826V223.826Z" fill="black"/>
<path opacity="0.1" d="M601.626 249.912C601.035 250.632 600.286 251.208 599.438 251.595C599.18 251.711 598.911 251.801 598.634 251.863C596.206 252.409 595.353 250.682 595.495 247.71C595.725 242.415 599.056 233.235 602.058 226.4C604.212 221.449 607.729 217.701 608.254 217.455C608.221 217.427 608.073 242.448 601.626 249.912Z" fill="black"/>
<path opacity="0.1" d="M598.87 206.16C598.87 206.16 587.851 245.207 597.333 251.098C606.816 256.988 601.303 209.619 598.87 206.16Z" fill="black"/>
<path d="M577.712 232.514C577.712 232.514 575.525 249.797 592.061 251.846L593.084 249.928C593.084 249.928 578.751 237.907 577.712 232.514Z" fill="#83649C"/>
<path d="M598.356 249.814L594.528 250.628L594.14 250.71C594.14 250.71 582.349 242.393 582.481 223.826C582.481 223.826 585.499 227.061 588.912 231.569C592.969 236.94 597.59 244.115 598.356 249.814Z" fill="#83649C"/>
<path opacity="0.1" d="M598.356 249.814L594.528 250.628C590.88 247.431 589.437 239.088 588.912 231.569C592.969 236.94 597.59 244.115 598.356 249.814Z" fill="black"/>
<path d="M599.657 251.595C599.354 251.79 599.012 251.916 598.654 251.962C598.296 252.009 597.933 251.975 597.59 251.863C587.719 249.557 589.519 217.438 589.519 217.438C590.065 217.695 592.198 221.81 594.44 227.055C598.449 236.339 602.823 249.267 599.657 251.595Z" fill="#83649C"/>
<path d="M620.006 232.514C620.006 232.514 622.193 249.797 605.656 251.846L604.634 249.928C604.634 249.928 618.983 237.907 620.006 232.514Z" fill="#83649C"/>
<path d="M615.27 223.826C615.39 242.404 603.605 250.71 603.605 250.71L603.223 250.628L599.395 249.814C600.16 244.115 604.786 236.94 608.844 231.569C612.246 227.05 615.27 223.826 615.27 223.826Z" fill="#83649C"/>
<path opacity="0.1" d="M608.828 231.569C608.336 238.585 607.05 246.322 603.933 249.912C603.716 250.169 603.478 250.409 603.223 250.628L599.395 249.814C600.133 244.115 604.77 236.94 608.828 231.569Z" fill="black"/>
<path d="M603.162 249.912C602.571 250.632 601.823 251.208 600.975 251.595C600.715 251.711 600.444 251.801 600.166 251.863C597.738 252.409 596.885 250.682 597.027 247.71C597.262 242.415 600.587 233.235 603.589 226.4C605.744 221.449 607.723 217.701 608.248 217.455C608.221 217.427 609.61 242.448 603.162 249.912Z" fill="#83649C"/>
<path opacity="0.1" d="M599.657 251.595C599.099 251.592 598.555 251.418 598.099 251.098C593.456 248.207 593.363 237.361 594.467 227.055C598.449 236.339 602.823 249.267 599.657 251.595Z" fill="black"/>
<path opacity="0.1" d="M603.163 249.912C602.616 251.065 601.91 251.677 600.975 251.595C600.502 251.532 600.049 251.362 599.652 251.098C598.446 250.269 597.528 249.084 597.027 247.71C597.262 242.415 600.587 233.235 603.589 226.4C604.628 235.902 604.984 246.005 603.163 249.912Z" fill="black"/>
<path d="M598.87 206.16C598.87 206.16 589.387 245.207 598.87 251.098C608.352 256.988 601.303 209.619 598.87 206.16Z" fill="#83649C"/>
<path d="M617.064 249.174H577.603V255.704H583.623L583.771 256.474L586.183 269.146H609.123L611.535 256.474L611.683 255.704H617.064V249.174Z" fill="#D4DFEC"/>
<path opacity="0.1" d="M617.047 249.174H577.586V255.704H583.607L583.754 256.474L586.166 269.146H609.107L611.518 256.474L611.666 255.704H617.047V249.174Z" fill="black"/>
<path d="M613.733 253.016L613.071 256.475L610.66 269.146H587.719L585.308 256.475L584.646 253.016H613.733Z" fill="#D4DFEC"/>
<path opacity="0.1" d="M613.733 253.016L613.071 256.475H585.308L584.646 253.016H613.733Z" fill="black"/>
<path d="M618.6 249.174H579.139V255.704H618.6V249.174Z" fill="#D4DFEC"/>
<path d="M242.357 232.354C242.357 232.354 238.644 249.637 255.17 251.686L256.192 249.768C256.192 249.768 243.396 237.747 242.357 232.354Z" fill="#83649C"/>
<path d="M261.464 249.653L257.636 250.467L257.253 250.549C257.253 250.549 247 242.233 247.131 223.666C248.503 226.401 250.143 228.995 252.025 231.408C256.078 236.78 260.699 243.954 261.464 249.653Z" fill="#83649C"/>
<path d="M262.766 251.435C262.463 251.63 262.12 251.756 261.762 251.802C261.405 251.848 261.041 251.814 260.698 251.702C250.855 249.396 254.164 217.278 254.164 217.278C254.71 217.535 255.306 221.649 257.576 226.895C261.557 236.179 265.932 249.107 262.766 251.435Z" fill="#83649C"/>
<path d="M284.651 232.354C284.651 232.354 285.291 249.637 268.765 251.686L267.742 249.768C267.742 249.768 283.628 237.747 284.651 232.354Z" fill="#83649C"/>
<path d="M279.915 223.666C280.035 242.244 266.714 250.549 266.714 250.549L266.331 250.467L262.503 249.653C263.263 243.954 267.895 236.78 271.953 231.408C274.248 228.483 276.926 225.879 279.915 223.666V223.666Z" fill="#83649C"/>
<path d="M266.271 249.752C265.68 250.472 264.931 251.047 264.083 251.435C263.825 251.551 263.556 251.64 263.279 251.702C260.851 252.249 259.998 250.522 260.141 247.549C260.37 242.255 263.701 233.075 266.703 226.239C268.857 221.289 272.374 217.54 272.899 217.294C272.866 217.267 272.718 242.287 266.271 249.752Z" fill="#83649C"/>
<path d="M263.515 206C263.515 206 252.496 245.047 261.978 250.937C271.461 256.828 265.948 209.459 263.515 206Z" fill="#83649C"/>
<path opacity="0.1" d="M242.357 232.354C242.357 232.354 238.644 249.637 255.17 251.686L256.192 249.768C256.192 249.768 243.396 237.747 242.357 232.354Z" fill="black"/>
<path opacity="0.1" d="M261.464 249.653L257.636 250.467L257.253 250.549C257.253 250.549 247 242.233 247.131 223.666C248.503 226.401 250.143 228.995 252.025 231.408C256.078 236.78 260.699 243.954 261.464 249.653Z" fill="black"/>
<path opacity="0.1" d="M262.766 251.435C262.463 251.63 262.12 251.756 261.762 251.802C261.405 251.848 261.041 251.814 260.698 251.702C250.855 249.396 254.164 217.278 254.164 217.278C254.71 217.535 255.306 221.649 257.576 226.895C261.557 236.179 265.932 249.107 262.766 251.435Z" fill="black"/>
<path opacity="0.1" d="M284.651 232.354C284.651 232.354 285.291 249.637 268.765 251.686L267.742 249.768C267.742 249.768 283.628 237.747 284.651 232.354Z" fill="black"/>
<path opacity="0.1" d="M279.915 223.666C280.035 242.244 266.714 250.549 266.714 250.549L266.331 250.467L262.503 249.653C263.263 243.954 267.895 236.78 271.953 231.408C274.248 228.483 276.926 225.879 279.915 223.666V223.666Z" fill="black"/>
<path opacity="0.1" d="M266.271 249.752C265.68 250.472 264.931 251.047 264.083 251.435C263.825 251.551 263.556 251.64 263.279 251.702C260.851 252.249 259.998 250.522 260.141 247.549C260.37 242.255 263.701 233.075 266.703 226.239C268.857 221.289 272.374 217.54 272.899 217.294C272.866 217.267 272.718 242.287 266.271 249.752Z" fill="black"/>
<path opacity="0.1" d="M263.515 206C263.515 206 252.496 245.047 261.978 250.937C271.461 256.828 265.948 209.459 263.515 206Z" fill="black"/>
<path d="M242.357 232.354C242.357 232.354 240.17 249.637 256.706 251.686L257.729 249.768C257.729 249.768 243.396 237.747 242.357 232.354Z" fill="#83649C"/>
<path d="M263.001 249.653L259.173 250.467L258.785 250.549C258.785 250.549 246.994 242.233 247.126 223.666C247.126 223.666 250.144 226.9 253.557 231.408C257.614 236.78 262.235 243.954 263.001 249.653Z" fill="#83649C"/>
<path opacity="0.1" d="M263.001 249.653L259.173 250.467C255.525 247.271 254.082 238.927 253.557 231.408C257.614 236.78 262.235 243.954 263.001 249.653Z" fill="black"/>
<path d="M264.302 251.435C263.999 251.63 263.657 251.756 263.299 251.802C262.941 251.848 262.578 251.814 262.235 251.702C252.364 249.396 254.164 217.278 254.164 217.278C254.71 217.535 256.843 221.649 259.085 226.895C263.094 236.179 267.468 249.107 264.302 251.435Z" fill="#83649C"/>
<path d="M284.651 232.354C284.651 232.354 286.838 249.637 270.301 251.686L269.279 249.768C269.279 249.768 283.628 237.747 284.651 232.354Z" fill="#83649C"/>
<path d="M279.915 223.666C280.035 242.244 268.25 250.549 268.25 250.549L267.868 250.467L264.04 249.653C264.805 243.954 269.432 236.78 273.489 231.408C276.891 226.89 279.915 223.666 279.915 223.666Z" fill="#83649C"/>
<path opacity="0.1" d="M273.473 231.408C272.981 238.424 271.696 246.162 268.578 249.752C268.361 250.009 268.123 250.248 267.868 250.467L264.04 249.653C264.778 243.954 269.415 236.78 273.473 231.408Z" fill="black"/>
<path d="M267.807 249.752C267.216 250.472 266.468 251.047 265.62 251.435C265.36 251.551 265.089 251.64 264.811 251.702C262.383 252.249 261.53 250.522 261.672 247.549C261.907 242.255 265.232 233.075 268.234 226.239C270.389 221.289 272.368 217.54 272.893 217.294C272.866 217.267 274.255 242.287 267.807 249.752Z" fill="#83649C"/>
<path opacity="0.1" d="M264.302 251.434C263.744 251.432 263.2 251.258 262.744 250.937C258.101 248.047 258.008 237.2 259.113 226.895C263.094 236.179 267.468 249.107 264.302 251.434Z" fill="black"/>
<path opacity="0.1" d="M267.808 249.752C267.261 250.905 266.555 251.517 265.62 251.435C265.147 251.372 264.694 251.201 264.297 250.937C263.091 250.108 262.173 248.924 261.672 247.55C261.907 242.255 265.232 233.075 268.234 226.239C269.273 235.741 269.629 245.845 267.808 249.752Z" fill="black"/>
<path d="M263.515 206C263.515 206 254.032 245.047 263.515 250.937C272.997 256.828 265.948 209.459 263.515 206Z" fill="#83649C"/>
<path d="M281.709 249.014H242.248V255.544H248.268L248.416 256.314L250.828 268.985H273.768L276.18 256.314L276.328 255.544H281.709V249.014Z" fill="#D4DFEC"/>
<path opacity="0.1" d="M281.692 249.014H242.231V255.544H248.252L248.399 256.314L250.811 268.985H273.752L276.163 256.314L276.311 255.544H281.692V249.014Z" fill="black"/>
<path d="M278.378 252.855L277.717 256.314L275.305 268.986H252.364L249.953 256.314L249.291 252.855H278.378Z" fill="#D4DFEC"/>
<path opacity="0.1" d="M278.378 252.855L277.717 256.314H249.953L249.291 252.855H278.378Z" fill="black"/>
<path d="M283.245 249.014H243.784V255.544H283.245V249.014Z" fill="#D4DFEC"/>
<path d="M503.889 232.205C503.889 232.205 488.347 235.921 482.195 242.875C480.134 245.199 477.076 246.874 473.919 248.069V237.578C477.475 231.676 481.058 225.112 481.058 225.112C481.221 224.79 482.517 220.263 482.517 220.263C485.434 217.997 482.354 210.08 482.354 210.08C482.354 210.08 484.138 205.07 483.165 204.098C482.191 203.126 483.001 200.543 483.812 199.41C484.623 198.277 484.46 196.822 484.46 195.854C484.46 194.887 483.165 193.427 481.058 192.621C478.952 191.815 481.221 190.521 482.517 190.195C483.812 189.868 484.138 186.8 482.68 185.184C481.221 183.567 482.843 182.6 483.649 180.823C484.456 179.045 481.044 179.367 481.044 179.367V163.024C481.044 163.024 480.071 157.691 479.101 148.314C478.132 138.938 474.404 137.971 474.404 137.971C472.407 137.358 470.458 136.6 468.574 135.705C466.589 134.786 464.532 134.029 462.422 133.444C462.422 133.444 458.051 133.444 454.486 132.36C450.92 131.276 449.072 131.2 449.072 131.2L448.488 130.914C444.104 128.71 440.631 125.07 438.662 120.615C438.563 120.391 438.472 120.167 438.382 119.952C439.35 118.904 440.216 117.767 440.968 116.558V116.531C440.968 116.697 440.968 116.862 440.968 117.028C440.968 117.095 440.968 117.167 440.968 117.234C440.968 117.633 440.968 118.031 440.968 118.43V118.47C443.55 113.961 451.043 112.931 451.754 107.782C451.786 107.547 451.803 107.311 451.804 107.074V107.043C451.804 106.873 451.804 106.698 451.804 106.523C451.709 105.086 451.21 103.653 451.115 102.202C451.083 101.787 451.083 101.369 451.115 100.953V100.98C451.45 96.9813 454.499 93.5021 455.894 89.6199C456.27 88.5756 456.515 87.4899 456.624 86.3869V86.3556C456.66 86.0242 456.683 85.6884 456.692 85.3526C456.692 85.272 456.692 85.1869 456.692 85.1063C456.692 84.8735 456.692 84.6585 456.692 84.4078C456.649 82.3422 456.179 80.3071 455.31 78.428C454.442 76.549 453.193 74.8657 451.641 73.4821C449.059 71.2656 445.648 69.873 443.858 66.9759C443.025 65.6326 442.617 64.0385 441.707 62.74C439.994 60.2861 436.85 59.2876 433.874 58.9339C430.898 58.5801 427.84 58.6965 424.996 57.7741C422.975 57.1204 421.145 55.9606 419.107 55.3785C416.886 54.791 414.536 54.8893 412.373 55.6601C410.211 56.4309 408.338 57.8373 407.007 59.6906C405.934 61.2399 405.232 63.0937 403.782 64.3027C400.815 66.7834 395.782 65.7087 393.182 68.5655C391.755 70.1372 391.592 72.2776 391.764 74.4627C391.764 74.4896 391.764 74.5164 391.764 74.5433C391.764 74.709 391.796 74.8791 391.814 75.0493C391.814 75.1299 391.814 75.2105 391.814 75.2866C391.814 75.3627 391.814 75.4568 391.846 75.5418C391.936 76.3254 392.05 77.1046 392.149 77.8568C392.149 77.9732 392.176 78.0852 392.19 78.2016L392.271 78.9046C392.271 79.0748 392.299 79.2449 392.317 79.4151C392.335 79.5852 392.348 79.8629 392.362 80.0509C392.376 80.239 392.362 80.3823 392.394 80.5524C392.684 86.5197 391.404 92.4594 388.679 97.7918C386.229 102.543 382.586 106.922 381.952 112.228C381.854 113.098 381.829 113.974 381.88 114.847C381.88 114.95 381.88 115.053 381.88 115.156C381.88 115.259 381.907 115.47 381.921 115.627C381.934 115.783 381.957 115.989 381.979 116.168C381.979 116.271 382.007 116.374 382.02 116.477C382.052 116.715 382.088 116.952 382.129 117.194L382.156 117.346C382.799 120.964 384.258 124.51 385.033 128.164C385.323 129.512 385.517 130.878 385.612 132.252C385.61 132.261 385.61 132.271 385.612 132.279C385.64 132.727 385.662 133.153 385.676 133.591C385.676 134.182 385.676 134.778 385.676 135.382C384.446 135.85 383.185 136.233 381.902 136.529C379.638 136.851 372.992 142.672 373.477 144.141C373.961 145.61 370.505 155.783 370.41 156.092L364.974 193.257C364.974 193.257 362.089 196.007 362.99 197.784C363.891 199.562 362.813 202.634 362.813 202.634C362.813 202.634 357.939 204.734 359.022 206.028C360.104 207.322 359.611 209.744 358.868 211.361C358.125 212.977 356.906 215.888 358.868 216.371C360.829 216.855 359.203 223.164 359.203 223.164C359.203 223.164 366.039 222.385 365.545 226.397C365.382 227.673 370.324 231.184 372.385 232.59V251.907C369.617 251.141 366.365 250.147 364.29 249.189C360.082 247.25 336.44 243.533 331.258 254.688C326.076 265.842 338.383 280.712 341.459 282.329C341.459 282.329 344.377 284.59 345.024 285.723C345.672 286.856 349.396 287.178 349.396 287.178C349.396 287.178 353.282 288.969 354.252 289.923C354.968 290.639 360.888 292.498 367.905 293.953C367.905 293.953 362.238 306.849 371.484 305.788C380.729 304.726 385.232 300.226 391.751 300.226C394.355 300.226 399.193 299.864 404.063 299.434C405.286 299.648 406.496 299.93 407.687 300.28C410.43 301.133 413.248 301.732 416.103 302.071C416.103 302.071 423.392 305.949 427.279 304.977C427.599 304.888 427.898 304.736 428.158 304.529H428.248C428.955 304.355 429.757 303.634 430.59 302.546C435.451 303.038 441.009 303.737 443.075 304.534C447.102 306.07 475.908 303.943 475.908 303.943C475.908 303.943 494.517 304.305 499.848 305.9C505.18 307.494 503.286 289.623 493.447 287.612C490.821 287.092 488.149 286.831 485.47 286.833C486.152 286.139 486.774 285.39 487.332 284.594C490.874 284.276 493.221 284.079 493.221 284.079C493.221 284.079 502.611 279.552 507.957 276.803C511.37 274.968 514.435 272.562 517.017 269.692C517.017 269.692 521.71 266.782 523.653 265.662C525.596 264.543 526.566 260.813 526.566 260.813C541.293 227.834 503.889 232.205 503.889 232.205ZM461.724 190.839C461.724 190.298 461.724 189.751 461.724 189.209C462.25 189.577 462.173 190.154 461.724 190.835V190.839ZM461.878 202.271C462.272 202.781 462.653 203.247 462.925 203.614C463.971 204.958 462.078 205.585 462.214 207.81C462.245 208.307 462.291 209.001 462.336 209.771C462.137 206.561 461.973 203.919 461.878 202.267V202.271Z" fill="url(#paint1_linear)"/>
<path d="M377.591 253.486C377.591 253.486 368.526 251.38 364.307 249.437C360.087 247.494 336.443 243.772 331.258 254.944C326.074 266.116 338.388 281.001 341.465 282.622C344.542 284.243 374.513 262.058 374.513 262.058L398.153 272.021L402.685 256.56L377.591 253.486Z" fill="#65617D"/>
<path d="M473.812 256.56H404.285C395.066 256.56 387.593 264.028 387.593 273.239V275.653C387.593 284.864 395.066 292.331 404.285 292.331H473.812C483.031 292.331 490.504 284.864 490.504 275.653V273.239C490.504 264.028 483.031 256.56 473.812 256.56Z" fill="#65617D"/>
<path opacity="0.1" d="M490.504 274.443C490.508 277.962 489.47 281.403 487.522 284.334C486.86 285.327 486.101 286.252 485.256 287.096C483.596 288.76 481.623 290.079 479.45 290.978C477.278 291.877 474.949 292.339 472.598 292.336H405.495C400.747 292.336 396.193 290.451 392.836 287.096C389.479 283.742 387.593 279.192 387.593 274.448C387.593 269.704 389.479 265.154 392.836 261.799C396.193 258.445 400.747 256.56 405.495 256.56H472.602C477.349 256.56 481.902 258.444 485.259 261.798C488.616 265.151 490.503 269.7 490.504 274.443V274.443Z" fill="black"/>
<path d="M434.473 275.49C434.473 275.49 424.154 278.139 415.733 278.021C407.312 277.903 367.923 294.256 367.923 294.256C367.923 294.256 362.254 307.171 371.504 306.102C380.754 305.034 385.259 300.55 391.781 300.55C398.302 300.55 418.819 298.286 418.819 298.286L438.561 283.713L434.473 275.49Z" fill="#FBBEBE"/>
<path d="M440.932 153.613L422.422 157.259L421.221 157.499C421.221 157.499 406.587 153.613 406.102 153.287C405.617 152.961 392.333 135.078 392.333 135.078C392.333 135.078 399.05 135.151 404.326 132.112C404.516 132.003 404.702 131.886 404.888 131.772C407.207 130.375 408.97 128.215 409.873 125.663C409.968 125.396 410.05 125.12 410.127 124.83C410.689 122.666 410.725 120.044 409.973 116.869C408.16 109.32 412.329 107.241 417.854 107.423C425.835 107.685 436.699 112.662 436.699 112.662C436.839 115.202 437.417 117.699 438.407 120.044C438.493 120.261 438.589 120.496 438.688 120.705C440.67 125.174 444.145 128.816 448.519 131.007L449.103 131.297C449.692 131.578 450.313 131.845 450.957 132.085C465.07 137.429 440.932 153.613 440.932 153.613Z" fill="#FBBEBE"/>
<path opacity="0.1" d="M438.706 120.705C435.186 124.686 430.412 127.348 425.172 128.25C419.932 129.152 414.541 128.239 409.891 125.663C410.689 123.345 410.838 120.46 409.991 116.869C405.617 98.4154 436.73 112.662 436.73 112.662C436.884 115.442 437.554 118.17 438.706 120.705V120.705Z" fill="black"/>
<path d="M444.549 104.312C444.556 108.673 443.331 112.947 441.013 116.643C440.259 117.855 439.393 118.993 438.426 120.044C434.343 124.514 428.673 127.212 422.627 127.561C422.173 127.593 421.688 127.606 421.217 127.606C416.603 127.606 412.093 126.239 408.257 123.678C404.421 121.117 401.431 117.477 399.666 113.218C397.9 108.959 397.438 104.272 398.338 99.7507C399.238 95.2293 401.46 91.0762 404.722 87.8165C407.985 84.5567 412.141 82.3369 416.666 81.4375C421.191 80.5381 425.881 80.9997 430.144 82.7639C434.406 84.528 438.05 87.5155 440.613 91.3485C443.176 95.1816 444.544 99.688 444.544 104.298L444.549 104.312Z" fill="#FBBEBE"/>
<path opacity="0.1" d="M440.932 153.613L422.422 157.259L421.221 157.499C421.221 157.499 406.587 153.613 406.102 153.287C405.617 152.961 392.333 135.078 392.333 135.078C392.333 135.078 399.05 135.151 404.326 132.112C404.516 132.003 404.702 131.886 404.888 131.772C406.564 133.584 412.053 138.706 420.678 138.669C421.785 138.67 422.89 138.589 423.986 138.429C426.587 138.031 429.212 137.773 431.831 137.524C436.848 136.998 444.521 135.477 448.55 131.048L449.135 131.338C449.724 131.618 450.345 131.886 450.989 132.126C465.07 137.429 440.932 153.613 440.932 153.613Z" fill="black"/>
<path d="M461.829 200.878C461.988 204.442 464.585 244.582 464.585 244.582H383.745L384.294 219.309L384.747 199.093L384.892 192.459L385.54 169.477L383.197 167.412L370.461 156.199C370.557 155.9 374.01 145.67 373.53 144.23C373.049 142.79 379.689 136.949 381.959 136.623C383.25 136.323 384.519 135.937 385.757 135.468C389.578 134.109 394.677 132.153 395.239 132.461C396.032 132.886 403.981 132.148 404.303 132.117C404.303 132.117 410.168 139.693 420.646 139.648C421.749 139.642 422.851 139.554 423.941 139.385C426.542 138.986 429.166 138.728 431.786 138.457C437.057 137.909 445.251 136.256 449.09 131.302C449.09 131.302 450.943 131.378 454.506 132.461C458.068 133.543 462.446 133.548 462.446 133.548C464.556 134.134 466.614 134.891 468.6 135.812C470.487 136.707 472.437 137.464 474.433 138.076C474.433 138.076 478.159 139.045 479.133 148.433C480.108 157.821 481.091 163.164 481.091 163.164L461.829 179.834C461.829 179.834 461.671 197.3 461.829 200.878Z" fill="#83649C"/>
<path d="M370.466 228.882L373.299 233.415L383.908 237.151L391.2 223.864L384.479 219.331L373.706 215.124L367.552 218.684L370.466 228.882Z" fill="#FBBEBE"/>
<path d="M461.019 251.217C461.019 251.217 476.083 250.085 482.243 243.124C488.402 236.164 503.947 232.441 503.947 232.441C503.947 232.441 541.369 228.071 526.608 261.093C526.608 261.093 525.638 264.816 523.694 265.948C521.749 267.08 517.054 269.996 517.054 269.996L459.573 264.979L461.019 251.217Z" fill="#65617D"/>
<path opacity="0.1" d="M490.504 274.443C490.508 277.962 489.47 281.403 487.522 284.334C477.851 285.19 456.432 287.2 451.949 288.45C446.443 289.976 435.298 287.318 434.079 287.019L433.966 286.992C433.966 286.992 431.818 280.48 430.793 276.314C430.34 274.421 430.1 273.012 430.399 272.908C431.373 272.587 440.284 270.155 440.12 271.55C439.957 272.944 466.86 261.107 466.86 261.107L467.685 271.468C470.418 274.593 490.504 269.947 490.504 274.443Z" fill="black"/>
<path d="M518.205 265.785L517.072 269.996C514.484 272.874 511.417 275.282 508.008 277.115C502.66 279.869 493.265 284.402 493.265 284.402C493.265 284.402 458.761 287.314 452.928 288.93C447.096 290.547 434.945 287.472 434.945 287.472C434.945 287.472 430.413 273.714 431.383 273.388C432.353 273.062 441.263 270.64 441.104 272.03C440.946 273.42 467.844 261.587 467.844 261.587L518.205 265.785Z" fill="#65617D"/>
<path d="M422.137 302.076C422.137 302.076 439.096 303.258 443.13 304.794C447.164 306.329 475.979 304.205 475.979 304.205C475.979 304.205 494.597 304.567 499.931 306.161C505.266 307.755 503.371 289.859 493.528 287.852C483.684 285.846 469.811 288.799 469.811 288.799C469.811 288.799 454.157 286.784 452.258 286.535C450.359 286.285 437.855 286.648 437.855 286.648L422.137 302.076Z" fill="#FBBEBE"/>
<path opacity="0.1" d="M355.492 257.403C355.492 257.403 377.908 259.418 384.071 263.09L355.492 257.403Z" fill="black"/>
<path opacity="0.1" d="M495.309 242.712C495.309 242.712 477.756 246.978 470.876 253.255L495.309 242.712Z" fill="black"/>
<path opacity="0.1" d="M356.797 252.308C357.155 252.426 367.117 253.73 366.877 254.676C366.637 255.623 356.797 252.308 356.797 252.308Z" fill="black"/>
<path opacity="0.1" d="M341.143 277.278L342.439 282.137C342.439 282.137 345.353 284.402 346.002 285.534C346.65 286.666 350.375 286.992 350.375 286.992C350.375 286.992 354.264 288.772 355.238 289.741C356.212 290.71 366.736 293.789 376.621 295.084C386.505 296.38 404.806 298.807 408.695 300.102C411.442 300.953 414.263 301.549 417.12 301.882C417.12 301.882 424.408 305.767 428.296 304.798C432.185 303.829 438.824 286.181 438.824 286.181C438.824 286.181 413.231 280.195 412.42 278.252C411.609 276.309 386.986 267.248 386.986 267.248L372.406 267.592L341.143 277.278Z" fill="black"/>
<path d="M340.168 277.763L341.465 282.622C341.465 282.622 344.383 284.886 345.031 286.018C345.68 287.15 349.405 287.477 349.405 287.477C349.405 287.477 353.294 289.256 354.263 290.23C355.233 291.203 365.766 294.274 375.646 295.569C385.526 296.864 403.836 299.291 407.725 300.587C410.471 301.435 413.29 302.03 416.145 302.362C416.145 302.362 423.438 306.243 427.326 305.274C431.215 304.304 437.854 286.657 437.854 286.657C437.854 286.657 412.257 280.67 411.45 278.727C410.643 276.785 374.513 262.058 374.513 262.058L363.183 259.468L340.168 277.763Z" fill="#65617D"/>
<path d="M373.294 154.583L370.461 156.204L365.023 193.433C365.023 193.433 362.136 196.186 363.038 197.961C363.94 199.737 362.861 202.816 362.861 202.816C362.861 202.816 357.984 204.922 359.067 206.217C360.151 207.512 359.657 209.939 358.913 211.556C358.17 213.173 356.951 216.084 358.913 216.574C360.876 217.063 359.249 223.366 359.249 223.366C359.249 223.366 366.088 222.587 365.594 226.6C365.39 228.221 373.326 233.392 373.326 233.392C373.326 233.392 364.307 217.045 384.511 219.309L386.247 210.093C386.247 210.093 387.983 204.904 386.247 203.3C384.511 201.697 386.637 193.994 386.637 193.994L387.017 160.569L373.294 154.583Z" fill="#83649C"/>
<path opacity="0.1" d="M368.894 202.662C369.252 203.255 380.16 204.473 380.872 206.407C381.584 208.341 368.894 202.662 368.894 202.662Z" fill="black"/>
<path opacity="0.1" d="M365.454 211.905C365.454 211.905 366.936 207.281 370.439 208.11C373.942 208.938 365.454 211.905 365.454 211.905Z" fill="black"/>
<path opacity="0.1" d="M363.559 218.657C363.559 218.657 366.165 212.493 369.723 212.969C373.28 213.444 363.559 218.657 363.559 218.657Z" fill="black"/>
<path d="M482.243 218.521L481.105 225.314C481.105 225.314 469.444 246.684 467.336 247.005C465.229 247.327 453.74 232.763 453.74 232.763L450.663 218.516L462.777 216.22L468.157 210.908C468.157 210.908 481.753 212.208 482.243 218.521Z" fill="#FBBEBE"/>
<path d="M476.731 160.089L481.105 163.164V179.512C481.105 179.512 484.508 179.186 483.697 180.97C482.886 182.754 481.268 183.719 482.727 185.34C484.186 186.961 483.86 190.032 482.564 190.358C481.268 190.684 479.002 191.974 481.105 192.785C483.208 193.596 484.508 195.049 484.508 196.023C484.508 196.997 484.671 198.45 483.86 199.582C483.049 200.715 482.242 203.305 483.212 204.278C484.182 205.252 482.401 210.265 482.401 210.265C482.401 210.265 485.483 218.199 482.564 220.463C482.564 220.463 481.268 224.992 481.105 225.318C481.105 225.318 483.149 209.563 462.768 216.225C462.768 216.225 462.391 210.22 462.251 207.996C462.11 205.773 464.009 205.121 462.962 203.794C461.915 202.467 459.296 199.419 460.533 198.613C461.77 197.807 461.344 196.349 460.855 195.212C460.365 194.076 458.657 194.08 460.207 192.704C461.757 191.327 462.677 190.036 461.766 189.389C460.855 188.741 459.273 186.631 460.533 185.662C461.793 184.693 461.829 170.609 461.829 170.609C461.829 170.609 467.014 149.891 476.731 160.089Z" fill="#83649C"/>
<path opacity="0.1" d="M474.674 187.94C474.674 187.94 480.901 186.251 481.105 187.94C481.309 189.629 474.674 187.94 474.674 187.94Z" fill="black"/>
<path opacity="0.1" d="M467.676 192.59C467.676 192.59 476.215 190.457 477.28 192.115C478.345 193.772 467.676 192.59 467.676 192.59Z" fill="black"/>
<path opacity="0.1" d="M465.777 197.092C465.777 197.092 478.585 195.312 479.414 197.921C480.243 200.529 465.777 197.092 465.777 197.092Z" fill="black"/>
<path opacity="0.1" d="M467.676 202.662C468.152 202.78 480.008 203.608 480.244 205.859C480.48 208.11 467.676 202.662 467.676 202.662Z" fill="black"/>
<path opacity="0.1" d="M389.415 174.63C389.415 174.63 399.15 182.066 406.678 176.401C406.678 176.401 393.952 177.556 389.415 174.63Z" fill="black"/>
<path opacity="0.1" d="M438.707 176.632C438.707 176.632 448.437 184.063 455.965 178.398C455.965 178.398 443.243 179.557 438.707 176.632Z" fill="black"/>
<path opacity="0.1" d="M444.548 104.312C444.556 108.673 443.331 112.947 441.013 116.643C440.818 110.153 439.291 103.659 435.756 98.2388C432.52 93.2574 422.681 84.5672 415.919 86.9899C415.212 87.249 414.575 87.671 414.062 88.2218C413.548 88.7726 413.172 89.4366 412.964 90.1599C412.293 92.7049 414.256 93.7827 415.515 95.7888C417.652 99.2651 418.487 103.385 417.872 107.418C417.786 107.961 417.673 108.499 417.532 109.03C416.467 113.024 414.029 117.594 416.544 120.868C418.298 123.132 422.069 123.938 422.581 126.755C422.628 127.021 422.643 127.291 422.626 127.561C422.509 129.467 420.882 131.148 420.17 133.018C419.336 135.223 419.807 137.415 420.673 139.629C421.797 142.519 423.592 145.44 424.027 148.492C424.462 151.544 423.524 154.379 422.418 157.245C421.371 159.962 420.152 162.657 419.744 165.487C418.96 170.867 420.936 177.089 417.546 181.337C417.201 181.851 416.67 182.21 416.064 182.338C413.893 182.564 414.251 178.665 412.515 177.357C412.701 179.621 412.878 181.985 412.062 184.104C411.246 186.223 409.098 188.026 406.85 187.668L406.075 182.582C404.545 184.087 402.704 185.239 400.682 185.956C401.478 180.548 403.395 175.366 406.311 170.74C400.605 173.485 397.278 179.426 394.31 185.014C392.46 188.506 390.543 192.319 391.191 196.218C391.454 197.807 392.139 199.32 392.288 200.918C392.438 202.517 391.858 204.387 390.367 204.994C389.066 205.524 387.548 204.89 386.609 203.83L386.446 203.636C386.356 203.518 386.27 203.396 386.188 203.273C386.026 203.027 385.882 202.77 385.757 202.503C385.352 201.546 385.048 200.549 384.851 199.528L384.751 199.075C383.242 192.459 381.882 185.635 382.988 178.942C383.396 176.478 384.139 174.033 384.049 171.533C383.981 170.123 383.693 168.733 383.197 167.412C381.873 163.708 379.326 160.307 377.876 156.575C377.86 156.55 377.848 156.522 377.84 156.494C377.078 154.519 376.702 152.051 378.112 150.466C378.837 149.647 379.925 149.234 380.831 148.655C383.65 146.821 384.91 143.338 385.431 140.014C385.666 138.516 385.784 137.002 385.785 135.486C389.605 134.127 394.704 132.171 395.266 132.479C396.059 132.905 404.008 132.166 404.33 132.135C406.75 130.74 408.862 128.689 409.896 125.686C409.991 125.419 410.072 125.143 410.149 124.853C406.521 122.897 403.476 120.015 401.325 116.5C399.174 112.985 397.994 108.964 397.904 104.845C397.815 100.726 398.82 96.6575 400.816 93.0531C402.813 89.4486 405.73 86.4373 409.27 84.3258C412.81 82.2143 416.848 81.0782 420.97 81.033C425.093 80.9879 429.154 82.0353 432.74 84.0688C436.326 86.1022 439.308 89.0489 441.383 92.6088C443.458 96.1686 444.552 100.214 444.553 104.334L444.548 104.312Z" fill="black"/>
<path d="M417.532 108.061C416.463 112.055 414.029 116.625 416.549 119.903C418.303 122.167 422.074 122.969 422.577 125.79C422.98 128.055 420.981 129.92 420.175 132.049C418.253 137.134 423.266 142.134 424.027 147.518C424.856 153.36 420.596 158.681 419.749 164.518C418.965 169.898 420.941 176.116 417.551 180.368C417.208 180.884 416.675 181.244 416.069 181.369C413.898 181.6 414.256 177.701 412.52 176.387C412.706 178.652 412.882 181.016 412.067 183.135C411.251 185.254 409.103 187.052 406.855 186.699L406.08 181.609C404.55 183.114 402.709 184.265 400.686 184.983C401.483 179.577 403.398 174.396 406.311 169.771C400.605 172.516 397.283 178.457 394.314 184.041C392.461 187.532 390.548 191.35 391.192 195.249C391.454 196.838 392.139 198.346 392.288 199.949C392.438 201.552 391.858 203.414 390.367 204.025C389.007 204.591 387.362 203.839 386.446 202.666C385.531 201.493 385.177 199.999 384.847 198.555C383.297 191.798 381.851 184.824 382.979 177.986C383.387 175.518 384.131 173.073 384.04 170.577C383.845 165.111 379.807 160.615 377.84 155.529C377.074 153.55 376.702 151.087 378.112 149.502C378.837 148.682 379.925 148.27 380.831 147.69C383.646 145.852 384.91 142.374 385.427 139.05C385.983 135.457 385.881 131.792 385.123 128.236C383.986 122.915 381.375 117.716 382.023 112.313C382.658 106.997 386.301 102.613 388.753 97.8538C391.908 91.6936 393.118 84.7223 392.225 77.8604C391.803 74.6678 391.065 70.9725 393.231 68.586C395.833 65.724 400.868 66.8018 403.836 64.3201C405.287 63.111 405.989 61.2498 407.063 59.7011C408.405 57.8405 410.282 56.4311 412.443 55.6596C414.605 54.8882 416.95 54.7909 419.169 55.3809C421.208 55.965 423.039 57.1243 425.06 57.781C427.907 58.6867 430.952 58.587 433.943 58.9448C436.935 59.3025 440.066 60.3034 441.779 62.7533C442.686 64.0575 443.098 65.647 443.932 66.9965C445.722 69.8948 449.135 71.2895 451.718 73.513C453.934 75.4867 455.518 78.0686 456.274 80.9364C457.03 83.8043 456.924 86.8311 455.97 89.6391C454.429 93.9276 450.862 97.7225 451.165 102.269C451.288 104.139 452.072 105.973 451.827 107.826C451.111 112.984 443.619 114.012 441.032 118.531C441.24 111.122 439.817 103.492 435.77 97.2832C432.534 92.3019 422.695 83.6071 415.933 86.0299C415.226 86.2902 414.591 86.7126 414.077 87.2632C413.564 87.8138 413.187 88.4772 412.978 89.1998C412.307 91.7403 414.269 92.8226 415.529 94.8288C416.735 96.7869 417.534 98.9678 417.879 101.241C418.223 103.515 418.105 105.834 417.532 108.061Z" fill="#3F3D56"/>
<g opacity="0.2">
<path opacity="0.2" d="M385.757 133.729C385.814 131.402 385.596 129.076 385.109 126.8C384.144 122.272 382.123 117.838 381.937 113.292C381.674 118.354 384.044 123.254 385.109 128.236C385.496 130.043 385.713 131.882 385.757 133.729V133.729Z" fill="black"/>
<path opacity="0.2" d="M405.064 170.478C405.459 169.758 405.866 169.042 406.306 168.345C400.605 171.089 397.278 177.03 394.309 182.619C392.592 185.847 390.829 189.362 391.092 192.957C391.309 189.873 392.827 186.866 394.309 184.072C397.056 178.905 400.111 173.444 405.064 170.478Z" fill="black"/>
<path opacity="0.2" d="M392.261 199.764C392.089 200.986 391.481 202.146 390.367 202.603C389.007 203.165 387.362 202.417 386.451 201.244C385.54 200.072 385.177 198.582 384.846 197.133C383.741 192.305 382.689 187.36 382.58 182.438C382.472 187.84 383.623 193.283 384.846 198.591C385.177 200.035 385.535 201.534 386.451 202.703C387.366 203.871 388.993 204.623 390.367 204.061C391.858 203.45 392.442 201.589 392.293 199.986C392.261 199.909 392.261 199.836 392.261 199.764Z" fill="black"/>
<path opacity="0.2" d="M418.058 103.197C418.005 104.36 417.829 105.514 417.532 106.639C416.744 109.596 415.203 112.875 415.479 115.696C415.697 113.233 416.875 110.552 417.532 108.084C417.953 106.491 418.13 104.843 418.058 103.197Z" fill="black"/>
<path opacity="0.2" d="M392.492 81.5874C392.53 79.8604 392.436 78.133 392.211 76.4203C392.044 75.1614 391.831 73.8209 391.758 72.5122C391.654 74.2557 391.971 76.135 392.211 77.8785C392.373 79.1087 392.467 80.3469 392.492 81.5874V81.5874Z" fill="black"/>
<path opacity="0.2" d="M422.581 125.836C422.581 125.795 422.581 125.763 422.55 125.722C422.205 127.407 420.818 128.947 420.179 130.64C419.8 131.651 419.663 132.737 419.78 133.81C419.835 133.224 419.97 132.648 420.179 132.098C420.981 129.966 422.98 128.082 422.581 125.836Z" fill="black"/>
<path opacity="0.2" d="M384.04 169.155C383.84 163.689 379.807 159.193 377.835 154.107C377.521 153.306 377.308 152.47 377.201 151.616C377.092 152.964 377.309 154.319 377.835 155.565C379.775 160.583 383.7 164.998 384.017 170.342C384.04 169.948 384.053 169.549 384.04 169.155Z" fill="black"/>
<path opacity="0.2" d="M435.77 95.8612C432.529 90.8798 422.695 82.1851 415.933 84.6078C415.226 84.8678 414.589 85.2901 414.075 85.8407C413.561 86.3913 413.184 87.0548 412.973 87.7778C412.814 88.3321 412.796 88.9178 412.923 89.4805C412.923 89.399 412.951 89.3175 412.973 89.236C413.183 88.5126 413.56 87.8488 414.074 87.2981C414.589 86.7475 415.225 86.3254 415.933 86.066C422.695 83.6432 432.529 92.3516 435.77 97.3194C439.432 102.944 440.941 109.732 441.041 116.466C441.136 109.243 439.69 101.875 435.77 95.8612Z" fill="black"/>
<path opacity="0.2" d="M451.813 106.39C451.102 111.534 443.656 112.572 441.041 117.064C441.041 117.557 441.041 118.056 441.041 118.549C443.624 114.021 451.12 113.002 451.832 107.844C451.895 107.337 451.895 106.824 451.832 106.318C451.828 106.342 451.822 106.367 451.813 106.39V106.39Z" fill="black"/>
<path opacity="0.2" d="M455.956 88.199C454.415 92.492 450.848 96.2824 451.152 100.834C451.152 100.897 451.152 100.965 451.152 101.033C451.487 97.0251 454.538 93.5472 455.933 89.6572C456.562 87.8801 456.832 85.9961 456.727 84.1143C456.677 85.5068 456.417 86.8839 455.956 88.199V88.199Z" fill="black"/>
<path opacity="0.2" d="M417.551 178.955C417.208 179.472 416.676 179.833 416.069 179.96C413.898 180.191 414.256 176.292 412.52 174.979C412.565 175.495 412.606 176.016 412.633 176.537C414.247 177.932 413.948 181.64 416.069 181.414C416.369 181.353 416.655 181.233 416.909 181.061C417.164 180.889 417.382 180.669 417.551 180.413C419.486 177.986 419.672 174.92 419.622 171.737C419.572 174.39 419.187 176.922 417.551 178.955Z" fill="black"/>
<path opacity="0.2" d="M412.062 181.726C411.237 183.85 409.098 185.648 406.845 185.29C406.589 183.597 406.332 181.9 406.075 180.2C404.612 181.635 402.866 182.75 400.949 183.474C400.849 183.991 400.754 184.511 400.677 185.032C402.702 184.315 404.544 183.164 406.075 181.658C406.332 183.358 406.589 185.055 406.845 186.749C409.112 187.102 411.237 185.308 412.062 183.185C412.568 181.705 412.77 180.139 412.656 178.579C412.632 179.654 412.431 180.717 412.062 181.726V181.726Z" fill="black"/>
<path opacity="0.2" d="M419.749 163.105C419.574 164.473 419.509 165.853 419.554 167.231C419.561 166.338 419.626 165.447 419.749 164.563C420.56 158.998 424.462 153.903 424.109 148.383C423.796 153.373 420.488 158.033 419.749 163.105Z" fill="black"/>
</g>
<path d="M469.221 209.957H377.155C374.535 209.957 372.41 212.08 372.41 214.699V262.85C372.41 265.469 374.535 267.592 377.155 267.592H469.221C471.842 267.592 473.966 265.469 473.966 262.85V214.699C473.966 212.08 471.842 209.957 469.221 209.957Z" fill="#3F3D56"/>
<path d="M423.188 242.517C425.256 242.517 426.932 240.843 426.932 238.777C426.932 236.711 425.256 235.036 423.188 235.036C421.121 235.036 419.445 236.711 419.445 238.777C419.445 240.843 421.121 242.517 423.188 242.517Z" fill="#E7EFFD"/>
<defs>
<linearGradient id="paint0_linear" x1="400.515" y1="331.011" x2="400.515" y2="3.94596e-05" gradientUnits="userSpaceOnUse">
<stop offset="0.2" stop-color="#808080" stop-opacity="0.4"/>
<stop offset="0.46" stop-color="#808080" stop-opacity="0.5"/>
<stop offset="1" stop-opacity="0.4"/>
</linearGradient>
<linearGradient id="paint1_linear" x1="430.015" y1="305.922" x2="430.015" y2="54.9755" gradientUnits="userSpaceOnUse">
<stop stop-color="#808080" stop-opacity="0.25"/>
<stop offset="0.54" stop-color="#808080" stop-opacity="0.12"/>
<stop offset="1" stop-color="#808080" stop-opacity="0.1"/>
</linearGradient>
</defs>
</svg>
