<svg width="1440" height="332" viewBox="0 0 1440 332" fill="none" xmlns="http://www.w3.org/2000/svg">
<path d="M0 180.5V0H1440V248.5L296 332L0 180.5Z" fill="#83649C"/>
<path d="M0 180.5V0H801L692 302.003L296 331L0 180.5Z" fill="url(#paint0_linear)"/>
<path d="M202.674 196.549C203.276 196.549 203.764 196.062 203.764 195.461C203.764 194.859 203.276 194.372 202.674 194.372C202.073 194.372 201.585 194.859 201.585 195.461C201.585 196.062 202.073 196.549 202.674 196.549Z" fill="#E7EFFD"/>
<path d="M340.09 100.177C340.691 100.177 341.179 99.6899 341.179 99.0886C341.179 98.4874 340.691 98 340.09 98C339.488 98 339 98.4874 339 99.0886C339 99.6899 339.488 100.177 340.09 100.177Z" fill="#E7EFFD"/>
<path d="M560.624 150.847C561.226 150.847 561.713 150.36 561.713 149.759C561.713 149.157 561.226 148.67 560.624 148.67C560.022 148.67 559.534 149.157 559.534 149.759C559.534 150.36 560.022 150.847 560.624 150.847Z" fill="#E7EFFD"/>
<path d="M389.16 160.185C389.762 160.185 390.25 159.698 390.25 159.096C390.25 158.495 389.762 158.008 389.16 158.008C388.559 158.008 388.071 158.495 388.071 159.096C388.071 159.698 388.559 160.185 389.16 160.185Z" fill="#E7EFFD"/>
<path d="M165.78 130.448H164.116V128.784H163.818V130.448H162.153V130.745H163.818V132.408H164.116V130.745H165.78V130.448Z" fill="#E7EFFD"/>
<path d="M511.766 95.8753H510.101V94.2119H509.797V95.8753H508.139V96.1728H509.797V97.8361H510.101V96.1728H511.766V95.8753Z" fill="#E7EFFD"/>
<path d="M205.212 89.1472H203.547V87.4839H203.243V89.1472H201.585V89.4515H203.243V91.1081H203.547V89.4515H205.212V89.1472Z" fill="#E7EFFD"/>
<path d="M736.538 54.0712C737.939 54.0712 739.075 52.936 739.075 51.5356C739.075 50.1352 737.939 49 736.538 49C735.136 49 734 50.1352 734 51.5356C734 52.936 735.136 54.0712 736.538 54.0712Z" fill="#E7EFFD"/>
<path d="M19.5376 21.0712C20.9392 21.0712 22.0753 19.936 22.0753 18.5356C22.0753 17.1352 20.9392 16 19.5376 16C18.1361 16 17 17.1352 17 18.5356C17 19.936 18.1361 21.0712 19.5376 21.0712Z" fill="#E7EFFD"/>
<path d="M765.203 52.624C765.804 52.624 766.292 52.1366 766.292 51.5354C766.292 50.9342 765.804 50.4468 765.203 50.4468C764.601 50.4468 764.113 50.9342 764.113 51.5354C764.113 52.1366 764.601 52.624 765.203 52.624Z" fill="#E7EFFD"/>
<path d="M256.089 16C255.488 16 255 16.4874 255 17.0886C255 17.6899 255.488 18.1772 256.089 18.1772C256.691 18.1772 257.179 17.6899 257.179 17.0886C257.179 16.4874 256.691 16 256.089 16Z" fill="#E7EFFD"/>
<path d="M575.017 25.1423H576.682V26.8057H576.987V25.1423H578.645V24.838H576.987V23.1814H576.682V24.838H575.017V25.1423Z" fill="#E7EFFD"/>
<path d="M650.754 89.5874C650.153 89.5874 649.665 90.0748 649.665 90.676C649.665 91.2773 650.153 91.7646 650.754 91.7646C651.356 91.7646 651.844 91.2773 651.844 90.676C651.844 90.0748 651.356 89.5874 650.754 89.5874Z" fill="#E7EFFD"/>
<path d="M47.8375 22.1665C48.4393 22.1665 48.927 21.6791 48.927 21.0779C48.927 20.4767 48.4393 19.9893 47.8375 19.9893C47.2358 19.9893 46.748 20.4767 46.748 21.0779C46.748 21.6791 47.2358 22.1665 47.8375 22.1665Z" fill="#E7EFFD"/>
<path d="M46.7548 98.2012C47.3565 98.2012 47.8443 97.7138 47.8443 97.1125C47.8443 96.5113 47.3565 96.0239 46.7548 96.0239C46.1531 96.0239 45.6653 96.5113 45.6653 97.1125C45.6653 97.7138 46.1531 98.2012 46.7548 98.2012Z" fill="#E7EFFD"/>
<path d="M549.255 40.7407C549.857 40.7407 550.345 40.2533 550.345 39.6521C550.345 39.0509 549.857 38.5635 549.255 38.5635C548.654 38.5635 548.166 39.0509 548.166 39.6521C548.166 40.2533 548.654 40.7407 549.255 40.7407Z" fill="#E7EFFD"/>
<path d="M180.268 41.7417C180.87 41.7417 181.358 41.2543 181.358 40.6531C181.358 40.0518 180.87 39.5645 180.268 39.5645C179.667 39.5645 179.179 40.0518 179.179 40.6531C179.179 41.2543 179.667 41.7417 180.268 41.7417Z" fill="#E7EFFD"/>
<path d="M495.559 39.5645C496.16 39.5645 496.648 39.0771 496.648 38.4758C496.648 37.8746 496.16 37.3872 495.559 37.3872C494.957 37.3872 494.469 37.8746 494.469 38.4758C494.469 39.0771 494.957 39.5645 495.559 39.5645Z" fill="#E7EFFD"/>
<path d="M491.089 47.1772C491.691 47.1772 492.179 46.6899 492.179 46.0886C492.179 45.4874 491.691 45 491.089 45C490.488 45 490 45.4874 490 46.0886C490 46.6899 490.488 47.1772 491.089 47.1772Z" fill="#E7EFFD"/>
<path d="M18.5 162.5L0 180.5L176 271L705.5 266L728.5 202.924V175.5H640.5V75H544V150.5H445.5V192.5H300V105H176.5V136H87.5V162.5H18.5Z" fill="#83649C"/>
<path opacity="0.3" d="M18.5 162.5L0 180.5L176 271L705.5 266L728.108 204L728.5 175.5H640.5V75H544V150.5H445.5V192.5H300V105H176.5V136H87.5V162.5H18.5Z" fill="black"/>
<path opacity="0.4" d="M713.109 188H652V195.367H713.109V188Z" fill="black"/>
<path d="M713.109 211.505H652V218.872H713.109V211.505Z" fill="#83649C"/>
<path opacity="0.4" d="M713.109 235.014H652V242.381H713.109V235.014Z" fill="black"/>
<path opacity="0.4" d="M166.109 150H105V157.367H166.109V150Z" fill="black"/>
<path opacity="0.4" d="M166.109 173.505H105V180.872H166.109V173.505Z" fill="black"/>
<path opacity="0.4" d="M166.109 197.014H105V204.381H166.109V197.014Z" fill="black"/>
<path opacity="0.4" d="M166.109 221H105V228.367H166.109V221Z" fill="black"/>
<path opacity="0.4" d="M358 207H307V214.367H358V207Z" fill="black"/>
<path opacity="0.4" d="M358 230.505H307V237.872H358V230.505Z" fill="black"/>
<path opacity="0.4" d="M213 124H192V132.242H213V124Z" fill="black"/>
<path d="M213 142.479H192V150.721H213V142.479Z" fill="#83649C"/>
<path opacity="0.4" d="M213 160.953H192V169.195H213V160.953Z" fill="black"/>
<path opacity="0.4" d="M213 179.432H192V187.674H213V179.432Z" fill="black"/>
<path opacity="0.4" d="M213 197.906H192V206.148H213V197.906Z" fill="black"/>
<path opacity="0.4" d="M213 216.385H192V224.627H213V216.385Z" fill="black"/>
<path opacity="0.4" d="M213 234.858H192V243.101H213V234.858Z" fill="black"/>
<path opacity="0.4" d="M249 124H228V132.242H249V124Z" fill="black"/>
<path opacity="0.4" d="M249 142.479H228V150.721H249V142.479Z" fill="black"/>
<path opacity="0.4" d="M249 160.953H228V169.195H249V160.953Z" fill="black"/>
<path opacity="0.4" d="M249 179.432H228V187.674H249V179.432Z" fill="black"/>
<path opacity="0.4" d="M249 197.906H228V206.148H249V197.906Z" fill="black"/>
<path opacity="0.4" d="M249 216.385H228V224.627H249V216.385Z" fill="black"/>
<path opacity="0.4" d="M249 234.858H228V243.101H249V234.858Z" fill="black"/>
<path opacity="0.4" d="M285 124H264V132.242H285V124Z" fill="black"/>
<path opacity="0.4" d="M285 142.479H264V150.721H285V142.479Z" fill="black"/>
<path opacity="0.4" d="M285 160.953H264V169.195H285V160.953Z" fill="black"/>
<path d="M285 179.432H264V187.674H285V179.432Z" fill="#83649C"/>
<path opacity="0.4" d="M285 197.906H264V206.148H285V197.906Z" fill="black"/>
<path opacity="0.4" d="M285 216.385H264V224.627H285V216.385Z" fill="black"/>
<path opacity="0.4" d="M285 234.858H264V243.101H285V234.858Z" fill="black"/>
<path opacity="0.4" d="M80.2235 194H68V202.242H80.2235V194Z" fill="black"/>
<path opacity="0.4" d="M58.2235 194H46V202.242H58.2235V194Z" fill="black"/>
<path opacity="0.4" d="M80.2235 207H68V215.242H80.2235V207Z" fill="black"/>
<path opacity="0.4" d="M80.2235 181H68V189.242H80.2235V181Z" fill="black"/>
<path opacity="0.4" d="M58.2235 168H46V176.242H58.2235V168Z" fill="black"/>
<path opacity="0.4" d="M80.2235 168H68V176.242H80.2235V168Z" fill="black"/>
<path opacity="0.4" d="M36.2235 168H24V176.242H36.2235V168Z" fill="black"/>
<path d="M58.2235 181H46V189.242H58.2235V181Z" fill="#83649C"/>
<path opacity="0.4" d="M36.2235 181H24V189.242H36.2235V181Z" fill="black"/>
<path opacity="0.4" d="M575.223 89H563V97.2421H575.223V89Z" fill="black"/>
<path opacity="0.4" d="M599.447 89H587.223V97.2421H599.447V89Z" fill="black"/>
<path opacity="0.4" d="M623.67 89H611.447V97.2421H623.67V89Z" fill="black"/>
<path opacity="0.4" d="M575.223 114.188H563V122.43H575.223V114.188Z" fill="black"/>
<path d="M599.447 114.188H587.223V122.43H599.447V114.188Z" fill="#83649C"/>
<path opacity="0.4" d="M623.67 114.188H611.447V122.43H623.67V114.188Z" fill="black"/>
<path opacity="0.4" d="M575.223 139.371H563V147.613H575.223V139.371Z" fill="black"/>
<path opacity="0.4" d="M599.447 139.371H587.223V147.613H599.447V139.371Z" fill="black"/>
<path d="M623.67 139.371H611.447V147.613H623.67V139.371Z" fill="#83649C"/>
<path opacity="0.4" d="M575.223 164.559H563V172.801H575.223V164.559Z" fill="black"/>
<path opacity="0.4" d="M599.447 164.559H587.223V172.801H599.447V164.559Z" fill="black"/>
<path opacity="0.4" d="M623.67 164.559H611.447V172.801H623.67V164.559Z" fill="black"/>
<path opacity="0.4" d="M575.223 189.746H563V197.988H575.223V189.746Z" fill="black"/>
<path opacity="0.4" d="M599.447 189.746H587.223V197.988H599.447V189.746Z" fill="black"/>
<path opacity="0.4" d="M623.67 189.746H611.447V197.988H623.67V189.746Z" fill="black"/>
<path opacity="0.4" d="M575.223 215H563V223.242H575.223V215Z" fill="black"/>
<path opacity="0.4" d="M599.447 215H587.223V223.242H599.447V215Z" fill="black"/>
<path opacity="0.4" d="M623.67 215H611.447V223.242H623.67V215Z" fill="black"/>
<path opacity="0.4" d="M487 161H466V169.242H487V161Z" fill="black"/>
<path opacity="0.4" d="M487 179.479H466V187.721H487V179.479Z" fill="black"/>
<path opacity="0.4" d="M487 197.953H466V206.195H487V197.953Z" fill="black"/>
<path d="M487 216.432H466V224.674H487V216.432Z" fill="#83649C"/>
<path opacity="0.4" d="M487 234.906H466V243.148H487V234.906Z" fill="black"/>
<path opacity="0.4" d="M526 161H505V169.242H526V161Z" fill="black"/>
<path d="M526 179.479H505V187.721H526V179.479Z" fill="#83649C"/>
<path opacity="0.4" d="M526 197.953H505V206.195H526V197.953Z" fill="black"/>
<path opacity="0.4" d="M526 216.432H505V224.674H526V216.432Z" fill="black"/>
<path opacity="0.4" d="M526 234.906H505V243.148H526V234.906Z" fill="black"/>
<path d="M74 1.00275e-05V215C72.3281 214.813 70.6615 214.609 69 214.386V0C71.5 0 71.5 -1.00275e-05 74 1.00275e-05Z" fill="#3F3D56"/>
<path d="M223 3.28858e-06V290.916L218 291V0C219.779 7.05652e-06 220.299 -7.05652e-06 223 3.28858e-06Z" fill="#3F3D56"/>
<path d="M372 0V325.718C370.5 325.797 370.5 325.797 368 326V0H372Z" fill="#3F3D56"/>
<path d="M520 1V302.739C518.5 302.812 518.5 302.812 516 303V1H520Z" fill="#3F3D56"/>
<path d="M668 5V300.744C666.5 300.816 666.5 300.816 664 301V5H668Z" fill="#3F3D56"/>
<path d="M739.5 170H2.12607e-05C2.12607e-05 168.5 0 167 0 165H741.5C739.5 170 741.5 165 739.5 170Z" fill="#3F3D56"/>
<path d="M786 42C786.004 41.9832 785 42 786 42H0C1.02402e-05 40.308 1.27639e-05 38.6622 1.02402e-05 37H787.586C786.586 40 787.586 37 786 42Z" fill="#3F3D56"/>
<path d="M295.865 332L161.5 263.5C216 239 666.5 230.5 706.5 264L691.5 303L295.865 332Z" fill="#3F3D56"/>
<path d="M577.712 232.514C577.712 232.514 573.999 249.797 590.525 251.846L591.547 249.928C591.547 249.928 578.751 237.907 577.712 232.514Z" fill="#83649C"/>
<path d="M596.819 249.814L592.991 250.628L592.608 250.71C592.608 250.71 582.355 242.393 582.486 223.826C583.858 226.562 585.498 229.155 587.38 231.569C591.433 236.94 596.054 244.115 596.819 249.814Z" fill="#83649C"/>
<path d="M598.121 251.595C597.818 251.791 597.475 251.916 597.117 251.962C596.76 252.009 596.396 251.975 596.053 251.863C586.21 249.557 589.519 217.438 589.519 217.438C590.065 217.695 590.661 221.81 592.931 227.055C596.912 236.339 601.287 249.267 598.121 251.595Z" fill="#83649C"/>
<path d="M620.006 232.514C620.006 232.514 620.646 249.797 604.12 251.846L603.097 249.928C603.097 249.928 618.983 237.907 620.006 232.514Z" fill="#83649C"/>
<path d="M615.27 223.826C615.39 242.404 602.069 250.71 602.069 250.71L601.686 250.628L597.858 249.814C598.618 244.115 603.25 236.94 607.308 231.569C609.603 228.644 612.281 226.039 615.27 223.826Z" fill="#83649C"/>
<path d="M601.626 249.912C601.035 250.633 600.287 251.208 599.439 251.595C599.18 251.711 598.911 251.801 598.635 251.863C596.207 252.409 595.354 250.683 595.496 247.71C595.725 242.415 599.056 233.236 602.058 226.4C604.213 221.449 607.729 217.701 608.254 217.455C608.221 217.428 608.073 242.448 601.626 249.912Z" fill="#83649C"/>
<path d="M598.87 206.161C598.87 206.161 587.851 245.208 597.333 251.098C606.816 256.988 601.303 209.619 598.87 206.161Z" fill="#83649C"/>
<path opacity="0.1" d="M577.712 232.514C577.712 232.514 573.999 249.797 590.525 251.846L591.547 249.928C591.547 249.928 578.751 237.907 577.712 232.514Z" fill="black"/>
<path opacity="0.1" d="M596.819 249.814L592.991 250.628L592.608 250.71C592.608 250.71 582.355 242.393 582.486 223.826C583.858 226.562 585.498 229.155 587.38 231.569C591.433 236.94 596.054 244.115 596.819 249.814Z" fill="black"/>
<path opacity="0.1" d="M598.121 251.595C597.818 251.791 597.475 251.916 597.117 251.962C596.76 252.009 596.396 251.975 596.053 251.863C586.21 249.557 589.519 217.438 589.519 217.438C590.065 217.695 590.661 221.81 592.931 227.055C596.912 236.339 601.287 249.267 598.121 251.595Z" fill="black"/>
<path opacity="0.1" d="M620.006 232.514C620.006 232.514 620.646 249.797 604.12 251.846L603.097 249.928C603.097 249.928 618.983 237.907 620.006 232.514Z" fill="black"/>
<path opacity="0.1" d="M615.27 223.826C615.39 242.404 602.069 250.71 602.069 250.71L601.686 250.628L597.858 249.814C598.618 244.115 603.25 236.94 607.308 231.569C609.603 228.644 612.281 226.039 615.27 223.826Z" fill="black"/>
<path opacity="0.1" d="M601.626 249.912C601.035 250.633 600.287 251.208 599.439 251.595C599.18 251.711 598.911 251.801 598.635 251.863C596.207 252.409 595.354 250.683 595.496 247.71C595.725 242.415 599.056 233.236 602.058 226.4C604.213 221.449 607.729 217.701 608.254 217.455C608.221 217.428 608.073 242.448 601.626 249.912Z" fill="black"/>
<path opacity="0.1" d="M598.87 206.161C598.87 206.161 587.851 245.208 597.333 251.098C606.816 256.988 601.303 209.619 598.87 206.161Z" fill="black"/>
<path d="M577.712 232.514C577.712 232.514 575.525 249.797 592.061 251.846L593.084 249.928C593.084 249.928 578.751 237.907 577.712 232.514Z" fill="#83649C"/>
<path d="M598.356 249.814L594.528 250.628L594.139 250.71C594.139 250.71 582.349 242.393 582.48 223.826C582.48 223.826 585.499 227.061 588.911 231.569C592.969 236.94 597.59 244.115 598.356 249.814Z" fill="#83649C"/>
<path opacity="0.1" d="M598.356 249.814L594.528 250.628C590.88 247.431 589.436 239.088 588.911 231.569C592.969 236.94 597.59 244.115 598.356 249.814Z" fill="black"/>
<path d="M599.657 251.595C599.354 251.791 599.012 251.916 598.654 251.962C598.296 252.009 597.933 251.975 597.59 251.863C587.719 249.557 589.519 217.438 589.519 217.438C590.065 217.695 592.198 221.81 594.44 227.055C598.449 236.339 602.823 249.267 599.657 251.595Z" fill="#83649C"/>
<path d="M620.006 232.514C620.006 232.514 622.193 249.797 605.656 251.846L604.634 249.928C604.634 249.928 618.983 237.907 620.006 232.514Z" fill="#83649C"/>
<path d="M615.27 223.826C615.39 242.404 603.606 250.71 603.606 250.71L603.223 250.628L599.395 249.814C600.16 244.115 604.787 236.94 608.844 231.569C612.246 227.05 615.27 223.826 615.27 223.826Z" fill="#83649C"/>
<path opacity="0.1" d="M608.828 231.569C608.336 238.585 607.051 246.322 603.934 249.912C603.716 250.169 603.479 250.409 603.223 250.628L599.395 249.814C600.133 244.115 604.77 236.94 608.828 231.569Z" fill="black"/>
<path d="M603.163 249.912C602.571 250.633 601.823 251.208 600.975 251.595C600.715 251.711 600.444 251.801 600.166 251.863C597.738 252.409 596.885 250.683 597.027 247.71C597.262 242.415 600.587 233.236 603.589 226.4C605.744 221.449 607.723 217.701 608.248 217.455C608.221 217.428 609.61 242.448 603.163 249.912Z" fill="#83649C"/>
<path opacity="0.1" d="M599.657 251.595C599.099 251.592 598.555 251.419 598.099 251.098C593.456 248.207 593.363 237.361 594.468 227.056C598.449 236.339 602.824 249.268 599.657 251.595Z" fill="black"/>
<path opacity="0.1" d="M603.163 249.912C602.616 251.065 601.91 251.677 600.975 251.595C600.502 251.532 600.049 251.362 599.652 251.098C598.446 250.269 597.528 249.085 597.027 247.71C597.262 242.415 600.587 233.236 603.589 226.4C604.628 235.902 604.984 246.005 603.163 249.912Z" fill="black"/>
<path d="M598.87 206.161C598.87 206.161 589.387 245.208 598.87 251.098C608.352 256.988 601.303 209.619 598.87 206.161Z" fill="#83649C"/>
<path d="M617.064 249.175H577.603V255.704H583.623L583.771 256.475L586.183 269.146H609.123L611.535 256.475L611.683 255.704H617.064V249.175Z" fill="#D4DFEC"/>
<path opacity="0.1" d="M617.047 249.175H577.586V255.704H583.607L583.755 256.475L586.166 269.146H609.107L611.519 256.475L611.666 255.704H617.047V249.175Z" fill="black"/>
<path d="M613.733 253.016L613.071 256.475L610.66 269.146H587.719L585.308 256.475L584.646 253.016H613.733Z" fill="#D4DFEC"/>
<path opacity="0.1" d="M613.733 253.016L613.071 256.475H585.308L584.646 253.016H613.733Z" fill="black"/>
<path d="M618.6 249.175H579.139V255.704H618.6V249.175Z" fill="#D4DFEC"/>
<path d="M242.357 232.354C242.357 232.354 238.644 249.637 255.17 251.686L256.192 249.768C256.192 249.768 243.396 237.747 242.357 232.354Z" fill="#83649C"/>
<path d="M261.464 249.653L257.636 250.467L257.253 250.549C257.253 250.549 247 242.233 247.131 223.666C248.503 226.401 250.143 228.995 252.025 231.408C256.078 236.78 260.699 243.954 261.464 249.653Z" fill="#83649C"/>
<path d="M262.766 251.434C262.463 251.63 262.12 251.755 261.762 251.802C261.405 251.848 261.041 251.814 260.698 251.702C250.855 249.396 254.164 217.278 254.164 217.278C254.71 217.535 255.306 221.649 257.576 226.895C261.557 236.178 265.932 249.107 262.766 251.434Z" fill="#83649C"/>
<path d="M284.651 232.354C284.651 232.354 285.291 249.637 268.765 251.686L267.742 249.768C267.742 249.768 283.628 237.747 284.651 232.354Z" fill="#83649C"/>
<path d="M279.915 223.666C280.035 242.244 266.714 250.549 266.714 250.549L266.331 250.467L262.503 249.653C263.263 243.954 267.895 236.78 271.953 231.408C274.248 228.483 276.926 225.879 279.915 223.666Z" fill="#83649C"/>
<path d="M266.271 249.752C265.68 250.472 264.932 251.048 264.084 251.435C263.825 251.551 263.556 251.64 263.28 251.702C260.852 252.249 259.999 250.522 260.141 247.55C260.37 242.255 263.701 233.075 266.703 226.239C268.858 221.289 272.374 217.54 272.899 217.294C272.866 217.267 272.718 242.288 266.271 249.752Z" fill="#83649C"/>
<path d="M263.515 206C263.515 206 252.496 245.047 261.978 250.937C271.461 256.828 265.948 209.459 263.515 206Z" fill="#83649C"/>
<path opacity="0.1" d="M242.357 232.354C242.357 232.354 238.644 249.637 255.17 251.686L256.192 249.768C256.192 249.768 243.396 237.747 242.357 232.354Z" fill="black"/>
<path opacity="0.1" d="M261.464 249.653L257.636 250.467L257.253 250.549C257.253 250.549 247 242.233 247.131 223.666C248.503 226.401 250.143 228.995 252.025 231.408C256.078 236.78 260.699 243.954 261.464 249.653Z" fill="black"/>
<path opacity="0.1" d="M262.766 251.434C262.463 251.63 262.12 251.755 261.762 251.802C261.405 251.848 261.041 251.814 260.698 251.702C250.855 249.396 254.164 217.278 254.164 217.278C254.71 217.535 255.306 221.649 257.576 226.895C261.557 236.178 265.932 249.107 262.766 251.434Z" fill="black"/>
<path opacity="0.1" d="M284.651 232.354C284.651 232.354 285.291 249.637 268.765 251.686L267.742 249.768C267.742 249.768 283.628 237.747 284.651 232.354Z" fill="black"/>
<path opacity="0.1" d="M279.915 223.666C280.035 242.244 266.714 250.549 266.714 250.549L266.331 250.467L262.503 249.653C263.263 243.954 267.895 236.78 271.953 231.408C274.248 228.483 276.926 225.879 279.915 223.666Z" fill="black"/>
<path opacity="0.1" d="M266.271 249.752C265.68 250.472 264.932 251.048 264.084 251.435C263.825 251.551 263.556 251.64 263.28 251.702C260.852 252.249 259.999 250.522 260.141 247.55C260.37 242.255 263.701 233.075 266.703 226.239C268.858 221.289 272.374 217.54 272.899 217.294C272.866 217.267 272.718 242.288 266.271 249.752Z" fill="black"/>
<path opacity="0.1" d="M263.515 206C263.515 206 252.496 245.047 261.978 250.937C271.461 256.828 265.948 209.459 263.515 206Z" fill="black"/>
<path d="M242.357 232.354C242.357 232.354 240.17 249.637 256.706 251.686L257.729 249.768C257.729 249.768 243.396 237.747 242.357 232.354Z" fill="#83649C"/>
<path d="M263.001 249.653L259.173 250.467L258.784 250.549C258.784 250.549 246.994 242.233 247.125 223.666C247.125 223.666 250.144 226.9 253.556 231.408C257.614 236.78 262.235 243.954 263.001 249.653Z" fill="#83649C"/>
<path opacity="0.1" d="M263.001 249.653L259.173 250.467C255.525 247.271 254.081 238.927 253.556 231.408C257.614 236.779 262.235 243.954 263.001 249.653Z" fill="black"/>
<path d="M264.302 251.434C263.999 251.63 263.657 251.755 263.299 251.802C262.941 251.848 262.578 251.814 262.235 251.702C252.364 249.396 254.164 217.278 254.164 217.278C254.71 217.535 256.843 221.649 259.085 226.895C263.094 236.178 267.468 249.107 264.302 251.434Z" fill="#83649C"/>
<path d="M284.651 232.354C284.651 232.354 286.838 249.637 270.301 251.686L269.279 249.768C269.279 249.768 283.628 237.747 284.651 232.354Z" fill="#83649C"/>
<path d="M279.915 223.666C280.035 242.244 268.251 250.549 268.251 250.549L267.868 250.467L264.04 249.653C264.805 243.954 269.432 236.78 273.489 231.408C276.891 226.889 279.915 223.666 279.915 223.666Z" fill="#83649C"/>
<path opacity="0.1" d="M273.473 231.408C272.981 238.424 271.696 246.161 268.579 249.751C268.361 250.009 268.124 250.248 267.868 250.467L264.04 249.653C264.778 243.954 269.415 236.779 273.473 231.408Z" fill="black"/>
<path d="M267.808 249.752C267.217 250.472 266.468 251.048 265.62 251.435C265.36 251.551 265.089 251.64 264.811 251.702C262.383 252.249 261.53 250.522 261.672 247.55C261.907 242.255 265.232 233.075 268.234 226.239C270.389 221.289 272.368 217.54 272.893 217.294C272.866 217.267 274.255 242.288 267.808 249.752Z" fill="#83649C"/>
<path opacity="0.1" d="M264.302 251.435C263.744 251.432 263.2 251.258 262.744 250.937C258.101 248.047 258.008 237.2 259.113 226.895C263.094 236.179 267.469 249.107 264.302 251.435Z" fill="black"/>
<path opacity="0.1" d="M267.808 249.752C267.261 250.905 266.555 251.517 265.62 251.435C265.147 251.372 264.694 251.201 264.297 250.937C263.091 250.108 262.173 248.924 261.672 247.55C261.907 242.255 265.232 233.075 268.234 226.239C269.273 235.741 269.629 245.845 267.808 249.752Z" fill="black"/>
<path d="M263.515 206C263.515 206 254.032 245.047 263.515 250.937C272.997 256.828 265.948 209.459 263.515 206Z" fill="#83649C"/>
<path d="M281.709 249.014H242.248V255.544H248.268L248.416 256.314L250.828 268.986H273.768L276.18 256.314L276.328 255.544H281.709V249.014Z" fill="#D4DFEC"/>
<path opacity="0.1" d="M281.692 249.014H242.231V255.544H248.252L248.4 256.314L250.811 268.986H273.752L276.164 256.314L276.311 255.544H281.692V249.014Z" fill="black"/>
<path d="M278.378 252.855L277.717 256.314L275.305 268.986H252.364L249.953 256.314L249.291 252.855H278.378Z" fill="#D4DFEC"/>
<path opacity="0.1" d="M278.378 252.855L277.717 256.314H249.953L249.291 252.855H278.378Z" fill="black"/>
<path d="M283.245 249.014H243.784V255.544H283.245V249.014Z" fill="#D4DFEC"/>
<path d="M503.889 232.205C503.889 232.205 488.347 235.921 482.195 242.875C480.134 245.199 477.076 246.874 473.919 248.069V237.578C477.475 231.676 481.058 225.112 481.058 225.112C481.221 224.79 482.517 220.263 482.517 220.263C485.434 217.997 482.354 210.08 482.354 210.08C482.354 210.08 484.138 205.07 483.165 204.098C482.191 203.126 483.001 200.543 483.812 199.41C484.623 198.277 484.46 196.822 484.46 195.854C484.46 194.887 483.165 193.427 481.058 192.621C478.952 191.815 481.221 190.521 482.517 190.195C483.812 189.868 484.138 186.8 482.68 185.184C481.221 183.567 482.843 182.6 483.649 180.823C484.456 179.045 481.044 179.367 481.044 179.367V163.024C481.044 163.024 480.071 157.691 479.101 148.314C478.132 138.938 474.404 137.971 474.404 137.971C472.407 137.358 470.458 136.6 468.574 135.705C466.589 134.785 464.532 134.029 462.422 133.444C462.422 133.444 458.051 133.444 454.486 132.36C450.92 131.276 449.072 131.2 449.072 131.2L448.488 130.914C444.104 128.71 440.631 125.07 438.662 120.615C438.563 120.391 438.472 120.167 438.382 119.952C439.35 118.904 440.216 117.767 440.968 116.558V116.531C440.968 116.697 440.968 116.862 440.968 117.028C440.968 117.095 440.968 117.167 440.968 117.234C440.968 117.633 440.968 118.031 440.968 118.43V118.47C443.55 113.961 451.043 112.931 451.754 107.782C451.786 107.547 451.803 107.311 451.804 107.074V107.043C451.804 106.873 451.804 106.698 451.804 106.523C451.709 105.086 451.21 103.653 451.115 102.202C451.083 101.787 451.083 101.369 451.115 100.953V100.98C451.45 96.9813 454.499 93.5021 455.894 89.6199C456.27 88.5756 456.515 87.4899 456.624 86.3869V86.3556C456.66 86.0242 456.683 85.6884 456.692 85.3526C456.692 85.272 456.692 85.1869 456.692 85.1063C456.692 84.8735 456.692 84.6585 456.692 84.4078C456.649 82.3422 456.179 80.3071 455.31 78.428C454.442 76.549 453.193 74.8657 451.641 73.4821C449.059 71.2656 445.648 69.873 443.858 66.9759C443.025 65.6326 442.617 64.0385 441.707 62.74C439.994 60.2861 436.85 59.2876 433.874 58.9339C430.898 58.5801 427.84 58.6965 424.996 57.7741C422.975 57.1204 421.145 55.9606 419.107 55.3785C416.886 54.791 414.536 54.8893 412.373 55.6601C410.211 56.4309 408.338 57.8373 407.007 59.6906C405.934 61.2399 405.232 63.0937 403.782 64.3027C400.815 66.7834 395.782 65.7087 393.182 68.5655C391.755 70.1372 391.592 72.2776 391.764 74.4627C391.764 74.4896 391.764 74.5164 391.764 74.5433C391.764 74.709 391.796 74.8791 391.814 75.0493C391.814 75.1299 391.814 75.2105 391.814 75.2866C391.814 75.3627 391.814 75.4568 391.846 75.5418C391.936 76.3254 392.049 77.1046 392.149 77.8568C392.149 77.9732 392.176 78.0852 392.19 78.2016L392.271 78.9046C392.271 79.0748 392.299 79.2449 392.317 79.4151C392.335 79.5852 392.348 79.8629 392.362 80.0509C392.376 80.239 392.362 80.3823 392.394 80.5524C392.684 86.5197 391.404 92.4594 388.679 97.7918C386.229 102.543 382.586 106.922 381.952 112.228C381.854 113.098 381.829 113.974 381.88 114.847C381.88 114.95 381.88 115.053 381.88 115.156C381.88 115.259 381.907 115.47 381.921 115.627C381.934 115.783 381.957 115.989 381.979 116.168C381.979 116.271 382.007 116.374 382.02 116.477C382.052 116.715 382.088 116.952 382.129 117.194L382.156 117.346C382.799 120.964 384.258 124.51 385.033 128.164C385.323 129.512 385.517 130.878 385.612 132.252C385.61 132.261 385.61 132.271 385.612 132.279C385.64 132.727 385.662 133.153 385.676 133.591C385.676 134.182 385.676 134.778 385.676 135.382C384.446 135.85 383.185 136.233 381.902 136.529C379.638 136.851 372.992 142.672 373.477 144.141C373.961 145.61 370.505 155.783 370.41 156.092L364.974 193.257C364.974 193.257 362.089 196.007 362.99 197.784C363.891 199.562 362.813 202.634 362.813 202.634C362.813 202.634 357.939 204.734 359.022 206.028C360.104 207.322 359.611 209.744 358.868 211.361C358.125 212.977 356.906 215.888 358.868 216.371C360.829 216.855 359.203 223.164 359.203 223.164C359.203 223.164 366.039 222.385 365.545 226.397C365.382 227.673 370.324 231.184 372.385 232.59V251.907C369.617 251.141 366.365 250.147 364.29 249.189C360.082 247.25 336.44 243.533 331.258 254.688C326.076 265.842 338.383 280.712 341.459 282.329C341.459 282.329 344.377 284.59 345.024 285.723C345.672 286.856 349.396 287.178 349.396 287.178C349.396 287.178 353.282 288.969 354.252 289.923C354.968 290.639 360.888 292.498 367.905 293.953C367.905 293.953 362.238 306.849 371.484 305.788C380.729 304.726 385.232 300.226 391.751 300.226C394.355 300.226 399.193 299.864 404.063 299.434C405.286 299.648 406.496 299.93 407.687 300.28C410.43 301.133 413.248 301.732 416.103 302.071C416.103 302.071 423.392 305.949 427.279 304.977C427.599 304.888 427.898 304.736 428.158 304.529H428.248C428.955 304.355 429.757 303.634 430.59 302.546C435.451 303.038 441.009 303.737 443.075 304.534C447.102 306.07 475.908 303.943 475.908 303.943C475.908 303.943 494.517 304.305 499.848 305.9C505.18 307.494 503.286 289.623 493.447 287.612C490.821 287.092 488.149 286.831 485.47 286.833C486.152 286.139 486.774 285.39 487.332 284.594C490.874 284.276 493.221 284.079 493.221 284.079C493.221 284.079 502.611 279.552 507.957 276.803C511.37 274.968 514.435 272.562 517.017 269.692C517.017 269.692 521.71 266.782 523.653 265.662C525.596 264.543 526.566 260.813 526.566 260.813C541.293 227.834 503.889 232.205 503.889 232.205ZM461.724 190.839C461.724 190.298 461.724 189.751 461.724 189.209C462.25 189.577 462.173 190.154 461.724 190.835V190.839ZM461.878 202.271C462.272 202.781 462.653 203.247 462.925 203.614C463.971 204.958 462.078 205.585 462.214 207.81C462.245 208.307 462.291 209.001 462.336 209.771C462.137 206.561 461.973 203.919 461.878 202.267V202.271Z" fill="url(#paint1_linear)"/>
<path d="M377.591 253.486C377.591 253.486 368.526 251.38 364.307 249.437C360.087 247.494 336.443 243.772 331.258 254.944C326.074 266.116 338.388 281.001 341.465 282.622C344.542 284.243 374.513 262.058 374.513 262.058L398.153 272.021L402.685 256.56L377.591 253.486Z" fill="#65617D"/>
<path d="M473.813 256.561H404.285C395.066 256.561 387.593 264.028 387.593 273.239V275.653C387.593 284.864 395.066 292.331 404.285 292.331H473.813C483.031 292.331 490.504 284.864 490.504 275.653V273.239C490.504 264.028 483.031 256.561 473.813 256.561Z" fill="#65617D"/>
<path opacity="0.1" d="M490.504 274.444C490.508 277.962 489.47 281.403 487.522 284.334C486.86 285.327 486.101 286.252 485.256 287.096C483.596 288.76 481.623 290.079 479.45 290.979C477.278 291.878 474.949 292.339 472.598 292.336H405.495C400.747 292.336 396.194 290.451 392.836 287.097C389.479 283.742 387.593 279.192 387.593 274.448C387.593 269.704 389.479 265.154 392.836 261.8C396.194 258.445 400.747 256.561 405.495 256.561H472.602C477.35 256.561 481.902 258.445 485.259 261.798C488.617 265.152 490.503 269.7 490.504 274.444Z" fill="black"/>
<path d="M434.474 275.49C434.474 275.49 424.154 278.139 415.733 278.021C407.312 277.903 367.924 294.256 367.924 294.256C367.924 294.256 362.254 307.171 371.504 306.103C380.754 305.034 385.259 300.551 391.781 300.551C398.303 300.551 418.82 298.286 418.82 298.286L438.562 283.714L434.474 275.49Z" fill="#FBBEBE"/>
<path d="M440.932 153.614L422.423 157.259L421.222 157.499C421.222 157.499 406.587 153.614 406.102 153.288C405.617 152.962 392.334 135.078 392.334 135.078C392.334 135.078 399.05 135.151 404.326 132.112C404.516 132.004 404.702 131.886 404.888 131.773C407.208 130.375 408.97 128.216 409.873 125.664C409.968 125.396 410.05 125.12 410.127 124.83C410.689 122.666 410.725 120.044 409.973 116.869C408.16 109.32 412.33 107.242 417.854 107.423C425.835 107.685 436.699 112.662 436.699 112.662C436.84 115.203 437.418 117.7 438.408 120.044C438.494 120.261 438.589 120.497 438.689 120.705C440.67 125.174 444.145 128.816 448.519 131.007L449.103 131.297C449.693 131.578 450.313 131.845 450.957 132.085C465.07 137.429 440.932 153.614 440.932 153.614Z" fill="#FBBEBE"/>
<path opacity="0.1" d="M438.707 120.705C435.187 124.686 430.412 127.348 425.172 128.25C419.932 129.152 414.541 128.239 409.891 125.663C410.689 123.345 410.838 120.46 409.991 116.869C405.617 98.4153 436.731 112.662 436.731 112.662C436.884 115.442 437.554 118.17 438.707 120.705Z" fill="black"/>
<path d="M444.549 104.312C444.556 108.673 443.331 112.947 441.013 116.643C440.259 117.855 439.393 118.993 438.426 120.044C434.343 124.514 428.673 127.212 422.627 127.561C422.173 127.593 421.688 127.606 421.217 127.606C416.603 127.606 412.093 126.239 408.257 123.678C404.421 121.117 401.431 117.477 399.666 113.218C397.9 108.959 397.438 104.272 398.338 99.7508C399.238 95.2295 401.46 91.0763 404.722 87.8166C407.985 84.5569 412.141 82.337 416.666 81.4376C421.191 80.5383 425.881 80.9998 430.144 82.764C434.406 84.5281 438.05 87.5156 440.613 91.3487C443.176 95.1817 444.544 99.6881 444.544 104.298L444.549 104.312Z" fill="#FBBEBE"/>
<path opacity="0.1" d="M440.932 153.613L422.423 157.259L421.222 157.499C421.222 157.499 406.587 153.613 406.102 153.287C405.617 152.961 392.334 135.078 392.334 135.078C392.334 135.078 399.05 135.151 404.326 132.112C404.516 132.003 404.702 131.886 404.888 131.772C406.565 133.584 412.053 138.706 420.678 138.669C421.785 138.67 422.891 138.589 423.986 138.429C426.588 138.031 429.212 137.773 431.831 137.524C436.848 136.998 444.521 135.477 448.55 131.048L449.135 131.338C449.724 131.618 450.345 131.886 450.989 132.126C465.07 137.429 440.932 153.613 440.932 153.613Z" fill="black"/>
<path d="M461.829 200.877C461.988 204.441 464.585 244.582 464.585 244.582H383.745L384.294 219.308L384.747 199.093L384.892 192.459L385.54 169.477L383.197 167.412L370.461 156.199C370.557 155.9 374.01 145.67 373.53 144.23C373.049 142.79 379.689 136.948 381.959 136.622C383.25 136.323 384.519 135.937 385.757 135.467C389.578 134.109 394.677 132.153 395.239 132.461C396.032 132.886 403.981 132.148 404.303 132.116C404.303 132.116 410.168 139.693 420.646 139.647C421.749 139.642 422.851 139.554 423.941 139.385C426.542 138.986 429.166 138.728 431.786 138.456C437.057 137.908 445.251 136.255 449.09 131.301C449.09 131.301 450.943 131.378 454.506 132.461C458.068 133.543 462.446 133.547 462.446 133.547C464.556 134.134 466.614 134.891 468.6 135.812C470.487 136.707 472.437 137.464 474.433 138.076C474.433 138.076 478.159 139.045 479.133 148.433C480.108 157.82 481.091 163.164 481.091 163.164L461.829 179.833C461.829 179.833 461.671 197.3 461.829 200.877Z" fill="#83649C"/>
<path d="M370.466 228.882L373.299 233.415L383.908 237.151L391.2 223.865L384.479 219.332L373.706 215.125L367.552 218.684L370.466 228.882Z" fill="#FBBEBE"/>
<path d="M461.018 251.217C461.018 251.217 476.083 250.085 482.242 243.124C488.401 236.164 503.947 232.441 503.947 232.441C503.947 232.441 541.369 228.071 526.607 261.093C526.607 261.093 525.638 264.816 523.693 265.948C521.749 267.08 517.054 269.996 517.054 269.996L459.573 264.979L461.018 251.217Z" fill="#65617D"/>
<path opacity="0.1" d="M490.504 274.443C490.508 277.962 489.47 281.403 487.522 284.334C477.851 285.19 456.432 287.2 451.949 288.45C446.443 289.976 435.298 287.318 434.079 287.019L433.966 286.992C433.966 286.992 431.818 280.48 430.793 276.314C430.34 274.421 430.1 273.012 430.399 272.908C431.373 272.587 440.284 270.155 440.12 271.55C439.957 272.944 466.86 261.107 466.86 261.107L467.685 271.468C470.418 274.593 490.504 269.947 490.504 274.443Z" fill="black"/>
<path d="M518.205 265.785L517.072 269.996C514.484 272.874 511.417 275.282 508.008 277.115C502.66 279.869 493.265 284.402 493.265 284.402C493.265 284.402 458.761 287.313 452.928 288.93C447.096 290.547 434.945 287.472 434.945 287.472C434.945 287.472 430.413 273.714 431.383 273.388C432.353 273.062 441.263 270.639 441.104 272.03C440.946 273.42 467.844 261.587 467.844 261.587L518.205 265.785Z" fill="#65617D"/>
<path d="M422.137 302.077C422.137 302.077 439.096 303.258 443.13 304.794C447.163 306.329 475.979 304.205 475.979 304.205C475.979 304.205 494.597 304.567 499.931 306.161C505.266 307.755 503.371 289.859 493.527 287.853C483.683 285.846 469.811 288.799 469.811 288.799C469.811 288.799 454.157 286.784 452.258 286.535C450.359 286.286 437.854 286.648 437.854 286.648L422.137 302.077Z" fill="#FBBEBE"/>
<path opacity="0.1" d="M355.492 257.402C355.492 257.402 377.908 259.418 384.072 263.09L355.492 257.402Z" fill="black"/>
<path opacity="0.1" d="M495.309 242.712C495.309 242.712 477.756 246.978 470.876 253.254L495.309 242.712Z" fill="black"/>
<path opacity="0.1" d="M356.797 252.308C357.155 252.426 367.117 253.73 366.877 254.677C366.636 255.623 356.797 252.308 356.797 252.308Z" fill="black"/>
<path opacity="0.1" d="M341.143 277.278L342.439 282.137C342.439 282.137 345.353 284.402 346.002 285.534C346.65 286.666 350.375 286.992 350.375 286.992C350.375 286.992 354.264 288.772 355.238 289.741C356.212 290.71 366.736 293.789 376.621 295.084C386.505 296.38 404.806 298.807 408.695 300.102C411.442 300.953 414.263 301.549 417.12 301.882C417.12 301.882 424.408 305.767 428.296 304.798C432.185 303.829 438.824 286.181 438.824 286.181C438.824 286.181 413.231 280.195 412.42 278.252C411.609 276.309 386.986 267.248 386.986 267.248L372.406 267.592L341.143 277.278Z" fill="black"/>
<path d="M340.169 277.763L341.465 282.622C341.465 282.622 344.384 284.886 345.032 286.018C345.68 287.151 349.405 287.477 349.405 287.477C349.405 287.477 353.294 289.256 354.264 290.23C355.234 291.204 365.766 294.274 375.646 295.569C385.526 296.864 403.836 299.292 407.725 300.587C410.471 301.435 413.29 302.03 416.146 302.362C416.146 302.362 423.438 306.243 427.326 305.274C431.215 304.305 437.855 286.657 437.855 286.657C437.855 286.657 412.257 280.67 411.45 278.728C410.644 276.785 374.513 262.058 374.513 262.058L363.183 259.468L340.169 277.763Z" fill="#65617D"/>
<path d="M373.294 154.583L370.462 156.204L365.023 193.433C365.023 193.433 362.136 196.186 363.038 197.961C363.94 199.736 362.861 202.816 362.861 202.816C362.861 202.816 357.985 204.922 359.068 206.217C360.151 207.512 359.657 209.939 358.914 211.556C358.17 213.173 356.951 216.084 358.914 216.573C360.876 217.063 359.249 223.366 359.249 223.366C359.249 223.366 366.088 222.587 365.594 226.6C365.39 228.221 373.326 233.392 373.326 233.392C373.326 233.392 364.307 217.044 384.511 219.309L386.247 210.093C386.247 210.093 387.983 204.903 386.247 203.3C384.511 201.697 386.637 193.994 386.637 193.994L387.017 160.569L373.294 154.583Z" fill="#83649C"/>
<path opacity="0.1" d="M368.894 202.662C369.252 203.255 380.16 204.474 380.872 206.407C381.584 208.341 368.894 202.662 368.894 202.662Z" fill="black"/>
<path opacity="0.1" d="M365.453 211.905C365.453 211.905 366.935 207.281 370.439 208.11C373.942 208.938 365.453 211.905 365.453 211.905Z" fill="black"/>
<path opacity="0.1" d="M363.559 218.656C363.559 218.656 366.165 212.493 369.723 212.969C373.28 213.444 363.559 218.656 363.559 218.656Z" fill="black"/>
<path d="M482.242 218.521L481.105 225.313C481.105 225.313 469.444 246.684 467.336 247.005C465.229 247.327 453.74 232.763 453.74 232.763L450.662 218.516L462.777 216.22L468.156 210.908C468.156 210.908 481.753 212.208 482.242 218.521Z" fill="#FBBEBE"/>
<path d="M476.731 160.089L481.105 163.164V179.512C481.105 179.512 484.508 179.186 483.697 180.97C482.886 182.754 481.268 183.719 482.727 185.34C484.187 186.961 483.86 190.032 482.564 190.358C481.268 190.684 479.002 191.974 481.105 192.785C483.208 193.596 484.508 195.049 484.508 196.023C484.508 196.996 484.672 198.45 483.86 199.582C483.049 200.714 482.242 203.305 483.212 204.278C484.182 205.252 482.401 210.265 482.401 210.265C482.401 210.265 485.483 218.199 482.564 220.463C482.564 220.463 481.268 224.992 481.105 225.318C481.105 225.318 483.149 209.563 462.768 216.225C462.768 216.225 462.392 210.22 462.251 207.996C462.111 205.773 464.01 205.121 462.963 203.794C461.916 202.467 459.296 199.419 460.533 198.613C461.771 197.807 461.345 196.349 460.855 195.212C460.366 194.076 458.657 194.08 460.207 192.703C461.757 191.327 462.677 190.036 461.766 189.389C460.855 188.741 459.274 186.631 460.533 185.662C461.793 184.692 461.83 170.609 461.83 170.609C461.83 170.609 467.014 149.891 476.731 160.089Z" fill="#83649C"/>
<path opacity="0.1" d="M474.674 187.94C474.674 187.94 480.901 186.251 481.105 187.94C481.309 189.629 474.674 187.94 474.674 187.94Z" fill="black"/>
<path opacity="0.1" d="M467.676 192.591C467.676 192.591 476.215 190.458 477.28 192.115C478.345 193.773 467.676 192.591 467.676 192.591Z" fill="black"/>
<path opacity="0.1" d="M465.777 197.092C465.777 197.092 478.585 195.312 479.414 197.92C480.244 200.529 465.777 197.092 465.777 197.092Z" fill="black"/>
<path opacity="0.1" d="M467.676 202.662C468.152 202.78 480.008 203.609 480.244 205.859C480.479 208.11 467.676 202.662 467.676 202.662Z" fill="black"/>
<path opacity="0.1" d="M389.415 174.63C389.415 174.63 399.15 182.066 406.678 176.401C406.678 176.401 393.952 177.556 389.415 174.63Z" fill="black"/>
<path opacity="0.1" d="M438.707 176.632C438.707 176.632 448.437 184.063 455.965 178.398C455.965 178.398 443.243 179.557 438.707 176.632Z" fill="black"/>
<path opacity="0.1" d="M444.548 104.312C444.556 108.673 443.331 112.947 441.013 116.643C440.818 110.153 439.291 103.66 435.756 98.2389C432.52 93.2575 422.681 84.5673 415.919 86.9901C415.212 87.2491 414.575 87.6711 414.062 88.2219C413.548 88.7727 413.172 89.4367 412.964 90.16C412.293 92.705 414.256 93.7828 415.515 95.789C417.652 99.2652 418.487 103.385 417.872 107.418C417.786 107.961 417.673 108.499 417.532 109.03C416.467 113.025 414.029 117.594 416.544 120.868C418.298 123.132 422.069 123.938 422.581 126.755C422.628 127.021 422.643 127.292 422.626 127.561C422.509 129.468 420.882 131.148 420.17 133.018C419.336 135.223 419.807 137.415 420.673 139.63C421.797 142.519 423.592 145.44 424.027 148.492C424.462 151.544 423.524 154.379 422.418 157.245C421.371 159.963 420.152 162.657 419.744 165.487C418.96 170.867 420.936 177.089 417.546 181.337C417.201 181.851 416.67 182.21 416.064 182.338C413.893 182.564 414.251 178.665 412.515 177.357C412.701 179.621 412.878 181.985 412.062 184.104C411.246 186.223 409.098 188.026 406.85 187.668L406.075 182.583C404.545 184.087 402.704 185.239 400.682 185.956C401.478 180.548 403.395 175.366 406.311 170.74C400.605 173.485 397.278 179.426 394.31 185.014C392.46 188.506 390.543 192.319 391.191 196.218C391.454 197.807 392.139 199.32 392.288 200.919C392.438 202.517 391.858 204.387 390.367 204.994C389.066 205.524 387.548 204.89 386.609 203.83L386.446 203.636C386.356 203.518 386.27 203.396 386.188 203.273C386.026 203.027 385.882 202.77 385.757 202.504C385.352 201.546 385.048 200.549 384.851 199.528L384.751 199.075C383.242 192.459 381.882 185.635 382.988 178.942C383.396 176.478 384.139 174.033 384.049 171.533C383.981 170.123 383.693 168.733 383.197 167.412C381.873 163.708 379.326 160.307 377.876 156.575C377.86 156.55 377.848 156.522 377.84 156.494C377.078 154.519 376.702 152.051 378.112 150.466C378.837 149.647 379.925 149.235 380.831 148.655C383.65 146.821 384.91 143.338 385.431 140.014C385.666 138.516 385.784 137.002 385.785 135.486C389.605 134.127 394.704 132.171 395.266 132.479C396.059 132.905 404.008 132.167 404.33 132.135C406.75 130.74 408.862 128.689 409.896 125.686C409.991 125.419 410.072 125.143 410.149 124.853C406.521 122.897 403.476 120.015 401.325 116.5C399.174 112.985 397.994 108.964 397.904 104.845C397.815 100.726 398.82 96.6576 400.816 93.0532C402.813 89.4487 405.73 86.4374 409.27 84.3259C412.81 82.2145 416.848 81.0783 420.97 81.0331C425.093 80.988 429.154 82.0355 432.74 84.0689C436.326 86.1023 439.308 89.049 441.383 92.6089C443.458 96.1688 444.552 100.215 444.553 104.334L444.548 104.312Z" fill="black"/>
<path d="M417.532 108.061C416.463 112.055 414.029 116.625 416.549 119.903C418.303 122.167 422.074 122.969 422.577 125.79C422.98 128.055 420.981 129.92 420.175 132.049C418.253 137.134 423.266 142.134 424.027 147.518C424.856 153.36 420.596 158.681 419.749 164.518C418.965 169.898 420.941 176.116 417.551 180.368C417.208 180.884 416.675 181.244 416.069 181.369C413.898 181.6 414.256 177.701 412.52 176.387C412.706 178.652 412.882 181.016 412.067 183.135C411.251 185.254 409.103 187.052 406.855 186.699L406.08 181.609C404.55 183.114 402.709 184.265 400.686 184.983C401.483 179.577 403.398 174.396 406.311 169.771C400.605 172.516 397.283 178.457 394.314 184.041C392.461 187.532 390.548 191.35 391.192 195.249C391.454 196.838 392.139 198.346 392.288 199.949C392.438 201.552 391.858 203.414 390.367 204.025C389.007 204.591 387.362 203.839 386.446 202.666C385.531 201.493 385.177 199.999 384.847 198.555C383.297 191.798 381.851 184.824 382.979 177.986C383.387 175.518 384.131 173.073 384.04 170.577C383.845 165.111 379.807 160.615 377.84 155.529C377.074 153.55 376.702 151.087 378.112 149.502C378.837 148.682 379.925 148.27 380.831 147.69C383.646 145.852 384.91 142.374 385.427 139.05C385.983 135.457 385.881 131.792 385.123 128.236C383.986 122.915 381.375 117.716 382.023 112.313C382.658 106.997 386.301 102.613 388.753 97.8538C391.908 91.6936 393.118 84.7223 392.225 77.8604C391.803 74.6678 391.065 70.9725 393.231 68.586C395.833 65.724 400.868 66.8018 403.836 64.3201C405.287 63.111 405.989 61.2498 407.063 59.7011C408.405 57.8405 410.282 56.4311 412.443 55.6596C414.605 54.8882 416.95 54.7909 419.169 55.3809C421.208 55.965 423.039 57.1243 425.06 57.781C427.907 58.6867 430.952 58.587 433.943 58.9448C436.935 59.3025 440.066 60.3033 441.779 62.7533C442.686 64.0575 443.098 65.647 443.932 66.9965C445.722 69.8948 449.135 71.2895 451.718 73.513C453.934 75.4867 455.518 78.0686 456.274 80.9364C457.03 83.8043 456.924 86.8311 455.97 89.6391C454.429 93.9276 450.862 97.7225 451.165 102.269C451.288 104.139 452.072 105.973 451.827 107.826C451.111 112.984 443.619 114.012 441.032 118.531C441.24 111.122 439.817 103.492 435.77 97.2832C432.534 92.3019 422.695 83.6071 415.933 86.0299C415.226 86.2902 414.591 86.7126 414.077 87.2632C413.564 87.8138 413.187 88.4772 412.978 89.1998C412.307 91.7403 414.269 92.8226 415.529 94.8288C416.735 96.7869 417.534 98.9678 417.879 101.241C418.223 103.515 418.105 105.834 417.532 108.061Z" fill="#3F3D56"/>
<g opacity="0.2">
<path opacity="0.2" d="M385.758 133.729C385.814 131.402 385.597 129.076 385.109 126.8C384.144 122.272 382.123 117.838 381.937 113.292C381.674 118.354 384.044 123.254 385.109 128.236C385.496 130.043 385.713 131.882 385.758 133.729Z" fill="black"/>
<path opacity="0.2" d="M405.064 170.478C405.459 169.758 405.867 169.042 406.306 168.345C400.605 171.089 397.278 177.03 394.31 182.619C392.592 185.847 390.829 189.362 391.092 192.957C391.309 189.873 392.828 186.866 394.31 184.072C397.056 178.905 400.111 173.444 405.064 170.478Z" fill="black"/>
<path opacity="0.2" d="M392.261 199.764C392.089 200.986 391.481 202.146 390.367 202.603C389.007 203.165 387.362 202.417 386.451 201.244C385.54 200.072 385.177 198.582 384.846 197.133C383.741 192.305 382.689 187.36 382.58 182.438C382.472 187.84 383.623 193.283 384.846 198.591C385.177 200.035 385.535 201.534 386.451 202.703C387.366 203.871 388.993 204.623 390.367 204.061C391.858 203.45 392.442 201.589 392.293 199.986C392.261 199.909 392.261 199.836 392.261 199.764Z" fill="black"/>
<path opacity="0.2" d="M418.058 103.197C418.005 104.36 417.829 105.514 417.532 106.639C416.744 109.596 415.203 112.875 415.479 115.696C415.697 113.232 416.875 110.552 417.532 108.084C417.953 106.49 418.13 104.843 418.058 103.197Z" fill="black"/>
<path opacity="0.2" d="M392.492 81.5874C392.53 79.8604 392.436 78.133 392.211 76.4203C392.044 75.1614 391.831 73.8209 391.758 72.5122C391.654 74.2557 391.971 76.135 392.211 77.8785C392.373 79.1087 392.467 80.3469 392.492 81.5874Z" fill="black"/>
<path opacity="0.2" d="M422.581 125.835C422.581 125.795 422.581 125.763 422.549 125.722C422.205 127.407 420.818 128.946 420.179 130.64C419.8 131.651 419.663 132.737 419.78 133.81C419.835 133.224 419.969 132.648 420.179 132.098C420.981 129.965 422.98 128.082 422.581 125.835Z" fill="black"/>
<path opacity="0.2" d="M384.04 169.155C383.84 163.689 379.807 159.192 377.835 154.107C377.521 153.306 377.308 152.47 377.201 151.616C377.092 152.964 377.309 154.319 377.835 155.565C379.775 160.583 383.7 164.998 384.017 170.342C384.04 169.948 384.053 169.549 384.04 169.155Z" fill="black"/>
<path opacity="0.2" d="M435.77 95.8614C432.529 90.8801 422.694 82.1853 415.933 84.6081C415.225 84.8681 414.589 85.2904 414.075 85.8409C413.561 86.3915 413.184 87.055 412.973 87.778C412.813 88.3324 412.796 88.918 412.923 89.4807C412.923 89.3992 412.95 89.3177 412.973 89.2362C413.183 88.5129 413.56 87.8491 414.074 87.2984C414.588 86.7477 415.225 86.3256 415.933 86.0662C422.694 83.6435 432.529 92.3518 435.77 97.3196C439.432 102.944 440.941 109.732 441.041 116.466C441.136 109.243 439.69 101.875 435.77 95.8614Z" fill="black"/>
<path opacity="0.2" d="M451.813 106.39C451.102 111.534 443.656 112.571 441.041 117.064C441.041 117.557 441.041 118.055 441.041 118.549C443.624 114.02 451.12 113.001 451.832 107.843C451.895 107.337 451.895 106.824 451.832 106.317C451.828 106.342 451.822 106.366 451.813 106.39Z" fill="black"/>
<path opacity="0.2" d="M455.956 88.199C454.415 92.492 450.848 96.2824 451.152 100.834C451.152 100.897 451.152 100.965 451.152 101.033C451.487 97.0251 454.537 93.5472 455.933 89.6572C456.562 87.8801 456.831 85.9961 456.726 84.1143C456.677 85.5068 456.417 86.8839 455.956 88.199Z" fill="black"/>
<path opacity="0.2" d="M417.55 178.955C417.208 179.472 416.676 179.833 416.068 179.96C413.898 180.191 414.256 176.292 412.52 174.979C412.565 175.495 412.606 176.016 412.633 176.537C414.247 177.931 413.947 181.64 416.068 181.414C416.369 181.353 416.655 181.233 416.909 181.061C417.164 180.889 417.381 180.669 417.55 180.413C419.486 177.986 419.671 174.92 419.622 171.736C419.572 174.39 419.187 176.921 417.55 178.955Z" fill="black"/>
<path opacity="0.2" d="M412.062 181.726C411.237 183.85 409.098 185.648 406.845 185.29C406.589 183.597 406.332 181.9 406.075 180.2C404.612 181.635 402.866 182.75 400.949 183.474C400.849 183.991 400.754 184.511 400.677 185.032C402.702 184.315 404.544 183.164 406.075 181.658C406.332 183.358 406.589 185.055 406.845 186.749C409.112 187.102 411.237 185.308 412.062 183.185C412.568 181.705 412.77 180.139 412.656 178.579C412.632 179.654 412.431 180.717 412.062 181.726Z" fill="black"/>
<path opacity="0.2" d="M419.749 163.105C419.574 164.473 419.508 165.852 419.554 167.231C419.561 166.338 419.626 165.447 419.749 164.563C420.56 158.998 424.462 153.903 424.108 148.383C423.796 153.373 420.487 158.033 419.749 163.105Z" fill="black"/>
</g>
<path d="M469.222 209.957H377.156C374.535 209.957 372.41 212.08 372.41 214.698V262.85C372.41 265.469 374.535 267.592 377.156 267.592H469.222C471.842 267.592 473.967 265.469 473.967 262.85V214.698C473.967 212.08 471.842 209.957 469.222 209.957Z" fill="#3F3D56"/>
<path d="M423.189 242.517C425.256 242.517 426.932 240.843 426.932 238.777C426.932 236.711 425.256 235.036 423.189 235.036C421.121 235.036 419.445 236.711 419.445 238.777C419.445 240.843 421.121 242.517 423.189 242.517Z" fill="#E7EFFD"/>
<path d="M805.886 156.24C805.886 154.967 806.218 153.916 806.882 153.086C807.601 152.201 808.459 151.509 809.455 151.011C810.451 150.513 811.53 150.153 812.692 149.932C813.854 149.71 814.934 149.6 815.93 149.6C816.151 149.6 816.538 149.71 817.092 149.932C817.645 150.153 818.005 150.319 818.171 150.43V150.513C818.171 150.568 818.171 150.623 818.171 150.679C818.171 151.177 817.95 151.536 817.507 151.758C817.119 151.979 816.594 152.173 815.93 152.339C815.266 152.45 814.546 152.56 813.771 152.671C813.052 152.782 812.36 152.975 811.696 153.252C811.032 153.529 810.479 153.916 810.036 154.414C809.649 154.912 809.455 155.604 809.455 156.489C809.455 157.707 810.036 158.952 811.198 160.225C812.36 161.497 813.827 162.687 815.598 163.794C817.424 164.901 819.444 165.952 821.657 166.948C823.871 167.889 826.029 168.719 828.132 169.438C830.235 170.103 832.144 170.628 833.859 171.016C835.575 171.348 836.875 171.486 837.761 171.431C837.927 171.431 838.203 171.375 838.591 171.265C839.034 171.099 839.476 170.933 839.919 170.767C840.362 170.601 840.777 170.435 841.164 170.269C841.607 170.103 841.911 169.992 842.077 169.937C842.077 169.826 842.077 169.604 842.077 169.272C842.132 168.885 842.16 168.636 842.16 168.525C842.16 167.861 842.077 167.308 841.911 166.865C841.745 166.367 841.496 165.924 841.164 165.537C840.887 165.094 840.5 164.679 840.002 164.292C839.559 163.849 839.034 163.324 838.425 162.715C837.927 162.217 837.18 161.47 836.184 160.474C835.188 159.478 834.053 158.371 832.78 157.153C831.507 155.881 830.152 154.58 828.713 153.252C827.329 151.868 825.974 150.568 824.646 149.351C823.317 148.078 822.155 146.971 821.159 146.03C820.163 145.034 819.416 144.287 818.918 143.789C817.313 141.742 816.04 139.722 815.1 137.729C814.214 135.737 813.771 133.441 813.771 130.84C813.771 128.516 814.214 126.413 815.1 124.531C816.04 122.65 817.562 121.1 819.665 119.883C819.776 119.883 819.997 119.883 820.329 119.883C820.661 119.883 821.021 119.883 821.408 119.883C821.796 119.883 822.155 119.883 822.487 119.883C822.875 119.883 823.124 119.883 823.234 119.883C824.784 119.883 826.416 120.187 828.132 120.796C829.847 121.349 831.424 122.152 832.863 123.203C834.302 124.255 835.492 125.527 836.433 127.021C837.373 128.516 837.844 130.148 837.844 131.919C837.844 132.14 837.816 132.5 837.761 132.998C837.705 133.441 837.456 133.662 837.014 133.662C836.184 133.662 835.437 133.413 834.772 132.915C834.164 132.362 833.555 131.67 832.946 130.84C832.393 130.01 831.84 129.152 831.286 128.267C830.733 127.326 830.096 126.44 829.377 125.61C828.713 124.78 827.91 124.116 826.97 123.618C826.084 123.065 825.061 122.788 823.898 122.788C823.013 122.788 822.128 123.065 821.242 123.618C820.357 124.116 819.582 124.753 818.918 125.527C818.254 126.302 817.701 127.16 817.258 128.101C816.87 129.041 816.677 129.927 816.677 130.757C816.677 131.974 816.843 133.247 817.175 134.575C817.507 135.848 817.977 137.093 818.586 138.311C819.195 139.473 819.886 140.607 820.661 141.714C821.491 142.765 822.349 143.734 823.234 144.619L842.824 163.462C843.654 164.181 844.346 165.15 844.899 166.367C845.508 167.585 845.812 168.747 845.812 169.854C845.812 170.739 845.619 171.514 845.231 172.178C844.844 172.842 844.346 173.395 843.737 173.838C843.129 174.225 842.409 174.53 841.579 174.751C840.804 174.917 840.002 175 839.172 175H838.425C837.982 174.945 837.29 174.806 836.35 174.585C835.409 174.308 834.44 174.059 833.444 173.838C832.448 173.617 831.507 173.423 830.622 173.257C829.792 173.035 829.266 172.897 829.045 172.842C828.16 172.565 826.97 172.15 825.476 171.597C824.037 170.988 822.46 170.296 820.744 169.521C819.029 168.691 817.285 167.778 815.515 166.782C813.744 165.731 812.139 164.624 810.7 163.462C809.317 162.3 808.155 161.11 807.214 159.893C806.328 158.62 805.886 157.402 805.886 156.24ZM857.716 131.587C857.716 130.923 857.826 130.508 858.048 130.342C858.269 130.12 858.629 130.01 859.127 130.01C859.791 130.01 860.261 130.231 860.538 130.674C860.87 131.117 861.147 131.67 861.368 132.334C861.368 132.998 861.34 134.022 861.285 135.405C861.285 136.789 861.285 138.366 861.285 140.137C861.285 141.852 861.285 143.678 861.285 145.615C861.285 147.552 861.285 149.406 861.285 151.177C861.285 152.948 861.285 154.552 861.285 155.991C861.34 157.375 861.368 158.398 861.368 159.062C861.368 159.339 861.396 159.893 861.451 160.723C861.507 161.553 861.562 162.438 861.617 163.379C861.673 164.264 861.728 165.122 861.783 165.952C861.894 166.782 861.977 167.363 862.032 167.695C862.088 167.861 862.198 168.138 862.364 168.525C862.586 168.913 862.752 169.134 862.862 169.189C862.862 169.245 862.89 169.272 862.945 169.272H863.111C863.443 169.272 863.997 168.636 864.771 167.363C865.602 166.09 866.515 164.458 867.511 162.466C868.562 160.474 869.697 158.26 870.914 155.825C872.187 153.39 873.432 150.983 874.649 148.604C875.922 146.224 877.14 144.038 878.302 142.046C879.519 140.054 880.626 138.477 881.622 137.314C881.677 137.314 881.733 137.314 881.788 137.314C881.899 137.314 881.982 137.314 882.037 137.314C882.535 137.314 882.84 137.536 882.95 137.979C883.061 138.366 883.116 138.781 883.116 139.224C883.116 140.607 882.729 142.018 881.954 143.457C881.179 144.896 880.322 146.473 879.381 148.188C878.495 149.904 877.665 151.73 876.891 153.667C876.116 155.604 875.729 157.762 875.729 160.142C875.729 160.308 875.729 160.584 875.729 160.972C875.729 161.304 875.729 161.691 875.729 162.134C875.784 162.576 875.812 162.992 875.812 163.379C875.812 163.766 875.812 164.043 875.812 164.209C876.199 165.592 876.974 166.727 878.136 167.612C879.353 168.498 880.737 169.189 882.286 169.688C883.836 170.186 885.468 170.545 887.184 170.767C888.954 170.988 890.559 171.154 891.998 171.265C893.437 171.375 894.627 171.514 895.567 171.68C896.508 171.846 896.979 172.095 896.979 172.427C896.979 172.593 896.951 172.731 896.896 172.842C895.567 173.34 894.295 173.589 893.077 173.589C891.86 173.589 890.587 173.589 889.259 173.589C886.326 173.589 883.919 173.423 882.037 173.091C880.211 172.759 878.661 172.15 877.389 171.265C876.171 170.324 875.12 169.051 874.234 167.446C873.349 165.841 872.436 163.766 871.495 161.221C870.831 161.608 870.278 162.217 869.835 163.047C869.392 163.877 868.977 164.818 868.59 165.869C868.258 166.865 867.926 167.917 867.594 169.023C867.317 170.13 866.957 171.126 866.515 172.012C866.072 172.897 865.519 173.644 864.854 174.253C864.19 174.806 863.388 175.083 862.447 175.083C861.562 175.083 860.842 174.64 860.289 173.755C859.736 172.869 859.321 171.873 859.044 170.767C858.767 169.604 858.574 168.525 858.463 167.529C858.408 166.478 858.38 165.814 858.38 165.537L857.716 131.587ZM908.965 161.221C908.577 155.908 908.218 150.762 907.886 145.781C907.609 140.801 907.471 135.682 907.471 130.425C907.471 130.314 907.471 130.065 907.471 129.678C907.471 129.29 907.471 128.903 907.471 128.516C907.526 128.073 907.554 127.658 907.554 127.271C907.554 126.883 907.554 126.634 907.554 126.523C907.609 126.136 907.803 125.666 908.135 125.112C908.467 124.504 908.854 124.199 909.297 124.199C909.684 124.199 909.989 124.365 910.21 124.697C910.487 125.029 910.68 125.417 910.791 125.859C910.902 126.302 910.985 126.717 911.04 127.104C911.095 127.492 911.123 127.741 911.123 127.852C911.178 128.294 911.234 128.986 911.289 129.927C911.4 130.812 911.483 131.753 911.538 132.749C911.593 133.745 911.649 134.686 911.704 135.571C911.815 136.457 911.87 137.038 911.87 137.314C911.87 137.702 911.87 138.449 911.87 139.556C911.87 140.662 911.87 141.963 911.87 143.457C911.87 144.951 911.87 146.556 911.87 148.271C911.87 149.932 911.87 151.509 911.87 153.003C911.87 154.497 911.87 155.798 911.87 156.904C911.87 157.956 911.87 158.675 911.87 159.062C911.87 160.501 912.064 161.912 912.451 163.296C912.894 164.624 913.337 165.98 913.779 167.363C914.222 168.691 914.637 170.047 915.024 171.431C915.412 172.759 915.605 174.115 915.605 175.498C914.941 175.498 914.305 175.194 913.696 174.585C913.143 173.976 912.617 173.229 912.119 172.344C911.676 171.403 911.261 170.379 910.874 169.272C910.542 168.166 910.238 167.087 909.961 166.035C909.684 164.984 909.463 164.043 909.297 163.213C909.131 162.327 909.02 161.663 908.965 161.221ZM927.426 154.58C927.426 150.43 927.592 146.335 927.924 142.295C928.311 138.255 928.892 134.188 929.667 130.093C929.833 129.429 929.999 128.903 930.165 128.516C930.331 128.073 930.525 127.741 930.746 127.52C931.023 127.243 931.355 127.077 931.742 127.021C932.185 126.911 932.738 126.855 933.402 126.855C933.402 127.077 933.402 127.52 933.402 128.184C933.402 128.792 933.375 129.18 933.319 129.346C933.264 129.733 933.153 130.535 932.987 131.753C932.877 132.915 932.711 134.299 932.489 135.903C932.268 137.508 932.047 139.196 931.825 140.967C931.604 142.738 931.382 144.425 931.161 146.03C930.995 147.635 930.829 149.046 930.663 150.264C930.497 151.426 930.414 152.201 930.414 152.588V153.252C930.414 155.908 930.746 158.398 931.41 160.723C932.13 162.992 933.209 164.984 934.647 166.699C936.086 168.415 937.857 169.771 939.96 170.767C942.063 171.707 944.525 172.178 947.348 172.178C949.008 172.178 950.64 172.012 952.245 171.68C953.905 171.292 955.538 170.877 957.143 170.435C958.747 169.937 960.325 169.494 961.874 169.106C963.479 168.719 965.084 168.525 966.688 168.525H967.353L966.688 169.937C966.633 169.937 966.412 170.02 966.024 170.186C965.637 170.352 965.167 170.573 964.613 170.85C964.06 171.071 963.507 171.32 962.953 171.597C962.4 171.818 961.929 172.012 961.542 172.178C959.162 173.063 956.755 173.783 954.32 174.336C951.941 174.834 949.451 175.083 946.85 175.083C943.529 175.083 940.652 174.613 938.217 173.672C935.782 172.731 933.762 171.375 932.157 169.604C930.552 167.834 929.363 165.703 928.588 163.213C927.813 160.667 927.426 157.79 927.426 154.58ZM978.592 154.58C978.592 150.43 978.758 146.335 979.09 142.295C979.477 138.255 980.058 134.188 980.833 130.093C980.999 129.429 981.165 128.903 981.331 128.516C981.497 128.073 981.691 127.741 981.912 127.52C982.189 127.243 982.521 127.077 982.908 127.021C983.351 126.911 983.904 126.855 984.568 126.855C984.568 127.077 984.568 127.52 984.568 128.184C984.568 128.792 984.541 129.18 984.485 129.346C984.43 129.733 984.319 130.535 984.153 131.753C984.043 132.915 983.877 134.299 983.655 135.903C983.434 137.508 983.213 139.196 982.991 140.967C982.77 142.738 982.549 144.425 982.327 146.03C982.161 147.635 981.995 149.046 981.829 150.264C981.663 151.426 981.58 152.201 981.58 152.588V153.252C981.58 155.908 981.912 158.398 982.576 160.723C983.296 162.992 984.375 164.984 985.813 166.699C987.252 168.415 989.023 169.771 991.126 170.767C993.229 171.707 995.691 172.178 998.514 172.178C1000.17 172.178 1001.81 172.012 1003.41 171.68C1005.07 171.292 1006.7 170.877 1008.31 170.435C1009.91 169.937 1011.49 169.494 1013.04 169.106C1014.64 168.719 1016.25 168.525 1017.85 168.525H1018.52L1017.85 169.937C1017.8 169.937 1017.58 170.02 1017.19 170.186C1016.8 170.352 1016.33 170.573 1015.78 170.85C1015.23 171.071 1014.67 171.32 1014.12 171.597C1013.57 171.818 1013.1 172.012 1012.71 172.178C1010.33 173.063 1007.92 173.783 1005.49 174.336C1003.11 174.834 1000.62 175.083 998.016 175.083C994.695 175.083 991.818 174.613 989.383 173.672C986.948 172.731 984.928 171.375 983.323 169.604C981.718 167.834 980.529 165.703 979.754 163.213C978.979 160.667 978.592 157.79 978.592 154.58ZM1029.18 156.24C1029.18 154.967 1029.51 153.916 1030.17 153.086C1030.89 152.201 1031.75 151.509 1032.75 151.011C1033.74 150.513 1034.82 150.153 1035.98 149.932C1037.15 149.71 1038.22 149.6 1039.22 149.6C1039.44 149.6 1039.83 149.71 1040.38 149.932C1040.94 150.153 1041.3 150.319 1041.46 150.43V150.513C1041.46 150.568 1041.46 150.623 1041.46 150.679C1041.46 151.177 1041.24 151.536 1040.8 151.758C1040.41 151.979 1039.88 152.173 1039.22 152.339C1038.56 152.45 1037.84 152.56 1037.06 152.671C1036.34 152.782 1035.65 152.975 1034.99 153.252C1034.32 153.529 1033.77 153.916 1033.33 154.414C1032.94 154.912 1032.75 155.604 1032.75 156.489C1032.75 157.707 1033.33 158.952 1034.49 160.225C1035.65 161.497 1037.12 162.687 1038.89 163.794C1040.71 164.901 1042.73 165.952 1044.95 166.948C1047.16 167.889 1049.32 168.719 1051.42 169.438C1053.53 170.103 1055.43 170.628 1057.15 171.016C1058.87 171.348 1060.17 171.486 1061.05 171.431C1061.22 171.431 1061.49 171.375 1061.88 171.265C1062.32 171.099 1062.77 170.933 1063.21 170.767C1063.65 170.601 1064.07 170.435 1064.46 170.269C1064.9 170.103 1065.2 169.992 1065.37 169.937C1065.37 169.826 1065.37 169.604 1065.37 169.272C1065.42 168.885 1065.45 168.636 1065.45 168.525C1065.45 167.861 1065.37 167.308 1065.2 166.865C1065.04 166.367 1064.79 165.924 1064.46 165.537C1064.18 165.094 1063.79 164.679 1063.29 164.292C1062.85 163.849 1062.32 163.324 1061.72 162.715C1061.22 162.217 1060.47 161.47 1059.47 160.474C1058.48 159.478 1057.34 158.371 1056.07 157.153C1054.8 155.881 1053.44 154.58 1052 153.252C1050.62 151.868 1049.26 150.568 1047.94 149.351C1046.61 148.078 1045.45 146.971 1044.45 146.03C1043.45 145.034 1042.71 144.287 1042.21 143.789C1040.6 141.742 1039.33 139.722 1038.39 137.729C1037.51 135.737 1037.06 133.441 1037.06 130.84C1037.06 128.516 1037.51 126.413 1038.39 124.531C1039.33 122.65 1040.85 121.1 1042.96 119.883C1043.07 119.883 1043.29 119.883 1043.62 119.883C1043.95 119.883 1044.31 119.883 1044.7 119.883C1045.09 119.883 1045.45 119.883 1045.78 119.883C1046.17 119.883 1046.41 119.883 1046.53 119.883C1048.07 119.883 1049.71 120.187 1051.42 120.796C1053.14 121.349 1054.72 122.152 1056.15 123.203C1057.59 124.255 1058.78 125.527 1059.72 127.021C1060.66 128.516 1061.13 130.148 1061.13 131.919C1061.13 132.14 1061.11 132.5 1061.05 132.998C1061 133.441 1060.75 133.662 1060.3 133.662C1059.47 133.662 1058.73 133.413 1058.06 132.915C1057.45 132.362 1056.85 131.67 1056.24 130.84C1055.68 130.01 1055.13 129.152 1054.58 128.267C1054.02 127.326 1053.39 126.44 1052.67 125.61C1052 124.78 1051.2 124.116 1050.26 123.618C1049.38 123.065 1048.35 122.788 1047.19 122.788C1046.3 122.788 1045.42 123.065 1044.53 123.618C1043.65 124.116 1042.87 124.753 1042.21 125.527C1041.54 126.302 1040.99 127.16 1040.55 128.101C1040.16 129.041 1039.97 129.927 1039.97 130.757C1039.97 131.974 1040.13 133.247 1040.47 134.575C1040.8 135.848 1041.27 137.093 1041.88 138.311C1042.49 139.473 1043.18 140.607 1043.95 141.714C1044.78 142.765 1045.64 143.734 1046.53 144.619L1066.12 163.462C1066.95 164.181 1067.64 165.15 1068.19 166.367C1068.8 167.585 1069.1 168.747 1069.1 169.854C1069.1 170.739 1068.91 171.514 1068.52 172.178C1068.14 172.842 1067.64 173.395 1067.03 173.838C1066.42 174.225 1065.7 174.53 1064.87 174.751C1064.1 174.917 1063.29 175 1062.46 175H1061.72C1061.27 174.945 1060.58 174.806 1059.64 174.585C1058.7 174.308 1057.73 174.059 1056.74 173.838C1055.74 173.617 1054.8 173.423 1053.91 173.257C1053.08 173.035 1052.56 172.897 1052.34 172.842C1051.45 172.565 1050.26 172.15 1048.77 171.597C1047.33 170.988 1045.75 170.296 1044.04 169.521C1042.32 168.691 1040.58 167.778 1038.81 166.782C1037.03 165.731 1035.43 164.624 1033.99 163.462C1032.61 162.3 1031.45 161.11 1030.5 159.893C1029.62 158.62 1029.18 157.402 1029.18 156.24ZM1140.22 161.968C1140.17 161.968 1140.06 161.968 1139.89 161.968C1139.73 161.912 1139.59 161.885 1139.48 161.885C1138.32 161.885 1137.18 162.051 1136.07 162.383C1135.02 162.715 1133.94 163.075 1132.84 163.462C1131.79 163.794 1130.68 164.126 1129.52 164.458C1128.41 164.79 1127.28 164.956 1126.11 164.956H1125.45C1125.12 164.956 1124.79 164.956 1124.45 164.956H1123.46C1123.12 164.901 1122.9 164.873 1122.79 164.873C1121.91 164.43 1121.3 163.988 1120.97 163.545C1120.69 163.102 1120.55 162.493 1120.55 161.719C1120.55 160.667 1120.91 159.644 1121.63 158.647C1122.41 157.651 1123.29 156.711 1124.29 155.825C1125.28 154.94 1126.31 154.165 1127.36 153.501C1128.47 152.837 1129.35 152.256 1130.01 151.758C1129.68 151.813 1128.96 151.924 1127.86 152.09C1126.75 152.201 1125.59 152.228 1124.37 152.173C1123.21 152.062 1122.16 151.813 1121.22 151.426C1120.28 150.983 1119.8 150.236 1119.8 149.185C1119.8 148.078 1120.3 146.888 1121.3 145.615C1122.35 144.342 1123.57 143.125 1124.95 141.963C1126.33 140.801 1127.69 139.749 1129.02 138.809C1130.4 137.812 1131.48 137.093 1132.26 136.65C1132.53 136.429 1133.03 136.069 1133.75 135.571C1134.52 135.073 1135.33 134.575 1136.16 134.077C1137.04 133.524 1137.85 133.026 1138.56 132.583C1139.34 132.085 1139.89 131.753 1140.22 131.587C1140.22 131.366 1140.25 130.978 1140.31 130.425C1140.36 129.871 1140.42 129.29 1140.47 128.682C1140.58 128.018 1140.67 127.437 1140.72 126.938C1140.83 126.385 1140.92 125.97 1140.97 125.693C1140.97 125.472 1141.05 125.057 1141.22 124.448C1141.39 123.784 1141.53 123.12 1141.64 122.456C1141.8 121.737 1141.94 121.1 1142.05 120.547C1142.22 119.938 1142.33 119.495 1142.38 119.219C1142.44 119.053 1142.55 118.804 1142.71 118.472C1142.88 118.084 1143.02 117.835 1143.13 117.725H1143.21L1143.46 117.642C1143.74 117.642 1143.99 117.78 1144.21 118.057C1144.43 118.278 1144.62 118.555 1144.79 118.887C1144.96 119.163 1145.07 119.495 1145.12 119.883C1145.23 120.215 1145.29 120.492 1145.29 120.713C1145.29 121.488 1145.21 122.235 1145.04 122.954C1144.87 123.618 1144.68 124.31 1144.46 125.029C1144.29 125.749 1144.13 126.496 1143.96 127.271C1143.79 127.99 1143.71 128.709 1143.71 129.429V130.591C1143.71 130.978 1143.99 131.31 1144.54 131.587C1144.65 131.587 1144.87 131.559 1145.21 131.504L1145.62 131.338V128.101C1145.68 128.931 1145.87 129.595 1146.2 130.093C1146.59 130.646 1146.98 131.172 1147.36 131.67C1147.75 132.113 1148.11 132.583 1148.44 133.081C1148.77 133.524 1148.94 134.077 1148.94 134.741C1148.94 135.129 1148.89 135.433 1148.77 135.654C1148.72 135.876 1148.64 136.097 1148.53 136.318C1148.41 136.484 1148.3 136.706 1148.19 136.982C1148.14 137.204 1148.11 137.536 1148.11 137.979C1148.11 139.03 1148.19 140.081 1148.36 141.133C1148.53 142.129 1148.69 143.153 1148.86 144.204C1149.08 145.256 1149.27 146.307 1149.44 147.358C1149.6 148.354 1149.69 149.378 1149.69 150.43C1149.69 151.481 1149.41 152.394 1148.86 153.169C1148.3 153.944 1147.72 154.691 1147.11 155.41C1146.51 156.074 1145.92 156.766 1145.37 157.485C1144.82 158.149 1144.54 158.896 1144.54 159.727V175H1143.79C1143.68 175 1143.52 174.779 1143.3 174.336C1143.07 173.838 1142.83 173.312 1142.55 172.759C1142.33 172.15 1142.13 171.569 1141.97 171.016C1141.8 170.462 1141.69 170.103 1141.64 169.937C1141.53 169.604 1141.39 169.079 1141.22 168.359C1141.11 167.585 1140.97 166.782 1140.81 165.952C1140.69 165.122 1140.56 164.347 1140.39 163.628C1140.28 162.853 1140.22 162.3 1140.22 161.968ZM1124.29 148.271C1124.29 148.327 1124.37 148.465 1124.54 148.687C1124.7 148.853 1124.87 148.936 1125.03 148.936C1125.42 148.88 1126.14 148.797 1127.19 148.687C1128.24 148.576 1129.32 148.438 1130.43 148.271C1131.59 148.105 1132.67 147.967 1133.67 147.856C1134.72 147.69 1135.44 147.58 1135.83 147.524C1136.05 147.469 1136.35 147.414 1136.74 147.358C1137.13 147.303 1137.51 147.248 1137.9 147.192C1138.29 147.082 1138.62 146.999 1138.9 146.943C1139.23 146.833 1139.42 146.777 1139.48 146.777C1139.59 146.722 1139.73 146.611 1139.89 146.445C1140.11 146.224 1140.22 146.086 1140.22 146.03V135.156C1139.73 135.378 1138.98 135.793 1137.98 136.401C1137.04 137.01 1135.96 137.729 1134.75 138.56C1133.58 139.39 1132.37 140.275 1131.09 141.216C1129.88 142.157 1128.77 143.097 1127.77 144.038C1126.78 144.924 1125.95 145.754 1125.28 146.528C1124.62 147.248 1124.29 147.829 1124.29 148.271ZM1138.73 151.758C1138.68 151.758 1138.29 151.979 1137.57 152.422C1136.85 152.809 1135.99 153.28 1135 153.833C1134 154.331 1132.98 154.884 1131.92 155.493C1130.87 156.047 1130.01 156.517 1129.35 156.904C1128.85 157.181 1128.33 157.485 1127.77 157.817C1127.22 158.149 1126.69 158.537 1126.2 158.979C1125.75 159.422 1125.37 159.92 1125.03 160.474C1124.7 160.972 1124.54 161.525 1124.54 162.134C1124.87 162.134 1125.48 162.078 1126.36 161.968C1127.25 161.857 1128.24 161.719 1129.35 161.553C1130.51 161.331 1131.73 161.11 1133 160.889C1134.33 160.612 1135.52 160.308 1136.57 159.976C1137.62 159.588 1138.48 159.201 1139.15 158.813C1139.86 158.426 1140.22 158.011 1140.22 157.568V151.758H1138.73ZM1145.37 147.773C1145.37 148.936 1145.15 150.125 1144.71 151.343C1144.32 152.505 1144.02 153.639 1143.79 154.746C1143.85 154.746 1143.96 154.746 1144.13 154.746C1144.35 154.746 1144.49 154.746 1144.54 154.746C1144.93 154.746 1145.26 154.663 1145.54 154.497C1145.81 154.276 1146.06 154.027 1146.28 153.75C1146.56 153.418 1146.78 153.086 1146.95 152.754C1147.11 152.367 1147.28 152.035 1147.45 151.758V150.928C1147.45 150.485 1147.45 150.015 1147.45 149.517C1147.5 149.019 1147.53 148.548 1147.53 148.105V145.698C1147.53 144.924 1147.5 144.093 1147.45 143.208C1147.45 142.323 1147.39 141.41 1147.28 140.469C1147.22 139.473 1147.11 138.587 1146.95 137.812C1146.78 136.982 1146.56 136.318 1146.28 135.82C1146.01 135.322 1145.68 135.073 1145.29 135.073C1144.85 135.073 1144.49 135.184 1144.21 135.405C1143.93 135.571 1143.79 135.986 1143.79 136.65V144.619C1143.79 145.007 1143.88 145.311 1144.04 145.532C1144.21 145.754 1144.38 145.975 1144.54 146.196C1144.76 146.418 1144.96 146.667 1145.12 146.943C1145.29 147.165 1145.37 147.441 1145.37 147.773ZM1223.88 153.252C1223.77 153.584 1223.6 154.165 1223.38 154.995C1223.22 155.825 1222.99 156.711 1222.72 157.651C1222.5 158.537 1222.28 159.395 1222.05 160.225C1221.83 161.055 1221.69 161.636 1221.64 161.968C1221.31 162.853 1220.95 163.905 1220.56 165.122C1220.23 166.284 1219.76 167.391 1219.15 168.442C1218.6 169.494 1217.88 170.379 1216.99 171.099C1216.16 171.818 1215.14 172.178 1213.92 172.178C1212.2 172.178 1210.71 171.707 1209.44 170.767C1208.22 169.826 1207.2 168.581 1206.37 167.031C1205.54 165.482 1204.87 163.739 1204.37 161.802C1203.93 159.865 1203.57 157.928 1203.29 155.991C1203.07 153.999 1202.91 152.118 1202.8 150.347C1202.74 148.521 1202.71 146.971 1202.71 145.698C1202.71 144.924 1202.66 143.872 1202.55 142.544C1202.49 141.16 1202.55 139.805 1202.71 138.477C1202.88 137.093 1203.24 135.931 1203.79 134.99C1204.4 133.994 1205.34 133.496 1206.61 133.496C1206.61 133.828 1206.59 134.465 1206.53 135.405C1206.53 136.291 1206.5 137.259 1206.45 138.311C1206.45 139.307 1206.45 140.275 1206.45 141.216C1206.45 142.101 1206.45 142.738 1206.45 143.125C1206.45 143.236 1206.39 143.512 1206.28 143.955C1206.23 144.342 1206.14 144.785 1206.03 145.283C1205.98 145.781 1205.89 146.252 1205.78 146.694C1205.73 147.082 1205.7 147.358 1205.7 147.524C1205.7 147.856 1205.76 148.576 1205.87 149.683C1205.98 150.734 1206.12 151.868 1206.28 153.086C1206.45 154.303 1206.59 155.493 1206.7 156.655C1206.86 157.762 1207 158.564 1207.11 159.062C1207.22 159.837 1207.44 160.778 1207.78 161.885C1208.11 162.936 1208.55 163.96 1209.1 164.956C1209.66 165.952 1210.29 166.81 1211.01 167.529C1211.79 168.249 1212.7 168.608 1213.75 168.608C1215.03 168.608 1216.02 167.972 1216.74 166.699C1217.46 165.426 1218.01 163.877 1218.4 162.051C1218.84 160.169 1219.18 158.122 1219.4 155.908C1219.67 153.639 1219.95 151.592 1220.23 149.766C1220.56 147.884 1220.95 146.307 1221.39 145.034C1221.89 143.761 1222.58 143.125 1223.46 143.125H1223.88C1223.94 143.18 1224.05 143.291 1224.21 143.457C1224.38 143.623 1224.49 143.734 1224.54 143.789C1225.37 146.279 1226.34 148.825 1227.45 151.426C1228.56 153.971 1229.8 156.462 1231.18 158.896C1232.62 161.331 1234.23 163.628 1236 165.786C1237.77 167.889 1239.76 169.771 1241.98 171.431C1242.03 171.431 1242.2 171.431 1242.47 171.431C1242.75 171.431 1242.94 171.431 1243.05 171.431C1244.05 171.431 1244.74 171.071 1245.13 170.352C1245.57 169.577 1245.96 168.691 1246.29 167.695C1246.4 167.253 1246.57 166.561 1246.79 165.62C1247.07 164.679 1247.32 163.711 1247.54 162.715C1247.76 161.719 1247.95 160.806 1248.12 159.976C1248.34 159.146 1248.45 158.62 1248.45 158.398C1248.45 158.343 1248.45 158.011 1248.45 157.402C1248.45 156.738 1248.45 155.991 1248.45 155.161C1248.51 154.331 1248.53 153.473 1248.53 152.588C1248.53 151.702 1248.53 151.011 1248.53 150.513C1248.53 149.849 1248.53 149.019 1248.53 148.022C1248.53 147.026 1248.51 146.03 1248.45 145.034C1248.45 143.983 1248.45 143.07 1248.45 142.295C1248.45 141.52 1248.45 141.077 1248.45 140.967C1248.39 139.749 1248.31 138.809 1248.2 138.145C1248.15 137.425 1247.98 136.816 1247.7 136.318C1247.48 135.82 1247.12 135.378 1246.62 134.99C1246.18 134.603 1245.57 134.16 1244.8 133.662V133.413C1244.8 132.694 1244.88 132.085 1245.05 131.587C1245.21 131.034 1245.68 130.757 1246.46 130.757C1247.51 130.757 1248.28 130.978 1248.78 131.421C1249.34 131.864 1249.72 132.611 1249.94 133.662C1250 134.215 1250.08 134.963 1250.19 135.903C1250.36 136.789 1250.5 137.785 1250.61 138.892C1250.77 139.998 1250.94 141.133 1251.11 142.295C1251.27 143.402 1251.41 144.481 1251.52 145.532C1251.69 146.528 1251.8 147.414 1251.85 148.188C1251.96 148.908 1252.02 149.378 1252.02 149.6C1252.02 149.71 1252.02 149.932 1252.02 150.264C1252.02 150.596 1252.02 150.983 1252.02 151.426C1252.07 151.813 1252.1 152.228 1252.1 152.671C1252.1 153.058 1252.1 153.39 1252.1 153.667C1252.1 154.497 1252.05 155.604 1251.94 156.987C1251.83 158.371 1251.63 159.865 1251.36 161.47C1251.13 163.019 1250.8 164.624 1250.36 166.284C1249.97 167.889 1249.42 169.355 1248.7 170.684C1248.04 171.956 1247.23 173.008 1246.29 173.838C1245.35 174.668 1244.27 175.083 1243.05 175.083C1242.89 175.083 1242.56 175.055 1242.06 175C1241.62 175 1241.31 175 1241.15 175C1239.15 173.118 1237.44 171.403 1236 169.854C1234.56 168.249 1233.23 166.616 1232.01 164.956C1230.8 163.296 1229.61 161.553 1228.45 159.727C1227.28 157.845 1225.98 155.687 1224.54 153.252H1223.88ZM1264.17 160.889C1264.17 159.284 1264.34 157.485 1264.67 155.493C1265.06 153.501 1265.58 151.509 1266.25 149.517C1266.97 147.469 1267.85 145.505 1268.9 143.623C1270.01 141.742 1271.26 140.054 1272.64 138.56C1274.08 137.065 1275.65 135.876 1277.37 134.99C1279.09 134.105 1280.97 133.662 1283.01 133.662C1284.79 133.662 1286.42 134.077 1287.91 134.907C1289.41 135.682 1290.76 136.706 1291.98 137.979C1293.25 139.196 1294.36 140.635 1295.3 142.295C1296.24 143.955 1297.04 145.671 1297.71 147.441C1298.37 149.157 1298.87 150.872 1299.2 152.588C1299.59 154.248 1299.78 155.77 1299.78 157.153C1299.78 159.09 1299.45 160.889 1298.79 162.549C1298.12 164.209 1297.21 165.703 1296.05 167.031C1294.94 168.359 1293.61 169.521 1292.06 170.518C1290.57 171.514 1288.96 172.371 1287.25 173.091C1285.53 173.755 1283.76 174.253 1281.94 174.585C1280.16 174.917 1278.39 175.083 1276.62 175.083C1274.24 175.083 1272.25 174.751 1270.65 174.087C1269.1 173.423 1267.82 172.482 1266.83 171.265C1265.89 169.992 1265.2 168.498 1264.75 166.782C1264.37 165.011 1264.17 163.047 1264.17 160.889ZM1267.08 162.715C1267.08 164.264 1267.33 165.62 1267.82 166.782C1268.32 167.889 1269.01 168.802 1269.9 169.521C1270.78 170.186 1271.84 170.684 1273.05 171.016C1274.27 171.292 1275.63 171.431 1277.12 171.431C1279.45 171.431 1281.8 171.182 1284.18 170.684C1286.56 170.13 1288.69 169.272 1290.57 168.11C1292.45 166.893 1293.97 165.371 1295.13 163.545C1296.35 161.663 1296.96 159.395 1296.96 156.738C1296.96 155.078 1296.63 153.086 1295.96 150.762C1295.36 148.438 1294.47 146.224 1293.31 144.121C1292.15 142.018 1290.71 140.247 1288.99 138.809C1287.33 137.314 1285.48 136.567 1283.43 136.567C1282.49 136.567 1281.69 136.623 1281.02 136.733C1280.41 136.789 1279.64 136.982 1278.7 137.314V137.729V138.062C1278.7 138.117 1278.73 138.255 1278.78 138.477C1278.89 138.698 1279 138.947 1279.11 139.224C1279.22 139.445 1279.31 139.666 1279.36 139.888C1279.42 140.109 1279.45 140.247 1279.45 140.303C1279.45 140.801 1279.31 141.188 1279.03 141.465C1278.75 141.686 1278.42 141.852 1278.03 141.963C1277.7 142.074 1277.31 142.157 1276.87 142.212C1276.48 142.267 1276.12 142.35 1275.79 142.461C1273.97 143.236 1272.47 144.398 1271.31 145.947C1270.2 147.497 1269.32 149.24 1268.65 151.177C1268.05 153.058 1267.63 155.023 1267.41 157.07C1267.19 159.118 1267.08 160.999 1267.08 162.715ZM1319.9 159.727C1319.85 159.727 1319.79 159.893 1319.74 160.225C1319.68 160.557 1319.6 160.972 1319.49 161.47C1319.43 161.968 1319.35 162.466 1319.24 162.964C1319.18 163.462 1319.13 163.877 1319.07 164.209C1319.02 164.43 1318.96 164.901 1318.91 165.62C1318.85 166.284 1318.77 167.004 1318.66 167.778C1318.6 168.553 1318.55 169.272 1318.49 169.937C1318.44 170.601 1318.41 171.099 1318.41 171.431C1318.35 171.486 1318.24 171.597 1318.08 171.763C1317.91 171.929 1317.8 172.067 1317.75 172.178C1317.63 172.178 1317.55 172.178 1317.5 172.178H1317.33H1317.08C1317.03 172.178 1316.97 172.178 1316.92 172.178C1316.8 172.067 1316.56 171.818 1316.17 171.431C1315.78 171.043 1315.56 170.794 1315.5 170.684C1315.39 170.241 1315.23 169.466 1315.01 168.359C1314.84 167.253 1314.62 166.09 1314.34 164.873C1314.12 163.656 1313.9 162.493 1313.68 161.387C1313.51 160.28 1313.37 159.505 1313.26 159.062V158.398C1313.26 158.011 1313.24 157.264 1313.18 156.157C1313.18 155.05 1313.15 153.75 1313.1 152.256C1313.04 150.762 1312.99 149.185 1312.93 147.524C1312.88 145.864 1312.82 144.287 1312.76 142.793C1312.76 141.299 1312.74 139.998 1312.68 138.892C1312.63 137.785 1312.6 137.038 1312.6 136.65V136.152C1312.6 133.939 1312.99 131.753 1313.76 129.595C1314.59 127.381 1315.7 125.389 1317.08 123.618C1318.52 121.847 1320.21 120.409 1322.14 119.302C1324.14 118.195 1326.29 117.642 1328.62 117.642C1329.89 117.642 1331.14 117.891 1332.35 118.389C1333.57 118.887 1334.65 119.551 1335.59 120.381C1336.53 121.211 1337.28 122.207 1337.83 123.369C1338.44 124.531 1338.75 125.776 1338.75 127.104C1338.75 129.041 1338.28 130.895 1337.33 132.666C1336.39 134.437 1335.2 136.097 1333.77 137.646C1332.38 139.196 1330.86 140.662 1329.2 142.046C1327.6 143.429 1326.07 144.73 1324.63 145.947C1323.25 147.165 1322.09 148.327 1321.15 149.434C1320.21 150.54 1319.74 151.592 1319.74 152.588C1319.74 153.363 1320.07 154.248 1320.73 155.244C1321.45 156.185 1322.34 157.181 1323.39 158.232C1324.5 159.229 1325.71 160.225 1327.04 161.221C1328.37 162.161 1329.67 163.075 1330.94 163.96C1332.27 164.79 1333.49 165.537 1334.6 166.201C1335.7 166.865 1336.56 167.363 1337.17 167.695C1337.39 167.861 1337.83 168.11 1338.5 168.442C1339.16 168.774 1339.88 169.134 1340.66 169.521C1341.49 169.909 1342.23 170.296 1342.9 170.684C1343.62 171.016 1344.14 171.265 1344.47 171.431C1344.97 171.597 1345.61 171.735 1346.38 171.846C1347.21 171.901 1348.04 171.984 1348.87 172.095C1349.7 172.205 1350.39 172.399 1350.95 172.676C1351.56 172.897 1351.86 173.312 1351.86 173.921C1351.86 173.976 1351.83 174.032 1351.78 174.087C1351.78 174.087 1351.78 174.115 1351.78 174.17V174.336C1351.67 174.391 1351.53 174.502 1351.36 174.668C1351.2 174.834 1351.06 174.945 1350.95 175C1350.89 175 1350.73 175 1350.45 175C1350.23 175 1349.98 175 1349.7 175C1349.43 175.055 1349.15 175.083 1348.87 175.083C1348.65 175.083 1348.49 175.083 1348.38 175.083C1345.83 175.083 1343.28 174.585 1340.74 173.589C1338.19 172.537 1335.73 171.265 1333.35 169.771C1330.97 168.221 1328.7 166.561 1326.54 164.79C1324.39 163.019 1322.39 161.331 1320.57 159.727H1319.9ZM1318.33 131.338C1318.33 132.5 1318.3 133.745 1318.24 135.073C1318.19 136.346 1318.16 137.619 1318.16 138.892C1318.22 140.164 1318.35 141.41 1318.58 142.627C1318.85 143.844 1319.29 144.979 1319.9 146.03C1320.4 145.698 1321.15 145.145 1322.14 144.37C1323.14 143.54 1324.22 142.599 1325.38 141.548C1326.6 140.441 1327.82 139.251 1329.03 137.979C1330.31 136.706 1331.44 135.461 1332.44 134.243C1333.43 132.97 1334.26 131.753 1334.93 130.591C1335.59 129.429 1335.92 128.433 1335.92 127.603C1335.92 126.33 1335.67 125.306 1335.18 124.531C1334.68 123.701 1334.04 123.065 1333.27 122.622C1332.49 122.124 1331.61 121.792 1330.61 121.626C1329.62 121.46 1328.59 121.377 1327.54 121.377C1324.39 121.377 1322.06 122.29 1320.57 124.116C1319.07 125.942 1318.33 128.35 1318.33 131.338ZM1363.76 131.587C1363.76 130.923 1363.88 130.508 1364.1 130.342C1364.32 130.12 1364.68 130.01 1365.18 130.01C1365.84 130.01 1366.31 130.231 1366.59 130.674C1366.92 131.117 1367.2 131.67 1367.42 132.334C1367.42 132.998 1367.39 134.022 1367.33 135.405C1367.33 136.789 1367.33 138.366 1367.33 140.137C1367.33 141.852 1367.33 143.678 1367.33 145.615C1367.33 147.552 1367.33 149.406 1367.33 151.177C1367.33 152.948 1367.33 154.552 1367.33 155.991C1367.39 157.375 1367.42 158.398 1367.42 159.062C1367.42 159.339 1367.44 159.893 1367.5 160.723C1367.56 161.553 1367.61 162.438 1367.67 163.379C1367.72 164.264 1367.78 165.122 1367.83 165.952C1367.94 166.782 1368.03 167.363 1368.08 167.695C1368.14 167.861 1368.25 168.138 1368.41 168.525C1368.63 168.913 1368.8 169.134 1368.91 169.189C1368.91 169.245 1368.94 169.272 1368.99 169.272H1369.16C1369.49 169.272 1370.05 168.636 1370.82 167.363C1371.65 166.09 1372.56 164.458 1373.56 162.466C1374.61 160.474 1375.75 158.26 1376.96 155.825C1378.24 153.39 1379.48 150.983 1380.7 148.604C1381.97 146.224 1383.19 144.038 1384.35 142.046C1385.57 140.054 1386.67 138.477 1387.67 137.314C1387.73 137.314 1387.78 137.314 1387.84 137.314C1387.95 137.314 1388.03 137.314 1388.09 137.314C1388.58 137.314 1388.89 137.536 1389 137.979C1389.11 138.366 1389.17 138.781 1389.17 139.224C1389.17 140.607 1388.78 142.018 1388 143.457C1387.23 144.896 1386.37 146.473 1385.43 148.188C1384.54 149.904 1383.71 151.73 1382.94 153.667C1382.16 155.604 1381.78 157.762 1381.78 160.142C1381.78 160.308 1381.78 160.584 1381.78 160.972C1381.78 161.304 1381.78 161.691 1381.78 162.134C1381.83 162.576 1381.86 162.992 1381.86 163.379C1381.86 163.766 1381.86 164.043 1381.86 164.209C1382.25 165.592 1383.02 166.727 1384.18 167.612C1385.4 168.498 1386.79 169.189 1388.33 169.688C1389.88 170.186 1391.52 170.545 1393.23 170.767C1395 170.988 1396.61 171.154 1398.05 171.265C1399.49 171.375 1400.68 171.514 1401.62 171.68C1402.56 171.846 1403.03 172.095 1403.03 172.427C1403.03 172.593 1403 172.731 1402.94 172.842C1401.62 173.34 1400.34 173.589 1399.13 173.589C1397.91 173.589 1396.64 173.589 1395.31 173.589C1392.37 173.589 1389.97 173.423 1388.09 173.091C1386.26 172.759 1384.71 172.15 1383.44 171.265C1382.22 170.324 1381.17 169.051 1380.28 167.446C1379.4 165.841 1378.48 163.766 1377.54 161.221C1376.88 161.608 1376.33 162.217 1375.88 163.047C1375.44 163.877 1375.03 164.818 1374.64 165.869C1374.31 166.865 1373.97 167.917 1373.64 169.023C1373.37 170.13 1373.01 171.126 1372.56 172.012C1372.12 172.897 1371.57 173.644 1370.9 174.253C1370.24 174.806 1369.44 175.083 1368.5 175.083C1367.61 175.083 1366.89 174.64 1366.34 173.755C1365.78 172.869 1365.37 171.873 1365.09 170.767C1364.82 169.604 1364.62 168.525 1364.51 167.529C1364.46 166.478 1364.43 165.814 1364.43 165.537L1363.76 131.587Z" fill="white"/>
<defs>
<linearGradient id="paint0_linear" x1="400.515" y1="331.011" x2="400.515" y2="3.94596e-05" gradientUnits="userSpaceOnUse">
<stop offset="0.2" stop-color="#808080" stop-opacity="0.4"/>
<stop offset="0.46" stop-color="#808080" stop-opacity="0.5"/>
<stop offset="1" stop-opacity="0.4"/>
</linearGradient>
<linearGradient id="paint1_linear" x1="430.015" y1="305.922" x2="430.015" y2="54.9755" gradientUnits="userSpaceOnUse">
<stop stop-color="#808080" stop-opacity="0.25"/>
<stop offset="0.54" stop-color="#808080" stop-opacity="0.12"/>
<stop offset="1" stop-color="#808080" stop-opacity="0.1"/>
</linearGradient>
</defs>
</svg>
