<?xml version="1.0" encoding="UTF-8" standalone="no"?>
<!-- Created with Inkscape (http://www.inkscape.org/) -->

<svg
   width="60.392567mm"
   height="60.392559mm"
   viewBox="0 0 60.392567 60.392559"
   version="1.1"
   id="svg5"
   xml:space="preserve"
   sodipodi:docname="scimitaricon.svg"
   inkscape:version="1.2 (dc2aeda, 2022-05-15)"
   xmlns:inkscape="http://www.inkscape.org/namespaces/inkscape"
   xmlns:sodipodi="http://sodipodi.sourceforge.net/DTD/sodipodi-0.dtd"
   xmlns="http://www.w3.org/2000/svg"
   xmlns:svg="http://www.w3.org/2000/svg"><sodipodi:namedview
     id="namedview7"
     pagecolor="#ffffff"
     bordercolor="#000000"
     borderopacity="0.25"
     inkscape:showpageshadow="2"
     inkscape:pageopacity="0.0"
     inkscape:pagecheckerboard="0"
     inkscape:deskcolor="#d1d1d1"
     inkscape:document-units="mm"
     showgrid="false"
     inkscape:zoom="1.7338626"
     inkscape:cx="131.49831"
     inkscape:cy="127.74945"
     inkscape:window-width="1440"
     inkscape:window-height="847"
     inkscape:window-x="0"
     inkscape:window-y="25"
     inkscape:window-maximized="0"
     inkscape:current-layer="layer1"
     showguides="false" /><defs
     id="defs2" /><g
     inkscape:label="Layer 1"
     inkscape:groupmode="layer"
     id="layer1"
     transform="translate(-12.956481,-76.895081)"><text
       xml:space="preserve"
       style="font-size:8.46667px;fill:#ffffff;stroke-width:0.264583"
       x="24.330454"
       y="122.77277"
       id="text591-3-7"
       inkscape:export-filename="logowhite.png"
       inkscape:export-xdpi="96"
       inkscape:export-ydpi="96"><tspan
         sodipodi:role="line"
         id="tspan589-7-9"
         style="font-style:normal;font-variant:normal;font-weight:normal;font-stretch:normal;font-size:8.46667px;font-family:Luminari;-inkscape-font-specification:Luminari;fill:#ffffff;stroke-width:0.264583"
         x="24.330454"
         y="122.77277">ScimitaR</tspan></text><text
       xml:space="preserve"
       style="font-style:normal;font-variant:normal;font-weight:normal;font-stretch:normal;font-size:7.05556px;font-family:Papyrus;-inkscape-font-specification:Papyrus;fill:#ffffff;stroke-width:0.264583"
       x="30.902449"
       y="130.08931"
       id="text645-9-3"
       inkscape:export-filename="text645.svg"
       inkscape:export-xdpi="96"
       inkscape:export-ydpi="96"><tspan
         sodipodi:role="line"
         id="tspan643-0-8"
         style="font-style:normal;font-variant:normal;font-weight:normal;font-stretch:normal;font-size:7.05556px;font-family:Luminari;-inkscape-font-specification:Luminari;fill:#ffffff;stroke-width:0.264583"
         x="30.902449"
         y="130.08931">Guitars</tspan></text><path
       style="fill:#ffffff;stroke-width:0.129071"
       d="m 18.30659,105.725 c 3.58296,0.34784 8.62471,0.91233 11.31308,-2.46914 12.43499,3.26213 11.52268,2.98458 25.556159,2.65908 0.151,-0.0881 0.10491,-1.49156 0.0814,-1.70941 -1.38359,1.25795 -2.3062,0.27825 -2.33835,-0.72479 -0.0319,-0.99514 0.13266,-1.05754 0.22901,-1.33057 0.72392,-1.38986 2.51245,-1.14342 3.21978,-0.4459 0.70733,0.69751 1.09424,2.09312 1.24984,3.7494 l 7.18936,-1.43808 c 0.63367,-0.43102 1.78485,-2.0225 2.95714,-0.37986 l 0.54259,3.31028 c -0.4754,1.64265 -1.95047,0.68686 -2.71296,0.51553 l -7.2165,1.57375 c 0.22375,2.69472 0.57684,4.04794 -0.31429,4.88215 -0.74146,0.6941 -1.74888,1.05834 -2.71066,0.31391 -1.34409,-1.16338 -1.13679,-3.78697 1.01735,-2.97112 -0.12809,-0.46453 -0.0899,-0.66166 -0.62398,-1.19387 C 45.75716,111.46253 20.57238,113.55935 18.3066,105.725 Z"
       id="path486-2-0"
       sodipodi:nodetypes="ccccscsccccccscccc"
       inkscape:export-filename="scimitarlogo.svg"
       inkscape:export-xdpi="96"
       inkscape:export-ydpi="96" /><g
       id="g887-3-2"
       transform="matrix(0.55702412,0,0,0.61623104,-15.378703,-35.379313)"
       style="fill:#ffffff"><path
         style="fill:#ffffff;stroke-width:0.264583"
         d="m 60.826062,219.49683 -0.48243,0.013 c -0.552481,0.43463 -1.17422,0.87273 -2.394481,1.34075 0.0132,0.42103 0.003,0.75104 0.18302,1.051 1.34656,2.24789 3.82423,1.64642 6.89392,0.0694 l 9.50427,-5.99446 1.678341,-1.28147 c 0.82425,-0.71352 0.990129,-0.98375 1.80406,-2.00616 0.41661,-0.52333 0.14503,-1.28143 0.17874,-1.87239 0.01,-0.17034 -0.57785,0.0593 -0.59416,-0.0876 l -2.38637,1.31885 -2.18641,3.42568 -8.58673,5.5485 c -0.28217,0.26762 -2.58482,1.18866 -3.61177,-1.52513 z"
         id="path336-4-9-4"
         sodipodi:nodetypes="cccscccssccccc" /><path
         id="path340-8-9-8"
         style="fill:#ffffff;stroke-width:0.264583"
         d="m 112.48816,214.13402 c -0.25096,3e-4 -0.51003,0.041 -0.76688,0.12247 -0.72745,0.2306 -2.64642,1.38211 -3.38066,1.81694 -0.90919,0.53843 -0.78285,0.44199 -1.42525,1.35289 l -3.76841,0.48358 c -1.62836,-0.62527 -2.02605,-2.2187 -2.10914,-3.25512 l -3.112299,1.58143 c 0.20626,2.8256 1.86392,3.94429 4.382899,3.98942 l 5.32341,-0.96788 c 0.51594,0.72045 3.06271,0.31899 9.65499,-0.986 l -0.48576,-1.78387 -4.67567,0.94309 c -0.17154,0.0225 -0.23939,-0.0613 -0.0413,-0.16898 0.46401,-0.24526 1.54369,-0.74259 1.69911,-1.25057 0.36836,-1.20402 -0.35018,-1.65323 -0.61753,-1.77198 -0.21322,-0.0705 -0.44174,-0.10571 -0.67747,-0.10542 z m -0.96231,1.64704 c -0.24138,0.56372 -0.56923,0.82184 -1.07646,1.05136 -0.45297,0.17124 -0.65114,0.12406 -0.89904,0.11951 0.0261,-0.24424 0.11418,-0.47298 0.38591,-0.65581 0.36612,-0.24006 0.39519,-0.47669 1.58959,-0.51506 z"
         sodipodi:nodetypes="cssccccccccccscscccccc" /><path
         style="fill:#ffffff;stroke-width:0.264583"
         d="m 146.33221,212.19778 -2.96193,1.51881 c -0.44194,0.11122 -0.18617,-0.49859 -0.11304,-0.72635 0.19088,-0.59449 0.30829,-0.93933 0.72512,-1.95953 l -5.05915,1.75949 -21.59834,5.44412 c -0.0996,0.0163 -0.11008,-0.049 -0.15722,-0.0868 l -0.39839,-1.54051 0.0319,-0.14752 21.43891,-5.1895 8.48908,-2.65825 c 0.50071,-0.0756 1.06457,0.034 0.85976,0.55347 z"
         id="path342-3-70-3"
         sodipodi:nodetypes="ccscccccccccc" /><path
         id="path338-9-3-9"
         style="fill:#ffffff;stroke-width:0.264583"
         d="m 81.204052,203.68041 -2.74149,1.53968 0.78339,11.51034 c 0.291529,4.94415 3.5507,3.66075 5.88625,3.62065 l 2.37071,-0.58051 c 3.395333,-1.17367 4.316002,-0.98256 10.185999,-3.52101 l 2.317559,-1.23875 c 2.76161,-1.31266 2.74981,-3.40111 -0.415918,-4.08616 -2.94045,-0.7104 -6.52755,2.44186 -10.00849,4.43397 l 0.16251,-9.52435 -2.95206,1.66581 -0.33658,10.68059 c -0.98234,0.10685 -2.28544,0.0238 -3.06519,-0.0719 -0.43822,-0.47586 -0.70108,-0.85697 -0.93406,-1.52158 l -0.87059,-12.84961 z m 15.464339,9.33174 c 0.816321,0.0597 1.90928,0.0783 2.36671,1.21926 l -8.34121,3.03577 c 0.7948,-1.19394 0.71173,-1.58171 2.38386,-2.99273 1.01642,-0.45715 1.81392,-1.12753 3.59064,-1.2623 z"
         sodipodi:nodetypes="ccccccccccccccccccccc" /></g><path
       id="path156"
       style="fill:#ffffff;stroke-width:0.517967"
       d="M 43.169186,76.902555 A 30.196246,30.196246 0 0 0 12.972903,107.09884 30.196246,30.196246 0 0 0 43.169186,137.29512 30.196246,30.196246 0 0 0 73.365471,107.09884 30.196246,30.196246 0 0 0 43.169186,76.902555 Z m 0.264783,2.649207 A 27.547451,27.547451 0 0 1 70.981047,107.09884 27.547451,27.547451 0 0 1 43.433969,134.64659 27.547451,27.547451 0 0 1 15.886204,107.09884 27.547451,27.547451 0 0 1 43.433969,79.551762 Z" /></g></svg>
