<svg width="1440" height="347" viewBox="0 0 1440 347" fill="none" xmlns="http://www.w3.org/2000/svg">
<path d="M0 259.5V0H1440V248.5L534 322.5L0 259.5Z" fill="#46CAE7"/>
<path d="M0 259.5V0H713.5L852 296L534 322.5L0 259.5Z" fill="url(#paint0_linear)"/>
<path opacity="0.6" d="M1018.95 166.152H1014.09V183H1010.92V166.152H1007.54V164.676L1010.92 163.596V162.48C1010.92 159.984 1011.48 158.196 1012.58 157.116C1013.68 156.012 1015.22 155.46 1017.19 155.46C1017.96 155.46 1018.65 155.532 1019.28 155.676C1019.92 155.796 1020.48 155.94 1020.93 156.108L1020.1 158.592C1019.72 158.472 1019.28 158.352 1018.77 158.232C1018.27 158.112 1017.75 158.052 1017.22 158.052C1016.17 158.052 1015.38 158.412 1014.85 159.132C1014.34 159.828 1014.09 160.932 1014.09 162.444V163.704H1018.95V166.152ZM1039.21 173.316C1039.21 176.508 1038.4 178.98 1036.76 180.732C1035.16 182.484 1032.97 183.36 1030.21 183.36C1028.51 183.36 1026.98 182.976 1025.64 182.208C1024.32 181.416 1023.28 180.276 1022.51 178.788C1021.74 177.276 1021.36 175.452 1021.36 173.316C1021.36 170.124 1022.16 167.664 1023.77 165.936C1025.38 164.208 1027.56 163.344 1030.32 163.344C1032.07 163.344 1033.61 163.74 1034.93 164.532C1036.27 165.3 1037.32 166.428 1038.06 167.916C1038.83 169.38 1039.21 171.18 1039.21 173.316ZM1024.63 173.316C1024.63 175.596 1025.08 177.408 1025.96 178.752C1026.88 180.072 1028.32 180.732 1030.28 180.732C1032.23 180.732 1033.66 180.072 1034.57 178.752C1035.48 177.408 1035.94 175.596 1035.94 173.316C1035.94 171.036 1035.48 169.248 1034.57 167.952C1033.66 166.656 1032.22 166.008 1030.25 166.008C1028.28 166.008 1026.85 166.656 1025.96 167.952C1025.08 169.248 1024.63 171.036 1024.63 173.316ZM1061.01 173.316C1061.01 176.508 1060.19 178.98 1058.56 180.732C1056.95 182.484 1054.77 183.36 1052.01 183.36C1050.3 183.36 1048.78 182.976 1047.44 182.208C1046.12 181.416 1045.07 180.276 1044.3 178.788C1043.54 177.276 1043.15 175.452 1043.15 173.316C1043.15 170.124 1043.96 167.664 1045.56 165.936C1047.17 164.208 1049.36 163.344 1052.12 163.344C1053.87 163.344 1055.4 163.74 1056.72 164.532C1058.07 165.3 1059.11 166.428 1059.86 167.916C1060.62 169.38 1061.01 171.18 1061.01 173.316ZM1046.43 173.316C1046.43 175.596 1046.87 177.408 1047.76 178.752C1048.67 180.072 1050.11 180.732 1052.08 180.732C1054.02 180.732 1055.45 180.072 1056.36 178.752C1057.28 177.408 1057.73 175.596 1057.73 173.316C1057.73 171.036 1057.28 169.248 1056.36 167.952C1055.45 166.656 1054.01 166.008 1052.04 166.008C1050.08 166.008 1048.65 166.656 1047.76 167.952C1046.87 169.248 1046.43 171.036 1046.43 173.316ZM1069.2 183H1066.03V155.64H1069.2V183ZM1076.93 156.468C1077.41 156.468 1077.83 156.636 1078.19 156.972C1078.57 157.284 1078.77 157.788 1078.77 158.484C1078.77 159.156 1078.57 159.66 1078.19 159.996C1077.83 160.332 1077.41 160.5 1076.93 160.5C1076.4 160.5 1075.96 160.332 1075.6 159.996C1075.24 159.66 1075.06 159.156 1075.06 158.484C1075.06 157.788 1075.24 157.284 1075.6 156.972C1075.96 156.636 1076.4 156.468 1076.93 156.468ZM1078.48 163.704V183H1075.31V163.704H1078.48ZM1097.16 177.672C1097.16 179.544 1096.46 180.96 1095.07 181.92C1093.68 182.88 1091.8 183.36 1089.45 183.36C1088.11 183.36 1086.94 183.252 1085.96 183.036C1085 182.82 1084.15 182.52 1083.4 182.136V179.256C1084.17 179.64 1085.1 180 1086.18 180.336C1087.28 180.648 1088.4 180.804 1089.52 180.804C1091.13 180.804 1092.3 180.552 1093.02 180.048C1093.74 179.52 1094.1 178.824 1094.1 177.96C1094.1 177.48 1093.96 177.048 1093.7 176.664C1093.44 176.28 1092.96 175.896 1092.26 175.512C1091.59 175.128 1090.62 174.696 1089.34 174.216C1088.1 173.736 1087.03 173.256 1086.14 172.776C1085.25 172.296 1084.57 171.72 1084.09 171.048C1083.61 170.376 1083.37 169.512 1083.37 168.456C1083.37 166.824 1084.03 165.564 1085.35 164.676C1086.69 163.788 1088.44 163.344 1090.6 163.344C1091.78 163.344 1092.87 163.464 1093.88 163.704C1094.91 163.92 1095.87 164.232 1096.76 164.64L1095.68 167.16C1094.86 166.824 1094.01 166.536 1093.12 166.296C1092.24 166.056 1091.32 165.936 1090.39 165.936C1089.09 165.936 1088.1 166.152 1087.4 166.584C1086.73 166.992 1086.39 167.556 1086.39 168.276C1086.39 168.804 1086.55 169.26 1086.86 169.644C1087.17 170.004 1087.69 170.364 1088.41 170.724C1089.15 171.06 1090.14 171.468 1091.36 171.948C1092.58 172.404 1093.63 172.872 1094.49 173.352C1095.36 173.832 1096.02 174.42 1096.47 175.116C1096.93 175.788 1097.16 176.64 1097.16 177.672ZM1104.99 155.64V163.668C1104.99 164.628 1104.93 165.528 1104.81 166.368H1105.02C1105.65 165.384 1106.49 164.64 1107.54 164.136C1108.62 163.632 1109.79 163.38 1111.03 163.38C1113.39 163.38 1115.15 163.944 1116.33 165.072C1117.5 166.176 1118.09 167.964 1118.09 170.436V183H1114.96V170.652C1114.96 167.556 1113.52 166.008 1110.64 166.008C1108.48 166.008 1106.99 166.62 1106.17 167.844C1105.38 169.044 1104.99 170.772 1104.99 173.028V183H1101.82V155.64H1104.99ZM1140.26 163.344C1141.54 163.344 1142.68 163.584 1143.68 164.064C1144.72 164.544 1145.59 165.276 1146.31 166.26H1146.49L1146.92 163.704H1149.44V183.324C1149.44 186.084 1148.74 188.16 1147.32 189.552C1145.93 190.944 1143.76 191.64 1140.8 191.64C1137.97 191.64 1135.66 191.232 1133.86 190.416V187.5C1135.75 188.508 1138.13 189.012 1140.98 189.012C1142.64 189.012 1143.94 188.52 1144.87 187.536C1145.83 186.576 1146.31 185.256 1146.31 183.576V182.82C1146.31 182.532 1146.32 182.124 1146.35 181.596C1146.37 181.044 1146.4 180.66 1146.42 180.444H1146.28C1144.98 182.388 1142.99 183.36 1140.3 183.36C1137.8 183.36 1135.85 182.484 1134.43 180.732C1133.04 178.98 1132.34 176.532 1132.34 173.388C1132.34 170.316 1133.04 167.88 1134.43 166.08C1135.85 164.256 1137.79 163.344 1140.26 163.344ZM1140.7 166.008C1139.09 166.008 1137.84 166.656 1136.95 167.952C1136.06 169.224 1135.62 171.048 1135.62 173.424C1135.62 175.8 1136.05 177.624 1136.92 178.896C1137.8 180.144 1139.09 180.768 1140.77 180.768C1142.71 180.768 1144.13 180.252 1145.02 179.22C1145.9 178.164 1146.35 176.472 1146.35 174.144V173.388C1146.35 170.748 1145.89 168.864 1144.98 167.736C1144.07 166.584 1142.64 166.008 1140.7 166.008ZM1164.57 163.344C1164.93 163.344 1165.32 163.368 1165.72 163.416C1166.16 163.44 1166.53 163.488 1166.84 163.56L1166.44 166.476C1166.13 166.404 1165.78 166.344 1165.4 166.296C1165.04 166.248 1164.69 166.224 1164.36 166.224C1163.37 166.224 1162.45 166.5 1161.58 167.052C1160.72 167.58 1160.02 168.336 1159.5 169.32C1158.99 170.28 1158.74 171.408 1158.74 172.704V183H1155.57V163.704H1158.16L1158.52 167.232H1158.67C1159.29 166.176 1160.1 165.264 1161.08 164.496C1162.06 163.728 1163.23 163.344 1164.57 163.344ZM1177.19 163.344C1178.85 163.344 1180.26 163.704 1181.44 164.424C1182.64 165.144 1183.55 166.164 1184.18 167.484C1184.82 168.78 1185.15 170.304 1185.15 172.056V173.964H1171.94C1171.98 176.148 1172.54 177.816 1173.59 178.968C1174.67 180.096 1176.17 180.66 1178.09 180.66C1179.32 180.66 1180.4 180.552 1181.33 180.336C1182.29 180.096 1183.28 179.76 1184.28 179.328V182.1C1183.3 182.532 1182.33 182.844 1181.37 183.036C1180.41 183.252 1179.27 183.36 1177.95 183.36C1176.12 183.36 1174.5 182.988 1173.09 182.244C1171.7 181.5 1170.6 180.396 1169.81 178.932C1169.04 177.444 1168.66 175.632 1168.66 173.496C1168.66 171.384 1169.01 169.572 1169.7 168.06C1170.42 166.548 1171.42 165.384 1172.69 164.568C1173.99 163.752 1175.49 163.344 1177.19 163.344ZM1177.16 165.936C1175.64 165.936 1174.44 166.428 1173.56 167.412C1172.69 168.372 1172.18 169.716 1172.01 171.444H1181.84C1181.81 169.812 1181.43 168.492 1180.68 167.484C1179.94 166.452 1178.76 165.936 1177.16 165.936ZM1211.23 163.344C1213.41 163.344 1215.04 163.908 1216.12 165.036C1217.2 166.14 1217.74 167.94 1217.74 170.436V183H1214.61V170.58C1214.61 167.532 1213.3 166.008 1210.69 166.008C1208.82 166.008 1207.47 166.548 1206.66 167.628C1205.86 168.708 1205.47 170.28 1205.47 172.344V183H1202.34V170.58C1202.34 167.532 1201.02 166.008 1198.38 166.008C1196.43 166.008 1195.09 166.608 1194.34 167.808C1193.6 169.008 1193.23 170.736 1193.23 172.992V183H1190.06V163.704H1192.62L1193.08 166.332H1193.26C1193.86 165.324 1194.67 164.58 1195.68 164.1C1196.71 163.596 1197.8 163.344 1198.95 163.344C1201.98 163.344 1203.94 164.424 1204.86 166.584H1205.04C1205.68 165.48 1206.56 164.664 1207.66 164.136C1208.79 163.608 1209.98 163.344 1211.23 163.344ZM1226.87 183H1223.7V155.64H1226.87V183ZM1234.61 156.468C1235.09 156.468 1235.51 156.636 1235.87 156.972C1236.25 157.284 1236.44 157.788 1236.44 158.484C1236.44 159.156 1236.25 159.66 1235.87 159.996C1235.51 160.332 1235.09 160.5 1234.61 160.5C1234.08 160.5 1233.63 160.332 1233.27 159.996C1232.91 159.66 1232.73 159.156 1232.73 158.484C1232.73 157.788 1232.91 157.284 1233.27 156.972C1233.63 156.636 1234.08 156.468 1234.61 156.468ZM1236.15 163.704V183H1232.99V163.704H1236.15ZM1251.56 163.344C1253.86 163.344 1255.6 163.908 1256.78 165.036C1257.95 166.14 1258.54 167.94 1258.54 170.436V183H1255.41V170.652C1255.41 167.556 1253.97 166.008 1251.09 166.008C1248.95 166.008 1247.48 166.608 1246.66 167.808C1245.84 169.008 1245.44 170.736 1245.44 172.992V183H1242.27V163.704H1244.82L1245.29 166.332H1245.47C1246.1 165.324 1246.96 164.58 1248.06 164.1C1249.17 163.596 1250.33 163.344 1251.56 163.344Z" fill="white"/>
<path d="M1035.59 99.24C1036.2 99.24 1037.38 99.896 1039.14 101.208C1040.94 102.488 1041.83 103.448 1041.83 104.088C1041.83 105.208 1042.2 107.048 1042.94 109.608C1043.67 112.168 1044.52 114.488 1045.48 116.568C1046.44 115.448 1048.06 113.384 1050.33 110.376C1052.63 107.336 1054.57 104.936 1056.14 103.176C1057.7 101.416 1058.87 100.536 1059.64 100.536C1060.41 100.536 1061.21 100.968 1062.04 101.832C1062.87 102.696 1063.29 103.56 1063.29 104.424C1063.29 105.288 1063.16 106.408 1062.9 107.784C1062.65 109.128 1062.36 110.392 1062.04 111.576C1061.75 112.728 1061.32 114.312 1060.74 116.328C1060.2 118.344 1059.77 119.944 1059.45 121.128C1059.16 122.28 1058.86 123.528 1058.54 124.872C1058.22 126.184 1057.96 127.224 1057.77 127.992C1057.61 128.728 1057.42 129.512 1057.19 130.344C1057 131.144 1056.82 131.768 1056.66 132.216C1056.5 132.632 1056.33 133.016 1056.14 133.368C1055.78 134.04 1055.29 134.376 1054.65 134.376C1054.01 134.376 1053.37 133.752 1052.73 132.504C1052.12 131.224 1051.82 129.896 1051.82 128.52C1051.82 125.128 1052.79 120.632 1054.74 115.032C1054.2 115.736 1053.42 116.776 1052.39 118.152C1051.37 119.496 1050.6 120.488 1050.09 121.128C1049.61 121.736 1049 122.456 1048.26 123.288C1046.95 124.728 1045.67 125.448 1044.42 125.448C1042.76 125.448 1041.58 124.792 1040.87 123.48C1040.52 122.808 1040.04 121.304 1039.43 118.968C1038.86 116.6 1038.44 114.968 1038.18 114.072C1037.77 117.368 1037.21 120.36 1036.5 123.048C1035.8 125.736 1035.34 127.496 1035.11 128.328C1034.89 129.16 1034.58 130.168 1034.2 131.352C1033.56 133.368 1032.98 134.376 1032.47 134.376C1031.9 134.376 1031.1 133.624 1030.07 132.12C1029.08 130.584 1028.58 129.384 1028.58 128.52C1028.58 127.656 1029.51 123.336 1031.37 115.56C1033.26 107.784 1034.2 102.872 1034.2 100.824C1034.2 99.768 1034.66 99.24 1035.59 99.24ZM1092.51 116.376C1093.79 116.376 1094.71 116.504 1095.25 116.76C1095.83 116.984 1096.11 117.416 1096.11 118.056C1096.11 118.92 1094.72 119.8 1091.94 120.696C1092 123.128 1092.03 125.464 1092.03 127.704C1092.03 129.912 1091.86 131.576 1091.51 132.696C1091.15 133.784 1090.59 134.328 1089.83 134.328C1089.06 134.328 1088.45 133.944 1088 133.176C1087.59 132.376 1087.23 131.08 1086.95 129.288C1086.69 127.496 1086.42 125.128 1086.13 122.184C1082.87 122.92 1080.51 123.512 1079.07 123.96C1076.58 130.872 1074.91 134.328 1074.08 134.328C1073.41 134.328 1072.51 133.88 1071.39 132.984C1070.31 132.088 1069.76 131.16 1069.76 130.2C1069.76 129.656 1070.39 127.96 1071.63 125.112C1071.09 124.76 1070.61 124.264 1070.19 123.624C1069.81 122.952 1069.62 122.312 1069.62 121.704C1069.62 120.648 1071.2 119.64 1074.37 118.68C1074.63 118.04 1074.88 117.32 1075.14 116.52C1075.43 115.688 1076.11 113.768 1077.2 110.76C1078.32 107.752 1079.2 105.24 1079.84 103.224C1080.13 102.264 1081.12 101.368 1082.82 100.536C1084.55 99.704 1085.89 99.288 1086.85 99.288C1087.97 99.288 1088.96 100.84 1089.83 103.944C1090.72 107.048 1091.35 111.192 1091.7 116.376H1092.51ZM1081.43 117.192C1082.39 117.064 1083.78 116.904 1085.6 116.712C1085.51 115.784 1085.35 114.2 1085.12 111.96C1084.93 109.72 1084.79 108.104 1084.69 107.112C1084.15 108.904 1083.06 112.264 1081.43 117.192ZM1130.33 132.648C1130.33 133.96 1129.42 134.616 1127.6 134.616C1125.1 134.616 1122.48 133.32 1119.72 130.728C1117 128.136 1115.07 125.432 1113.92 122.616C1113.4 124.152 1113.05 125.192 1112.86 125.736C1112.67 126.28 1112.38 127.144 1112 128.328C1111.61 129.512 1111.31 130.392 1111.08 130.968C1110.89 131.544 1110.67 132.152 1110.41 132.792C1109.93 134.008 1109.47 134.616 1109.02 134.616C1108.28 134.616 1107.39 134.008 1106.33 132.792C1105.31 131.544 1104.8 130.536 1104.8 129.768C1104.8 129 1105.16 127.576 1105.9 125.496C1108.08 119.128 1109.32 113.32 1109.64 108.072C1109.04 107.592 1108.49 106.92 1108.01 106.056C1107.53 105.192 1107.29 104.472 1107.29 103.896C1107.29 102.936 1108.52 101.928 1110.99 100.872C1113.48 99.816 1116.35 99.288 1119.58 99.288C1122.84 99.288 1125.56 100.056 1127.74 101.592C1129.92 103.128 1131 105.128 1131 107.592C1131 109.416 1130.46 111.176 1129.37 112.872C1128.32 114.536 1127.15 115.848 1125.87 116.808C1124.62 117.736 1123.45 118.584 1122.36 119.352C1121.31 120.12 1120.78 120.616 1120.78 120.84C1120.78 121.608 1121.04 122.344 1121.55 123.048C1122.06 123.72 1122.78 124.52 1123.71 125.448C1124.64 126.344 1125.44 127.112 1126.11 127.752C1126.78 128.36 1127.32 128.872 1127.74 129.288C1128.19 129.704 1128.62 130.136 1129.04 130.584C1129.9 131.416 1130.33 132.104 1130.33 132.648ZM1123.61 108.072C1123.61 106.728 1122.3 106.056 1119.68 106.056C1118.43 106.056 1116.94 106.408 1115.21 107.112C1116.01 108.328 1116.41 109.448 1116.41 110.472C1116.41 112.328 1116.16 114.376 1115.64 116.616C1116 116.36 1116.65 115.912 1117.61 115.272C1118.57 114.6 1119.31 114.072 1119.82 113.688C1120.36 113.272 1120.97 112.744 1121.64 112.104C1122.96 110.856 1123.61 109.512 1123.61 108.072ZM1151.24 115.608C1151.82 115.608 1152.82 114.232 1154.26 111.48C1155.74 108.728 1157.22 105.992 1158.73 103.272C1160.23 100.52 1161.35 99.144 1162.09 99.144C1163.18 99.144 1164.07 99.64 1164.78 100.632C1165.51 101.624 1165.88 102.808 1165.88 104.184C1165.88 105.144 1165.05 107 1163.38 109.752C1161.72 112.472 1159.61 115.848 1157.05 119.88C1154.49 123.912 1152.52 127.336 1151.14 130.152C1150.73 131.048 1150.06 131.976 1149.13 132.936C1148.2 133.896 1147.3 134.376 1146.44 134.376C1145.16 134.376 1144.52 133.352 1144.52 131.304C1144.52 130.088 1145.74 127.256 1148.17 122.808C1148.55 122.104 1148.82 121.576 1148.98 121.224C1147.58 120.68 1146.3 119.784 1145.14 118.536C1143.99 117.288 1143.08 115.88 1142.41 114.312C1141 111.016 1140.3 107.816 1140.3 104.712C1140.3 102.792 1140.5 101.384 1140.92 100.488C1141.37 99.592 1142.26 99.144 1143.61 99.144C1144.31 99.144 1144.84 99.64 1145.19 100.632C1145.54 101.592 1145.86 102.984 1146.15 104.808C1146.44 106.632 1146.84 108.248 1147.35 109.656C1147.9 111.032 1148.55 112.376 1149.32 113.688C1150.12 114.968 1150.76 115.608 1151.24 115.608ZM1192.88 116.376C1194.16 116.376 1195.07 116.504 1195.62 116.76C1196.19 116.984 1196.48 117.416 1196.48 118.056C1196.48 118.92 1195.09 119.8 1192.31 120.696C1192.37 123.128 1192.4 125.464 1192.4 127.704C1192.4 129.912 1192.23 131.576 1191.87 132.696C1191.52 133.784 1190.96 134.328 1190.19 134.328C1189.43 134.328 1188.82 133.944 1188.37 133.176C1187.95 132.376 1187.6 131.08 1187.31 129.288C1187.06 127.496 1186.79 125.128 1186.5 122.184C1183.23 122.92 1180.88 123.512 1179.44 123.96C1176.95 130.872 1175.28 134.328 1174.45 134.328C1173.78 134.328 1172.88 133.88 1171.76 132.984C1170.67 132.088 1170.13 131.16 1170.13 130.2C1170.13 129.656 1170.75 127.96 1172 125.112C1171.46 124.76 1170.98 124.264 1170.56 123.624C1170.18 122.952 1169.99 122.312 1169.99 121.704C1169.99 120.648 1171.57 119.64 1174.74 118.68C1174.99 118.04 1175.25 117.32 1175.51 116.52C1175.79 115.688 1176.48 113.768 1177.57 110.76C1178.69 107.752 1179.57 105.24 1180.21 103.224C1180.5 102.264 1181.49 101.368 1183.19 100.536C1184.91 99.704 1186.26 99.288 1187.22 99.288C1188.34 99.288 1189.33 100.84 1190.19 103.944C1191.09 107.048 1191.71 111.192 1192.07 116.376H1192.88ZM1181.79 117.192C1182.75 117.064 1184.15 116.904 1185.97 116.712C1185.87 115.784 1185.71 114.2 1185.49 111.96C1185.3 109.72 1185.15 108.104 1185.06 107.112C1184.51 108.904 1183.43 112.264 1181.79 117.192ZM1212.08 99.24C1212.68 99.24 1213.87 99.896 1215.63 101.208C1217.42 102.488 1218.32 103.448 1218.32 104.088C1218.32 105.208 1218.68 107.048 1219.42 109.608C1220.16 112.168 1221 114.488 1221.96 116.568C1222.92 115.448 1224.54 113.384 1226.81 110.376C1229.12 107.336 1231.05 104.936 1232.62 103.176C1234.19 101.416 1235.36 100.536 1236.12 100.536C1236.89 100.536 1237.69 100.968 1238.52 101.832C1239.36 102.696 1239.77 103.56 1239.77 104.424C1239.77 105.288 1239.64 106.408 1239.39 107.784C1239.13 109.128 1238.84 110.392 1238.52 111.576C1238.24 112.728 1237.8 114.312 1237.23 116.328C1236.68 118.344 1236.25 119.944 1235.93 121.128C1235.64 122.28 1235.34 123.528 1235.02 124.872C1234.7 126.184 1234.44 127.224 1234.25 127.992C1234.09 128.728 1233.9 129.512 1233.68 130.344C1233.48 131.144 1233.31 131.768 1233.15 132.216C1232.99 132.632 1232.81 133.016 1232.62 133.368C1232.27 134.04 1231.77 134.376 1231.13 134.376C1230.49 134.376 1229.85 133.752 1229.21 132.504C1228.6 131.224 1228.3 129.896 1228.3 128.52C1228.3 125.128 1229.28 120.632 1231.23 115.032C1230.68 115.736 1229.9 116.776 1228.88 118.152C1227.85 119.496 1227.08 120.488 1226.57 121.128C1226.09 121.736 1225.48 122.456 1224.75 123.288C1223.44 124.728 1222.16 125.448 1220.91 125.448C1219.24 125.448 1218.06 124.792 1217.36 123.48C1217 122.808 1216.52 121.304 1215.92 118.968C1215.34 116.6 1214.92 114.968 1214.67 114.072C1214.25 117.368 1213.69 120.36 1212.99 123.048C1212.28 125.736 1211.82 127.496 1211.6 128.328C1211.37 129.16 1211.07 130.168 1210.68 131.352C1210.04 133.368 1209.47 134.376 1208.96 134.376C1208.38 134.376 1207.58 133.624 1206.56 132.12C1205.56 130.584 1205.07 129.384 1205.07 128.52C1205.07 127.656 1206 123.336 1207.85 115.56C1209.74 107.784 1210.68 102.872 1210.68 100.824C1210.68 99.768 1211.15 99.24 1212.08 99.24Z" fill="white"/>
<path d="M340.994 279.926C349.002 279.926 355.493 278.066 355.493 275.772C355.493 273.477 349.002 271.618 340.994 271.618C332.986 271.618 326.495 273.477 326.495 275.772C326.495 278.066 332.986 279.926 340.994 279.926Z" fill="#67AAAA"/>
<path d="M535.499 308.308C543.507 308.308 549.999 306.448 549.999 304.154C549.999 301.86 543.507 300 535.499 300C527.492 300 521 301.86 521 304.154C521 306.448 527.492 308.308 535.499 308.308Z" fill="#78C5C5"/>
<path d="M767.499 288.308C775.507 288.308 781.999 286.448 781.999 284.154C781.999 281.86 775.507 280 767.499 280C759.492 280 753 281.86 753 284.154C753 286.448 759.492 288.308 767.499 288.308Z" fill="#67AAAA"/>
<path d="M546.499 259.308C554.507 259.308 560.999 257.448 560.999 255.154C560.999 252.86 554.507 251 546.499 251C538.492 251 532 252.86 532 255.154C532 257.448 538.492 259.308 546.499 259.308Z" fill="#67AAAA"/>
<path d="M416.978 254.29C423.041 254.29 427.956 252.882 427.956 251.145C427.956 249.408 423.041 248 416.978 248C410.915 248 406 249.408 406 251.145C406 252.882 410.915 254.29 416.978 254.29Z" fill="#78C5C5"/>
<path d="M802.978 262.29C809.041 262.29 813.956 260.882 813.956 259.145C813.956 257.408 809.041 256 802.978 256C796.915 256 792 257.408 792 259.145C792 260.882 796.915 262.29 802.978 262.29Z" fill="#78C5C5"/>
<path d="M231.834 247.049C235.838 247.049 239.083 246.04 239.083 244.794C239.083 243.549 235.838 242.539 231.834 242.539C227.83 242.539 224.584 243.549 224.584 244.794C224.584 246.04 227.83 247.049 231.834 247.049Z" fill="#78C5C5"/>
<path d="M203.25 272.389C207.254 272.389 210.499 271.379 210.499 270.134C210.499 268.889 207.254 267.879 203.25 267.879C199.246 267.879 196 268.889 196 270.134C196 271.379 199.246 272.389 203.25 272.389Z" fill="#67AAAA"/>
<path d="M182.25 223.51C186.254 223.51 189.499 222.501 189.499 221.255C189.499 220.01 186.254 219 182.25 219C178.246 219 175 220.01 175 221.255C175 222.501 178.246 223.51 182.25 223.51Z" fill="#67AAAA"/>
<path d="M208.282 87.2517L209.265 87.3484L214.107 68.8603C226.911 78.1715 239.305 89.2144 248.49 101.726C263.571 122.268 273.864 143.317 278.328 160.728C280.56 169.435 281.327 177.206 280.524 183.539C279.721 189.87 277.356 194.715 273.367 197.66C269.378 200.605 264.062 201.429 257.796 200.317C251.528 199.205 244.356 196.162 236.728 191.438C221.475 181.992 204.49 165.884 189.409 145.342C186.614 141.508 184.047 137.511 181.723 133.372L204.291 134.388L204.491 133.421L176.267 122.706C167.057 102.87 161.616 80.989 158.476 64.0375C156.902 55.5379 155.907 48.2829 155.307 43.1537C155.006 40.5893 154.804 38.5565 154.677 37.1657C154.627 36.6172 154.589 36.1685 154.561 35.8264C154.777 35.9141 155.04 36.0211 155.346 36.1471C156.341 36.5575 157.799 37.17 159.643 37.9775C163.28 39.5702 168.42 41.9213 174.488 44.9762L175.201 56.8226L176.184 56.9192L178.741 47.1555C188.414 52.1834 197.805 57.7404 206.871 63.8014L208.282 87.2517Z" fill="#83D3D3" stroke="#78C5C5"/>
<path d="M267.361 72.8117L268.153 73.4016L281.827 60.0854C287.988 74.6932 292.906 90.5712 294.32 106.042C296.64 131.444 294.602 154.798 289.447 172.017C286.869 180.627 283.52 187.677 279.568 192.682C275.618 197.685 271.096 200.607 266.164 201.06C261.232 201.513 256.256 199.463 251.465 195.264C246.672 191.063 242.101 184.74 238.006 176.742C229.818 160.75 223.581 138.156 221.261 112.755C220.844 108.024 220.708 103.273 220.851 98.5263L239.646 111.092L240.317 110.368L221.679 86.5667C224.02 64.8114 230.641 43.26 236.692 27.1213C239.726 19.0294 242.615 12.3033 244.744 7.60111C245.809 5.2501 246.684 3.40528 247.292 2.14892C247.532 1.65437 247.73 1.25102 247.882 0.943878C248.022 1.13112 248.192 1.35852 248.388 1.62478C249.029 2.49216 249.961 3.77188 251.123 5.41894C253.416 8.66762 256.604 13.3449 260.224 19.1056L254.728 29.6164L255.52 30.2063L262.741 23.1744C268.43 32.4928 273.605 42.1177 278.241 52.0055L267.361 72.8117Z" fill="#98F1F1" stroke="#78C5C5"/>
<path d="M598.321 136.49C598.507 136.015 598.663 135.625 598.785 135.324C598.928 135.488 599.099 135.684 599.297 135.912C599.973 136.693 600.957 137.847 602.189 139.335C604.616 142.267 608.004 146.496 611.882 151.728L607.396 162.175L608.23 162.703L614.608 155.461C620.72 163.934 626.363 172.737 631.512 181.832L622.626 202.523L623.46 203.051L635.549 189.324C642.499 202.819 648.353 217.618 650.83 232.289C656.485 265.788 653.796 296.088 645.207 312.527L610.818 315.699C598.212 302.163 586.814 275.726 581.483 244.152C580.743 239.674 580.266 235.155 580.057 230.62L598.917 241.211L599.53 240.438L579.976 219.083C580.631 198.117 585.392 177.027 590.003 161.151C592.315 153.19 594.587 146.545 596.281 141.892C597.128 139.565 597.83 137.736 598.321 136.49Z" fill="#89E4E4" stroke="#78C5C5"/>
<path d="M744.087 184.194C744.552 183.987 744.936 183.819 745.233 183.69C745.22 183.907 745.204 184.168 745.184 184.469C745.117 185.502 745.007 187.016 744.839 188.943C744.507 192.741 743.948 198.138 743.035 204.596L732.518 208.886L732.742 209.847L742.354 209.172C740.754 219.511 738.589 229.756 735.869 239.86L715.039 248.357L715.263 249.319L733.483 248.038C728.956 262.547 722.735 277.213 714.204 289.412C709.382 296.307 704.332 302.706 699.194 308.518L627.8 314.266C630.207 296.247 640.28 272.42 656.599 249.084C659.214 245.371 662.044 241.816 665.076 238.436L671.05 259.252L672.03 259.132L673.113 230.156C688.285 215.673 706.463 203.991 720.876 195.919C728.104 191.871 734.38 188.734 738.848 186.609C741.082 185.546 742.864 184.737 744.087 184.194Z" fill="#9EEBEB" stroke="#78C5C5"/>
<path d="M490.531 49.1566L491.069 49.9859L501.883 45.1143C502.854 54.0948 502.821 63.5237 500.75 72.1379C497.307 86.4546 491.567 98.8944 485.09 107.433C481.851 111.703 478.441 114.98 475.059 117.034C471.679 119.087 468.356 119.902 465.26 119.313C459.081 118.136 454.656 111.487 452.665 101.295C450.683 91.1534 451.166 77.7171 454.608 63.4C455.236 60.8326 456.028 58.2992 456.98 55.8122L466.012 65.7411L466.842 65.2081L459.934 49.0454C465.551 37.5677 473.749 26.9283 480.57 19.1355C483.999 15.2182 487.076 12.0249 489.294 9.81159C490.404 8.70502 491.298 7.84363 491.915 7.2594C492.076 7.10722 492.218 6.97386 492.339 6.85987C492.367 6.92875 492.396 7.00277 492.427 7.08185C492.656 7.66636 492.985 8.52701 493.387 9.62872C494.169 11.7739 495.223 14.8323 496.337 18.5452L491.022 23.277L491.56 24.1063L497.212 21.5603C498.897 27.5333 500.219 33.5827 501.171 39.6823L490.531 49.1566Z" fill="#5DE1E1" stroke="#78C5C5"/>
<path d="M498.887 86.3821L498.762 87.3609L510.672 89.9887C504.656 97.2696 497.533 104.304 489.458 109.552C476.012 118.29 462.212 124.285 450.783 126.922C445.068 128.241 439.967 128.715 435.81 128.285C431.649 127.855 428.485 126.527 426.563 124.294C424.65 122.073 424.089 119.098 424.781 115.553C425.475 111.997 427.426 107.9 430.491 103.516C436.62 94.7522 447.128 84.9494 460.576 76.2096C463.01 74.6387 465.546 73.1905 468.171 71.872L467.622 84.5314L468.589 84.703L475.477 68.5464C488.465 63.1961 502.806 59.984 513.932 58.1085C519.521 57.1663 524.293 56.5623 527.668 56.1939C529.355 56.0097 530.692 55.8845 531.607 55.8053C531.833 55.7858 532.032 55.7691 532.205 55.755C532.185 55.7997 532.163 55.8464 532.141 55.895C531.876 56.4666 531.48 57.3039 530.958 58.364C529.938 60.434 528.435 63.3526 526.482 66.799L518.779 67.2572L518.654 68.236L524.86 69.6052C521.653 75.0537 518.112 80.3491 514.25 85.4682L498.887 86.3821Z" fill="#9EEBEB" stroke="#78C5C5"/>
<path d="M109.492 194.905L108.91 195.703L98.122 190.204C97.1459 200.388 97.1751 211.089 99.2533 220.869C102.699 237.082 108.443 251.171 114.927 260.843C118.17 265.68 121.582 269.39 124.964 271.715C128.345 274.038 131.654 274.952 134.728 274.289C137.804 273.627 140.452 271.429 142.593 267.915C144.734 264.4 146.34 259.607 147.333 253.857C149.318 242.36 148.834 227.137 145.389 210.924C144.761 208.016 143.968 205.146 143.015 202.33L134.007 213.534L133.15 213.044L140.077 194.706C134.455 181.69 126.241 169.627 119.411 160.797C115.981 156.363 112.904 152.749 110.684 150.244C109.575 148.992 108.68 148.017 108.063 147.355C107.914 147.196 107.782 147.055 107.667 146.933C107.64 147.01 107.611 147.093 107.58 147.181C107.351 147.844 107.021 148.818 106.619 150.066C105.833 152.508 104.771 155.995 103.65 160.23L109 165.621L108.418 166.418L102.797 163.553C101.104 170.343 99.7768 177.22 98.822 184.155L109.492 194.905Z" fill="#5DE1E1" stroke="#78C5C5"/>
<path d="M64.4957 225.557L64.5848 226.54L52.8598 229.526C58.7823 237.814 65.8005 245.827 73.7594 251.797C86.9549 261.696 100.493 268.483 111.7 271.468C117.305 272.961 122.302 273.495 126.369 273.01C130.434 272.525 133.525 271.029 135.409 268.503C137.293 265.977 137.851 262.58 137.167 258.531C136.482 254.481 134.559 249.825 131.548 244.855C125.527 234.916 115.21 223.809 102.015 213.911C99.6406 212.142 97.1678 210.511 94.6086 209.025L95.1481 223.378L94.1795 223.57L87.4091 205.239C74.6649 199.177 60.5914 195.538 49.674 193.414C44.1915 192.347 39.5103 191.664 36.2007 191.247C34.5461 191.038 33.2345 190.896 32.3374 190.807C32.1203 190.785 31.9274 190.766 31.7599 190.751C31.7903 190.827 31.8231 190.909 31.8582 190.997C32.1184 191.645 32.5071 192.594 33.02 193.795C34.0239 196.147 35.5034 199.463 37.4267 203.38L44.9792 203.899L45.0684 204.882L38.958 206.438C42.1212 212.651 45.6174 218.688 49.4314 224.522L64.4957 225.557Z" fill="#7ED9D9" stroke="#78C5C5"/>
<path d="M557.727 236.595L477.573 233.751L435.303 237.795L363.086 244.701L335.91 247.298L272.973 268.345C272.72 268.429 272.449 268.44 272.19 268.376C271.932 268.312 271.696 268.176 271.512 267.984C271.327 267.791 271.201 267.55 271.147 267.288C271.094 267.027 271.115 266.755 271.21 266.505L271.214 266.501L282.129 237.553L280.981 236.704L250.944 214.573L250.784 214.454L211.837 208.501C211.288 208.416 210.77 208.193 210.332 207.853C209.893 207.512 209.549 207.065 209.33 206.554C209.111 206.042 209.026 205.484 209.083 204.93C209.139 204.377 209.335 203.847 209.653 203.391L268.969 118.04L300.14 73.1988L303.52 68.3307L433.185 66.5342L559.783 232.604C560.068 232.978 560.241 233.426 560.283 233.895C560.324 234.364 560.231 234.835 560.016 235.253C559.8 235.671 559.471 236.019 559.066 236.257C558.66 236.495 558.196 236.612 557.727 236.595Z" fill="#46CAE7"/>
<path opacity="0.2" d="M333.894 75.2572L280.979 236.705L250.946 214.573L268.97 118.041L300.05 73.0919L300.138 73.1967L333.894 75.2572Z" fill="black"/>
<path d="M286.661 137.105C280.657 151.578 278.531 163.667 271.41 161.484C261.66 158.496 271.897 147.924 277.901 133.451C283.905 118.978 288.147 107.876 293.152 109.072C302.483 111.302 292.665 122.632 286.661 137.105Z" fill="#3F3D56"/>
<path d="M300.264 108.135C300.263 107.177 300.073 106.229 299.706 105.344C299.339 104.46 298.802 103.657 298.125 102.98C297.449 102.304 296.646 101.768 295.763 101.403C294.88 101.038 293.934 100.851 292.978 100.852C292.814 100.853 292.652 100.86 292.491 100.871L285.626 100.022C284.839 99.7406 284.008 99.5976 283.172 99.5996C282.941 99.6 282.713 99.6124 282.488 99.6339L282.223 99.6011L282.216 99.6659C280.605 99.8827 279.113 100.634 277.978 101.801C276.843 102.967 276.13 104.481 275.953 106.101C275.776 107.721 276.146 109.354 277.002 110.739C277.859 112.125 279.153 113.182 280.679 113.743L280.665 113.874L281.34 113.95C281.946 114.109 282.57 114.189 283.196 114.188C283.265 114.187 283.334 114.184 283.403 114.182L290.42 114.97C291.245 115.283 292.12 115.442 293.002 115.44C293.331 115.439 293.659 115.416 293.985 115.37L294.583 115.438L294.587 115.262C296.2 114.898 297.641 113.993 298.673 112.698C299.705 111.402 300.266 109.793 300.264 108.135Z" fill="#46CAE7"/>
<path opacity="0.2" d="M300.264 108.135C300.263 107.177 300.073 106.229 299.706 105.344C299.339 104.46 298.802 103.657 298.125 102.98C297.449 102.304 296.646 101.768 295.763 101.403C294.88 101.038 293.934 100.851 292.978 100.852C292.814 100.853 292.652 100.86 292.491 100.871L285.626 100.022C284.839 99.7406 284.008 99.5976 283.172 99.5996C282.941 99.6 282.713 99.6124 282.488 99.6339L282.223 99.6011L282.216 99.6659C280.605 99.8827 279.113 100.634 277.978 101.801C276.843 102.967 276.13 104.481 275.953 106.101C275.776 107.721 276.146 109.354 277.002 110.739C277.859 112.125 279.153 113.182 280.679 113.743L280.665 113.874L281.34 113.95C281.946 114.109 282.57 114.189 283.196 114.188C283.265 114.187 283.334 114.184 283.403 114.182L290.42 114.97C291.245 115.283 292.12 115.442 293.002 115.44C293.331 115.439 293.659 115.416 293.985 115.37L294.583 115.438L294.587 115.262C296.2 114.898 297.641 113.993 298.673 112.698C299.705 111.402 300.266 109.793 300.264 108.135Z" fill="white"/>
<path d="M203.119 207.775L202.279 207.333C223.799 166.203 284.666 78.3249 285.278 77.442L286.057 77.9852C285.445 78.8676 224.611 166.697 203.119 207.775Z" fill="#3F3D56"/>
<path d="M269.038 269.413L268.123 269.163C268.566 267.528 312.646 105.396 327.95 78.0463L328.777 78.5117C313.53 105.761 269.481 267.779 269.038 269.413Z" fill="#3F3D56"/>
<path d="M563.514 237.979C540.014 199.161 451.269 78.9403 450.375 77.7303L451.137 77.1642C452.031 78.3743 540.802 198.631 564.324 237.486L563.514 237.979Z" fill="#3F3D56"/>
<path d="M267.33 273.728C269.164 273.725 270.648 271.806 270.644 269.441C270.64 267.077 269.15 265.163 267.316 265.166C265.482 265.168 263.999 267.088 264.002 269.452C264.006 271.817 265.496 273.731 267.33 273.728Z" fill="#3F3D56"/>
<path d="M203.334 209.614C205.168 209.611 206.652 207.692 206.648 205.327C206.645 202.963 205.155 201.048 203.321 201.051C201.487 201.054 200.003 202.973 200.007 205.338C200.011 207.702 201.5 209.617 203.334 209.614Z" fill="#3F3D56"/>
<path d="M564.394 240.116C566.228 240.113 567.712 238.194 567.708 235.829C567.704 233.465 566.214 231.55 564.38 231.553C562.546 231.556 561.063 233.475 561.066 235.84C561.07 238.204 562.56 240.119 564.394 240.116Z" fill="#3F3D56"/>
<path d="M281.59 82.1642L460.57 84.0873C460.446 69.4295 454.55 55.4149 444.167 45.0967C433.784 34.7784 419.755 28.9927 405.137 29L336.831 29.1102C308.261 29.1563 284.069 51.5602 281.756 80.1149L281.59 82.1642Z" fill="#3F3D56"/>
<path opacity="0.2" d="M438.849 141.49H373.434C372.638 141.489 371.849 141.647 371.114 141.954C370.379 142.262 369.712 142.713 369.152 143.281C368.592 143.849 368.151 144.522 367.853 145.263C367.555 146.004 367.406 146.796 367.416 147.595L367.473 152.392L368.055 203.746L368.064 204.737L368.083 206.372L368.102 207.97L368.211 217.597C368.229 219.164 368.853 220.662 369.952 221.775C371.051 222.889 372.539 223.531 374.101 223.565C374.261 223.565 374.427 223.56 374.592 223.55L390.126 222.602L412.599 221.228L420.531 220.744L422.299 220.635L434.66 219.882H434.665L439.212 219.602C440.742 219.507 442.178 218.831 443.228 217.712C444.279 216.592 444.864 215.114 444.866 213.577V147.524C444.864 145.924 444.23 144.39 443.102 143.259C441.974 142.128 440.444 141.491 438.849 141.49Z" fill="black"/>
<path d="M452.319 133.102C452.082 133.121 451.853 133.192 451.647 133.31C451.441 133.429 451.264 133.591 451.128 133.787L443.921 133.798V131.881C443.919 130.282 443.284 128.748 442.156 127.617C441.028 126.485 439.498 125.849 437.903 125.847H372.489C371.692 125.847 370.903 126.004 370.168 126.312C369.433 126.619 368.767 127.07 368.207 127.638C367.647 128.206 367.205 128.88 366.907 129.621C366.609 130.361 366.461 131.154 366.471 131.953L366.494 133.923L361.846 133.931C361.591 133.659 361.241 133.496 360.87 133.477C359.24 133.48 357.925 137.047 357.932 141.446C357.939 145.844 359.266 149.408 360.895 149.405C361.179 149.374 361.451 149.275 361.689 149.116C361.927 148.957 362.123 148.744 362.261 148.493L451.152 148.349C451.288 148.544 451.466 148.706 451.672 148.824C451.878 148.942 452.108 149.012 452.345 149.03C453.974 149.028 455.289 145.46 455.282 141.061C455.275 136.663 453.948 133.099 452.319 133.102Z" fill="#46CAE7"/>
<path opacity="0.2" d="M452.319 133.102C452.082 133.121 451.853 133.192 451.647 133.31C451.441 133.429 451.264 133.591 451.128 133.787L443.921 133.798V131.881C443.919 130.282 443.284 128.748 442.156 127.617C441.028 126.485 439.498 125.849 437.903 125.847H372.489C371.692 125.847 370.904 126.004 370.168 126.312C369.433 126.619 368.767 127.07 368.207 127.638C367.647 128.206 367.205 128.88 366.907 129.621C366.609 130.361 366.461 131.154 366.471 131.953L366.494 133.923L361.846 133.931C361.591 133.659 361.241 133.496 360.87 133.477C359.24 133.48 357.925 137.047 357.932 141.446C357.939 145.844 359.266 149.408 360.895 149.405C361.179 149.374 361.451 149.275 361.689 149.116C361.927 148.957 362.123 148.744 362.261 148.493L451.152 148.349C451.288 148.544 451.466 148.706 451.672 148.824C451.878 148.942 452.108 149.012 452.345 149.03C453.974 149.028 455.289 145.46 455.282 141.061C455.275 136.663 453.948 133.099 452.319 133.102Z" fill="white"/>
<path d="M444.997 233.8C444.563 234.207 444.043 234.507 443.475 234.678C442.907 234.849 442.307 234.885 441.722 234.785C441.138 234.685 440.584 234.451 440.105 234.1C439.626 233.75 439.234 233.293 438.96 232.766L435.404 225.919L436.818 222.845L444.442 227.738C444.936 228.054 445.35 228.48 445.655 228.982C445.959 229.483 446.145 230.048 446.199 230.633C446.252 231.218 446.172 231.807 445.963 232.356C445.755 232.905 445.424 233.399 444.997 233.8Z" fill="#FFB8B8"/>
<path d="M456.835 285.833C456.751 285.042 456.375 284.311 455.781 283.783C455.187 283.255 454.418 282.969 453.625 282.98C452.902 282.975 452.199 283.214 451.628 283.658C451.057 284.102 450.651 284.725 450.475 285.428L447.326 300.764C447.222 301.213 447.168 301.672 447.165 302.132C447.165 305.59 450.051 307.994 453.625 307.994C457.198 307.994 460.087 305.59 460.087 302.132C460.085 301.578 460.01 301.026 459.863 300.492L456.835 285.833Z" fill="#3F3D56"/>
<path d="M480.658 292.692C480.338 292.411 479.993 292.158 479.629 291.937L467.596 283.506C466.425 282.768 465.174 282.789 464.265 283.679C463.869 284.058 463.617 284.563 463.554 285.109C463.49 285.654 463.62 286.204 463.919 286.664L473.004 298.637C473.212 298.927 473.443 299.2 473.696 299.451C475.271 301.216 478.763 301.313 480.682 299.451C482.576 297.558 482.553 294.184 480.658 292.692Z" fill="#3F3D56"/>
<path d="M489.7 280.202H477.514C477.124 280.187 476.743 280.327 476.455 280.593C476.167 280.858 475.996 281.226 475.978 281.618C475.971 281.979 476.086 282.332 476.303 282.62C476.52 282.908 476.827 283.115 477.175 283.207L488.671 286.773C490.341 287.164 492.59 285.671 492.59 283.808C492.59 281.437 491.275 280.202 489.7 280.202Z" fill="#3F3D56"/>
<path d="M431.714 281.611C431.701 281.409 431.649 281.213 431.559 281.032C431.47 280.851 431.345 280.69 431.193 280.558C431.041 280.427 430.864 280.327 430.672 280.264C430.481 280.202 430.279 280.178 430.079 280.195H417.893C416.358 280.195 415.063 281.857 415.063 283.721C415.063 285.584 417.247 287.164 418.922 286.773L430.591 283.207C430.941 283.126 431.249 282.918 431.456 282.624C431.663 282.329 431.755 281.969 431.714 281.611Z" fill="#3F3D56"/>
<path d="M440.078 283.52L428.042 291.915C427.668 292.126 427.32 292.379 427.004 292.67C426.119 293.495 425.597 294.639 425.553 295.85C425.51 297.061 425.947 298.239 426.77 299.127C426.845 299.208 426.923 299.286 427.004 299.361C427.948 300.255 429.197 300.753 430.496 300.753C431.794 300.753 433.044 300.255 433.988 299.361C434.245 299.114 434.477 298.842 434.68 298.549L443.772 286.643C444.077 286.19 444.209 285.642 444.146 285.099C444.082 284.556 443.827 284.053 443.426 283.683C442.977 283.263 442.395 283.016 441.782 282.986C441.169 282.957 440.565 283.146 440.078 283.52Z" fill="#3F3D56"/>
<path d="M458.799 267.113C458.939 266.907 459.016 266.665 459.023 266.416C459.023 264.946 456.134 263.925 452.561 263.925C448.987 263.925 446.101 264.946 446.101 266.416C446.106 266.62 446.161 266.82 446.262 266.997L449.411 273.515C449.772 274.13 451.073 274.56 452.561 274.555C454.238 274.555 455.631 274.024 455.771 273.343L458.799 267.113Z" fill="#3F3D56"/>
<path d="M479.618 267.556C477.699 266.764 474.207 266.806 472.632 267.556C472.394 267.655 472.163 267.77 471.94 267.901L462.855 272.99C462.237 273.393 462.383 273.926 463.201 274.258C464.276 274.632 465.441 274.658 466.532 274.332L478.564 270.749C478.913 270.66 479.257 270.553 479.594 270.428C481.489 269.794 481.511 268.36 479.618 267.556Z" fill="#3F3D56"/>
<path d="M491.527 274.204C491.527 273.412 489.277 272.777 487.607 272.943L476.112 274.459C475.425 274.555 474.914 274.78 474.914 275.134C474.914 275.489 475.663 275.736 476.451 275.736H488.637C490.212 275.736 491.527 275.211 491.527 274.204Z" fill="#3F3D56"/>
<path d="M429.528 274.459L417.859 272.943C416.184 272.777 414 273.449 414 274.241C414 275.033 415.294 275.739 416.829 275.739H429.016C429.864 275.739 430.651 275.506 430.651 275.137C430.651 274.769 430.287 274.555 429.528 274.459Z" fill="#3F3D56"/>
<path d="M442.363 274.257C443.214 273.92 443.315 273.41 442.709 272.999L433.617 267.939C433.396 267.805 433.164 267.69 432.925 267.594C430.663 266.805 428.202 266.805 425.94 267.594C425.86 267.626 425.782 267.659 425.707 267.693C423.993 268.478 424.098 269.707 425.94 270.437C426.279 270.568 426.626 270.675 426.979 270.758L439.014 274.326C440.111 274.653 441.281 274.628 442.363 274.257Z" fill="#3F3D56"/>
<path d="M477.346 266.058C477.346 284.906 466.87 285.255 453.947 285.255C441.025 285.255 419.809 281.526 430.549 266.058C441.877 249.744 461.311 218.647 453.947 217C453.947 217 477.346 247.21 477.346 266.058Z" fill="#F9A825"/>
<path opacity="0.5" d="M462.188 277.656C462.188 285.116 458.041 285.254 452.926 285.254C447.811 285.254 439.413 283.779 443.664 277.656C448.148 271.198 455.841 258.889 452.926 258.237C452.926 258.237 462.188 270.195 462.188 277.656Z" fill="#FF6584"/>
<path d="M444.866 210.207V213.577C444.864 215.114 444.278 216.592 443.228 217.712C442.178 218.831 440.742 219.507 439.212 219.602L374.592 223.55C373.778 223.6 372.963 223.484 372.196 223.208C371.428 222.933 370.724 222.503 370.128 221.946C369.531 221.389 369.053 220.717 368.723 219.969C368.394 219.221 368.219 218.414 368.21 217.597L368.054 203.746L407.143 203.111L444.866 210.207Z" fill="#3F3D56"/>
<path d="M434.329 226.901L405.176 211.718C405.041 211.648 404.923 211.55 404.83 211.431C404.736 211.311 404.668 211.173 404.632 211.026L398.308 185.468C397.941 183.985 398.139 182.418 398.864 181.074C399.588 179.73 400.787 178.705 402.225 178.201L403.748 177.666C404.088 177.547 404.448 177.499 404.807 177.525C405.166 177.551 405.516 177.651 405.835 177.818C406.154 177.985 406.435 178.216 406.661 178.496C406.888 178.777 407.054 179.101 407.15 179.449L413.384 201.95C413.442 202.16 413.563 202.348 413.731 202.487L437.484 222.222C437.689 222.392 437.823 222.633 437.86 222.898C437.897 223.162 437.834 223.43 437.684 223.651L435.702 226.555C435.554 226.771 435.333 226.925 435.081 226.989C434.828 227.053 434.56 227.021 434.329 226.901Z" fill="#89E4E4"/>
<path d="M395.079 168.46C400.549 168.46 404.983 164.013 404.983 158.528C404.983 153.043 400.549 148.597 395.079 148.597C389.609 148.597 385.175 153.043 385.175 158.528C385.175 164.013 389.609 168.46 395.079 168.46Z" fill="#FFB8B8"/>
<path d="M399.796 180.046L388.241 181.228C388.861 174.454 389.106 168.203 388.241 163.494H399.796C397.602 170.991 397.794 176.335 399.796 180.046Z" fill="#FFB8B8"/>
<path d="M405.985 179.79C405.976 180.828 405.954 181.855 405.919 182.871C405.678 190.142 404.766 196.688 402.279 201.509C401.774 202.507 401.171 203.452 400.478 204.329C400.473 204.338 400.467 204.346 400.459 204.353C400.411 204.42 400.359 204.483 400.303 204.543C399.795 205.176 399.23 205.761 398.616 206.292L393.884 211.269L393.666 211.496L392.286 212.421L385.176 217.17L368.102 207.97L368.083 206.372L368.064 204.737C371.86 199.343 374.228 192.327 375.731 184.34C376.143 182.155 376.492 179.894 376.79 177.571C376.994 175.965 377.173 174.324 377.329 172.661C377.353 172.15 377.526 171.657 377.826 171.243C377.826 171.243 377.826 171.242 377.826 171.242C377.826 171.241 377.826 171.24 377.827 171.24C377.827 171.24 377.828 171.239 377.828 171.239C377.829 171.239 377.83 171.239 377.83 171.239C378.558 170.31 380.005 170.329 381.754 170.234C384.207 170.101 386.623 168.826 388.793 170.03C388.846 170.055 388.899 170.083 388.949 170.115L395.316 177.206L398.242 174.045L398.379 173.898L404.406 176.486C405.023 176.753 405.522 177.234 405.812 177.842C406.102 178.449 406.164 179.141 405.985 179.79Z" fill="#89E4E4"/>
<path d="M392.546 214.644C392.546 215.853 392.318 217.051 391.874 218.175L390.125 222.603L374.592 223.551C374.427 223.56 374.261 223.565 374.1 223.565C372.538 223.531 371.051 222.889 369.952 221.775C368.853 220.662 368.228 219.164 368.21 217.597L368.102 207.97L368.083 206.372L373.736 208.776L379.248 205.808C379.549 205.679 379.857 205.569 380.17 205.476C380.578 205.347 380.995 205.247 381.418 205.178H381.423C381.626 205.145 381.829 205.116 382.033 205.097C384.369 204.862 386.71 205.499 388.608 206.884C389.718 207.69 390.639 208.728 391.307 209.927C391.358 210.01 391.404 210.095 391.444 210.183C391.82 210.89 392.103 211.642 392.286 212.421C392.458 213.149 392.545 213.895 392.546 214.644Z" fill="#2F2E41"/>
<path opacity="0.2" d="M388.123 186.312L390.19 195.818L402.743 206.648L391.661 195.298L388.123 186.312Z" fill="black"/>
<path opacity="0.2" d="M376.569 190.805L380.342 206.174L391.425 210.194L381.049 204.992L376.569 190.805Z" fill="black"/>
<path d="M465.666 233.922L411.99 224.676L412.648 221.424L465.666 233.922Z" fill="#3F3D56"/>
<path d="M420.943 226.707C420.51 227.113 419.989 227.413 419.421 227.584C418.853 227.755 418.254 227.791 417.669 227.691C417.085 227.591 416.531 227.357 416.052 227.006C415.573 226.656 415.181 226.199 414.907 225.672L411.351 218.825L412.765 215.751L420.389 220.644C420.883 220.96 421.297 221.386 421.602 221.888C421.906 222.39 422.092 222.954 422.146 223.539C422.199 224.124 422.119 224.714 421.91 225.262C421.702 225.811 421.371 226.305 420.943 226.707Z" fill="#FFB8B8"/>
<path d="M410.276 219.807L381.123 204.624C380.988 204.554 380.87 204.456 380.776 204.337C380.683 204.218 380.615 204.08 380.579 203.932L374.255 178.375C373.888 176.892 374.086 175.325 374.81 173.98C375.535 172.636 376.733 171.611 378.172 171.107L379.695 170.572C380.035 170.453 380.395 170.405 380.754 170.431C381.113 170.457 381.463 170.557 381.782 170.724C382.1 170.891 382.382 171.122 382.608 171.403C382.834 171.683 383.001 172.007 383.097 172.355L389.33 194.856C389.389 195.067 389.51 195.254 389.678 195.394L413.431 215.128C413.635 215.299 413.77 215.54 413.807 215.804C413.844 216.068 413.781 216.337 413.63 216.557L411.648 219.462C411.501 219.677 411.28 219.832 411.027 219.895C410.774 219.959 410.507 219.928 410.276 219.807Z" fill="#89E4E4"/>
<path d="M459.879 235.605C460.137 235.656 460.404 235.602 460.623 235.456C460.841 235.31 460.993 235.083 461.046 234.825L461.583 232.126C461.635 231.867 461.582 231.599 461.436 231.38C461.29 231.161 461.064 231.008 460.806 230.957L453.015 229.395C452.757 229.344 452.49 229.397 452.271 229.543C452.053 229.69 451.901 229.917 451.849 230.175L451.311 232.874C451.285 233.002 451.285 233.134 451.311 233.262C451.336 233.39 451.386 233.511 451.458 233.62C451.53 233.729 451.623 233.822 451.731 233.894C451.839 233.967 451.961 234.018 452.088 234.043L459.879 235.605Z" fill="#89E4E4"/>
<path d="M391.188 170.419C390.95 169.082 390.658 168.588 389.089 166.777C387.52 164.966 387.282 161.249 387.755 160.301C388.228 159.353 388.701 158.247 388.701 156.983C388.701 155.719 387.277 153.75 389.089 151.058C389.495 150.222 390.355 149.636 391.232 149.525C394.429 148.377 399.513 152.386 401.043 154.747C402.956 157.69 403.217 160.107 403.118 163.619C402.434 165.358 401.237 166.581 399.337 168.122C396.409 170.901 400.518 174.047 399.215 176.654C397.912 179.261 398.297 182.773 403.355 189.107C402.039 183.088 404.858 179.56 404.773 183.054C404.687 186.547 404.933 189.625 410.682 196.089C411.195 192.648 410.52 190.404 412.855 187.557C413.875 185.86 413.991 184.95 413.282 183.528C412.659 182.39 412.475 181.767 413.068 180.73C413.424 179.38 413.387 178.756 412.855 177.932C412.512 177.544 411.851 176.715 411.422 176.441C410.092 175.569 409.601 174.961 409.356 173.386C409.093 171.683 408.868 170.842 409.226 169.156C409.763 166.634 411.809 166.525 411.502 163.965C411.202 161.445 409.48 159.367 408.321 157.111C408.177 154.955 409.391 154.836 410.119 152.803C410.57 151.472 410.621 150.037 410.263 148.678C409.906 147.319 409.157 146.095 408.11 145.159C406.888 144.105 405.244 144.902 404.398 143.528C404.004 142.889 403.809 142.135 403.38 141.517C402.571 140.356 401.09 139.881 399.676 139.712C398.262 139.542 396.823 139.589 395.477 139.16C394.522 138.849 393.656 138.299 392.692 138.022C391.643 137.743 390.535 137.789 389.513 138.155C388.491 138.52 387.604 139.188 386.97 140.07C386.462 140.804 386.13 141.687 385.444 142.26C384.041 143.436 381.661 142.925 380.431 144.282C379.407 145.413 379.756 147.165 379.955 148.678C380.377 151.931 380.309 152.098 378.818 155.018C377.659 157.274 375.936 159.352 375.636 161.872C375.33 164.433 376.564 166.897 377.102 169.419C377.887 173.209 377.783 175.273 376.088 178.787C375.187 181.524 374.866 183.045 375.616 185.661C376.732 188.478 376.772 190.09 376.088 193.001C375.555 196.243 376.971 202.751 376.971 202.751C382.793 199.094 387.085 186.767 387.117 189.107C387.15 191.447 386.275 193.904 384.459 196.318C391.199 194.361 392.595 190.493 392.495 180.575C392.135 178.022 389.144 175.796 390.053 173.386C390.434 172.377 391.379 171.493 391.188 170.419Z" fill="#3F3D56"/>
<defs>
<linearGradient id="paint0_linear" x1="400.515" y1="331.011" x2="400.515" y2="3.94596e-05" gradientUnits="userSpaceOnUse">
<stop stop-opacity="0.4"/>
<stop offset="0.651042" stop-color="#808080" stop-opacity="0.5"/>
<stop offset="1" stop-color="#808080" stop-opacity="0.4"/>
</linearGradient>
</defs>
</svg>
