<svg width="1455" height="347" viewBox="0 0 1455 347" fill="none" xmlns="http://www.w3.org/2000/svg">
<path d="M0 259.5V0H1440V248.5L534 322.5L0 259.5Z" fill="#46CAE7"/>
<path d="M0 259.5V0H713.5L852 296L534 322.5L0 259.5Z" fill="url(#paint0_linear)"/>
<path d="M988.113 176.562C988.113 176.438 988.113 176.281 988.113 176.094C988.175 175.906 988.206 175.812 988.206 175.812C989.144 174 990.113 172.25 991.113 170.562C992.175 168.875 993.238 167.219 994.3 165.594C995.425 163.906 996.488 162.219 997.488 160.531C998.55 158.781 999.519 157.031 1000.39 155.281C1000.14 154.719 999.519 154.219 998.519 153.781C997.519 153.344 996.3 152.875 994.863 152.375C993.488 151.875 992.019 151.312 990.456 150.688C988.894 150 987.456 149.219 986.144 148.344C984.831 147.406 983.738 146.344 982.863 145.156C981.988 143.906 981.55 142.469 981.55 140.844C981.55 139.156 982.113 137.688 983.238 136.438C984.363 135.125 985.738 134.062 987.363 133.25C988.988 132.375 990.706 131.719 992.519 131.281C994.331 130.844 995.894 130.625 997.206 130.625C999.956 130.625 1002.36 131.094 1004.43 132.031C1006.55 132.969 1008.74 134.188 1010.99 135.688C1011.74 135.125 1012.36 134.5 1012.86 133.812C1013.43 133.125 1013.93 132.375 1014.36 131.562C1014.55 131.125 1014.96 130.344 1015.58 129.219C1016.27 128.031 1016.93 126.781 1017.55 125.469C1018.24 124.156 1018.89 122.938 1019.52 121.812C1020.21 120.625 1020.64 119.781 1020.83 119.281C1021.33 118.906 1021.74 118.688 1022.05 118.625C1022.36 118.5 1022.8 118.438 1023.36 118.438C1023.43 118.438 1023.55 118.438 1023.74 118.438C1023.99 118.438 1024.14 118.438 1024.21 118.438C1024.83 121.062 1025.3 123.75 1025.61 126.5C1025.93 129.25 1026.14 132 1026.27 134.75C1026.46 137.5 1026.61 140.25 1026.74 143C1026.86 145.75 1027.08 148.5 1027.39 151.25C1027.58 151.25 1027.93 151.281 1028.43 151.344C1028.93 151.344 1029.3 151.344 1029.55 151.344C1030.43 151.344 1031.3 151.25 1032.18 151.062C1033.05 150.875 1033.93 150.688 1034.8 150.5C1035.68 150.25 1036.55 150.031 1037.43 149.844C1038.36 149.656 1039.3 149.562 1040.24 149.562H1040.52C1040.58 149.625 1040.71 149.75 1040.89 149.938C1041.08 150.125 1041.24 150.25 1041.36 150.312C1040.99 151 1040.36 151.562 1039.49 152C1038.68 152.375 1037.74 152.688 1036.68 152.938C1035.68 153.188 1034.61 153.438 1033.49 153.688C1032.36 153.875 1031.36 154.125 1030.49 154.438C1029.61 154.688 1028.86 155 1028.24 155.375C1027.68 155.75 1027.39 156.281 1027.39 156.969C1027.39 158.219 1027.46 159.469 1027.58 160.719C1027.77 161.969 1027.96 163.25 1028.14 164.562C1028.39 165.812 1028.61 167.094 1028.8 168.406C1028.99 169.656 1029.08 170.938 1029.08 172.25C1029.08 172.562 1029.05 173 1028.99 173.562C1028.99 174.125 1028.93 174.688 1028.8 175.25C1028.74 175.812 1028.55 176.312 1028.24 176.75C1027.99 177.188 1027.58 177.406 1027.02 177.406C1026.39 177.406 1025.83 176.938 1025.33 176C1024.83 175.062 1024.43 173.875 1024.11 172.438C1023.8 171 1023.52 169.438 1023.27 167.75C1023.08 166 1022.89 164.344 1022.71 162.781C1022.58 161.156 1022.43 159.75 1022.24 158.562C1022.05 157.312 1021.86 156.5 1021.68 156.125C1021.18 156.062 1020.24 156 1018.86 155.938C1017.55 155.875 1016.14 155.812 1014.64 155.75C1013.21 155.625 1011.83 155.531 1010.52 155.469C1009.21 155.344 1008.3 155.281 1007.8 155.281H1006.86C1005.61 155.281 1004.43 155.875 1003.3 157.062C1002.24 158.188 1001.24 159.656 1000.3 161.469C999.425 163.219 998.55 165.125 997.675 167.188C996.8 169.188 995.956 171.094 995.144 172.906C994.331 174.656 993.488 176.125 992.613 177.312C991.738 178.5 990.8 179.094 989.8 179.094C989.113 179.094 988.644 178.844 988.394 178.344C988.206 177.781 988.113 177.188 988.113 176.562ZM1006.96 151.25C1007.46 151.562 1008.05 151.812 1008.74 152C1009.49 152.125 1010.24 152.188 1010.99 152.188C1011.74 152.188 1012.43 152.188 1013.05 152.188C1013.74 152.188 1014.33 152.188 1014.83 152.188C1015.08 152.188 1015.39 152.188 1015.77 152.188C1016.14 152.125 1016.52 152.094 1016.89 152.094C1017.27 152.094 1017.58 152.094 1017.83 152.094C1018.14 152.031 1018.33 152 1018.39 152L1019.24 151.25C1019.36 151.125 1019.14 150.562 1018.58 149.562C1018.02 148.562 1017.3 147.531 1016.43 146.469C1015.61 145.344 1014.8 144.344 1013.99 143.469C1013.18 142.531 1012.61 142.062 1012.3 142.062C1012.24 142.062 1012.18 142.094 1012.11 142.156C1012.05 142.219 1011.96 142.25 1011.83 142.25C1010.89 143.625 1010.02 145.062 1009.21 146.562C1008.39 148.062 1007.64 149.625 1006.96 151.25ZM985.675 140.75C985.675 142.375 986.238 143.812 987.363 145.062C988.488 146.25 989.863 147.25 991.488 148.062C993.113 148.875 994.831 149.469 996.644 149.844C998.456 150.219 1000.05 150.406 1001.43 150.406C1002.3 150.406 1003.21 149.969 1004.14 149.094C1005.08 148.156 1005.93 147.094 1006.68 145.906C1007.49 144.719 1008.14 143.5 1008.64 142.25C1009.21 141 1009.49 140.031 1009.49 139.344C1009.49 138.594 1008.99 137.906 1007.99 137.281C1006.99 136.594 1005.8 136 1004.43 135.5C1003.11 135 1001.8 134.625 1000.49 134.375C999.175 134.062 998.206 133.906 997.581 133.906C996.644 133.906 995.488 134.062 994.113 134.375C992.8 134.625 991.488 135.031 990.175 135.594C988.925 136.156 987.863 136.875 986.988 137.75C986.113 138.562 985.675 139.562 985.675 140.75ZM1015.11 137.656C1015.11 138.469 1015.43 139.469 1016.05 140.656C1016.68 141.844 1017.43 143 1018.3 144.125C1019.18 145.25 1020.08 146.219 1021.02 147.031C1022.02 147.844 1022.89 148.25 1023.64 148.25C1023.64 147.938 1023.61 147.469 1023.55 146.844C1023.55 146.219 1023.52 145.531 1023.46 144.781C1023.46 144.031 1023.43 143.344 1023.36 142.719C1023.36 142.094 1023.36 141.625 1023.36 141.312C1023.24 140.438 1023.08 139.281 1022.89 137.844C1022.77 136.406 1022.61 135 1022.43 133.625C1022.3 132.25 1022.14 131.031 1021.96 129.969C1021.83 128.906 1021.74 128.344 1021.68 128.281L1020.83 126.688C1020.77 126.75 1020.61 126.875 1020.36 127.062C1020.18 127.25 1020.05 127.375 1019.99 127.438C1019.8 127.812 1019.49 128.438 1019.05 129.312C1018.61 130.125 1018.11 131 1017.55 131.938C1017.05 132.875 1016.58 133.781 1016.14 134.656C1015.71 135.531 1015.39 136.125 1015.21 136.438C1015.21 136.562 1015.18 136.781 1015.11 137.094C1015.11 137.406 1015.11 137.594 1015.11 137.656ZM1054.24 164.281C1055.74 165.969 1057.31 167.531 1058.93 168.969C1060.56 170.344 1062.27 171.562 1064.09 172.625C1065.9 173.625 1067.81 174.406 1069.81 174.969C1071.87 175.531 1074.02 175.812 1076.27 175.812C1079.09 175.812 1081.9 175.312 1084.71 174.312C1087.52 173.25 1090.06 171.812 1092.31 170C1094.62 168.125 1096.49 165.906 1097.93 163.344C1099.37 160.781 1100.09 158 1100.09 155C1100.09 153.312 1099.68 151.844 1098.87 150.594C1098.06 149.281 1096.99 148.188 1095.68 147.312C1094.43 146.438 1092.99 145.781 1091.37 145.344C1089.81 144.844 1088.24 144.594 1086.68 144.594C1085.87 144.594 1084.84 144.719 1083.59 144.969C1082.4 145.156 1081.12 145.438 1079.74 145.812C1078.37 146.125 1076.96 146.531 1075.52 147.031C1074.09 147.469 1072.74 147.969 1071.49 148.531C1070.24 149.094 1069.18 149.688 1068.31 150.312C1067.43 150.875 1066.81 151.438 1066.43 152C1066.43 152.312 1066.37 152.844 1066.24 153.594C1066.18 154.344 1066.09 155.188 1065.96 156.125C1065.9 157 1065.84 157.844 1065.77 158.656C1065.71 159.406 1065.65 159.938 1065.59 160.25C1065.59 160.625 1065.52 161.094 1065.4 161.656C1065.27 162.156 1065.12 162.688 1064.93 163.25C1064.81 163.75 1064.59 164.25 1064.27 164.75C1064.02 165.25 1063.68 165.656 1063.24 165.969C1062.37 165.594 1061.74 165 1061.37 164.188C1060.99 163.312 1060.74 162.375 1060.62 161.375C1060.56 160.312 1060.56 159.281 1060.62 158.281C1060.68 157.219 1060.71 156.344 1060.71 155.656C1060.71 155.031 1060.71 154 1060.71 152.562C1060.77 151.125 1060.84 149.438 1060.9 147.5C1061.02 145.562 1061.18 143.469 1061.37 141.219C1061.62 138.906 1061.93 136.625 1062.31 134.375C1062.68 132.062 1063.15 129.875 1063.71 127.812C1064.27 125.688 1064.96 123.812 1065.77 122.188C1066.59 120.5 1067.52 119.188 1068.59 118.25C1069.71 117.25 1070.96 116.75 1072.34 116.75C1073.96 116.75 1075.4 117.125 1076.65 117.875C1077.96 118.625 1079.06 119.594 1079.93 120.781C1080.87 121.906 1081.59 123.219 1082.09 124.719C1082.65 126.156 1082.93 127.625 1082.93 129.125C1082.93 130.312 1082.71 131.469 1082.27 132.594C1081.84 133.656 1081.37 134.688 1080.87 135.688C1080.43 136.688 1079.99 137.688 1079.56 138.688C1079.12 139.688 1078.9 140.719 1078.9 141.781C1080.4 141.781 1082.09 141.812 1083.96 141.875C1085.84 141.938 1087.74 142.094 1089.68 142.344C1091.62 142.594 1093.49 143.031 1095.31 143.656C1097.18 144.219 1098.84 145.031 1100.27 146.094C1101.71 147.094 1102.84 148.375 1103.65 149.938C1104.52 151.5 1104.96 153.406 1104.96 155.656C1104.96 157.906 1104.56 160.062 1103.74 162.125C1102.93 164.125 1101.81 166 1100.37 167.75C1098.99 169.5 1097.37 171.062 1095.49 172.438C1093.68 173.812 1091.71 175 1089.59 176C1087.52 177 1085.4 177.781 1083.21 178.344C1081.09 178.844 1079.02 179.094 1077.02 179.094C1075.96 179.094 1074.62 178.938 1072.99 178.625C1071.43 178.25 1069.81 177.781 1068.12 177.219C1066.43 176.594 1064.74 175.844 1063.06 174.969C1061.43 174.031 1059.96 173.062 1058.65 172.062C1057.34 171 1056.27 169.844 1055.46 168.594C1054.65 167.344 1054.24 166.031 1054.24 164.656V164.281ZM1073.46 120.875C1072.65 120.875 1071.93 121.281 1071.31 122.094C1070.68 122.906 1070.12 123.969 1069.62 125.281C1069.18 126.531 1068.81 127.938 1068.49 129.5C1068.24 131 1067.99 132.5 1067.74 134C1067.56 135.438 1067.43 136.75 1067.37 137.938C1067.31 139.125 1067.27 140 1067.27 140.562C1067.27 140.75 1067.27 141.094 1067.27 141.594C1067.27 142.031 1067.27 142.5 1067.27 143C1067.27 143.5 1067.27 144 1067.27 144.5C1067.27 144.938 1067.27 145.25 1067.27 145.438C1068.77 144.438 1070.21 143.344 1071.59 142.156C1072.96 140.969 1074.18 139.719 1075.24 138.406C1076.37 137.031 1077.24 135.562 1077.87 134C1078.56 132.375 1078.9 130.594 1078.9 128.656C1078.9 127.781 1078.81 126.875 1078.62 125.938C1078.43 125 1078.12 124.156 1077.68 123.406C1077.31 122.656 1076.74 122.062 1075.99 121.625C1075.31 121.125 1074.46 120.875 1073.46 120.875ZM1117.75 163.062C1117.75 161.25 1117.94 159.219 1118.31 156.969C1118.75 154.719 1119.34 152.469 1120.09 150.219C1120.91 147.906 1121.91 145.688 1123.09 143.562C1124.34 141.438 1125.75 139.531 1127.31 137.844C1128.94 136.156 1130.72 134.812 1132.66 133.812C1134.59 132.812 1136.72 132.312 1139.03 132.312C1141.03 132.312 1142.88 132.781 1144.56 133.719C1146.25 134.594 1147.78 135.75 1149.16 137.188C1150.59 138.562 1151.84 140.188 1152.91 142.062C1153.97 143.938 1154.88 145.875 1155.62 147.875C1156.38 149.812 1156.94 151.75 1157.31 153.688C1157.75 155.562 1157.97 157.281 1157.97 158.844C1157.97 161.031 1157.59 163.062 1156.84 164.938C1156.09 166.812 1155.06 168.5 1153.75 170C1152.5 171.5 1151 172.812 1149.25 173.938C1147.56 175.062 1145.75 176.031 1143.81 176.844C1141.88 177.594 1139.88 178.156 1137.81 178.531C1135.81 178.906 1133.81 179.094 1131.81 179.094C1129.12 179.094 1126.88 178.719 1125.06 177.969C1123.31 177.219 1121.88 176.156 1120.75 174.781C1119.69 173.344 1118.91 171.656 1118.41 169.719C1117.97 167.719 1117.75 165.5 1117.75 163.062ZM1121.03 165.125C1121.03 166.875 1121.31 168.406 1121.88 169.719C1122.44 170.969 1123.22 172 1124.22 172.812C1125.22 173.562 1126.41 174.125 1127.78 174.5C1129.16 174.812 1130.69 174.969 1132.38 174.969C1135 174.969 1137.66 174.688 1140.34 174.125C1143.03 173.5 1145.44 172.531 1147.56 171.219C1149.69 169.844 1151.41 168.125 1152.72 166.062C1154.09 163.938 1154.78 161.375 1154.78 158.375C1154.78 156.5 1154.41 154.25 1153.66 151.625C1152.97 149 1151.97 146.5 1150.66 144.125C1149.34 141.75 1147.72 139.75 1145.78 138.125C1143.91 136.438 1141.81 135.594 1139.5 135.594C1138.44 135.594 1137.53 135.656 1136.78 135.781C1136.09 135.844 1135.22 136.062 1134.16 136.438V136.906V137.281C1134.16 137.344 1134.19 137.5 1134.25 137.75C1134.38 138 1134.5 138.281 1134.62 138.594C1134.75 138.844 1134.84 139.094 1134.91 139.344C1134.97 139.594 1135 139.75 1135 139.812C1135 140.375 1134.84 140.812 1134.53 141.125C1134.22 141.375 1133.84 141.562 1133.41 141.688C1133.03 141.812 1132.59 141.906 1132.09 141.969C1131.66 142.031 1131.25 142.125 1130.88 142.25C1128.81 143.125 1127.12 144.438 1125.81 146.188C1124.56 147.938 1123.56 149.906 1122.81 152.094C1122.12 154.219 1121.66 156.438 1121.41 158.75C1121.16 161.062 1121.03 163.188 1121.03 165.125ZM1173.66 137.188C1173.98 137.188 1174.26 137.344 1174.51 137.656C1174.82 137.906 1175.04 138.219 1175.16 138.594C1175.35 138.969 1175.48 139.344 1175.54 139.719C1175.66 140.094 1175.73 140.375 1175.73 140.562V161.75C1175.73 163.188 1176.01 164.688 1176.57 166.25C1177.13 167.75 1177.88 169.156 1178.82 170.469C1179.76 171.781 1180.85 172.875 1182.1 173.75C1183.35 174.562 1184.73 174.969 1186.23 174.969C1188.16 174.969 1189.88 174.5 1191.38 173.562C1192.88 172.625 1194.19 171.406 1195.32 169.906C1196.51 168.406 1197.51 166.688 1198.32 164.75C1199.19 162.75 1199.88 160.781 1200.38 158.844C1200.94 156.844 1201.32 154.906 1201.51 153.031C1201.76 151.156 1201.88 149.469 1201.88 147.969C1201.88 147.406 1201.88 146.5 1201.88 145.25C1201.88 143.938 1201.79 142.5 1201.6 140.938C1201.48 139.312 1201.29 137.656 1201.04 135.969C1200.79 134.281 1200.41 132.781 1199.91 131.469C1199.41 130.156 1198.79 129.125 1198.04 128.375C1197.35 127.562 1196.48 127.25 1195.41 127.438C1195.41 127.438 1195.38 127.406 1195.32 127.344C1195.26 127.219 1195.23 127.125 1195.23 127.062C1195.23 126.375 1195.51 125.844 1196.07 125.469C1196.69 125.094 1197.29 124.906 1197.85 124.906C1198.66 124.906 1199.38 125.188 1200.01 125.75C1200.63 126.312 1201.19 127.031 1201.69 127.906C1202.19 128.719 1202.6 129.688 1202.91 130.812C1203.23 131.875 1203.48 132.938 1203.66 134C1203.91 135 1204.07 135.938 1204.13 136.812C1204.26 137.688 1204.35 138.406 1204.41 138.969C1204.41 139.031 1204.41 139.438 1204.41 140.188C1204.41 140.875 1204.41 141.688 1204.41 142.625C1204.41 143.562 1204.41 144.531 1204.41 145.531C1204.41 146.531 1204.41 147.344 1204.41 147.969C1204.41 148.344 1204.41 148.969 1204.41 149.844C1204.41 150.656 1204.41 151.531 1204.41 152.469C1204.41 153.406 1204.41 154.312 1204.41 155.188C1204.41 156 1204.41 156.594 1204.41 156.969C1203.85 159.156 1203.1 161.531 1202.16 164.094C1201.23 166.656 1200.01 169.062 1198.51 171.312C1197.07 173.5 1195.32 175.344 1193.26 176.844C1191.19 178.281 1188.76 179 1185.94 179C1183.94 179 1182.07 178.469 1180.32 177.406C1178.57 176.281 1177.04 174.875 1175.73 173.188C1174.48 171.5 1173.48 169.656 1172.73 167.656C1172.04 165.594 1171.69 163.625 1171.69 161.75V138.969C1171.69 138.844 1171.88 138.594 1172.26 138.219C1172.69 137.781 1173.04 137.469 1173.29 137.281H1173.48C1173.54 137.219 1173.6 137.188 1173.66 137.188ZM1248.23 174.969C1248.23 174.219 1248.2 173.062 1248.14 171.5C1248.08 169.875 1248.01 168.094 1247.95 166.156C1247.95 164.156 1247.89 162.062 1247.76 159.875C1247.7 157.625 1247.64 155.5 1247.58 153.5C1247.58 151.5 1247.54 149.719 1247.48 148.156C1247.42 146.594 1247.39 145.438 1247.39 144.688C1247.39 144.125 1247.39 143.406 1247.39 142.531C1247.45 141.656 1247.42 140.844 1247.29 140.094C1247.17 139.344 1246.92 138.688 1246.54 138.125C1246.17 137.562 1245.54 137.281 1244.67 137.281C1242.36 137.281 1240.04 137.406 1237.73 137.656C1235.48 137.844 1233.23 138.219 1230.98 138.781C1228.79 139.344 1226.67 140.125 1224.61 141.125C1222.54 142.062 1220.61 143.25 1218.79 144.688C1218.54 144.625 1218.2 144.406 1217.76 144.031C1217.39 143.594 1217.17 143.25 1217.11 143C1216.86 142 1217.33 141.031 1218.51 140.094C1219.76 139.156 1221.42 138.281 1223.48 137.469C1225.61 136.656 1227.95 135.938 1230.51 135.312C1233.08 134.688 1235.54 134.156 1237.92 133.719C1240.29 133.219 1242.42 132.844 1244.29 132.594C1246.23 132.344 1247.54 132.219 1248.23 132.219C1248.79 132.219 1249.2 132.281 1249.45 132.406C1249.76 132.531 1250.17 132.812 1250.67 133.25H1270.64C1270.64 133.688 1270.39 134.062 1269.89 134.375C1269.45 134.625 1268.92 134.875 1268.29 135.125C1267.67 135.312 1267.08 135.469 1266.51 135.594C1265.95 135.656 1265.58 135.688 1265.39 135.688C1264.95 135.75 1264.14 135.812 1262.95 135.875C1261.76 135.938 1260.51 136.031 1259.2 136.156C1257.95 136.219 1256.73 136.281 1255.54 136.344C1254.42 136.406 1253.61 136.438 1253.11 136.438C1252.67 136.625 1252.23 136.844 1251.79 137.094C1251.36 137.344 1250.98 137.688 1250.67 138.125C1250.73 138.438 1250.79 139 1250.86 139.812C1250.98 140.562 1251.08 141.375 1251.14 142.25C1251.26 143.062 1251.36 143.875 1251.42 144.688C1251.48 145.438 1251.51 145.969 1251.51 146.281C1251.51 146.656 1251.51 147.5 1251.51 148.812C1251.51 150.125 1251.51 151.688 1251.51 153.5C1251.51 155.25 1251.51 157.094 1251.51 159.031C1251.51 160.969 1251.51 162.812 1251.51 164.562C1251.51 166.312 1251.51 167.844 1251.51 169.156C1251.51 170.406 1251.51 171.25 1251.51 171.688C1251.51 171.812 1251.54 172.156 1251.61 172.719C1251.67 173.281 1251.73 173.906 1251.79 174.594C1251.92 175.219 1252.01 175.812 1252.08 176.375C1252.2 176.875 1252.29 177.188 1252.36 177.312V177.875C1252.36 178.375 1252.17 178.719 1251.79 178.906C1251.48 179.031 1251.11 179.094 1250.67 179.094C1250.17 179.094 1249.76 178.969 1249.45 178.719C1249.14 178.406 1248.89 178.031 1248.7 177.594C1248.58 177.156 1248.48 176.719 1248.42 176.281C1248.36 175.781 1248.29 175.344 1248.23 174.969Z" fill="white"/>
<path d="M340.994 279.926C349.002 279.926 355.493 278.066 355.493 275.772C355.493 273.478 349.002 271.618 340.994 271.618C332.986 271.618 326.495 273.478 326.495 275.772C326.495 278.066 332.986 279.926 340.994 279.926Z" fill="#67AAAA"/>
<path d="M535.499 308.308C543.507 308.308 549.999 306.448 549.999 304.154C549.999 301.86 543.507 300 535.499 300C527.492 300 521 301.86 521 304.154C521 306.448 527.492 308.308 535.499 308.308Z" fill="#78C5C5"/>
<path d="M767.499 288.308C775.507 288.308 781.999 286.448 781.999 284.154C781.999 281.86 775.507 280 767.499 280C759.492 280 753 281.86 753 284.154C753 286.448 759.492 288.308 767.499 288.308Z" fill="#67AAAA"/>
<path d="M546.499 259.308C554.507 259.308 560.999 257.448 560.999 255.154C560.999 252.86 554.507 251 546.499 251C538.492 251 532 252.86 532 255.154C532 257.448 538.492 259.308 546.499 259.308Z" fill="#67AAAA"/>
<path d="M416.978 254.29C423.041 254.29 427.956 252.882 427.956 251.145C427.956 249.408 423.041 248 416.978 248C410.915 248 406 249.408 406 251.145C406 252.882 410.915 254.29 416.978 254.29Z" fill="#78C5C5"/>
<path d="M802.978 262.29C809.041 262.29 813.956 260.882 813.956 259.145C813.956 257.408 809.041 256 802.978 256C796.915 256 792 257.408 792 259.145C792 260.882 796.915 262.29 802.978 262.29Z" fill="#78C5C5"/>
<path d="M231.834 247.049C235.838 247.049 239.083 246.04 239.083 244.794C239.083 243.549 235.838 242.539 231.834 242.539C227.83 242.539 224.584 243.549 224.584 244.794C224.584 246.04 227.83 247.049 231.834 247.049Z" fill="#78C5C5"/>
<path d="M203.25 272.389C207.254 272.389 210.499 271.379 210.499 270.134C210.499 268.889 207.254 267.879 203.25 267.879C199.246 267.879 196 268.889 196 270.134C196 271.379 199.246 272.389 203.25 272.389Z" fill="#67AAAA"/>
<path d="M182.25 223.51C186.254 223.51 189.499 222.501 189.499 221.255C189.499 220.01 186.254 219 182.25 219C178.246 219 175 220.01 175 221.255C175 222.501 178.246 223.51 182.25 223.51Z" fill="#67AAAA"/>
<path d="M208.282 87.2519L209.265 87.3485L214.107 68.8604C226.911 78.1716 239.305 89.2146 248.49 101.726C263.571 122.268 273.864 143.317 278.328 160.728C280.56 169.435 281.327 177.207 280.524 183.539C279.721 189.87 277.356 194.715 273.367 197.66C269.378 200.605 264.062 201.429 257.796 200.317C251.528 199.205 244.356 196.162 236.728 191.438C221.475 181.992 204.49 165.884 189.409 145.342C186.614 141.508 184.047 137.511 181.723 133.373L204.291 134.388L204.491 133.421L176.267 122.706C167.057 102.87 161.616 80.9891 158.476 64.0376C156.902 55.538 155.907 48.283 155.307 43.1539C155.006 40.5894 154.804 38.5567 154.677 37.1658C154.627 36.6173 154.589 36.1686 154.561 35.8266C154.777 35.9143 155.04 36.0212 155.346 36.1473C156.341 36.5576 157.799 37.1701 159.643 37.9776C163.28 39.5703 168.42 41.9214 174.488 44.9763L175.201 56.8227L176.184 56.9193L178.741 47.1556C188.414 52.1835 197.805 57.7405 206.871 63.8015L208.282 87.2519Z" fill="#83D3D3" stroke="#78C5C5"/>
<path d="M267.361 72.8117L268.153 73.4016L281.827 60.0854C287.988 74.6932 292.906 90.5712 294.32 106.042C296.64 131.444 294.602 154.798 289.447 172.017C286.869 180.627 283.52 187.677 279.568 192.682C275.618 197.685 271.096 200.607 266.164 201.06C261.232 201.513 256.256 199.463 251.465 195.264C246.672 191.063 242.101 184.74 238.006 176.742C229.818 160.75 223.581 138.156 221.261 112.755C220.844 108.024 220.708 103.273 220.851 98.5263L239.646 111.092L240.317 110.368L221.679 86.5667C224.02 64.8114 230.641 43.26 236.692 27.1213C239.726 19.0294 242.615 12.3033 244.744 7.60111C245.809 5.2501 246.684 3.40528 247.292 2.14892C247.532 1.65437 247.73 1.25102 247.882 0.943878C248.022 1.13112 248.192 1.35852 248.388 1.62478C249.029 2.49216 249.961 3.77188 251.123 5.41894C253.416 8.66762 256.604 13.3449 260.224 19.1056L254.728 29.6164L255.52 30.2063L262.741 23.1744C268.43 32.4928 273.605 42.1177 278.241 52.0055L267.361 72.8117Z" fill="#98F1F1" stroke="#78C5C5"/>
<path d="M598.321 136.49C598.507 136.015 598.663 135.625 598.785 135.324C598.928 135.488 599.099 135.684 599.297 135.912C599.973 136.693 600.957 137.847 602.189 139.335C604.616 142.267 608.004 146.496 611.882 151.728L607.396 162.175L608.23 162.703L614.608 155.461C620.72 163.934 626.363 172.737 631.512 181.832L622.626 202.523L623.46 203.051L635.549 189.324C642.499 202.819 648.353 217.618 650.83 232.289C656.485 265.788 653.796 296.088 645.207 312.527L610.818 315.699C598.212 302.163 586.814 275.726 581.483 244.152C580.743 239.674 580.266 235.155 580.057 230.62L598.917 241.211L599.53 240.438L579.976 219.083C580.631 198.117 585.392 177.027 590.003 161.151C592.315 153.19 594.587 146.545 596.281 141.892C597.128 139.565 597.83 137.736 598.321 136.49Z" fill="#89E4E4" stroke="#78C5C5"/>
<path d="M744.087 184.194C744.552 183.987 744.936 183.819 745.233 183.69C745.22 183.907 745.204 184.168 745.184 184.469C745.117 185.502 745.007 187.016 744.839 188.943C744.507 192.741 743.948 198.138 743.035 204.596L732.518 208.886L732.742 209.847L742.354 209.172C740.754 219.511 738.589 229.756 735.869 239.86L715.039 248.357L715.263 249.319L733.483 248.038C728.956 262.547 722.735 277.213 714.204 289.412C709.382 296.307 704.332 302.706 699.194 308.518L627.8 314.266C630.207 296.247 640.28 272.42 656.599 249.084C659.214 245.371 662.044 241.816 665.076 238.436L671.05 259.252L672.03 259.132L673.113 230.156C688.285 215.673 706.463 203.991 720.876 195.919C728.104 191.871 734.38 188.734 738.848 186.609C741.082 185.546 742.864 184.737 744.087 184.194Z" fill="#9EEBEB" stroke="#78C5C5"/>
<path d="M490.531 49.1566L491.069 49.9859L501.883 45.1143C502.854 54.0948 502.821 63.5237 500.75 72.1379C497.307 86.4546 491.567 98.8944 485.09 107.433C481.851 111.703 478.441 114.98 475.059 117.034C471.679 119.087 468.356 119.902 465.26 119.313C459.081 118.136 454.656 111.487 452.665 101.295C450.683 91.1534 451.166 77.7171 454.608 63.4C455.236 60.8326 456.028 58.2992 456.98 55.8122L466.012 65.7411L466.842 65.2081L459.934 49.0454C465.551 37.5677 473.749 26.9283 480.57 19.1355C483.999 15.2182 487.076 12.0249 489.294 9.81159C490.404 8.70502 491.298 7.84363 491.915 7.2594C492.076 7.10722 492.218 6.97386 492.339 6.85987C492.367 6.92875 492.396 7.00277 492.427 7.08185C492.656 7.66636 492.985 8.52701 493.387 9.62872C494.169 11.7739 495.223 14.8323 496.337 18.5452L491.022 23.277L491.56 24.1063L497.212 21.5603C498.897 27.5333 500.219 33.5827 501.171 39.6823L490.531 49.1566Z" fill="#5DE1E1" stroke="#78C5C5"/>
<path d="M498.887 86.382L498.762 87.3608L510.672 89.9886C504.656 97.2695 497.533 104.304 489.458 109.551C476.012 118.29 462.212 124.285 450.783 126.922C445.068 128.241 439.967 128.715 435.81 128.285C431.649 127.855 428.485 126.527 426.563 124.294C424.65 122.073 424.089 119.098 424.781 115.552C425.475 111.997 427.426 107.9 430.491 103.516C436.62 94.7521 447.128 84.9492 460.576 76.2094C463.01 74.6386 465.546 73.1904 468.171 71.8719L467.622 84.5312L468.589 84.7029L475.477 68.5463C488.465 63.196 502.806 59.9839 513.932 58.1083C519.521 57.1661 524.293 56.5622 527.668 56.1938C529.355 56.0096 530.692 55.8844 531.607 55.8052C531.833 55.7857 532.032 55.769 532.205 55.7549C532.185 55.7996 532.163 55.8463 532.141 55.8948C531.876 56.4665 531.48 57.3038 530.958 58.3638C529.938 60.4339 528.435 63.3524 526.482 66.7989L518.779 67.2571L518.654 68.2359L524.86 69.605C521.653 75.0536 518.112 80.349 514.25 85.4681L498.887 86.382Z" fill="#9EEBEB" stroke="#78C5C5"/>
<path d="M109.492 194.905L108.91 195.703L98.122 190.204C97.1459 200.388 97.1751 211.089 99.2533 220.869C102.699 237.082 108.443 251.171 114.927 260.843C118.17 265.68 121.582 269.39 124.964 271.715C128.345 274.038 131.654 274.952 134.728 274.289C137.804 273.627 140.452 271.429 142.593 267.915C144.734 264.4 146.34 259.607 147.333 253.857C149.318 242.36 148.834 227.137 145.389 210.924C144.761 208.016 143.968 205.146 143.015 202.33L134.007 213.534L133.15 213.044L140.077 194.706C134.455 181.69 126.241 169.627 119.411 160.797C115.981 156.363 112.904 152.749 110.684 150.244C109.575 148.992 108.68 148.017 108.063 147.355C107.914 147.196 107.782 147.055 107.667 146.933C107.64 147.01 107.611 147.093 107.58 147.181C107.351 147.844 107.021 148.818 106.619 150.066C105.833 152.508 104.771 155.995 103.65 160.23L109 165.621L108.418 166.418L102.797 163.553C101.104 170.343 99.7768 177.22 98.822 184.155L109.492 194.905Z" fill="#5DE1E1" stroke="#78C5C5"/>
<path d="M64.4957 225.557L64.5848 226.54L52.8598 229.526C58.7823 237.814 65.8005 245.827 73.7594 251.797C86.9549 261.696 100.493 268.483 111.7 271.468C117.305 272.961 122.302 273.495 126.369 273.01C130.434 272.525 133.525 271.029 135.409 268.503C137.293 265.977 137.851 262.58 137.167 258.531C136.482 254.481 134.559 249.825 131.548 244.855C125.527 234.916 115.21 223.809 102.015 213.911C99.6406 212.142 97.1678 210.511 94.6086 209.025L95.1481 223.378L94.1795 223.57L87.4091 205.239C74.6649 199.177 60.5914 195.538 49.674 193.414C44.1915 192.347 39.5103 191.664 36.2007 191.247C34.5461 191.038 33.2345 190.896 32.3374 190.807C32.1203 190.785 31.9274 190.766 31.7599 190.751C31.7903 190.827 31.8231 190.909 31.8582 190.997C32.1184 191.645 32.5071 192.594 33.02 193.795C34.0239 196.147 35.5034 199.463 37.4267 203.38L44.9792 203.899L45.0684 204.882L38.958 206.438C42.1212 212.651 45.6174 218.688 49.4314 224.522L64.4957 225.557Z" fill="#7ED9D9" stroke="#78C5C5"/>
<path d="M557.727 236.595L477.573 233.751L435.303 237.795L363.086 244.701L335.91 247.298L272.973 268.345C272.72 268.429 272.449 268.44 272.19 268.376C271.932 268.312 271.696 268.176 271.512 267.984C271.327 267.791 271.201 267.55 271.147 267.288C271.094 267.027 271.115 266.755 271.21 266.505L271.214 266.501L282.129 237.553L280.981 236.704L250.944 214.573L250.784 214.454L211.837 208.501C211.288 208.416 210.77 208.193 210.332 207.853C209.893 207.512 209.549 207.065 209.33 206.554C209.111 206.042 209.026 205.484 209.083 204.93C209.139 204.377 209.335 203.847 209.653 203.391L268.969 118.04L300.14 73.1988L303.52 68.3307L433.185 66.5342L559.783 232.604C560.068 232.978 560.241 233.426 560.283 233.895C560.324 234.364 560.231 234.835 560.016 235.253C559.8 235.671 559.471 236.019 559.066 236.257C558.66 236.495 558.196 236.612 557.727 236.595Z" fill="#46CAE7"/>
<path opacity="0.2" d="M333.894 75.2571L280.979 236.704L250.946 214.573L268.97 118.041L300.05 73.0918L300.138 73.1966L333.894 75.2571Z" fill="black"/>
<path d="M286.661 137.105C280.657 151.578 278.531 163.667 271.41 161.484C261.66 158.496 271.897 147.924 277.901 133.451C283.905 118.978 288.147 107.875 293.152 109.072C302.483 111.302 292.665 122.632 286.661 137.105Z" fill="#3F3D56"/>
<path d="M300.264 108.135C300.263 107.177 300.073 106.229 299.706 105.344C299.339 104.46 298.802 103.657 298.125 102.98C297.449 102.304 296.646 101.768 295.763 101.403C294.88 101.038 293.934 100.851 292.978 100.852C292.814 100.853 292.652 100.86 292.491 100.871L285.626 100.022C284.839 99.7406 284.008 99.5977 283.172 99.5996C282.941 99.6 282.713 99.6124 282.488 99.6339L282.223 99.6012L282.216 99.6659C280.605 99.8827 279.113 100.634 277.978 101.801C276.843 102.967 276.13 104.481 275.953 106.101C275.776 107.722 276.146 109.354 277.002 110.739C277.859 112.125 279.153 113.182 280.679 113.743L280.665 113.875L281.34 113.95C281.946 114.109 282.57 114.189 283.196 114.188C283.265 114.187 283.334 114.184 283.403 114.182L290.42 114.97C291.245 115.283 292.12 115.442 293.002 115.44C293.331 115.439 293.659 115.416 293.985 115.371L294.583 115.438L294.587 115.262C296.2 114.898 297.641 113.993 298.673 112.698C299.705 111.402 300.266 109.793 300.264 108.135Z" fill="#46CAE7"/>
<path opacity="0.2" d="M300.264 108.135C300.263 107.177 300.073 106.229 299.706 105.344C299.339 104.46 298.802 103.657 298.125 102.98C297.449 102.304 296.646 101.768 295.763 101.403C294.88 101.038 293.934 100.851 292.978 100.852C292.814 100.853 292.652 100.86 292.491 100.871L285.626 100.022C284.839 99.7406 284.008 99.5977 283.172 99.5996C282.941 99.6 282.713 99.6124 282.488 99.6339L282.223 99.6012L282.216 99.6659C280.605 99.8827 279.113 100.634 277.978 101.801C276.843 102.967 276.13 104.481 275.953 106.101C275.776 107.722 276.146 109.354 277.002 110.739C277.859 112.125 279.153 113.182 280.679 113.743L280.665 113.875L281.34 113.95C281.946 114.109 282.57 114.189 283.196 114.188C283.265 114.187 283.334 114.184 283.403 114.182L290.42 114.97C291.245 115.283 292.12 115.442 293.002 115.44C293.331 115.439 293.659 115.416 293.985 115.371L294.583 115.438L294.587 115.262C296.2 114.898 297.641 113.993 298.673 112.698C299.705 111.402 300.266 109.793 300.264 108.135Z" fill="white"/>
<path d="M203.119 207.775L202.279 207.332C223.799 166.203 284.666 78.3247 285.278 77.4419L286.057 77.9851C285.445 78.8674 224.611 166.697 203.119 207.775Z" fill="#3F3D56"/>
<path d="M269.038 269.413L268.123 269.163C268.566 267.528 312.646 105.396 327.95 78.0464L328.777 78.5118C313.53 105.761 269.481 267.779 269.038 269.413Z" fill="#3F3D56"/>
<path d="M563.514 237.979C540.014 199.161 451.269 78.9401 450.375 77.7302L451.137 77.1641C452.031 78.3742 540.802 198.63 564.324 237.485L563.514 237.979Z" fill="#3F3D56"/>
<path d="M267.33 273.728C269.164 273.725 270.648 271.806 270.644 269.441C270.64 267.077 269.15 265.163 267.316 265.166C265.482 265.168 263.999 267.088 264.002 269.452C264.006 271.817 265.496 273.731 267.33 273.728Z" fill="#3F3D56"/>
<path d="M203.334 209.614C205.168 209.611 206.652 207.692 206.648 205.327C206.645 202.963 205.155 201.048 203.321 201.051C201.487 201.054 200.003 202.973 200.007 205.338C200.011 207.702 201.5 209.617 203.334 209.614Z" fill="#3F3D56"/>
<path d="M564.394 240.116C566.228 240.113 567.712 238.194 567.708 235.829C567.704 233.465 566.214 231.55 564.38 231.553C562.546 231.556 561.063 233.475 561.066 235.84C561.07 238.204 562.56 240.119 564.394 240.116Z" fill="#3F3D56"/>
<path d="M281.59 82.1642L460.57 84.0873C460.446 69.4295 454.55 55.4149 444.167 45.0967C433.784 34.7784 419.755 28.9927 405.137 29L336.831 29.1102C308.261 29.1563 284.069 51.5602 281.756 80.1149L281.59 82.1642Z" fill="#3F3D56"/>
<path opacity="0.2" d="M438.849 141.49H373.434C372.638 141.489 371.849 141.647 371.114 141.954C370.379 142.262 369.712 142.713 369.152 143.281C368.592 143.849 368.151 144.523 367.853 145.263C367.555 146.004 367.406 146.796 367.416 147.595L367.473 152.392L368.055 203.746L368.064 204.737L368.083 206.372L368.102 207.97L368.211 217.597C368.229 219.164 368.853 220.662 369.952 221.775C371.051 222.889 372.539 223.531 374.101 223.565C374.261 223.565 374.427 223.56 374.592 223.551L390.126 222.603L412.599 221.228L420.531 220.744L422.299 220.635L434.66 219.882H434.665L439.212 219.602C440.742 219.507 442.178 218.831 443.228 217.712C444.279 216.593 444.864 215.114 444.866 213.577V147.524C444.864 145.924 444.23 144.39 443.102 143.259C441.974 142.128 440.444 141.491 438.849 141.49Z" fill="black"/>
<path d="M452.319 133.102C452.082 133.121 451.853 133.192 451.647 133.31C451.441 133.429 451.264 133.591 451.128 133.786L443.921 133.798V131.881C443.919 130.281 443.284 128.748 442.156 127.616C441.028 126.485 439.498 125.849 437.903 125.847H372.489C371.692 125.846 370.903 126.004 370.168 126.312C369.433 126.619 368.767 127.07 368.207 127.638C367.647 128.206 367.205 128.88 366.907 129.621C366.609 130.361 366.461 131.154 366.471 131.952L366.494 133.923L361.846 133.93C361.591 133.658 361.241 133.496 360.87 133.477C359.24 133.48 357.925 137.047 357.932 141.446C357.939 145.844 359.266 149.408 360.895 149.405C361.179 149.374 361.451 149.275 361.689 149.116C361.927 148.957 362.123 148.743 362.261 148.493L451.152 148.349C451.288 148.544 451.466 148.706 451.672 148.824C451.878 148.941 452.108 149.012 452.345 149.03C453.974 149.027 455.289 145.46 455.282 141.061C455.275 136.663 453.948 133.099 452.319 133.102Z" fill="#46CAE7"/>
<path opacity="0.2" d="M452.319 133.102C452.082 133.121 451.853 133.192 451.647 133.31C451.441 133.429 451.264 133.591 451.128 133.786L443.921 133.798V131.881C443.919 130.281 443.284 128.748 442.156 127.616C441.028 126.485 439.498 125.849 437.903 125.847H372.489C371.692 125.846 370.904 126.004 370.168 126.312C369.433 126.619 368.767 127.07 368.207 127.638C367.647 128.206 367.205 128.88 366.907 129.621C366.609 130.361 366.461 131.154 366.471 131.952L366.494 133.923L361.846 133.93C361.591 133.658 361.241 133.496 360.87 133.477C359.24 133.48 357.925 137.047 357.932 141.446C357.939 145.844 359.266 149.408 360.895 149.405C361.179 149.374 361.451 149.275 361.689 149.116C361.927 148.957 362.123 148.743 362.261 148.493L451.152 148.349C451.288 148.544 451.466 148.706 451.672 148.824C451.878 148.941 452.108 149.012 452.345 149.03C453.974 149.027 455.289 145.46 455.282 141.061C455.275 136.663 453.948 133.099 452.319 133.102Z" fill="white"/>
<path d="M444.997 233.8C444.563 234.206 444.043 234.507 443.475 234.678C442.907 234.848 442.307 234.885 441.722 234.785C441.138 234.685 440.584 234.45 440.105 234.1C439.626 233.75 439.234 233.293 438.96 232.766L435.404 225.919L436.818 222.845L444.442 227.737C444.936 228.054 445.35 228.48 445.655 228.981C445.959 229.483 446.145 230.048 446.199 230.633C446.252 231.218 446.172 231.807 445.963 232.356C445.755 232.905 445.424 233.399 444.997 233.8Z" fill="#FFB8B8"/>
<path d="M456.835 285.833C456.751 285.041 456.375 284.311 455.781 283.783C455.187 283.255 454.418 282.969 453.625 282.98C452.902 282.975 452.199 283.214 451.628 283.658C451.057 284.102 450.651 284.725 450.475 285.428L447.326 300.764C447.222 301.213 447.168 301.671 447.165 302.132C447.165 305.59 450.051 307.993 453.625 307.993C457.198 307.993 460.087 305.59 460.087 302.132C460.085 301.578 460.01 301.026 459.863 300.492L456.835 285.833Z" fill="#3F3D56"/>
<path d="M480.658 292.692C480.338 292.411 479.993 292.158 479.629 291.937L467.596 283.506C466.425 282.768 465.174 282.789 464.265 283.679C463.869 284.058 463.617 284.564 463.554 285.109C463.49 285.654 463.62 286.204 463.919 286.664L473.004 298.637C473.212 298.927 473.443 299.2 473.696 299.451C475.271 301.216 478.763 301.313 480.682 299.451C482.576 297.558 482.553 294.184 480.658 292.692Z" fill="#3F3D56"/>
<path d="M489.7 280.202H477.514C477.124 280.187 476.743 280.327 476.455 280.593C476.167 280.858 475.996 281.226 475.978 281.618C475.971 281.979 476.086 282.331 476.303 282.62C476.52 282.908 476.827 283.115 477.175 283.207L488.671 286.773C490.341 287.164 492.59 285.671 492.59 283.808C492.59 281.437 491.275 280.202 489.7 280.202Z" fill="#3F3D56"/>
<path d="M431.714 281.611C431.701 281.409 431.649 281.213 431.559 281.032C431.47 280.851 431.345 280.69 431.193 280.558C431.041 280.426 430.864 280.326 430.672 280.264C430.481 280.202 430.279 280.178 430.079 280.195H417.893C416.358 280.195 415.063 281.857 415.063 283.721C415.063 285.584 417.247 287.163 418.922 286.773L430.591 283.207C430.941 283.125 431.249 282.918 431.456 282.623C431.663 282.329 431.755 281.969 431.714 281.611Z" fill="#3F3D56"/>
<path d="M440.078 283.52L428.042 291.915C427.668 292.126 427.32 292.379 427.004 292.67C426.119 293.495 425.597 294.639 425.553 295.85C425.51 297.061 425.947 298.239 426.77 299.127C426.845 299.208 426.923 299.286 427.004 299.361C427.948 300.255 429.197 300.753 430.496 300.753C431.794 300.753 433.044 300.255 433.988 299.361C434.245 299.114 434.477 298.842 434.68 298.549L443.772 286.643C444.077 286.19 444.209 285.642 444.146 285.099C444.082 284.556 443.827 284.053 443.426 283.683C442.977 283.263 442.395 283.016 441.782 282.986C441.169 282.957 440.565 283.146 440.078 283.52Z" fill="#3F3D56"/>
<path d="M458.799 267.113C458.939 266.907 459.016 266.665 459.023 266.416C459.023 264.946 456.134 263.925 452.561 263.925C448.987 263.925 446.101 264.946 446.101 266.416C446.106 266.62 446.161 266.82 446.262 266.997L449.411 273.515C449.772 274.13 451.073 274.56 452.561 274.555C454.238 274.555 455.631 274.024 455.771 273.343L458.799 267.113Z" fill="#3F3D56"/>
<path d="M479.618 267.556C477.699 266.764 474.207 266.806 472.632 267.556C472.394 267.655 472.163 267.771 471.94 267.901L462.855 272.99C462.237 273.393 462.383 273.926 463.201 274.258C464.276 274.632 465.441 274.658 466.532 274.332L478.564 270.749C478.913 270.66 479.257 270.553 479.594 270.428C481.489 269.794 481.511 268.36 479.618 267.556Z" fill="#3F3D56"/>
<path d="M491.527 274.204C491.527 273.412 489.277 272.778 487.607 272.944L476.112 274.459C475.425 274.556 474.914 274.78 474.914 275.135C474.914 275.489 475.663 275.736 476.451 275.736H488.637C490.212 275.736 491.527 275.211 491.527 274.204Z" fill="#3F3D56"/>
<path d="M429.528 274.459L417.859 272.943C416.184 272.777 414 273.449 414 274.241C414 275.033 415.294 275.739 416.829 275.739H429.016C429.864 275.739 430.651 275.506 430.651 275.137C430.651 274.769 430.287 274.555 429.528 274.459Z" fill="#3F3D56"/>
<path d="M442.363 274.257C443.214 273.919 443.315 273.41 442.709 272.998L433.617 267.939C433.396 267.805 433.164 267.69 432.925 267.594C430.663 266.805 428.202 266.805 425.94 267.594C425.86 267.626 425.782 267.659 425.707 267.693C423.993 268.478 424.098 269.707 425.94 270.437C426.279 270.568 426.626 270.675 426.979 270.758L439.014 274.326C440.111 274.652 441.281 274.628 442.363 274.257Z" fill="#3F3D56"/>
<path d="M477.346 266.058C477.346 284.906 466.87 285.255 453.947 285.255C441.025 285.255 419.809 281.526 430.549 266.058C441.877 249.744 461.311 218.647 453.947 217C453.947 217 477.346 247.21 477.346 266.058Z" fill="#F9A825"/>
<path opacity="0.5" d="M462.188 277.656C462.188 285.117 458.041 285.255 452.926 285.255C447.811 285.255 439.413 283.779 443.664 277.656C448.148 271.198 455.841 258.889 452.926 258.237C452.926 258.237 462.188 270.195 462.188 277.656Z" fill="#FF6584"/>
<path d="M444.866 210.207V213.577C444.864 215.114 444.278 216.593 443.228 217.712C442.178 218.831 440.742 219.507 439.212 219.602L374.592 223.551C373.778 223.601 372.963 223.484 372.196 223.209C371.428 222.933 370.724 222.503 370.128 221.947C369.531 221.39 369.053 220.717 368.723 219.969C368.394 219.222 368.219 218.415 368.21 217.597L368.054 203.747L407.143 203.111L444.866 210.207Z" fill="#3F3D56"/>
<path d="M434.329 226.901L405.176 211.718C405.041 211.648 404.923 211.55 404.83 211.431C404.736 211.311 404.668 211.173 404.632 211.026L398.308 185.468C397.941 183.986 398.139 182.419 398.864 181.074C399.588 179.73 400.787 178.706 402.225 178.201L403.748 177.666C404.088 177.547 404.448 177.499 404.807 177.525C405.166 177.551 405.516 177.651 405.835 177.818C406.154 177.985 406.435 178.216 406.661 178.497C406.888 178.777 407.054 179.101 407.15 179.449L413.384 201.95C413.442 202.16 413.563 202.348 413.731 202.488L437.484 222.222C437.689 222.393 437.823 222.634 437.86 222.898C437.897 223.162 437.834 223.431 437.684 223.651L435.702 226.556C435.554 226.771 435.333 226.926 435.081 226.989C434.828 227.053 434.56 227.022 434.329 226.901Z" fill="#89E4E4"/>
<path d="M395.079 168.46C400.549 168.46 404.983 164.013 404.983 158.528C404.983 153.044 400.549 148.597 395.079 148.597C389.609 148.597 385.175 153.044 385.175 158.528C385.175 164.013 389.609 168.46 395.079 168.46Z" fill="#FFB8B8"/>
<path d="M399.796 180.046L388.241 181.229C388.861 174.454 389.106 168.203 388.241 163.494H399.796C397.602 170.991 397.794 176.335 399.796 180.046Z" fill="#FFB8B8"/>
<path d="M405.985 179.79C405.976 180.828 405.954 181.855 405.919 182.871C405.678 190.142 404.766 196.688 402.279 201.509C401.774 202.507 401.171 203.452 400.478 204.33C400.473 204.339 400.467 204.347 400.459 204.353C400.411 204.42 400.359 204.483 400.303 204.543C399.795 205.176 399.23 205.761 398.616 206.292L393.884 211.269L393.666 211.497L392.286 212.421L385.176 217.171L368.102 207.97L368.083 206.373L368.064 204.737C371.86 199.343 374.228 192.328 375.731 184.341C376.143 182.155 376.492 179.894 376.79 177.572C376.994 175.965 377.173 174.325 377.329 172.661C377.353 172.15 377.526 171.657 377.826 171.244C377.826 171.243 377.826 171.242 377.826 171.242C377.826 171.241 377.826 171.241 377.827 171.24C377.827 171.24 377.828 171.239 377.828 171.239C377.829 171.239 377.83 171.239 377.83 171.239C378.558 170.31 380.005 170.329 381.754 170.234C384.207 170.101 386.623 168.826 388.793 170.03C388.846 170.055 388.899 170.083 388.949 170.115L395.316 177.207L398.242 174.045L398.379 173.898L404.406 176.486C405.023 176.753 405.522 177.235 405.812 177.842C406.102 178.449 406.164 179.141 405.985 179.79Z" fill="#89E4E4"/>
<path d="M392.546 214.644C392.546 215.853 392.318 217.051 391.874 218.175L390.125 222.602L374.592 223.55C374.427 223.56 374.261 223.565 374.1 223.565C372.538 223.53 371.051 222.889 369.952 221.775C368.853 220.662 368.228 219.163 368.21 217.597L368.102 207.97L368.083 206.372L373.736 208.775L379.248 205.808C379.549 205.679 379.857 205.568 380.17 205.476C380.578 205.347 380.995 205.247 381.418 205.178H381.423C381.626 205.144 381.829 205.116 382.033 205.097C384.369 204.862 386.71 205.498 388.608 206.884C389.718 207.69 390.639 208.728 391.307 209.927C391.358 210.01 391.404 210.095 391.444 210.183C391.82 210.889 392.103 211.641 392.286 212.421C392.458 213.149 392.545 213.895 392.546 214.644Z" fill="#2F2E41"/>
<path opacity="0.2" d="M388.123 186.312L390.19 195.818L402.743 206.648L391.661 195.298L388.123 186.312Z" fill="black"/>
<path opacity="0.2" d="M376.569 190.805L380.342 206.175L391.425 210.195L381.049 204.992L376.569 190.805Z" fill="black"/>
<path d="M465.666 233.922L411.99 224.676L412.648 221.424L465.666 233.922Z" fill="#3F3D56"/>
<path d="M420.943 226.706C420.51 227.113 419.989 227.413 419.421 227.584C418.853 227.755 418.254 227.791 417.669 227.691C417.085 227.591 416.531 227.357 416.052 227.006C415.573 226.656 415.181 226.199 414.907 225.672L411.351 218.825L412.765 215.751L420.389 220.644C420.883 220.96 421.297 221.386 421.602 221.888C421.906 222.389 422.092 222.954 422.146 223.539C422.199 224.124 422.119 224.713 421.91 225.262C421.702 225.811 421.371 226.305 420.943 226.706Z" fill="#FFB8B8"/>
<path d="M410.276 219.807L381.123 204.624C380.988 204.554 380.87 204.456 380.776 204.337C380.683 204.217 380.615 204.079 380.579 203.932L374.255 178.374C373.888 176.891 374.086 175.324 374.81 173.98C375.535 172.636 376.733 171.611 378.172 171.107L379.695 170.572C380.035 170.453 380.395 170.405 380.754 170.431C381.113 170.457 381.463 170.557 381.782 170.724C382.1 170.891 382.382 171.122 382.608 171.402C382.834 171.683 383.001 172.007 383.097 172.355L389.33 194.856C389.389 195.066 389.51 195.254 389.678 195.393L413.431 215.128C413.635 215.299 413.77 215.539 413.807 215.804C413.844 216.068 413.781 216.336 413.63 216.557L411.648 219.461C411.501 219.677 411.28 219.832 411.027 219.895C410.774 219.959 410.507 219.927 410.276 219.807Z" fill="#89E4E4"/>
<path d="M459.879 235.605C460.137 235.656 460.404 235.602 460.623 235.456C460.841 235.31 460.993 235.083 461.046 234.825L461.583 232.126C461.635 231.868 461.582 231.599 461.436 231.38C461.29 231.161 461.064 231.008 460.806 230.957L453.015 229.395C452.757 229.344 452.49 229.397 452.271 229.543C452.053 229.69 451.901 229.917 451.849 230.175L451.311 232.874C451.285 233.002 451.285 233.134 451.311 233.262C451.336 233.39 451.386 233.512 451.458 233.62C451.53 233.729 451.623 233.822 451.731 233.895C451.839 233.967 451.961 234.018 452.088 234.043L459.879 235.605Z" fill="#89E4E4"/>
<path d="M391.188 170.419C390.95 169.082 390.658 168.588 389.089 166.777C387.52 164.966 387.282 161.249 387.755 160.301C388.228 159.353 388.701 158.246 388.701 156.983C388.701 155.719 387.277 153.75 389.089 151.058C389.495 150.222 390.355 149.636 391.232 149.525C394.429 148.377 399.513 152.386 401.043 154.747C402.956 157.69 403.217 160.107 403.118 163.619C402.434 165.358 401.237 166.581 399.337 168.122C396.409 170.901 400.518 174.047 399.215 176.654C397.912 179.261 398.297 182.772 403.355 189.107C402.039 183.087 404.858 179.56 404.773 183.053C404.687 186.547 404.933 189.625 410.682 196.089C411.195 192.647 410.52 190.404 412.855 187.557C413.875 185.86 413.991 184.949 413.282 183.527C412.659 182.39 412.475 181.766 413.068 180.73C413.424 179.379 413.387 178.756 412.855 177.932C412.512 177.544 411.851 176.715 411.422 176.44C410.092 175.569 409.601 174.961 409.356 173.386C409.093 171.683 408.868 170.842 409.226 169.156C409.763 166.634 411.809 166.525 411.502 163.964C411.202 161.444 409.48 159.366 408.321 157.11C408.177 154.955 409.391 154.836 410.119 152.803C410.57 151.472 410.621 150.037 410.263 148.678C409.906 147.318 409.157 146.095 408.11 145.159C406.888 144.105 405.244 144.902 404.398 143.528C404.004 142.889 403.809 142.135 403.38 141.517C402.571 140.356 401.09 139.881 399.676 139.712C398.262 139.542 396.823 139.589 395.477 139.16C394.522 138.849 393.656 138.299 392.692 138.022C391.643 137.743 390.535 137.789 389.513 138.154C388.491 138.52 387.604 139.188 386.97 140.07C386.462 140.804 386.13 141.687 385.444 142.26C384.041 143.436 381.661 142.925 380.431 144.282C379.407 145.413 379.756 147.165 379.955 148.678C380.377 151.931 380.309 152.098 378.818 155.018C377.659 157.274 375.936 159.351 375.636 161.872C375.33 164.432 376.564 166.897 377.102 169.419C377.887 173.209 377.783 175.273 376.088 178.787C375.187 181.524 374.866 183.045 375.616 185.66C376.732 188.478 376.772 190.09 376.088 193.001C375.555 196.242 376.971 202.751 376.971 202.751C382.793 199.093 387.085 186.767 387.117 189.107C387.15 191.447 386.275 193.904 384.459 196.317C391.199 194.361 392.595 190.492 392.495 180.575C392.135 178.022 389.144 175.796 390.053 173.386C390.434 172.377 391.379 171.492 391.188 170.419Z" fill="#3F3D56"/>
<defs>
<linearGradient id="paint0_linear" x1="400.515" y1="331.011" x2="400.515" y2="3.94596e-05" gradientUnits="userSpaceOnUse">
<stop stop-opacity="0.4"/>
<stop offset="0.651042" stop-color="#808080" stop-opacity="0.5"/>
<stop offset="1" stop-color="#808080" stop-opacity="0.4"/>
</linearGradient>
</defs>
</svg>
