<svg width="1444" height="325" viewBox="0 0 1444 325" fill="none" xmlns="http://www.w3.org/2000/svg">
<path d="M0 180.5V0H1440V248.5L640 325L0 180.5Z" fill="#B3004C"/>
<path d="M0 181.5V1H985L823.5 307L643.5 325L0 181.5Z" fill="url(#paint0_linear)"/>
<path opacity="0.2" d="M674.5 281C736.632 281 787 277.866 787 274C787 270.134 736.632 267 674.5 267C612.368 267 562 270.134 562 274C562 277.866 612.368 281 674.5 281Z" fill="black"/>
<path opacity="0.2" d="M570 300C586.569 300 600 297.761 600 295C600 292.239 586.569 290 570 290C553.431 290 540 292.239 540 295C540 297.761 553.431 300 570 300Z" fill="black"/>
<path d="M338 178.792L343.904 172L350.697 177.904L344.792 184.697L338 178.792ZM343.973 172.976L338.977 178.724L344.724 183.72L349.72 177.973L343.973 172.976Z" fill="#451C2D"/>
<path d="M905.165 62.563L894 58.165L898.398 47L909.563 51.398L905.165 62.563ZM895.197 57.6445L904.644 61.3659L908.366 51.9186L898.918 48.1972L895.197 57.6445Z" fill="#451C2D"/>
<path d="M437.374 144.672L429 141.374L432.298 133L440.672 136.299L437.374 144.672ZM429.898 140.983L436.983 143.774L439.774 136.689L432.689 133.898L429.898 140.983Z" fill="#451C2D"/>
<path d="M402.5 188C401.61 188 400.74 187.736 400 187.242C399.26 186.747 398.683 186.044 398.343 185.222C398.002 184.4 397.913 183.495 398.086 182.622C398.26 181.749 398.689 180.947 399.318 180.318C399.947 179.689 400.749 179.26 401.622 179.086C402.495 178.913 403.4 179.002 404.222 179.343C405.044 179.683 405.747 180.26 406.242 181C406.736 181.74 407 182.61 407 183.5C406.999 184.693 406.524 185.837 405.681 186.681C404.837 187.524 403.693 187.999 402.5 188ZM402.5 179.75C401.758 179.75 401.033 179.97 400.417 180.382C399.8 180.794 399.319 181.38 399.035 182.065C398.752 182.75 398.677 183.504 398.822 184.232C398.967 184.959 399.324 185.627 399.848 186.152C400.373 186.676 401.041 187.033 401.768 187.178C402.496 187.323 403.25 187.248 403.935 186.965C404.62 186.681 405.206 186.2 405.618 185.583C406.03 184.967 406.25 184.242 406.25 183.5C406.249 182.506 405.853 181.553 405.15 180.85C404.447 180.147 403.494 179.751 402.5 179.75Z" fill="#451C2D"/>
<path d="M45.3907 140.535L36.8557 143.391L34 134.856L42.5349 132L45.3907 140.535ZM37.2926 142.515L44.5145 140.098L42.0981 132.876L34.8762 135.293L37.2926 142.515Z" fill="#451C2D"/>
<path d="M180.188 138.38L168.808 142.188L165 130.808L176.38 127L180.188 138.38ZM169.39 141.019L179.019 137.797L175.797 128.168L166.168 131.39L169.39 141.019Z" fill="#451C2D"/>
<path d="M869.188 163.38L857.808 167.188L854 155.808L865.38 152L869.188 163.38ZM858.39 166.019L868.019 162.797L864.797 153.168L855.168 156.39L858.39 166.019Z" fill="#451C2D"/>
<path d="M221.374 203.672L213 200.374L216.298 192L224.672 195.299L221.374 203.672ZM213.898 199.983L220.983 202.774L223.774 195.689L216.689 192.898L213.898 199.983Z" fill="#451C2D"/>
<path d="M334.374 238.672L326 235.374L329.299 227L337.672 230.299L334.374 238.672ZM326.898 234.983L333.983 237.774L336.774 230.689L329.689 227.898L326.898 234.983Z" fill="#451C2D"/>
<path d="M56.1649 68.563L44.9999 64.165L49.3979 53L60.563 57.398L56.1649 68.563ZM46.1971 63.6445L55.6444 67.3659L59.3658 57.9186L49.9185 54.1972L46.1971 63.6445Z" fill="#451C2D"/>
<path d="M409.364 73.7279L403 67.364L409.364 61L415.728 67.364L409.364 73.7279ZM403.979 67.364L409.364 72.7489L414.749 67.364L409.364 61.9791L403.979 67.364Z" fill="#451C2D"/>
<path d="M131.364 98.7279L125 92.364L131.364 86L137.728 92.364L131.364 98.7279ZM125.979 92.364L131.364 97.7489L136.749 92.364L131.364 86.9791L125.979 92.364Z" fill="#451C2D"/>
<path d="M461.364 224.728L455 218.364L461.364 212L467.728 218.364L461.364 224.728ZM455.979 218.364L461.364 223.749L466.749 218.364L461.364 212.979L455.979 218.364Z" fill="#451C2D"/>
<path d="M300.485 126.971L292 118.485L300.485 110L308.971 118.485L300.485 126.971ZM293.305 118.485L300.485 125.665L307.665 118.485L300.485 111.305L293.305 118.485Z" fill="#451C2D"/>
<path d="M372.188 26.3798L360.808 30.1875L357 18.8076L368.38 15L372.188 26.3798ZM361.39 29.0192L371.019 25.7974L367.797 16.1682L358.168 19.3901L361.39 29.0192Z" fill="#451C2D"/>
<path d="M470.127 45.6723L461.754 42.3738L465.052 34L473.426 37.2985L470.127 45.6723ZM462.652 41.9834L469.737 44.7744L472.528 37.6889L465.443 34.8979L462.652 41.9834Z" fill="#451C2D"/>
<path d="M494.195 115.441H485.195V106.441H494.195V115.441ZM485.888 114.749H493.503V107.134H485.888V114.749Z" fill="#451C2D"/>
<path d="M502 73C500.813 73 499.653 72.6481 498.667 71.9888C497.68 71.3295 496.911 70.3925 496.457 69.2961C496.003 68.1997 495.884 66.9933 496.115 65.8295C496.347 64.6656 496.918 63.5965 497.757 62.7574C498.596 61.9182 499.666 61.3468 500.829 61.1153C501.993 60.8838 503.2 61.0026 504.296 61.4567C505.392 61.9108 506.33 62.6799 506.989 63.6666C507.648 64.6533 508 65.8133 508 67C507.998 68.5908 507.366 70.1158 506.241 71.2407C505.116 72.3655 503.591 72.9982 502 73ZM502 62C501.011 62 500.044 62.2932 499.222 62.8426C498.4 63.3921 497.759 64.1729 497.381 65.0866C497.002 66.0002 496.903 67.0055 497.096 67.9754C497.289 68.9454 497.765 69.8363 498.464 70.5355C499.164 71.2348 500.055 71.711 501.025 71.9039C501.994 72.0969 503 71.9978 503.913 71.6194C504.827 71.241 505.608 70.6001 506.157 69.7778C506.707 68.9556 507 67.9889 507 67C506.998 65.6744 506.471 64.4035 505.534 63.4661C504.596 62.5288 503.326 62.0015 502 62Z" fill="#451C2D"/>
<path d="M80 128C78.8133 128 77.6533 127.648 76.6666 126.989C75.6799 126.33 74.9108 125.392 74.4567 124.296C74.0026 123.2 73.8838 121.993 74.1153 120.829C74.3468 119.666 74.9182 118.596 75.7574 117.757C76.5965 116.918 77.6656 116.347 78.8295 116.115C79.9934 115.884 81.1998 116.003 82.2961 116.457C83.3925 116.911 84.3295 117.68 84.9888 118.667C85.6481 119.653 86 120.813 86 122C85.9982 123.591 85.3655 125.116 84.2407 126.241C83.1159 127.366 81.5908 127.998 80 128ZM80 117C79.0111 117 78.0444 117.293 77.2221 117.843C76.3999 118.392 75.7591 119.173 75.3806 120.087C75.0022 121 74.9031 122.006 75.0961 122.975C75.289 123.945 75.7652 124.836 76.4645 125.536C77.1637 126.235 78.0546 126.711 79.0245 126.904C79.9944 127.097 80.9998 126.998 81.9134 126.619C82.8271 126.241 83.6079 125.6 84.1573 124.778C84.7068 123.956 85 122.989 85 122C84.9985 120.674 84.4712 119.403 83.5338 118.466C82.5965 117.529 81.3256 117.002 80 117Z" fill="#451C2D"/>
<path d="M363 124C361.813 124 360.653 123.648 359.667 122.989C358.68 122.33 357.911 121.392 357.457 120.296C357.003 119.2 356.884 117.993 357.115 116.829C357.347 115.666 357.918 114.596 358.757 113.757C359.596 112.918 360.666 112.347 361.829 112.115C362.993 111.884 364.2 112.003 365.296 112.457C366.392 112.911 367.33 113.68 367.989 114.667C368.648 115.653 369 116.813 369 118C368.998 119.591 368.366 121.116 367.241 122.241C366.116 123.366 364.591 123.998 363 124ZM363 113C362.011 113 361.044 113.293 360.222 113.843C359.4 114.392 358.759 115.173 358.381 116.087C358.002 117 357.903 118.006 358.096 118.975C358.289 119.945 358.765 120.836 359.464 121.536C360.164 122.235 361.055 122.711 362.025 122.904C362.994 123.097 364 122.998 364.913 122.619C365.827 122.241 366.608 121.6 367.157 120.778C367.707 119.956 368 118.989 368 118C367.998 116.674 367.471 115.403 366.534 114.466C365.596 113.529 364.326 113.002 363 113Z" fill="#451C2D"/>
<path d="M909.5 105C908.61 105 907.74 104.736 907 104.242C906.26 103.747 905.683 103.044 905.343 102.222C905.002 101.4 904.913 100.495 905.086 99.6221C905.26 98.7492 905.689 97.9474 906.318 97.318C906.947 96.6887 907.749 96.2601 908.622 96.0865C909.495 95.9128 910.4 96.0019 911.222 96.3425C912.044 96.6831 912.747 97.2599 913.242 97.9999C913.736 98.74 914 99.61 914 100.5C913.999 101.693 913.524 102.837 912.681 103.681C911.837 104.524 910.693 104.999 909.5 105ZM909.5 96.75C908.758 96.75 908.033 96.9699 907.417 97.382C906.8 97.794 906.319 98.3797 906.035 99.0649C905.752 99.7502 905.677 100.504 905.822 101.232C905.967 101.959 906.324 102.627 906.848 103.152C907.373 103.676 908.041 104.033 908.768 104.178C909.496 104.323 910.25 104.248 910.935 103.965C911.62 103.681 912.206 103.2 912.618 102.583C913.03 101.967 913.25 101.242 913.25 100.5C913.249 99.5058 912.853 98.5526 912.15 97.8496C911.447 97.1466 910.494 96.7511 909.5 96.75Z" fill="#451C2D"/>
<path d="M851 47C849.813 47 848.653 46.6481 847.667 45.9888C846.68 45.3295 845.911 44.3925 845.457 43.2961C845.003 42.1997 844.884 40.9933 845.115 39.8295C845.347 38.6656 845.918 37.5965 846.757 36.7574C847.596 35.9182 848.666 35.3468 849.829 35.1153C850.993 34.8838 852.2 35.0026 853.296 35.4567C854.392 35.9108 855.33 36.6799 855.989 37.6666C856.648 38.6533 857 39.8133 857 41C856.998 42.5908 856.366 44.1158 855.241 45.2407C854.116 46.3655 852.591 46.9982 851 47ZM851 36C850.011 36 849.044 36.2932 848.222 36.8426C847.4 37.3921 846.759 38.1729 846.381 39.0866C846.002 40.0002 845.903 41.0055 846.096 41.9754C846.289 42.9454 846.765 43.8363 847.464 44.5355C848.164 45.2348 849.055 45.711 850.025 45.9039C850.994 46.0969 852 45.9978 852.913 45.6194C853.827 45.241 854.608 44.6001 855.157 43.7778C855.707 42.9556 856 41.9889 856 41C855.998 39.6744 855.471 38.4035 854.534 37.4661C853.596 36.5288 852.326 36.0015 851 36Z" fill="#451C2D"/>
<path d="M529 266C527.813 266 526.653 265.648 525.667 264.989C524.68 264.33 523.911 263.392 523.457 262.296C523.003 261.2 522.884 259.993 523.115 258.829C523.347 257.666 523.918 256.596 524.757 255.757C525.596 254.918 526.666 254.347 527.829 254.115C528.993 253.884 530.2 254.003 531.296 254.457C532.392 254.911 533.33 255.68 533.989 256.667C534.648 257.653 535 258.813 535 260C534.998 261.591 534.366 263.116 533.241 264.241C532.116 265.366 530.591 265.998 529 266ZM529 255C528.011 255 527.044 255.293 526.222 255.843C525.4 256.392 524.759 257.173 524.381 258.087C524.002 259 523.903 260.006 524.096 260.975C524.289 261.945 524.765 262.836 525.464 263.536C526.164 264.235 527.055 264.711 528.025 264.904C528.994 265.097 530 264.998 530.913 264.619C531.827 264.241 532.608 263.6 533.157 262.778C533.707 261.956 534 260.989 534 260C533.998 258.674 533.471 257.403 532.534 256.466C531.596 255.529 530.326 255.002 529 255Z" fill="#451C2D"/>
<path d="M111.059 37.5283C110.169 37.5283 109.299 37.2644 108.559 36.7699C107.818 36.2755 107.242 35.5727 106.901 34.7504C106.561 33.9281 106.471 33.0233 106.645 32.1504C106.819 31.2775 107.247 30.4757 107.877 29.8463C108.506 29.217 109.308 28.7884 110.181 28.6148C111.054 28.4412 111.958 28.5303 112.781 28.8709C113.603 29.2115 114.306 29.7882 114.8 30.5283C115.295 31.2683 115.559 32.1383 115.559 33.0283C115.557 34.2214 115.083 35.3652 114.239 36.2088C113.395 37.0525 112.252 37.527 111.059 37.5283ZM111.059 29.2783C110.317 29.2783 109.592 29.4983 108.975 29.9103C108.359 30.3224 107.878 30.908 107.594 31.5933C107.31 32.2785 107.236 33.0325 107.381 33.7599C107.525 34.4873 107.883 35.1555 108.407 35.68C108.931 36.2044 109.6 36.5616 110.327 36.7063C111.054 36.851 111.808 36.7767 112.494 36.4929C113.179 36.209 113.765 35.7284 114.177 35.1117C114.589 34.495 114.809 33.77 114.809 33.0283C114.807 32.0341 114.412 31.0809 113.709 30.3779C113.006 29.6749 112.053 29.2795 111.059 29.2783Z" fill="#451C2D"/>
<path d="M271.5 166C270.61 166 269.74 165.736 269 165.242C268.26 164.747 267.683 164.044 267.343 163.222C267.002 162.4 266.913 161.495 267.086 160.622C267.26 159.749 267.689 158.947 268.318 158.318C268.947 157.689 269.749 157.26 270.622 157.086C271.495 156.913 272.4 157.002 273.222 157.343C274.044 157.683 274.747 158.26 275.242 159C275.736 159.74 276 160.61 276 161.5C275.999 162.693 275.524 163.837 274.681 164.681C273.837 165.524 272.693 165.999 271.5 166ZM271.5 157.75C270.758 157.75 270.033 157.97 269.417 158.382C268.8 158.794 268.319 159.38 268.035 160.065C267.752 160.75 267.677 161.504 267.822 162.232C267.967 162.959 268.324 163.627 268.848 164.152C269.373 164.676 270.041 165.033 270.768 165.178C271.496 165.323 272.25 165.248 272.935 164.965C273.62 164.681 274.206 164.2 274.618 163.583C275.03 162.967 275.25 162.242 275.25 161.5C275.249 160.506 274.853 159.553 274.15 158.85C273.447 158.147 272.494 157.751 271.5 157.75Z" fill="#451C2D"/>
<path d="M296.5 67C295.61 67 294.74 66.7361 294 66.2416C293.26 65.7471 292.683 65.0443 292.343 64.2221C292.002 63.3998 291.913 62.495 292.086 61.6221C292.26 60.7492 292.689 59.9474 293.318 59.318C293.947 58.6887 294.749 58.2601 295.622 58.0865C296.495 57.9128 297.4 58.0019 298.222 58.3425C299.044 58.6831 299.747 59.2599 300.242 59.9999C300.736 60.74 301 61.61 301 62.5C300.999 63.6931 300.524 64.8369 299.681 65.6805C298.837 66.5241 297.693 66.9987 296.5 67ZM296.5 58.75C295.758 58.75 295.033 58.9699 294.417 59.382C293.8 59.794 293.319 60.3797 293.035 61.0649C292.752 61.7502 292.677 62.5042 292.822 63.2316C292.967 63.959 293.324 64.6272 293.848 65.1517C294.373 65.6761 295.041 66.0333 295.768 66.1779C296.496 66.3226 297.25 66.2484 297.935 65.9645C298.62 65.6807 299.206 65.2001 299.618 64.5834C300.03 63.9667 300.25 63.2417 300.25 62.5C300.249 61.5058 299.853 60.5526 299.15 59.8496C298.447 59.1466 297.494 58.7511 296.5 58.75Z" fill="#451C2D"/>
<path d="M129.5 186C128.61 186 127.74 185.736 127 185.242C126.26 184.747 125.683 184.044 125.343 183.222C125.002 182.4 124.913 181.495 125.086 180.622C125.26 179.749 125.689 178.947 126.318 178.318C126.947 177.689 127.749 177.26 128.622 177.086C129.495 176.913 130.4 177.002 131.222 177.343C132.044 177.683 132.747 178.26 133.242 179C133.736 179.74 134 180.61 134 181.5C133.999 182.693 133.524 183.837 132.681 184.681C131.837 185.524 130.693 185.999 129.5 186ZM129.5 177.75C128.758 177.75 128.033 177.97 127.417 178.382C126.8 178.794 126.319 179.38 126.035 180.065C125.752 180.75 125.677 181.504 125.822 182.232C125.967 182.959 126.324 183.627 126.848 184.152C127.373 184.676 128.041 185.033 128.768 185.178C129.496 185.323 130.25 185.248 130.935 184.965C131.62 184.681 132.206 184.2 132.618 183.583C133.03 182.967 133.25 182.242 133.25 181.5C133.249 180.506 132.853 179.553 132.15 178.85C131.447 178.147 130.494 177.751 129.5 177.75Z" fill="#451C2D"/>
<path d="M240.364 39.7279L234 33.364L240.364 27L246.728 33.364L240.364 39.7279ZM234.979 33.364L240.364 38.7489L245.749 33.364L240.364 27.9791L234.979 33.364Z" fill="#451C2D"/>
<path d="M189 69C187.813 69 186.653 68.6481 185.667 67.9888C184.68 67.3295 183.911 66.3925 183.457 65.2961C183.003 64.1997 182.884 62.9933 183.115 61.8295C183.347 60.6656 183.918 59.5965 184.757 58.7574C185.596 57.9182 186.666 57.3468 187.829 57.1153C188.993 56.8838 190.2 57.0026 191.296 57.4567C192.392 57.9108 193.33 58.6799 193.989 59.6666C194.648 60.6533 195 61.8133 195 63C194.998 64.5908 194.366 66.1158 193.241 67.2407C192.116 68.3655 190.591 68.9982 189 69ZM189 58C188.011 58 187.044 58.2932 186.222 58.8426C185.4 59.3921 184.759 60.1729 184.381 61.0866C184.002 62.0002 183.903 63.0055 184.096 63.9754C184.289 64.9454 184.765 65.8363 185.464 66.5355C186.164 67.2348 187.055 67.711 188.025 67.9039C188.994 68.0969 190 67.9978 190.913 67.6194C191.827 67.241 192.608 66.6001 193.157 65.7778C193.707 64.9556 194 63.9889 194 63C193.998 61.6744 193.471 60.4035 192.534 59.4661C191.596 58.5288 190.326 58.0015 189 58Z" fill="#451C2D"/>
<path d="M236.5 104C235.61 104 234.74 103.736 234 103.242C233.26 102.747 232.683 102.044 232.343 101.222C232.002 100.4 231.913 99.495 232.086 98.6221C232.26 97.7492 232.689 96.9474 233.318 96.318C233.947 95.6887 234.749 95.2601 235.622 95.0865C236.495 94.9128 237.4 95.0019 238.222 95.3425C239.044 95.6831 239.747 96.2599 240.242 96.9999C240.736 97.74 241 98.61 241 99.5C240.999 100.693 240.524 101.837 239.681 102.681C238.837 103.524 237.693 103.999 236.5 104ZM236.5 95.75C235.758 95.75 235.033 95.9699 234.417 96.382C233.8 96.794 233.319 97.3797 233.035 98.0649C232.752 98.7502 232.677 99.5042 232.822 100.232C232.967 100.959 233.324 101.627 233.848 102.152C234.373 102.676 235.041 103.033 235.768 103.178C236.496 103.323 237.25 103.248 237.935 102.965C238.62 102.681 239.206 102.2 239.618 101.583C240.03 100.967 240.25 100.242 240.25 99.5C240.249 98.5058 239.853 97.5526 239.15 96.8496C238.447 96.1466 237.494 95.7511 236.5 95.75Z" fill="#451C2D"/>
<path d="M545.5 106C544.61 106 543.74 105.736 543 105.242C542.26 104.747 541.683 104.044 541.343 103.222C541.002 102.4 540.913 101.495 541.086 100.622C541.26 99.7492 541.689 98.9474 542.318 98.318C542.947 97.6887 543.749 97.2601 544.622 97.0865C545.495 96.9128 546.4 97.0019 547.222 97.3425C548.044 97.6831 548.747 98.2599 549.242 98.9999C549.736 99.74 550 100.61 550 101.5C549.999 102.693 549.524 103.837 548.681 104.681C547.837 105.524 546.693 105.999 545.5 106ZM545.5 97.75C544.758 97.75 544.033 97.9699 543.417 98.382C542.8 98.794 542.319 99.3797 542.035 100.065C541.752 100.75 541.677 101.504 541.822 102.232C541.967 102.959 542.324 103.627 542.848 104.152C543.373 104.676 544.041 105.033 544.768 105.178C545.496 105.323 546.25 105.248 546.935 104.965C547.62 104.681 548.206 104.2 548.618 103.583C549.03 102.967 549.25 102.242 549.25 101.5C549.249 100.506 548.853 99.5526 548.15 98.8496C547.447 98.1466 546.494 97.7511 545.5 97.75Z" fill="#451C2D"/>
<path d="M796.941 153C796.051 153 795.181 152.736 794.441 152.242C793.701 151.747 793.125 151.044 792.784 150.222C792.443 149.4 792.354 148.495 792.528 147.622C792.702 146.749 793.13 145.947 793.759 145.318C794.389 144.689 795.191 144.26 796.064 144.086C796.936 143.913 797.841 144.002 798.663 144.343C799.486 144.683 800.189 145.26 800.683 146C801.177 146.74 801.441 147.61 801.441 148.5C801.44 149.693 800.966 150.837 800.122 151.681C799.278 152.524 798.134 152.999 796.941 153ZM796.941 144.75C796.2 144.75 795.475 144.97 794.858 145.382C794.241 145.794 793.761 146.38 793.477 147.065C793.193 147.75 793.119 148.504 793.263 149.232C793.408 149.959 793.765 150.627 794.29 151.152C794.814 151.676 795.482 152.033 796.21 152.178C796.937 152.323 797.691 152.248 798.376 151.965C799.062 151.681 799.647 151.2 800.059 150.583C800.471 149.967 800.691 149.242 800.691 148.5C800.69 147.506 800.295 146.553 799.592 145.85C798.889 145.147 797.936 144.751 796.941 144.75Z" fill="#451C2D"/>
<path d="M424.5 266C423.61 266 422.74 265.736 422 265.242C421.26 264.747 420.683 264.044 420.343 263.222C420.002 262.4 419.913 261.495 420.086 260.622C420.26 259.749 420.689 258.947 421.318 258.318C421.947 257.689 422.749 257.26 423.622 257.086C424.495 256.913 425.4 257.002 426.222 257.343C427.044 257.683 427.747 258.26 428.242 259C428.736 259.74 429 260.61 429 261.5C428.999 262.693 428.524 263.837 427.681 264.681C426.837 265.524 425.693 265.999 424.5 266ZM424.5 257.75C423.758 257.75 423.033 257.97 422.417 258.382C421.8 258.794 421.319 259.38 421.035 260.065C420.752 260.75 420.677 261.504 420.822 262.232C420.967 262.959 421.324 263.627 421.848 264.152C422.373 264.676 423.041 265.033 423.768 265.178C424.496 265.323 425.25 265.248 425.935 264.965C426.62 264.681 427.206 264.2 427.618 263.583C428.03 262.967 428.25 262.242 428.25 261.5C428.249 260.506 427.853 259.553 427.15 258.85C426.447 258.147 425.494 257.751 424.5 257.75Z" fill="#451C2D"/>
<path d="M512.883 168.781L504.661 172.441L501 164.219L509.222 160.559L512.883 168.781ZM505.011 171.527L511.968 168.43L508.871 161.473L501.914 164.57L505.011 171.527Z" fill="#451C2D"/>
<path d="M835.441 275H826.441V266H835.441V275ZM827.134 274.308H834.749V266.692H827.134V274.308Z" fill="#451C2D"/>
<path d="M839.441 101H830.441V92H839.441V101ZM831.134 100.308H838.749V92.6923H831.134V100.308Z" fill="#451C2D"/>
<path d="M660.441 315H651.441V306H660.441V315ZM652.134 314.308H659.749V306.692H652.134V314.308Z" fill="#451C2D"/>
<path d="M800.678 233.898C792.156 249.362 774.07 256 774.07 256C774.07 256 769.8 237.566 778.322 222.102C786.844 206.638 804.93 200 804.93 200C804.93 200 809.2 218.434 800.678 233.898Z" fill="#3F3D56"/>
<path d="M795.367 231.154C779.447 238.859 772.051 256.284 772.051 256.284C772.051 256.284 790.467 261.215 806.386 253.51C822.306 245.805 829.703 228.38 829.703 228.38C829.703 228.38 811.287 223.449 795.367 231.154Z" fill="#BF0051"/>
<path d="M543.806 39.9243C553.102 56.7689 572.833 64 572.833 64C572.833 64 577.491 43.9205 568.194 27.0758C558.898 10.2311 539.167 3 539.167 3C539.167 3 534.509 23.0796 543.806 39.9243Z" fill="#3F3D56"/>
<path d="M551.05 33.9045C567.619 43.7678 574 63.3591 574 63.3591C574 63.3591 553.518 66.9588 536.95 57.0955C520.381 47.2321 514 27.6409 514 27.6409C514 27.6409 534.482 24.0411 551.05 33.9045Z" fill="#BF0051"/>
<rect x="573" y="35" width="201" height="222" fill="white"/>
<path d="M651 69H587V120H651V69Z" fill="#BF0051"/>
<path d="M763 136H587V141H763V136Z" fill="#F2F2F2"/>
<path d="M647 118H583V65H647V118ZM583.681 117.307H646.319V65.6928H583.681V117.307Z" fill="#3F3D56"/>
<path d="M738 83H676V88H738V83Z" fill="#BF0051"/>
<path opacity="0.3" d="M763 98H676V103H763V98Z" fill="#BF0051"/>
<path d="M734 85H672V79H734V85ZM672.681 84.3333H733.319V79.6667H672.681V84.3333Z" fill="#3F3D56"/>
<path d="M760 100H672V94H760V100ZM672.685 99.3333H759.315V94.6667H672.685V99.3333Z" fill="#3F3D56"/>
<path d="M760 139H583V132H760V139ZM583.685 138.222H759.315V132.778H583.685V138.222Z" fill="#3F3D56"/>
<path d="M763 153H587V159H763V153Z" fill="#F2F2F2"/>
<path d="M760 156H583V150H760V156ZM583.685 155.333H759.315V150.667H583.685V155.333Z" fill="#3F3D56"/>
<path d="M763 170H587V175H763V170Z" fill="#F2F2F2"/>
<path d="M760 173H583V166H760V173ZM583.685 172.222H759.315V166.778H583.685V172.222Z" fill="#3F3D56"/>
<path d="M763 187H587V193H763V187Z" fill="#F2F2F2"/>
<path d="M760 190H583V184H760V190ZM583.685 189.333H759.315V184.667H583.685V189.333Z" fill="#3F3D56"/>
<path d="M763 204H587V209H763V204Z" fill="#F2F2F2"/>
<path d="M760 207H583V201H760V207ZM583.685 206.333H759.315V201.667H583.685V206.333Z" fill="#3F3D56"/>
<path d="M763 222H587V227H763V222Z" fill="#F2F2F2"/>
<path d="M760 224H583V218H760V224ZM583.685 223.333H759.315V218.667H583.685V223.333Z" fill="#3F3D56"/>
<path d="M774 257H573V35H774V257ZM573.682 256.316H773.318V35.6836H573.682V256.316Z" fill="#3F3D56"/>
<path opacity="0.2" fill-rule="evenodd" clip-rule="evenodd" d="M591.305 113.629C593.641 112.388 595.222 110.005 595.222 107.269C595.222 103.254 591.819 100 587.621 100C584.078 100 581.101 102.319 580.259 105.456C579.298 105.278 578.305 105.185 577.29 105.185C568.712 105.185 561.758 111.835 561.758 120.039C561.758 120.979 561.85 121.899 562.024 122.791C561.732 123.671 561.574 124.608 561.574 125.581C561.574 129.775 564.51 133.313 568.523 134.419C568.308 136.061 568.024 137.966 567.689 139.593C563.959 139.993 560.259 141.009 557 143C557 143 556.966 143.087 556.909 143.247C554.996 143.671 552.741 144.631 552.328 146.802C551.588 150.692 550.479 193.133 551.219 198.438C551.773 202.414 551.912 202.814 551.947 202.765C551.815 203.729 550.661 212.784 553.808 213.204C553.643 214.913 553.515 216.602 553.437 218.244C552.698 233.805 555.656 289.686 557.875 290.039C558.082 290.073 558.332 290.109 558.615 290.146V290.747H555.657C554.782 290.747 553.917 290.912 553.109 291.231C552.302 291.551 551.568 292.02 550.95 292.611C550.332 293.203 549.841 293.904 549.507 294.677C549.172 295.449 549 296.277 549 297.113H567.121V290.409C567.487 290.322 567.747 290.202 567.86 290.039C568.599 288.978 573.777 215.061 573.777 215.061C573.777 215.061 575.995 290.747 578.214 290.747C578.328 290.747 578.452 290.747 578.584 290.747V297.113H596.705C596.705 296.277 596.533 295.449 596.198 294.677C595.864 293.904 595.374 293.203 594.755 292.611C594.137 292.02 593.403 291.551 592.596 291.231C591.788 290.912 590.923 290.747 590.048 290.747H587.09V289.382C587.243 289.259 587.368 289.125 587.459 288.978C588.423 287.443 595.522 235.762 595.194 212.923C597.445 211.313 596.468 203.648 596.347 202.765C596.382 202.814 596.521 202.414 597.075 198.438C597.815 193.133 596.705 150.692 595.965 146.802C595.524 144.481 592.978 143.545 590.995 143.167C590.998 143.058 591 143 591 143C591 143 586.512 141.235 580.371 140.172C579.454 138.67 578.336 136.684 577.638 134.89C586.055 134.713 592.822 128.132 592.822 120.039C592.822 117.743 592.278 115.569 591.305 113.629ZM588.635 159.571C588.44 159.966 588.228 160.282 588 160.5C586.411 162.02 587.862 168.488 589.476 173.584L588.635 159.571ZM590.035 182.9C589.462 183.265 589 183.5 589 183.5C586.098 185.393 581.528 185.968 576.691 185.843C581.478 186.022 586.017 185.489 588.939 183.584C588.939 183.584 589.459 185.244 590.375 188.564L590.035 182.9ZM559.299 183.088C559.198 183.059 559.098 183.029 559 183C559 183 558.631 183.265 558.227 183.434L557.893 188.993C558.587 185.902 559.131 183.747 559.299 183.088ZM558.462 179.514C558.623 179.199 558.802 178.862 559 178.5C561.561 173.823 560.932 167.74 559.469 162.728L558.462 179.514Z" fill="#2F2E41"/>
<path d="M556.724 142.911C556.724 142.911 550.068 142.911 549.328 146.802C548.589 150.692 547.479 193.133 548.219 198.438C548.958 203.743 548.958 202.682 548.958 202.682C548.958 202.682 547.484 212.763 550.81 213.205C554.136 213.646 554.136 201.621 554.136 201.621L556.724 158.473L556.724 142.911Z" fill="#FBBEBE"/>
<path d="M585.569 142.911C585.569 142.911 592.226 142.911 592.965 146.802C593.705 150.692 594.814 193.133 594.075 198.438C593.335 203.743 593.335 202.682 593.335 202.682C593.335 202.682 594.81 212.763 591.484 213.205C588.158 213.646 588.158 201.621 588.158 201.621L585.569 158.473V142.911Z" fill="#FBBEBE"/>
<path d="M555.615 290.747H552.657C551.782 290.747 550.917 290.912 550.109 291.231C549.302 291.551 548.568 292.02 547.95 292.611C547.332 293.203 546.841 293.904 546.507 294.677C546.172 295.449 546 296.277 546 297.113V297.113H564.121V288.979H555.615V290.747Z" fill="#2F2E41"/>
<path d="M584.09 290.747H587.048C587.923 290.747 588.788 290.912 589.596 291.231C590.403 291.551 591.137 292.02 591.755 292.611C592.374 293.203 592.864 293.904 593.198 294.677C593.533 295.449 593.705 296.277 593.705 297.113V297.113H575.584V288.979H584.09V290.747Z" fill="#2F2E41"/>
<path d="M568.189 134.777C573.499 134.777 577.804 130.66 577.804 125.581C577.804 120.503 573.499 116.386 568.189 116.386C562.878 116.386 558.574 120.503 558.574 125.581C558.574 130.66 562.878 134.777 568.189 134.777Z" fill="#FBBEBE"/>
<path d="M565.97 130.532C565.97 130.532 564.86 142.204 563.381 143.265C561.902 144.326 578.913 142.557 578.913 142.557C578.913 142.557 572.996 134.069 574.106 131.24C575.215 128.41 565.97 130.532 565.97 130.532Z" fill="#FBBEBE"/>
<path d="M550.437 218.244C551.177 202.682 556.354 182.876 556.354 182.876C563.362 184.973 579.09 188.051 585.939 183.584C585.939 183.584 588.157 190.657 591.486 204.804C594.814 218.951 585.569 287.21 584.459 288.979C583.35 290.747 577.433 290.747 575.214 290.747C572.995 290.747 570.777 215.061 570.777 215.061C570.777 215.061 565.599 288.979 564.86 290.04C564.12 291.101 557.094 290.393 554.875 290.04C552.656 289.686 549.698 233.805 550.437 218.244Z" fill="#2F2E41"/>
<path d="M554 143C567.313 134.866 588 143 588 143C588 143 587.589 158.024 585 160.5C582.411 162.976 587.891 178.585 589 180C590.109 181.415 586 183.5 586 183.5C579.151 187.967 563.008 185.097 556 183C556 183 551.932 185.927 556 178.5C560.068 171.073 556.089 160.098 553.5 155.5C550.911 150.902 554 143 554 143Z" fill="#BF0051"/>
<path d="M574.29 134.893C582.868 134.893 589.822 128.243 589.822 120.039C589.822 111.835 582.868 105.185 574.29 105.185C565.712 105.185 558.758 111.835 558.758 120.039C558.758 128.243 565.712 134.893 574.29 134.893Z" fill="#2F2E41"/>
<path d="M584.621 114.538C588.819 114.538 592.222 111.284 592.222 107.269C592.222 103.254 588.819 100 584.621 100C580.423 100 577.02 103.254 577.02 107.269C577.02 111.284 580.423 114.538 584.621 114.538Z" fill="#2F2E41"/>
<path d="M1018.25 165.75C1018.19 165.75 1018.12 165.938 1018.06 166.312C1018 166.688 1017.91 167.156 1017.78 167.719C1017.72 168.281 1017.62 168.844 1017.5 169.406C1017.44 169.969 1017.38 170.438 1017.31 170.812C1017.25 171.062 1017.19 171.594 1017.12 172.406C1017.06 173.156 1016.97 173.969 1016.84 174.844C1016.78 175.719 1016.72 176.531 1016.66 177.281C1016.59 178.031 1016.56 178.594 1016.56 178.969C1016.5 179.031 1016.38 179.156 1016.19 179.344C1016 179.531 1015.88 179.688 1015.81 179.812C1015.69 179.812 1015.59 179.812 1015.53 179.812H1015.34H1015.06C1015 179.812 1014.94 179.812 1014.88 179.812C1014.75 179.688 1014.47 179.406 1014.03 178.969C1013.59 178.531 1013.34 178.25 1013.28 178.125C1013.16 177.625 1012.97 176.75 1012.72 175.5C1012.53 174.25 1012.28 172.938 1011.97 171.562C1011.72 170.188 1011.47 168.875 1011.22 167.625C1011.03 166.375 1010.88 165.5 1010.75 165V164.25C1010.75 163.812 1010.72 162.969 1010.66 161.719C1010.66 160.469 1010.62 159 1010.56 157.312C1010.5 155.625 1010.44 153.844 1010.38 151.969C1010.31 150.094 1010.25 148.312 1010.19 146.625C1010.19 144.938 1010.16 143.469 1010.09 142.219C1010.03 140.969 1010 140.125 1010 139.688V139.125C1010 136.625 1010.44 134.156 1011.31 131.719C1012.25 129.219 1013.5 126.969 1015.06 124.969C1016.69 122.969 1018.59 121.344 1020.78 120.094C1023.03 118.844 1025.47 118.219 1028.09 118.219C1029.53 118.219 1030.94 118.5 1032.31 119.062C1033.69 119.625 1034.91 120.375 1035.97 121.312C1037.03 122.25 1037.88 123.375 1038.5 124.688C1039.19 126 1039.53 127.406 1039.53 128.906C1039.53 131.094 1039 133.188 1037.94 135.188C1036.88 137.188 1035.53 139.062 1033.91 140.812C1032.34 142.562 1030.62 144.219 1028.75 145.781C1026.94 147.344 1025.22 148.812 1023.59 150.188C1022.03 151.562 1020.72 152.875 1019.66 154.125C1018.59 155.375 1018.06 156.562 1018.06 157.688C1018.06 158.562 1018.44 159.562 1019.19 160.688C1020 161.75 1021 162.875 1022.19 164.062C1023.44 165.188 1024.81 166.312 1026.31 167.438C1027.81 168.5 1029.28 169.531 1030.72 170.531C1032.22 171.469 1033.59 172.312 1034.84 173.062C1036.09 173.812 1037.06 174.375 1037.75 174.75C1038 174.938 1038.5 175.219 1039.25 175.594C1040 175.969 1040.81 176.375 1041.69 176.812C1042.62 177.25 1043.47 177.688 1044.22 178.125C1045.03 178.5 1045.62 178.781 1046 178.969C1046.56 179.156 1047.28 179.312 1048.16 179.438C1049.09 179.5 1050.03 179.594 1050.97 179.719C1051.91 179.844 1052.69 180.062 1053.31 180.375C1054 180.625 1054.34 181.094 1054.34 181.781C1054.34 181.844 1054.31 181.906 1054.25 181.969C1054.25 181.969 1054.25 182 1054.25 182.062V182.25C1054.12 182.312 1053.97 182.438 1053.78 182.625C1053.59 182.812 1053.44 182.938 1053.31 183C1053.25 183 1053.06 183 1052.75 183C1052.5 183 1052.22 183 1051.91 183C1051.59 183.062 1051.28 183.094 1050.97 183.094C1050.72 183.094 1050.53 183.094 1050.41 183.094C1047.53 183.094 1044.66 182.531 1041.78 181.406C1038.91 180.219 1036.12 178.781 1033.44 177.094C1030.75 175.344 1028.19 173.469 1025.75 171.469C1023.31 169.469 1021.06 167.562 1019 165.75H1018.25ZM1016.47 133.688C1016.47 135 1016.44 136.406 1016.38 137.906C1016.31 139.344 1016.28 140.781 1016.28 142.219C1016.34 143.656 1016.5 145.062 1016.75 146.438C1017.06 147.812 1017.56 149.094 1018.25 150.281C1018.81 149.906 1019.66 149.281 1020.78 148.406C1021.91 147.469 1023.12 146.406 1024.44 145.219C1025.81 143.969 1027.19 142.625 1028.56 141.188C1030 139.75 1031.28 138.344 1032.41 136.969C1033.53 135.531 1034.47 134.156 1035.22 132.844C1035.97 131.531 1036.34 130.406 1036.34 129.469C1036.34 128.031 1036.06 126.875 1035.5 126C1034.94 125.062 1034.22 124.344 1033.34 123.844C1032.47 123.281 1031.47 122.906 1030.34 122.719C1029.22 122.531 1028.06 122.438 1026.88 122.438C1023.31 122.438 1020.69 123.469 1019 125.531C1017.31 127.594 1016.47 130.312 1016.47 133.688ZM1073.6 165.75C1072.73 165.312 1072.07 164.875 1071.63 164.438C1071.26 164 1071.07 163.375 1071.07 162.562C1071.07 162.125 1071.13 161.75 1071.26 161.438C1071.44 161.125 1071.63 160.844 1071.82 160.594C1072.07 160.281 1072.29 159.969 1072.48 159.656C1072.66 159.344 1072.76 158.969 1072.76 158.531C1072.76 157.781 1072.76 156.906 1072.76 155.906C1072.82 154.906 1072.79 153.906 1072.66 152.906C1072.54 151.844 1072.29 150.875 1071.91 150C1071.6 149.062 1071.04 148.312 1070.23 147.75C1070.41 147.688 1070.69 147.469 1071.07 147.094C1071.51 146.656 1071.79 146.375 1071.91 146.25V146.062C1071.91 146.062 1071.91 146.031 1071.91 145.969C1071.91 145.906 1071.91 145.844 1071.91 145.781C1071.91 144.969 1071.69 144.406 1071.26 144.094C1070.88 143.781 1070.41 143.562 1069.85 143.438C1069.35 143.312 1068.82 143.188 1068.26 143.062C1067.69 142.938 1067.29 142.625 1067.04 142.125C1067.73 141.188 1068.85 140.375 1070.41 139.688C1071.98 139 1073.73 138.406 1075.66 137.906C1077.66 137.344 1079.73 136.875 1081.85 136.5C1084.04 136.125 1086.16 135.812 1088.23 135.562C1090.29 135.25 1092.13 135.062 1093.76 135C1095.38 134.875 1096.66 134.812 1097.6 134.812H1099.76C1100.32 134.812 1101.04 134.875 1101.91 135C1102.85 135.062 1103.76 135.156 1104.63 135.281C1105.51 135.344 1106.26 135.406 1106.88 135.469C1107.57 135.531 1107.91 135.562 1107.91 135.562L1108.76 136.312L1107.91 137.25C1102.48 137.438 1097.23 137.812 1092.16 138.375C1087.16 138.875 1082.04 139.844 1076.79 141.281C1076.73 141.406 1076.66 141.656 1076.6 142.031C1076.54 142.406 1076.44 142.812 1076.32 143.25C1076.26 143.688 1076.19 144.125 1076.13 144.562C1076.07 144.938 1076.04 145.188 1076.04 145.312C1076.04 145.438 1076.04 145.656 1076.04 145.969C1076.04 146.219 1076.04 146.5 1076.04 146.812C1076.1 147.125 1076.13 147.406 1076.13 147.656C1076.13 147.906 1076.13 148.125 1076.13 148.312C1081.26 148.312 1086.32 148.094 1091.32 147.656C1096.32 147.156 1101.38 146.906 1106.51 146.906C1106.88 146.906 1107.26 146.906 1107.63 146.906C1108.01 146.906 1108.32 146.969 1108.57 147.094C1108.88 147.156 1109.13 147.344 1109.32 147.656C1109.51 147.906 1109.6 148.281 1109.6 148.781C1109.6 149.094 1108.82 149.531 1107.26 150.094C1105.76 150.656 1103.85 151.312 1101.54 152.062C1099.23 152.75 1096.69 153.531 1093.94 154.406C1091.26 155.281 1088.76 156.188 1086.44 157.125C1084.13 158.062 1082.19 159.031 1080.63 160.031C1079.13 161.031 1078.38 162 1078.38 162.938V163.219C1078.38 163.219 1078.38 163.25 1078.38 163.312C1078.44 163.375 1078.6 163.531 1078.85 163.781C1079.1 163.969 1079.23 164.125 1079.23 164.25C1079.23 164.312 1079.26 164.344 1079.32 164.344V164.531C1079.32 164.594 1079.35 164.625 1079.41 164.625C1079.41 164.625 1079.38 164.656 1079.32 164.719C1079.32 164.719 1079.32 164.75 1079.32 164.812C1079.26 164.875 1079.23 164.938 1079.23 165C1079.23 165.062 1079.1 165.219 1078.85 165.469C1078.6 165.656 1078.44 165.75 1078.38 165.75C1078.32 165.938 1078.16 166.25 1077.91 166.688C1077.73 167.125 1077.63 167.375 1077.63 167.438C1077.63 169.5 1077.98 171.281 1078.66 172.781C1079.41 174.219 1080.38 175.406 1081.57 176.344C1082.76 177.219 1084.13 177.875 1085.69 178.312C1087.32 178.75 1089.01 178.969 1090.76 178.969C1093.19 178.969 1095.41 178.625 1097.41 177.938C1099.41 177.25 1101.29 176.312 1103.04 175.125C1104.79 173.938 1106.44 172.562 1108.01 171C1109.63 169.375 1111.23 167.625 1112.79 165.75C1112.85 165.75 1112.94 165.594 1113.07 165.281C1113.26 164.969 1113.44 164.656 1113.63 164.344C1113.82 163.969 1113.98 163.625 1114.1 163.312C1114.29 162.938 1114.38 162.688 1114.38 162.562C1114.38 162.5 1114.38 162.375 1114.38 162.188C1114.44 161.938 1114.48 161.75 1114.48 161.625C1114.48 161.25 1114.35 160.969 1114.1 160.781C1113.91 160.531 1113.66 160.344 1113.35 160.219C1113.04 160.094 1112.69 160.031 1112.32 160.031C1112.01 159.969 1111.66 159.938 1111.29 159.938C1111.29 159.062 1111.69 158.469 1112.51 158.156C1113.32 157.844 1114.13 157.688 1114.94 157.688C1115.88 157.688 1116.57 158 1117.01 158.625C1117.51 159.25 1117.76 160.031 1117.76 160.969C1117.76 162.719 1117.29 164.5 1116.35 166.312C1115.41 168.062 1114.19 169.781 1112.69 171.469C1111.19 173.094 1109.44 174.625 1107.44 176.062C1105.51 177.438 1103.51 178.656 1101.44 179.719C1099.38 180.719 1097.35 181.531 1095.35 182.156C1093.35 182.781 1091.54 183.094 1089.91 183.094C1087.16 183.094 1084.88 182.656 1083.07 181.781C1081.26 180.844 1079.73 179.594 1078.48 178.031C1077.23 176.406 1076.23 174.562 1075.48 172.5C1074.79 170.375 1074.16 168.125 1073.6 165.75ZM1075.85 150C1075.85 151.312 1075.91 152.438 1076.04 153.375C1076.1 154.25 1076.16 155.031 1076.23 155.719C1076.35 156.406 1076.54 156.75 1076.79 156.75H1077.63C1077.69 156.75 1078.1 156.625 1078.85 156.375C1079.6 156.062 1080.48 155.688 1081.48 155.25C1082.54 154.812 1083.6 154.375 1084.66 153.938C1085.79 153.438 1086.69 153.062 1087.38 152.812C1087.57 152.75 1087.79 152.625 1088.04 152.438C1088.35 152.25 1088.69 152.094 1089.07 151.969C1089.44 151.781 1089.76 151.594 1090.01 151.406C1090.32 151.219 1090.57 151.125 1090.76 151.125C1089.63 150.812 1088.41 150.594 1087.1 150.469C1085.79 150.281 1084.44 150.156 1083.07 150.094C1081.76 150.031 1080.44 150 1079.13 150C1077.88 150 1076.79 150 1075.85 150ZM1131.39 161.812C1131.39 160.375 1131.76 159.188 1132.51 158.25C1133.32 157.25 1134.29 156.469 1135.42 155.906C1136.54 155.344 1137.76 154.938 1139.07 154.688C1140.39 154.438 1141.61 154.312 1142.73 154.312C1142.98 154.312 1143.42 154.438 1144.04 154.688C1144.67 154.938 1145.07 155.125 1145.26 155.25V155.344C1145.26 155.406 1145.26 155.469 1145.26 155.531C1145.26 156.094 1145.01 156.5 1144.51 156.75C1144.07 157 1143.48 157.219 1142.73 157.406C1141.98 157.531 1141.17 157.656 1140.29 157.781C1139.48 157.906 1138.7 158.125 1137.95 158.438C1137.2 158.75 1136.57 159.188 1136.07 159.75C1135.64 160.312 1135.42 161.094 1135.42 162.094C1135.42 163.469 1136.07 164.875 1137.39 166.312C1138.7 167.75 1140.36 169.094 1142.36 170.344C1144.42 171.594 1146.7 172.781 1149.2 173.906C1151.7 174.969 1154.14 175.906 1156.51 176.719C1158.89 177.469 1161.04 178.062 1162.98 178.5C1164.92 178.875 1166.39 179.031 1167.39 178.969C1167.57 178.969 1167.89 178.906 1168.32 178.781C1168.82 178.594 1169.32 178.406 1169.82 178.219C1170.32 178.031 1170.79 177.844 1171.23 177.656C1171.73 177.469 1172.07 177.344 1172.26 177.281C1172.26 177.156 1172.26 176.906 1172.26 176.531C1172.32 176.094 1172.36 175.812 1172.36 175.688C1172.36 174.938 1172.26 174.312 1172.07 173.812C1171.89 173.25 1171.61 172.75 1171.23 172.312C1170.92 171.812 1170.48 171.344 1169.92 170.906C1169.42 170.406 1168.82 169.812 1168.14 169.125C1167.57 168.562 1166.73 167.719 1165.61 166.594C1164.48 165.469 1163.2 164.219 1161.76 162.844C1160.32 161.406 1158.79 159.938 1157.17 158.438C1155.61 156.875 1154.07 155.406 1152.57 154.031C1151.07 152.594 1149.76 151.344 1148.64 150.281C1147.51 149.156 1146.67 148.312 1146.11 147.75C1144.29 145.438 1142.86 143.156 1141.79 140.906C1140.79 138.656 1140.29 136.062 1140.29 133.125C1140.29 130.5 1140.79 128.125 1141.79 126C1142.86 123.875 1144.57 122.125 1146.95 120.75C1147.07 120.75 1147.32 120.75 1147.7 120.75C1148.07 120.75 1148.48 120.75 1148.92 120.75C1149.36 120.75 1149.76 120.75 1150.14 120.75C1150.57 120.75 1150.86 120.75 1150.98 120.75C1152.73 120.75 1154.57 121.094 1156.51 121.781C1158.45 122.406 1160.23 123.312 1161.86 124.5C1163.48 125.688 1164.82 127.125 1165.89 128.812C1166.95 130.5 1167.48 132.344 1167.48 134.344C1167.48 134.594 1167.45 135 1167.39 135.562C1167.32 136.062 1167.04 136.312 1166.54 136.312C1165.61 136.312 1164.76 136.031 1164.01 135.469C1163.32 134.844 1162.64 134.062 1161.95 133.125C1161.32 132.188 1160.7 131.219 1160.07 130.219C1159.45 129.156 1158.73 128.156 1157.92 127.219C1157.17 126.281 1156.26 125.531 1155.2 124.969C1154.2 124.344 1153.04 124.031 1151.73 124.031C1150.73 124.031 1149.73 124.344 1148.73 124.969C1147.73 125.531 1146.86 126.25 1146.11 127.125C1145.36 128 1144.73 128.969 1144.23 130.031C1143.79 131.094 1143.57 132.094 1143.57 133.031C1143.57 134.406 1143.76 135.844 1144.14 137.344C1144.51 138.781 1145.04 140.188 1145.73 141.562C1146.42 142.875 1147.2 144.156 1148.07 145.406C1149.01 146.594 1149.98 147.688 1150.98 148.688L1173.11 169.969C1174.04 170.781 1174.82 171.875 1175.45 173.25C1176.14 174.625 1176.48 175.938 1176.48 177.188C1176.48 178.188 1176.26 179.062 1175.82 179.812C1175.39 180.562 1174.82 181.188 1174.14 181.688C1173.45 182.125 1172.64 182.469 1171.7 182.719C1170.82 182.906 1169.92 183 1168.98 183H1168.14C1167.64 182.938 1166.86 182.781 1165.79 182.531C1164.73 182.219 1163.64 181.938 1162.51 181.688C1161.39 181.438 1160.32 181.219 1159.32 181.031C1158.39 180.781 1157.79 180.625 1157.54 180.562C1156.54 180.25 1155.2 179.781 1153.51 179.156C1151.89 178.469 1150.11 177.688 1148.17 176.812C1146.23 175.875 1144.26 174.844 1142.26 173.719C1140.26 172.531 1138.45 171.281 1136.82 169.969C1135.26 168.656 1133.95 167.312 1132.89 165.938C1131.89 164.5 1131.39 163.125 1131.39 161.812ZM1191.14 141.188C1191.46 141.188 1191.74 141.344 1191.99 141.656C1192.3 141.906 1192.52 142.219 1192.64 142.594C1192.83 142.969 1192.96 143.344 1193.02 143.719C1193.14 144.094 1193.21 144.375 1193.21 144.562V165.75C1193.21 167.188 1193.49 168.688 1194.05 170.25C1194.61 171.75 1195.36 173.156 1196.3 174.469C1197.24 175.781 1198.33 176.875 1199.58 177.75C1200.83 178.562 1202.21 178.969 1203.71 178.969C1205.64 178.969 1207.36 178.5 1208.86 177.562C1210.36 176.625 1211.68 175.406 1212.8 173.906C1213.99 172.406 1214.99 170.688 1215.8 168.75C1216.68 166.75 1217.36 164.781 1217.86 162.844C1218.43 160.844 1218.8 158.906 1218.99 157.031C1219.24 155.156 1219.36 153.469 1219.36 151.969C1219.36 151.406 1219.36 150.5 1219.36 149.25C1219.36 147.938 1219.27 146.5 1219.08 144.938C1218.96 143.312 1218.77 141.656 1218.52 139.969C1218.27 138.281 1217.89 136.781 1217.39 135.469C1216.89 134.156 1216.27 133.125 1215.52 132.375C1214.83 131.562 1213.96 131.25 1212.89 131.438C1212.89 131.438 1212.86 131.406 1212.8 131.344C1212.74 131.219 1212.71 131.125 1212.71 131.062C1212.71 130.375 1212.99 129.844 1213.55 129.469C1214.18 129.094 1214.77 128.906 1215.33 128.906C1216.14 128.906 1216.86 129.188 1217.49 129.75C1218.11 130.312 1218.68 131.031 1219.18 131.906C1219.68 132.719 1220.08 133.688 1220.39 134.812C1220.71 135.875 1220.96 136.938 1221.14 138C1221.39 139 1221.55 139.938 1221.61 140.812C1221.74 141.688 1221.83 142.406 1221.89 142.969C1221.89 143.031 1221.89 143.438 1221.89 144.188C1221.89 144.875 1221.89 145.688 1221.89 146.625C1221.89 147.562 1221.89 148.531 1221.89 149.531C1221.89 150.531 1221.89 151.344 1221.89 151.969C1221.89 152.344 1221.89 152.969 1221.89 153.844C1221.89 154.656 1221.89 155.531 1221.89 156.469C1221.89 157.406 1221.89 158.312 1221.89 159.188C1221.89 160 1221.89 160.594 1221.89 160.969C1221.33 163.156 1220.58 165.531 1219.64 168.094C1218.71 170.656 1217.49 173.062 1215.99 175.312C1214.55 177.5 1212.8 179.344 1210.74 180.844C1208.68 182.281 1206.24 183 1203.43 183C1201.43 183 1199.55 182.469 1197.8 181.406C1196.05 180.281 1194.52 178.875 1193.21 177.188C1191.96 175.5 1190.96 173.656 1190.21 171.656C1189.52 169.594 1189.18 167.625 1189.18 165.75V142.969C1189.18 142.844 1189.36 142.594 1189.74 142.219C1190.18 141.781 1190.52 141.469 1190.77 141.281H1190.96C1191.02 141.219 1191.08 141.188 1191.14 141.188ZM1290.74 140.438C1290.06 140.688 1289.59 141.031 1289.34 141.469C1289.15 141.844 1288.93 142.344 1288.68 142.969C1288.56 143.219 1288.31 143.812 1287.93 144.75C1287.56 145.625 1287.12 146.688 1286.62 147.938C1286.12 149.188 1285.56 150.5 1284.93 151.875C1284.37 153.25 1283.84 154.562 1283.34 155.812C1282.84 157.062 1282.4 158.156 1282.02 159.094C1281.65 160.031 1281.4 160.656 1281.27 160.969C1280.84 161.969 1280.27 163.125 1279.59 164.438C1278.96 165.75 1278.18 167 1277.24 168.188C1276.37 169.375 1275.37 170.375 1274.24 171.188C1273.18 172 1271.99 172.406 1270.68 172.406C1268.62 172.406 1266.96 171.625 1265.71 170.062C1264.46 168.438 1263.49 166.375 1262.81 163.875C1262.18 161.312 1261.74 158.469 1261.49 155.344C1261.24 152.156 1261.02 149.062 1260.84 146.062C1260.71 143.062 1260.56 140.25 1260.37 137.625C1260.18 135 1259.81 132.938 1259.24 131.438C1259.12 131.438 1259.02 131.438 1258.96 131.438C1258.9 131.438 1258.84 131.438 1258.77 131.438C1258.71 131.438 1258.68 131.438 1258.68 131.438C1258.68 131.438 1258.65 131.438 1258.59 131.438H1258.4C1257.77 131.812 1257.18 132.375 1256.62 133.125C1256.12 133.875 1255.65 134.688 1255.21 135.562C1254.77 136.375 1254.4 137.156 1254.09 137.906C1253.84 138.656 1253.65 139.25 1253.52 139.688L1242.84 174C1242.77 174.188 1242.68 174.438 1242.56 174.75C1242.43 175.062 1242.24 175.375 1241.99 175.688C1241.81 175.938 1241.56 176.156 1241.24 176.344C1240.99 176.531 1240.71 176.562 1240.4 176.438C1240.21 176.438 1239.96 176.312 1239.65 176.062C1239.4 175.75 1239.15 175.438 1238.9 175.125C1238.65 174.75 1238.43 174.406 1238.24 174.094C1238.06 173.719 1237.93 173.438 1237.87 173.25C1236.93 166.938 1236.4 160.5 1236.27 153.938C1236.15 147.375 1236.15 141 1236.27 134.812C1236.21 134.688 1236.06 134.406 1235.81 133.969C1235.62 133.531 1235.52 133.25 1235.52 133.125C1235.52 132.688 1235.65 132.25 1235.9 131.812C1236.21 131.312 1236.56 130.844 1236.93 130.406C1237.37 129.969 1237.81 129.625 1238.24 129.375C1238.74 129.062 1239.18 128.906 1239.56 128.906C1240.18 128.906 1240.62 129.094 1240.87 129.469C1241.12 129.781 1241.24 130.25 1241.24 130.875C1241.24 134.25 1241.09 137.594 1240.77 140.906C1240.46 144.219 1240.31 147.594 1240.31 151.031C1240.31 151.469 1240.31 152.094 1240.31 152.906C1240.31 153.719 1240.31 154.531 1240.31 155.344C1240.37 156.094 1240.4 156.781 1240.4 157.406C1240.4 158.031 1240.4 158.375 1240.4 158.438L1241.24 161.812C1241.31 161.688 1241.43 161.531 1241.62 161.344C1241.87 161.156 1242.02 161.031 1242.09 160.969C1242.21 160.719 1242.43 160.25 1242.74 159.562C1243.06 158.875 1243.37 158.156 1243.68 157.406C1244.06 156.594 1244.4 155.844 1244.71 155.156C1245.02 154.406 1245.21 153.875 1245.27 153.562C1245.4 153.25 1245.62 152.688 1245.93 151.875C1246.24 151 1246.62 149.969 1247.06 148.781C1247.49 147.531 1247.96 146.25 1248.46 144.938C1249.02 143.625 1249.52 142.375 1249.96 141.188C1250.4 140 1250.77 138.969 1251.09 138.094C1251.46 137.219 1251.71 136.625 1251.84 136.312C1252.09 135.812 1252.46 134.938 1252.96 133.688C1253.52 132.375 1254.18 131.094 1254.93 129.844C1255.74 128.531 1256.59 127.375 1257.46 126.375C1258.4 125.375 1259.37 124.875 1260.37 124.875C1261.31 124.875 1262.02 125.5 1262.52 126.75C1263.02 128 1263.4 129.656 1263.65 131.719C1263.96 133.719 1264.18 136.031 1264.31 138.656C1264.43 141.219 1264.52 143.875 1264.59 146.625C1264.71 149.375 1264.87 152.062 1265.06 154.688C1265.31 157.25 1265.65 159.562 1266.09 161.625C1266.52 163.625 1267.12 165.25 1267.87 166.5C1268.68 167.75 1269.74 168.375 1271.06 168.375C1271.43 168.375 1271.84 168.188 1272.27 167.812C1272.77 167.375 1273.24 166.875 1273.68 166.312C1274.12 165.75 1274.49 165.188 1274.81 164.625C1275.18 164.062 1275.43 163.625 1275.56 163.312C1275.99 162.5 1276.62 161.219 1277.43 159.469C1278.24 157.719 1279.15 155.75 1280.15 153.562C1281.21 151.375 1282.31 149.062 1283.43 146.625C1284.56 144.188 1285.62 141.875 1286.62 139.688C1287.62 137.438 1288.52 135.438 1289.34 133.688C1290.15 131.938 1290.74 130.625 1291.12 129.75C1291.43 129 1291.84 127.969 1292.34 126.656C1292.9 125.344 1293.31 124.219 1293.56 123.281C1294.31 123.406 1295.06 123.625 1295.81 123.938C1296.56 124.25 1296.93 124.812 1296.93 125.625C1296.93 125.75 1296.9 125.938 1296.84 126.188C1296.84 126.375 1296.84 126.5 1296.84 126.562C1295.96 131.688 1295.31 136.688 1294.87 141.562C1294.49 146.375 1294.31 151.344 1294.31 156.469C1294.31 156.906 1294.31 157.688 1294.31 158.812C1294.31 159.875 1294.31 161.062 1294.31 162.375C1294.37 163.625 1294.4 164.812 1294.4 165.938C1294.4 167 1294.4 167.781 1294.4 168.281C1294.71 170.844 1295.62 173.188 1297.12 175.312C1298.62 177.438 1300.15 179.438 1301.71 181.312V183.469C1301.15 183.469 1300.46 183.188 1299.65 182.625C1298.84 182 1298.02 181.219 1297.21 180.281C1296.4 179.344 1295.59 178.281 1294.77 177.094C1294.02 175.906 1293.34 174.75 1292.71 173.625C1292.15 172.5 1291.68 171.469 1291.31 170.531C1290.93 169.594 1290.74 168.844 1290.74 168.281V140.438ZM1322.94 165.75C1322.06 165.312 1321.41 164.875 1320.97 164.438C1320.59 164 1320.41 163.375 1320.41 162.562C1320.41 162.125 1320.47 161.75 1320.59 161.438C1320.78 161.125 1320.97 160.844 1321.16 160.594C1321.41 160.281 1321.62 159.969 1321.81 159.656C1322 159.344 1322.09 158.969 1322.09 158.531C1322.09 157.781 1322.09 156.906 1322.09 155.906C1322.16 154.906 1322.12 153.906 1322 152.906C1321.88 151.844 1321.62 150.875 1321.25 150C1320.94 149.062 1320.38 148.312 1319.56 147.75C1319.75 147.688 1320.03 147.469 1320.41 147.094C1320.84 146.656 1321.12 146.375 1321.25 146.25V146.062C1321.25 146.062 1321.25 146.031 1321.25 145.969C1321.25 145.906 1321.25 145.844 1321.25 145.781C1321.25 144.969 1321.03 144.406 1320.59 144.094C1320.22 143.781 1319.75 143.562 1319.19 143.438C1318.69 143.312 1318.16 143.188 1317.59 143.062C1317.03 142.938 1316.62 142.625 1316.38 142.125C1317.06 141.188 1318.19 140.375 1319.75 139.688C1321.31 139 1323.06 138.406 1325 137.906C1327 137.344 1329.06 136.875 1331.19 136.5C1333.38 136.125 1335.5 135.812 1337.56 135.562C1339.62 135.25 1341.47 135.062 1343.09 135C1344.72 134.875 1346 134.812 1346.94 134.812H1349.09C1349.66 134.812 1350.38 134.875 1351.25 135C1352.19 135.062 1353.09 135.156 1353.97 135.281C1354.84 135.344 1355.59 135.406 1356.22 135.469C1356.91 135.531 1357.25 135.562 1357.25 135.562L1358.09 136.312L1357.25 137.25C1351.81 137.438 1346.56 137.812 1341.5 138.375C1336.5 138.875 1331.38 139.844 1326.12 141.281C1326.06 141.406 1326 141.656 1325.94 142.031C1325.88 142.406 1325.78 142.812 1325.66 143.25C1325.59 143.688 1325.53 144.125 1325.47 144.562C1325.41 144.938 1325.38 145.188 1325.38 145.312C1325.38 145.438 1325.38 145.656 1325.38 145.969C1325.38 146.219 1325.38 146.5 1325.38 146.812C1325.44 147.125 1325.47 147.406 1325.47 147.656C1325.47 147.906 1325.47 148.125 1325.47 148.312C1330.59 148.312 1335.66 148.094 1340.66 147.656C1345.66 147.156 1350.72 146.906 1355.84 146.906C1356.22 146.906 1356.59 146.906 1356.97 146.906C1357.34 146.906 1357.66 146.969 1357.91 147.094C1358.22 147.156 1358.47 147.344 1358.66 147.656C1358.84 147.906 1358.94 148.281 1358.94 148.781C1358.94 149.094 1358.16 149.531 1356.59 150.094C1355.09 150.656 1353.19 151.312 1350.88 152.062C1348.56 152.75 1346.03 153.531 1343.28 154.406C1340.59 155.281 1338.09 156.188 1335.78 157.125C1333.47 158.062 1331.53 159.031 1329.97 160.031C1328.47 161.031 1327.72 162 1327.72 162.938V163.219C1327.72 163.219 1327.72 163.25 1327.72 163.312C1327.78 163.375 1327.94 163.531 1328.19 163.781C1328.44 163.969 1328.56 164.125 1328.56 164.25C1328.56 164.312 1328.59 164.344 1328.66 164.344V164.531C1328.66 164.594 1328.69 164.625 1328.75 164.625C1328.75 164.625 1328.72 164.656 1328.66 164.719C1328.66 164.719 1328.66 164.75 1328.66 164.812C1328.59 164.875 1328.56 164.938 1328.56 165C1328.56 165.062 1328.44 165.219 1328.19 165.469C1327.94 165.656 1327.78 165.75 1327.72 165.75C1327.66 165.938 1327.5 166.25 1327.25 166.688C1327.06 167.125 1326.97 167.375 1326.97 167.438C1326.97 169.5 1327.31 171.281 1328 172.781C1328.75 174.219 1329.72 175.406 1330.91 176.344C1332.09 177.219 1333.47 177.875 1335.03 178.312C1336.66 178.75 1338.34 178.969 1340.09 178.969C1342.53 178.969 1344.75 178.625 1346.75 177.938C1348.75 177.25 1350.62 176.312 1352.38 175.125C1354.12 173.938 1355.78 172.562 1357.34 171C1358.97 169.375 1360.56 167.625 1362.12 165.75C1362.19 165.75 1362.28 165.594 1362.41 165.281C1362.59 164.969 1362.78 164.656 1362.97 164.344C1363.16 163.969 1363.31 163.625 1363.44 163.312C1363.62 162.938 1363.72 162.688 1363.72 162.562C1363.72 162.5 1363.72 162.375 1363.72 162.188C1363.78 161.938 1363.81 161.75 1363.81 161.625C1363.81 161.25 1363.69 160.969 1363.44 160.781C1363.25 160.531 1363 160.344 1362.69 160.219C1362.38 160.094 1362.03 160.031 1361.66 160.031C1361.34 159.969 1361 159.938 1360.62 159.938C1360.62 159.062 1361.03 158.469 1361.84 158.156C1362.66 157.844 1363.47 157.688 1364.28 157.688C1365.22 157.688 1365.91 158 1366.34 158.625C1366.84 159.25 1367.09 160.031 1367.09 160.969C1367.09 162.719 1366.62 164.5 1365.69 166.312C1364.75 168.062 1363.53 169.781 1362.03 171.469C1360.53 173.094 1358.78 174.625 1356.78 176.062C1354.84 177.438 1352.84 178.656 1350.78 179.719C1348.72 180.719 1346.69 181.531 1344.69 182.156C1342.69 182.781 1340.88 183.094 1339.25 183.094C1336.5 183.094 1334.22 182.656 1332.41 181.781C1330.59 180.844 1329.06 179.594 1327.81 178.031C1326.56 176.406 1325.56 174.562 1324.81 172.5C1324.12 170.375 1323.5 168.125 1322.94 165.75ZM1325.19 150C1325.19 151.312 1325.25 152.438 1325.38 153.375C1325.44 154.25 1325.5 155.031 1325.56 155.719C1325.69 156.406 1325.88 156.75 1326.12 156.75H1326.97C1327.03 156.75 1327.44 156.625 1328.19 156.375C1328.94 156.062 1329.81 155.688 1330.81 155.25C1331.88 154.812 1332.94 154.375 1334 153.938C1335.12 153.438 1336.03 153.062 1336.72 152.812C1336.91 152.75 1337.12 152.625 1337.38 152.438C1337.69 152.25 1338.03 152.094 1338.41 151.969C1338.78 151.781 1339.09 151.594 1339.34 151.406C1339.66 151.219 1339.91 151.125 1340.09 151.125C1338.97 150.812 1337.75 150.594 1336.44 150.469C1335.12 150.281 1333.78 150.156 1332.41 150.094C1331.09 150.031 1329.78 150 1328.47 150C1327.22 150 1326.12 150 1325.19 150Z" fill="white"/>
<defs>
<linearGradient id="paint0_linear" x1="400.515" y1="332.011" x2="400.515" y2="1.00004" gradientUnits="userSpaceOnUse">
<stop offset="0.2" stop-color="#808080" stop-opacity="0.4"/>
<stop offset="0.46" stop-color="#808080" stop-opacity="0.5"/>
<stop offset="1" stop-opacity="0.4"/>
</linearGradient>
</defs>
</svg>
