<svg width="1440" height="332" viewBox="0 0 1440 332" fill="none" xmlns="http://www.w3.org/2000/svg">
<path d="M0 180.5V0H1440V248.5L296 332L0 180.5Z" fill="#B3004C"/>
<path d="M0 181.5V1H801L692 303.003L296 332L0 181.5Z" fill="url(#paint0_linear)"/>
<path opacity="0.6" d="M1028.04 158.296V174.928C1028.04 176.704 1027.68 178.312 1026.96 179.752C1026.24 181.168 1025.14 182.296 1023.65 183.136C1022.18 183.952 1020.31 184.36 1018.03 184.36C1014.84 184.36 1012.4 183.496 1010.72 181.768C1009.07 180.016 1008.24 177.712 1008.24 174.856V158.296H1011.48V174.964C1011.48 177.052 1012.03 178.672 1013.14 179.824C1014.26 180.976 1015.96 181.552 1018.21 181.552C1020.54 181.552 1022.22 180.94 1023.25 179.716C1024.31 178.468 1024.84 176.872 1024.84 174.928V158.296H1028.04ZM1052.28 184H1048.61L1041.81 172.84L1034.9 184H1031.48L1040.01 170.608L1032.02 158.296H1035.62L1041.92 168.376L1048.25 158.296H1051.67L1043.72 170.536L1052.28 184ZM1065.46 158.296L1055.88 184H1052.79L1062.36 158.296H1065.46ZM1088.86 158.296V174.928C1088.86 176.704 1088.5 178.312 1087.78 179.752C1087.06 181.168 1085.96 182.296 1084.47 183.136C1083 183.952 1081.13 184.36 1078.85 184.36C1075.66 184.36 1073.22 183.496 1071.54 181.768C1069.89 180.016 1069.06 177.712 1069.06 174.856V158.296H1072.3V174.964C1072.3 177.052 1072.85 178.672 1073.96 179.824C1075.08 180.976 1076.78 181.552 1079.03 181.552C1081.36 181.552 1083.04 180.94 1084.07 179.716C1085.13 178.468 1085.66 176.872 1085.66 174.928V158.296H1088.86ZM1102.88 184H1093.59V182.128L1096.62 181.444V160.888L1093.59 160.168V158.296H1102.88V160.168L1099.86 160.888V181.444L1102.88 182.128V184ZM1137.79 170.896C1137.79 175.24 1136.6 178.516 1134.22 180.724C1131.87 182.908 1128.58 184 1124.36 184H1117.2V158.296H1125.12C1127.71 158.296 1129.95 158.776 1131.85 159.736C1133.74 160.696 1135.21 162.112 1136.24 163.984C1137.27 165.832 1137.79 168.136 1137.79 170.896ZM1134.37 171.004C1134.37 167.572 1133.52 165.064 1131.81 163.48C1130.13 161.872 1127.74 161.068 1124.65 161.068H1120.44V181.228H1123.93C1130.89 181.228 1134.37 177.82 1134.37 171.004ZM1150.51 164.344C1152.17 164.344 1153.58 164.704 1154.76 165.424C1155.96 166.144 1156.87 167.164 1157.5 168.484C1158.14 169.78 1158.47 171.304 1158.47 173.056V174.964H1145.26C1145.3 177.148 1145.86 178.816 1146.91 179.968C1147.99 181.096 1149.49 181.66 1151.41 181.66C1152.64 181.66 1153.72 181.552 1154.65 181.336C1155.61 181.096 1156.6 180.76 1157.6 180.328V183.1C1156.62 183.532 1155.65 183.844 1154.69 184.036C1153.73 184.252 1152.59 184.36 1151.27 184.36C1149.44 184.36 1147.82 183.988 1146.41 183.244C1145.02 182.5 1143.92 181.396 1143.13 179.932C1142.36 178.444 1141.98 176.632 1141.98 174.496C1141.98 172.384 1142.33 170.572 1143.02 169.06C1143.74 167.548 1144.74 166.384 1146.01 165.568C1147.31 164.752 1148.81 164.344 1150.51 164.344ZM1150.48 166.936C1148.96 166.936 1147.76 167.428 1146.88 168.412C1146.01 169.372 1145.5 170.716 1145.33 172.444H1155.16C1155.13 170.812 1154.75 169.492 1154 168.484C1153.26 167.452 1152.08 166.936 1150.48 166.936ZM1175.94 178.672C1175.94 180.544 1175.25 181.96 1173.86 182.92C1172.46 183.88 1170.59 184.36 1168.24 184.36C1166.9 184.36 1165.73 184.252 1164.75 184.036C1163.79 183.82 1162.94 183.52 1162.19 183.136V180.256C1162.96 180.64 1163.88 181 1164.96 181.336C1166.07 181.648 1167.18 181.804 1168.31 181.804C1169.92 181.804 1171.08 181.552 1171.8 181.048C1172.52 180.52 1172.88 179.824 1172.88 178.96C1172.88 178.48 1172.75 178.048 1172.49 177.664C1172.22 177.28 1171.74 176.896 1171.05 176.512C1170.38 176.128 1169.4 175.696 1168.13 175.216C1166.88 174.736 1165.82 174.256 1164.93 173.776C1164.04 173.296 1163.36 172.72 1162.88 172.048C1162.4 171.376 1162.16 170.512 1162.16 169.456C1162.16 167.824 1162.82 166.564 1164.14 165.676C1165.48 164.788 1167.23 164.344 1169.39 164.344C1170.57 164.344 1171.66 164.464 1172.67 164.704C1173.7 164.92 1174.66 165.232 1175.55 165.64L1174.47 168.16C1173.65 167.824 1172.8 167.536 1171.91 167.296C1171.02 167.056 1170.11 166.936 1169.18 166.936C1167.88 166.936 1166.88 167.152 1166.19 167.584C1165.52 167.992 1165.18 168.556 1165.18 169.276C1165.18 169.804 1165.34 170.26 1165.65 170.644C1165.96 171.004 1166.48 171.364 1167.2 171.724C1167.94 172.06 1168.92 172.468 1170.15 172.948C1171.37 173.404 1172.42 173.872 1173.28 174.352C1174.14 174.832 1174.8 175.42 1175.26 176.116C1175.72 176.788 1175.94 177.64 1175.94 178.672ZM1182.23 157.468C1182.71 157.468 1183.13 157.636 1183.49 157.972C1183.87 158.284 1184.06 158.788 1184.06 159.484C1184.06 160.156 1183.87 160.66 1183.49 160.996C1183.13 161.332 1182.71 161.5 1182.23 161.5C1181.7 161.5 1181.25 161.332 1180.89 160.996C1180.53 160.66 1180.35 160.156 1180.35 159.484C1180.35 158.788 1180.53 158.284 1180.89 157.972C1181.25 157.636 1181.7 157.468 1182.23 157.468ZM1183.77 164.704V184H1180.61V164.704H1183.77ZM1196.73 164.344C1198 164.344 1199.14 164.584 1200.15 165.064C1201.18 165.544 1202.06 166.276 1202.78 167.26H1202.96L1203.39 164.704H1205.91V184.324C1205.91 187.084 1205.2 189.16 1203.78 190.552C1202.39 191.944 1200.22 192.64 1197.27 192.64C1194.44 192.64 1192.12 192.232 1190.32 191.416V188.5C1192.22 189.508 1194.59 190.012 1197.45 190.012C1199.1 190.012 1200.4 189.52 1201.34 188.536C1202.3 187.576 1202.78 186.256 1202.78 184.576V183.82C1202.78 183.532 1202.79 183.124 1202.81 182.596C1202.84 182.044 1202.86 181.66 1202.88 181.444H1202.74C1201.44 183.388 1199.45 184.36 1196.76 184.36C1194.27 184.36 1192.31 183.484 1190.9 181.732C1189.5 179.98 1188.81 177.532 1188.81 174.388C1188.81 171.316 1189.5 168.88 1190.9 167.08C1192.31 165.256 1194.26 164.344 1196.73 164.344ZM1197.16 167.008C1195.55 167.008 1194.3 167.656 1193.42 168.952C1192.53 170.224 1192.08 172.048 1192.08 174.424C1192.08 176.8 1192.52 178.624 1193.38 179.896C1194.27 181.144 1195.55 181.768 1197.23 181.768C1199.18 181.768 1200.59 181.252 1201.48 180.22C1202.37 179.164 1202.81 177.472 1202.81 175.144V174.388C1202.81 171.748 1202.36 169.864 1201.44 168.736C1200.53 167.584 1199.1 167.008 1197.16 167.008ZM1221.32 164.344C1223.63 164.344 1225.37 164.908 1226.54 166.036C1227.72 167.14 1228.31 168.94 1228.31 171.436V184H1225.18V171.652C1225.18 168.556 1223.74 167.008 1220.86 167.008C1218.72 167.008 1217.24 167.608 1216.43 168.808C1215.61 170.008 1215.2 171.736 1215.2 173.992V184H1212.04V164.704H1214.59L1215.06 167.332H1215.24C1215.86 166.324 1216.73 165.58 1217.83 165.1C1218.94 164.596 1220.1 164.344 1221.32 164.344ZM1241.74 164.344C1243.4 164.344 1244.81 164.704 1245.99 165.424C1247.19 166.144 1248.1 167.164 1248.73 168.484C1249.37 169.78 1249.7 171.304 1249.7 173.056V174.964H1236.49C1236.53 177.148 1237.09 178.816 1238.14 179.968C1239.22 181.096 1240.72 181.66 1242.64 181.66C1243.87 181.66 1244.95 181.552 1245.88 181.336C1246.84 181.096 1247.83 180.76 1248.83 180.328V183.1C1247.85 183.532 1246.88 183.844 1245.92 184.036C1244.96 184.252 1243.82 184.36 1242.5 184.36C1240.67 184.36 1239.05 183.988 1237.64 183.244C1236.25 182.5 1235.15 181.396 1234.36 179.932C1233.59 178.444 1233.21 176.632 1233.21 174.496C1233.21 172.384 1233.56 170.572 1234.25 169.06C1234.97 167.548 1235.97 166.384 1237.24 165.568C1238.54 164.752 1240.04 164.344 1241.74 164.344ZM1241.71 166.936C1240.19 166.936 1238.99 167.428 1238.11 168.412C1237.24 169.372 1236.73 170.716 1236.56 172.444H1246.39C1246.36 170.812 1245.98 169.492 1245.23 168.484C1244.49 167.452 1243.31 166.936 1241.71 166.936ZM1263.61 164.344C1263.97 164.344 1264.35 164.368 1264.76 164.416C1265.19 164.44 1265.57 164.488 1265.88 164.56L1265.48 167.476C1265.17 167.404 1264.82 167.344 1264.44 167.296C1264.08 167.248 1263.73 167.224 1263.39 167.224C1262.41 167.224 1261.49 167.5 1260.62 168.052C1259.76 168.58 1259.06 169.336 1258.53 170.32C1258.03 171.28 1257.78 172.408 1257.78 173.704V184H1254.61V164.704H1257.2L1257.56 168.232H1257.71C1258.33 167.176 1259.13 166.264 1260.12 165.496C1261.1 164.728 1262.27 164.344 1263.61 164.344Z" fill="white"/>
<path d="M1034.59 100.24C1035.2 100.24 1036.38 100.896 1038.14 102.208C1039.94 103.488 1040.83 104.448 1040.83 105.088C1040.83 106.208 1041.2 108.048 1041.94 110.608C1042.67 113.168 1043.52 115.488 1044.48 117.568C1045.44 116.448 1047.06 114.384 1049.33 111.376C1051.63 108.336 1053.57 105.936 1055.14 104.176C1056.7 102.416 1057.87 101.536 1058.64 101.536C1059.41 101.536 1060.21 101.968 1061.04 102.832C1061.87 103.696 1062.29 104.56 1062.29 105.424C1062.29 106.288 1062.16 107.408 1061.9 108.784C1061.65 110.128 1061.36 111.392 1061.04 112.576C1060.75 113.728 1060.32 115.312 1059.74 117.328C1059.2 119.344 1058.77 120.944 1058.45 122.128C1058.16 123.28 1057.86 124.528 1057.54 125.872C1057.22 127.184 1056.96 128.224 1056.77 128.992C1056.61 129.728 1056.42 130.512 1056.19 131.344C1056 132.144 1055.82 132.768 1055.66 133.216C1055.5 133.632 1055.33 134.016 1055.14 134.368C1054.78 135.04 1054.29 135.376 1053.65 135.376C1053.01 135.376 1052.37 134.752 1051.73 133.504C1051.12 132.224 1050.82 130.896 1050.82 129.52C1050.82 126.128 1051.79 121.632 1053.74 116.032C1053.2 116.736 1052.42 117.776 1051.39 119.152C1050.37 120.496 1049.6 121.488 1049.09 122.128C1048.61 122.736 1048 123.456 1047.26 124.288C1045.95 125.728 1044.67 126.448 1043.42 126.448C1041.76 126.448 1040.58 125.792 1039.87 124.48C1039.52 123.808 1039.04 122.304 1038.43 119.968C1037.86 117.6 1037.44 115.968 1037.18 115.072C1036.77 118.368 1036.21 121.36 1035.5 124.048C1034.8 126.736 1034.34 128.496 1034.11 129.328C1033.89 130.16 1033.58 131.168 1033.2 132.352C1032.56 134.368 1031.98 135.376 1031.47 135.376C1030.9 135.376 1030.1 134.624 1029.07 133.12C1028.08 131.584 1027.58 130.384 1027.58 129.52C1027.58 128.656 1028.51 124.336 1030.37 116.56C1032.26 108.784 1033.2 103.872 1033.2 101.824C1033.2 100.768 1033.66 100.24 1034.59 100.24ZM1091.51 117.376C1092.79 117.376 1093.71 117.504 1094.25 117.76C1094.83 117.984 1095.11 118.416 1095.11 119.056C1095.11 119.92 1093.72 120.8 1090.94 121.696C1091 124.128 1091.03 126.464 1091.03 128.704C1091.03 130.912 1090.86 132.576 1090.51 133.696C1090.15 134.784 1089.59 135.328 1088.83 135.328C1088.06 135.328 1087.45 134.944 1087 134.176C1086.59 133.376 1086.23 132.08 1085.95 130.288C1085.69 128.496 1085.42 126.128 1085.13 123.184C1081.87 123.92 1079.51 124.512 1078.07 124.96C1075.58 131.872 1073.91 135.328 1073.08 135.328C1072.41 135.328 1071.51 134.88 1070.39 133.984C1069.31 133.088 1068.76 132.16 1068.76 131.2C1068.76 130.656 1069.39 128.96 1070.63 126.112C1070.09 125.76 1069.61 125.264 1069.19 124.624C1068.81 123.952 1068.62 123.312 1068.62 122.704C1068.62 121.648 1070.2 120.64 1073.37 119.68C1073.63 119.04 1073.88 118.32 1074.14 117.52C1074.43 116.688 1075.11 114.768 1076.2 111.76C1077.32 108.752 1078.2 106.24 1078.84 104.224C1079.13 103.264 1080.12 102.368 1081.82 101.536C1083.55 100.704 1084.89 100.288 1085.85 100.288C1086.97 100.288 1087.96 101.84 1088.83 104.944C1089.72 108.048 1090.35 112.192 1090.7 117.376H1091.51ZM1080.43 118.192C1081.39 118.064 1082.78 117.904 1084.6 117.712C1084.51 116.784 1084.35 115.2 1084.12 112.96C1083.93 110.72 1083.79 109.104 1083.69 108.112C1083.15 109.904 1082.06 113.264 1080.43 118.192ZM1129.33 133.648C1129.33 134.96 1128.42 135.616 1126.6 135.616C1124.1 135.616 1121.48 134.32 1118.72 131.728C1116 129.136 1114.07 126.432 1112.92 123.616C1112.4 125.152 1112.05 126.192 1111.86 126.736C1111.67 127.28 1111.38 128.144 1111 129.328C1110.61 130.512 1110.31 131.392 1110.08 131.968C1109.89 132.544 1109.67 133.152 1109.41 133.792C1108.93 135.008 1108.47 135.616 1108.02 135.616C1107.28 135.616 1106.39 135.008 1105.33 133.792C1104.31 132.544 1103.8 131.536 1103.8 130.768C1103.8 130 1104.16 128.576 1104.9 126.496C1107.08 120.128 1108.32 114.32 1108.64 109.072C1108.04 108.592 1107.49 107.92 1107.01 107.056C1106.53 106.192 1106.29 105.472 1106.29 104.896C1106.29 103.936 1107.52 102.928 1109.99 101.872C1112.48 100.816 1115.35 100.288 1118.58 100.288C1121.84 100.288 1124.56 101.056 1126.74 102.592C1128.92 104.128 1130 106.128 1130 108.592C1130 110.416 1129.46 112.176 1128.37 113.872C1127.32 115.536 1126.15 116.848 1124.87 117.808C1123.62 118.736 1122.45 119.584 1121.36 120.352C1120.31 121.12 1119.78 121.616 1119.78 121.84C1119.78 122.608 1120.04 123.344 1120.55 124.048C1121.06 124.72 1121.78 125.52 1122.71 126.448C1123.64 127.344 1124.44 128.112 1125.11 128.752C1125.78 129.36 1126.32 129.872 1126.74 130.288C1127.19 130.704 1127.62 131.136 1128.04 131.584C1128.9 132.416 1129.33 133.104 1129.33 133.648ZM1122.61 109.072C1122.61 107.728 1121.3 107.056 1118.68 107.056C1117.43 107.056 1115.94 107.408 1114.21 108.112C1115.01 109.328 1115.41 110.448 1115.41 111.472C1115.41 113.328 1115.16 115.376 1114.64 117.616C1115 117.36 1115.65 116.912 1116.61 116.272C1117.57 115.6 1118.31 115.072 1118.82 114.688C1119.36 114.272 1119.97 113.744 1120.64 113.104C1121.96 111.856 1122.61 110.512 1122.61 109.072ZM1150.24 116.608C1150.82 116.608 1151.82 115.232 1153.26 112.48C1154.74 109.728 1156.22 106.992 1157.73 104.272C1159.23 101.52 1160.35 100.144 1161.09 100.144C1162.18 100.144 1163.07 100.64 1163.78 101.632C1164.51 102.624 1164.88 103.808 1164.88 105.184C1164.88 106.144 1164.05 108 1162.38 110.752C1160.72 113.472 1158.61 116.848 1156.05 120.88C1153.49 124.912 1151.52 128.336 1150.14 131.152C1149.73 132.048 1149.06 132.976 1148.13 133.936C1147.2 134.896 1146.3 135.376 1145.44 135.376C1144.16 135.376 1143.52 134.352 1143.52 132.304C1143.52 131.088 1144.74 128.256 1147.17 123.808C1147.55 123.104 1147.82 122.576 1147.98 122.224C1146.58 121.68 1145.3 120.784 1144.14 119.536C1142.99 118.288 1142.08 116.88 1141.41 115.312C1140 112.016 1139.3 108.816 1139.3 105.712C1139.3 103.792 1139.5 102.384 1139.92 101.488C1140.37 100.592 1141.26 100.144 1142.61 100.144C1143.31 100.144 1143.84 100.64 1144.19 101.632C1144.54 102.592 1144.86 103.984 1145.15 105.808C1145.44 107.632 1145.84 109.248 1146.35 110.656C1146.9 112.032 1147.55 113.376 1148.32 114.688C1149.12 115.968 1149.76 116.608 1150.24 116.608ZM1191.88 117.376C1193.16 117.376 1194.07 117.504 1194.62 117.76C1195.19 117.984 1195.48 118.416 1195.48 119.056C1195.48 119.92 1194.09 120.8 1191.31 121.696C1191.37 124.128 1191.4 126.464 1191.4 128.704C1191.4 130.912 1191.23 132.576 1190.87 133.696C1190.52 134.784 1189.96 135.328 1189.19 135.328C1188.43 135.328 1187.82 134.944 1187.37 134.176C1186.95 133.376 1186.6 132.08 1186.31 130.288C1186.06 128.496 1185.79 126.128 1185.5 123.184C1182.23 123.92 1179.88 124.512 1178.44 124.96C1175.95 131.872 1174.28 135.328 1173.45 135.328C1172.78 135.328 1171.88 134.88 1170.76 133.984C1169.67 133.088 1169.13 132.16 1169.13 131.2C1169.13 130.656 1169.75 128.96 1171 126.112C1170.46 125.76 1169.98 125.264 1169.56 124.624C1169.18 123.952 1168.99 123.312 1168.99 122.704C1168.99 121.648 1170.57 120.64 1173.74 119.68C1173.99 119.04 1174.25 118.32 1174.51 117.52C1174.79 116.688 1175.48 114.768 1176.57 111.76C1177.69 108.752 1178.57 106.24 1179.21 104.224C1179.5 103.264 1180.49 102.368 1182.19 101.536C1183.91 100.704 1185.26 100.288 1186.22 100.288C1187.34 100.288 1188.33 101.84 1189.19 104.944C1190.09 108.048 1190.71 112.192 1191.07 117.376H1191.88ZM1180.79 118.192C1181.75 118.064 1183.15 117.904 1184.97 117.712C1184.87 116.784 1184.71 115.2 1184.49 112.96C1184.3 110.72 1184.15 109.104 1184.06 108.112C1183.51 109.904 1182.43 113.264 1180.79 118.192ZM1211.08 100.24C1211.68 100.24 1212.87 100.896 1214.63 102.208C1216.42 103.488 1217.32 104.448 1217.32 105.088C1217.32 106.208 1217.68 108.048 1218.42 110.608C1219.16 113.168 1220 115.488 1220.96 117.568C1221.92 116.448 1223.54 114.384 1225.81 111.376C1228.12 108.336 1230.05 105.936 1231.62 104.176C1233.19 102.416 1234.36 101.536 1235.12 101.536C1235.89 101.536 1236.69 101.968 1237.52 102.832C1238.36 103.696 1238.77 104.56 1238.77 105.424C1238.77 106.288 1238.64 107.408 1238.39 108.784C1238.13 110.128 1237.84 111.392 1237.52 112.576C1237.24 113.728 1236.8 115.312 1236.23 117.328C1235.68 119.344 1235.25 120.944 1234.93 122.128C1234.64 123.28 1234.34 124.528 1234.02 125.872C1233.7 127.184 1233.44 128.224 1233.25 128.992C1233.09 129.728 1232.9 130.512 1232.68 131.344C1232.48 132.144 1232.31 132.768 1232.15 133.216C1231.99 133.632 1231.81 134.016 1231.62 134.368C1231.27 135.04 1230.77 135.376 1230.13 135.376C1229.49 135.376 1228.85 134.752 1228.21 133.504C1227.6 132.224 1227.3 130.896 1227.3 129.52C1227.3 126.128 1228.28 121.632 1230.23 116.032C1229.68 116.736 1228.9 117.776 1227.88 119.152C1226.85 120.496 1226.08 121.488 1225.57 122.128C1225.09 122.736 1224.48 123.456 1223.75 124.288C1222.44 125.728 1221.16 126.448 1219.91 126.448C1218.24 126.448 1217.06 125.792 1216.36 124.48C1216 123.808 1215.52 122.304 1214.92 119.968C1214.34 117.6 1213.92 115.968 1213.67 115.072C1213.25 118.368 1212.69 121.36 1211.99 124.048C1211.28 126.736 1210.82 128.496 1210.6 129.328C1210.37 130.16 1210.07 131.168 1209.68 132.352C1209.04 134.368 1208.47 135.376 1207.96 135.376C1207.38 135.376 1206.58 134.624 1205.56 133.12C1204.56 131.584 1204.07 130.384 1204.07 129.52C1204.07 128.656 1205 124.336 1206.85 116.56C1208.74 108.784 1209.68 103.872 1209.68 101.824C1209.68 100.768 1210.15 100.24 1211.08 100.24Z" fill="white"/>
<path opacity="0.2" d="M406 306C496.575 306 570 300.18 570 293C570 285.82 496.575 280 406 280C315.425 280 242 285.82 242 293C242 300.18 315.425 306 406 306Z" fill="black"/>
<path opacity="0.2" d="M543 313C559.569 313 573 310.761 573 308C573 305.239 559.569 303 543 303C526.431 303 513 305.239 513 308C513 310.761 526.431 313 543 313Z" fill="black"/>
<path opacity="0.3" d="M196.609 148H164.391C163.071 148 162 149.08 162 150.413V159.587C162 160.92 163.071 162 164.391 162H196.609C197.929 162 199 160.92 199 159.587V150.413C199 149.08 197.929 148 196.609 148Z" fill="#4E0021"/>
<path opacity="0.3" d="M152.544 215H119.456C118.099 215 117 216.08 117 217.413V226.587C117 227.92 118.099 229 119.456 229H152.544C153.901 229 155 227.92 155 226.587V217.413C155 216.08 153.901 215 152.544 215Z" fill="#4E0021"/>
<path opacity="0.3" d="M678.544 258H645.456C644.099 258 643 259.08 643 260.413V269.587C643 270.92 644.099 272 645.456 272H678.544C679.901 272 681 270.92 681 269.587V260.413C681 259.08 679.901 258 678.544 258Z" fill="#4E0021"/>
<path opacity="0.3" d="M649.609 273H617.391C616.071 273 615 274.08 615 275.413V284.587C615 285.92 616.071 287 617.391 287H649.609C650.929 287 652 285.92 652 284.587V275.413C652 274.08 650.929 273 649.609 273Z" fill="#4E0021"/>
<path opacity="0.3" d="M775.544 40H742.456C741.099 40 740 41.0802 740 42.4127V51.5873C740 52.9198 741.099 54 742.456 54H775.544C776.901 54 778 52.9198 778 51.5873V42.4127C778 41.0802 776.901 40 775.544 40Z" fill="#4E0021"/>
<path opacity="0.3" d="M746.609 55H714.391C713.071 55 712 56.0802 712 57.4127V66.5873C712 67.9198 713.071 69 714.391 69H746.609C747.929 69 749 67.9198 749 66.5873V57.4127C749 56.0802 747.929 55 746.609 55Z" fill="#4E0021"/>
<path opacity="0.3" d="M649.609 113H617.391C616.071 113 615 114.08 615 115.413V124.587C615 125.92 616.071 127 617.391 127H649.609C650.929 127 652 125.92 652 124.587V115.413C652 114.08 650.929 113 649.609 113Z" fill="#4E0021"/>
<path opacity="0.3" d="M668.609 130H636.391C635.071 130 634 131.08 634 132.413V141.587C634 142.92 635.071 144 636.391 144H668.609C669.929 144 671 142.92 671 141.587V132.413C671 131.08 669.929 130 668.609 130Z" fill="#4E0021"/>
<path opacity="0.3" d="M638.544 148H605.456C604.099 148 603 149.08 603 150.413V159.587C603 160.92 604.099 162 605.456 162H638.544C639.901 162 641 160.92 641 159.587V150.413C641 149.08 639.901 148 638.544 148Z" fill="#4E0021"/>
<path opacity="0.3" d="M736.609 72H704.391C703.071 72 702 73.0802 702 74.4127V83.5873C702 84.9198 703.071 86 704.391 86H736.609C737.929 86 739 84.9198 739 83.5873V74.4127C739 73.0802 737.929 72 736.609 72Z" fill="#4E0021"/>
<path opacity="0.3" d="M62.5442 168H29.4558C28.0995 168 27 166.92 27 165.587V156.413C27 155.08 28.0995 154 29.4558 154H62.5442C63.9005 154 65 155.08 65 156.413V165.587C65 166.92 63.9005 168 62.5442 168Z" fill="#4E0021"/>
<path opacity="0.3" d="M79.5442 152H46.4558C45.0995 152 44 150.92 44 149.587V140.413C44 139.08 45.0995 138 46.4558 138H79.5442C80.9005 138 82 139.08 82 140.413V149.587C82 150.92 80.9005 152 79.5442 152Z" fill="#4E0021"/>
<path opacity="0.3" d="M178.544 146H145.456C144.099 146 143 144.92 143 143.587V134.413C143 133.08 144.099 132 145.456 132H178.544C179.901 132 181 133.08 181 134.413V143.587C181 144.92 179.901 146 178.544 146Z" fill="#4E0021"/>
<path opacity="0.3" d="M201.544 130H168.456C167.099 130 166 128.92 166 127.587V118.413C166 117.08 167.099 116 168.456 116H201.544C202.901 116 204 117.08 204 118.413V127.587C204 128.92 202.901 130 201.544 130Z" fill="#4E0021"/>
<path opacity="0.3" d="M50.5442 137H17.4558C16.0995 137 15 135.92 15 134.587V125.413C15 124.08 16.0995 123 17.4558 123H50.5442C51.9005 123 53 124.08 53 125.413V134.587C53 135.92 51.9005 137 50.5442 137Z" fill="#4E0021"/>
<path opacity="0.3" d="M76.6089 58H44.3911C43.0705 58 42 59.0802 42 60.4127V69.5873C42 70.9198 43.0705 72 44.3911 72H76.6089C77.9295 72 79 70.9198 79 69.5873V60.4127C79 59.0802 77.9295 58 76.6089 58Z" fill="#4E0021"/>
<path opacity="0.3" d="M95.6089 42H63.3911C62.0705 42 61 43.0802 61 44.4127V53.5873C61 54.9198 62.0705 56 63.3911 56H95.6089C96.9295 56 98 54.9198 98 53.5873V44.4127C98 43.0802 96.9295 42 95.6089 42Z" fill="#4E0021"/>
<path opacity="0.3" d="M159.609 116H127.391C126.071 116 125 117.08 125 118.413V127.587C125 128.92 126.071 130 127.391 130H159.609C160.929 130 162 128.92 162 127.587V118.413C162 117.08 160.929 116 159.609 116Z" fill="#4E0021"/>
<path opacity="0.3" d="M231.544 10H198.456C197.099 10 196 11.0802 196 12.4127V21.5873C196 22.9198 197.099 24 198.456 24H231.544C232.901 24 234 22.9198 234 21.5873V12.4127C234 11.0802 232.901 10 231.544 10Z" fill="#4E0021"/>
<path opacity="0.3" d="M248.544 26H215.456C214.099 26 213 27.0802 213 28.4127V37.5873C213 38.9198 214.099 40 215.456 40H248.544C249.901 40 251 38.9198 251 37.5873V28.4127C251 27.0802 249.901 26 248.544 26Z" fill="#4E0021"/>
<path opacity="0.3" d="M219.609 41H187.391C186.071 41 185 42.0802 185 43.4127V52.5873C185 53.9198 186.071 55 187.391 55H219.609C220.929 55 222 53.9198 222 52.5873V43.4127C222 42.0802 220.929 41 219.609 41Z" fill="#4E0021"/>
<path opacity="0.3" d="M693.544 181H660.456C659.099 181 658 182.08 658 183.413V192.587C658 193.92 659.099 195 660.456 195H693.544C694.901 195 696 193.92 696 192.587V183.413C696 182.08 694.901 181 693.544 181Z" fill="#4E0021"/>
<path opacity="0.3" d="M709.609 197H677.391C676.071 197 675 198.08 675 199.413V208.587C675 209.92 676.071 211 677.391 211H709.609C710.929 211 712 209.92 712 208.587V199.413C712 198.08 710.929 197 709.609 197Z" fill="#4E0021"/>
<path opacity="0.3" d="M649.544 15H616.456C615.099 15 614 16.0802 614 17.4127V26.5873C614 27.9198 615.099 29 616.456 29H649.544C650.901 29 652 27.9198 652 26.5873V17.4127C652 16.0802 650.901 15 649.544 15Z" fill="#4E0021"/>
<path opacity="0.3" d="M665.609 31H633.391C632.071 31 631 32.0802 631 33.4127V42.5873C631 43.9198 632.071 45 633.391 45H665.609C666.929 45 668 43.9198 668 42.5873V33.4127C668 32.0802 666.929 31 665.609 31Z" fill="#4E0021"/>
<path d="M587.678 55.8977C579.156 71.3616 561.07 78 561.07 78C561.07 78 556.8 59.5663 565.322 44.1024C573.844 28.6384 591.93 22 591.93 22C591.93 22 596.2 40.4337 587.678 55.8977Z" fill="#3F3D56"/>
<path d="M582.367 53.154C566.447 60.8595 559.051 78.284 559.051 78.284C559.051 78.284 577.467 83.2156 593.386 75.5101C609.306 67.8047 616.703 50.3802 616.703 50.3802C616.703 50.3802 598.287 45.4486 582.367 53.154Z" fill="#BF0051"/>
<path d="M561 54.6857H251.664V252.602H561V54.6857Z" fill="#3F3D56"/>
<path d="M552.203 90.4207H412.929V252.419H552.203V90.4207Z" fill="#F2F2F2"/>
<path d="M222.806 228.924C232.102 245.769 251.833 253 251.833 253C251.833 253 256.491 232.92 247.194 216.076C237.898 199.231 218.167 192 218.167 192C218.167 192 213.509 212.08 222.806 228.924Z" fill="#3F3D56"/>
<path d="M230.05 222.904C246.619 232.768 253 252.359 253 252.359C253 252.359 232.518 255.959 215.95 246.095C199.381 236.232 193 216.641 193 216.641C193 216.641 213.482 213.041 230.05 222.904Z" fill="#BF0051"/>
<path d="M544.507 105.494H460.037V108.9H544.507V105.494Z" fill="white"/>
<path d="M544.507 112.988H460.037V116.394H544.507V112.988Z" fill="white"/>
<path d="M488.647 120.481H460.037V123.887H488.647V120.481Z" fill="white"/>
<path d="M371.05 207.751H286.58V211.157H371.05V207.751Z" fill="white"/>
<path d="M371.05 215.244H286.58V218.65H371.05V215.244Z" fill="white"/>
<path d="M315.19 222.738H286.58V226.144H315.19V222.738Z" fill="white"/>
<path d="M524.715 147.277H440.245V150.683H524.715V147.277Z" fill="white"/>
<path d="M524.715 154.77H440.245V158.176H524.715V154.77Z" fill="white"/>
<path d="M524.715 162.1H440.245V165.506H524.715V162.1Z" fill="white"/>
<path d="M524.715 169.43H440.245V172.836H524.715V169.43Z" fill="white"/>
<path d="M524.715 176.761H440.245V180.167H524.715V176.761Z" fill="white"/>
<path d="M524.715 184.091H440.245V187.497H524.715V184.091Z" fill="white"/>
<path d="M524.715 191.421H440.245V194.827H524.715V191.421Z" fill="white"/>
<path d="M524.715 198.751H440.245V202.157H524.715V198.751Z" fill="white"/>
<path d="M524.715 206.082H440.245V209.488H524.715V206.082Z" fill="white"/>
<path d="M524.715 213.412H440.245V216.818H524.715V213.412Z" fill="white"/>
<path d="M524.715 220.742H440.245V224.148H524.715V220.742Z" fill="white"/>
<path d="M359.594 153.593C359.599 158.182 358.576 162.713 356.599 166.854C354.622 170.995 351.741 174.641 348.17 177.522C346.849 178.595 345.441 179.555 343.959 180.392C343.065 180.9 342.145 181.361 341.203 181.774C338.08 183.152 334.749 183.995 331.347 184.27C330.511 184.339 329.667 184.374 328.815 184.372C327.127 184.374 325.443 184.236 323.779 183.958C323.192 183.867 322.613 183.753 322.041 183.621C321.042 183.399 320.055 183.125 319.084 182.8C315.091 181.468 311.414 179.33 308.283 176.518C307.476 175.803 306.711 175.042 305.992 174.238C302.641 170.533 300.242 166.068 299.002 161.228C297.763 156.388 297.721 151.319 298.879 146.459C300.037 141.599 302.361 137.094 305.65 133.334C308.938 129.573 313.093 126.669 317.755 124.873C322.418 123.078 327.447 122.444 332.409 123.027C337.371 123.61 342.116 125.392 346.235 128.219C350.354 131.047 353.723 134.834 356.05 139.255C358.378 143.676 359.594 148.597 359.594 153.593V153.593Z" fill="#BF0051"/>
<path d="M451.164 119.257C451.207 129.108 445.366 132.574 438.142 132.606C437.974 132.607 437.807 132.605 437.641 132.602C437.306 132.597 436.975 132.583 436.647 132.561C430.125 132.128 425.043 128.535 425.003 119.373C424.96 109.892 437.025 97.8725 437.93 96.9837L437.932 96.9829C437.966 96.949 437.984 96.9321 437.984 96.9321C437.984 96.9321 451.12 109.406 451.164 119.257Z" fill="#BF0051"/>
<path d="M437.66 131.101L442.414 124.395L437.651 131.835L437.641 132.602C437.307 132.597 436.975 132.583 436.647 132.561L437.119 122.703L437.115 122.627L437.123 122.612L437.168 121.681L432.327 114.266L437.18 120.983L437.193 121.181L437.549 113.733L433.399 106.066L437.594 112.424L437.931 96.9837L437.932 96.9323L437.932 96.9829L437.919 109.158L441.994 104.313L437.906 110.207L437.827 116.875L441.626 110.459L437.816 117.855L437.772 121.563L443.287 112.631L437.756 122.856L437.66 131.101Z" fill="#3F3D56"/>
<path d="M560.817 141.366C547.208 141.366 534.157 146.772 524.534 156.395C514.911 166.017 509.505 179.069 509.505 192.677V192.678C509.505 196.663 507.922 200.485 505.104 203.303C502.286 206.121 498.464 207.705 494.478 207.705H469.555C463.683 207.705 457.869 208.861 452.444 211.108C447.019 213.355 442.089 216.649 437.937 220.801C433.785 224.953 430.492 229.882 428.245 235.307C425.997 240.732 424.841 246.547 424.841 252.419V252.419H560.817V141.366H560.817Z" fill="#3F3D56"/>
<path d="M409.447 54.6857H402.85V252.602H409.447V54.6857Z" fill="#2F2E41"/>
<path d="M342.192 51.7536V46.6224C342.191 43.8046 341.07 41.1028 339.077 39.1109C337.084 37.1189 334.381 36 331.563 36C328.746 36 326.043 37.1189 324.05 39.1109C322.057 41.1028 320.936 43.8046 320.935 46.6224V51.7536H300.776V63.1155H362.35V51.7536H342.192ZM331.563 38.9257C332.796 38.9257 334 39.2911 335.025 39.9758C336.05 40.6604 336.848 41.6335 337.32 42.772C337.791 43.9105 337.915 45.1633 337.674 46.372C337.434 47.5806 336.841 48.6908 335.969 49.5622C335.098 50.4336 333.988 51.027 332.779 51.2674C331.57 51.5078 330.318 51.3844 329.179 50.9128C328.04 50.4412 327.067 49.6426 326.383 48.618C325.698 47.5934 325.333 46.3887 325.333 45.1564C325.333 44.3382 325.494 43.528 325.807 42.772C326.12 42.0161 326.579 41.3292 327.158 40.7506C327.736 40.1721 328.423 39.7131 329.179 39.4C329.935 39.0869 330.745 38.9257 331.563 38.9257V38.9257Z" fill="#BF0051"/>
<path d="M334.28 151.562C334.28 151.562 331.218 160.275 333.102 161.616C334.986 162.956 326.744 173.904 326.744 173.904L316.853 171.223L322.269 162.062C322.269 162.062 322.976 152.902 322.976 151.562C322.976 150.221 334.28 151.562 334.28 151.562Z" fill="#FFB8B8"/>
<path opacity="0.1" d="M334.28 151.562C334.28 151.562 331.218 160.275 333.102 161.616C334.986 162.956 326.744 173.904 326.744 173.904L316.853 171.223L322.269 162.062C322.269 162.062 322.976 152.902 322.976 151.562C322.976 150.221 334.28 151.562 334.28 151.562Z" fill="black"/>
<path d="M328.025 158.041C332.467 158.041 336.068 154.44 336.068 149.998C336.068 145.556 332.467 141.955 328.025 141.955C323.582 141.955 319.981 145.556 319.981 149.998C319.981 154.44 323.582 158.041 328.025 158.041Z" fill="#FFB8B8"/>
<path d="M322.042 183.621C321.042 183.399 320.055 183.125 319.084 182.8L320.623 172.245L321.1 168.99L323.541 169.906C323.871 170.027 324.244 170.17 324.673 170.328C325.001 170.456 325.352 170.516 325.703 170.503C326.055 170.49 326.401 170.406 326.718 170.254C329.079 169.173 330.483 164.966 330.483 164.966C330.483 164.966 330.578 166.146 330.702 168.143C330.926 171.651 331.249 177.684 331.347 184.27C330.512 184.339 329.668 184.374 328.815 184.372C327.128 184.374 325.443 184.236 323.779 183.958C323.193 183.867 322.613 183.753 322.042 183.621Z" fill="#D0CDE1"/>
<path d="M324.226 163.628L323.541 169.906L323.207 172.945L322.042 183.621C321.042 183.399 320.055 183.125 319.084 182.8C315.091 181.468 311.415 179.33 308.283 176.518L306.798 171.222C306.806 170.906 306.838 170.591 306.894 170.28C306.893 170.278 306.894 170.276 306.894 170.274C306.895 170.272 306.896 170.27 306.897 170.269C306.941 169.992 307.002 169.718 307.081 169.448C307.083 169.445 307.084 169.441 307.084 169.437C307.347 168.429 307.865 167.505 308.587 166.754C310.375 164.966 322.214 159.38 322.214 159.38L322.437 159.849L324.226 163.628Z" fill="#D0CDE1"/>
<path d="M327.853 138.63C329.636 138.567 331.544 138.535 333.047 139.496C333.739 139.978 334.346 140.572 334.842 141.253C336.307 143.104 337.572 145.433 337.028 147.73L336.396 147.484C336.396 148.097 336.532 148.702 336.795 149.256C336.706 148.997 336.408 149.415 336.488 149.677L337.184 151.96C336.896 151.871 336.593 151.844 336.295 151.88C335.996 151.916 335.708 152.014 335.45 152.168C335.191 152.322 334.968 152.529 334.795 152.775C334.621 153.021 334.501 153.3 334.443 153.595C334.363 150.944 334.088 147.903 331.937 146.351C330.853 145.568 329.48 145.329 328.159 145.117C326.94 144.921 325.663 144.734 324.496 145.135C323.329 145.536 322.335 146.73 322.6 147.935C322.321 147.873 322.03 147.907 321.774 148.033C321.518 148.159 321.313 148.369 321.194 148.628C320.968 149.153 320.87 149.724 320.906 150.294C320.332 150.7 319.679 149.895 319.445 149.232C318.897 147.677 318.409 146.022 318.705 144.4C319 142.778 320.322 141.228 321.971 141.222C321.771 141.002 321.664 140.713 321.673 140.416L323.032 140.301C322.687 140.253 322.37 140.085 322.135 139.828C322.68 140.429 326.97 138.662 327.853 138.63Z" fill="#2F2E41"/>
<path d="M346.568 169.437C346.359 171.112 345.164 175.844 343.958 180.392C343.064 180.9 342.144 181.361 341.202 181.774C338.08 183.152 334.749 183.995 331.347 184.27C330.511 184.339 329.667 184.374 328.814 184.372C327.127 184.374 325.443 184.236 323.778 183.958C324.401 181.554 325.241 177.592 326.025 173.711C326.263 172.538 326.498 171.368 326.718 170.254C327.579 165.863 328.246 162.286 328.246 162.286C328.246 162.286 330.922 159.662 332.509 159.054C332.724 158.958 332.96 158.919 333.194 158.94C334.502 159.156 336.291 162.286 336.291 162.286C336.291 162.286 344.318 164.962 346.194 168C346.48 168.422 346.612 168.929 346.568 169.437V169.437Z" fill="#D0CDE1"/>
<path d="M312.608 169.437L312.139 179.465C310.777 178.587 309.488 177.601 308.283 176.518C307.476 175.803 306.711 175.042 305.992 174.238C306.377 172.549 306.7 171.127 306.894 170.28C306.894 170.278 306.894 170.276 306.894 170.274C306.895 170.272 306.896 170.27 306.897 170.269C307 169.8 307.066 169.51 307.081 169.448C307.083 169.445 307.084 169.441 307.084 169.437H312.608Z" fill="#D0CDE1"/>
<path d="M348.171 177.522C346.85 178.595 345.441 179.555 343.959 180.392C343.065 180.9 342.145 181.361 341.203 181.774L340.312 176.584L341.207 166.754L346.195 168L346.569 168.096L348.171 177.522Z" fill="#D0CDE1"/>
<path d="M529.724 155.911C529.724 155.911 523.068 155.911 522.328 159.802C521.588 163.692 520.479 206.133 521.219 211.438C521.958 216.743 521.958 215.682 521.958 215.682C521.958 215.682 520.484 225.763 523.81 226.205C527.135 226.646 527.135 214.621 527.135 214.621L529.724 171.473L529.724 155.911Z" fill="#FBBEBE"/>
<path d="M558.569 155.911C558.569 155.911 565.226 155.911 565.965 159.802C566.705 163.692 567.815 206.133 567.075 211.438C566.335 216.743 566.335 215.682 566.335 215.682C566.335 215.682 567.81 225.763 564.484 226.205C561.158 226.646 561.158 214.621 561.158 214.621L558.569 171.473V155.911Z" fill="#FBBEBE"/>
<path d="M528.615 303.747H525.657C524.782 303.747 523.917 303.911 523.109 304.231C522.302 304.551 521.568 305.02 520.95 305.611C520.332 306.203 519.841 306.904 519.507 307.677C519.172 308.449 519 309.277 519 310.113V310.113H537.121V301.978H528.615V303.747Z" fill="#2F2E41"/>
<path d="M557.09 303.747H560.048C560.923 303.747 561.788 303.911 562.596 304.231C563.403 304.551 564.137 305.02 564.755 305.611C565.374 306.203 565.864 306.904 566.198 307.677C566.533 308.449 566.705 309.277 566.705 310.113V310.113H548.584V301.978H557.09V303.747Z" fill="#2F2E41"/>
<path d="M541.189 147.777C546.499 147.777 550.804 143.66 550.804 138.581C550.804 133.503 546.499 129.386 541.189 129.386C535.878 129.386 531.574 133.503 531.574 138.581C531.574 143.66 535.878 147.777 541.189 147.777Z" fill="#FBBEBE"/>
<path d="M538.97 143.533C538.97 143.533 537.86 155.204 536.381 156.265C534.902 157.326 551.913 155.558 551.913 155.558C551.913 155.558 545.996 147.069 547.106 144.24C548.215 141.411 538.97 143.533 538.97 143.533Z" fill="#FBBEBE"/>
<path d="M523.437 231.244C524.177 215.682 529.354 195.876 529.354 195.876C536.362 197.973 552.09 201.051 558.939 196.584C558.939 196.584 561.157 203.657 564.486 217.804C567.814 231.951 558.569 300.21 557.459 301.978C556.35 303.747 550.433 303.747 548.214 303.747C545.995 303.747 543.777 228.061 543.777 228.061C543.777 228.061 538.599 301.978 537.86 303.039C537.12 304.1 530.094 303.393 527.875 303.039C525.656 302.686 522.698 246.805 523.437 231.244Z" fill="#2F2E41"/>
<path d="M527 156C540.313 147.866 561 156 561 156C561 156 560.589 171.024 558 173.5C555.411 175.976 560.891 191.585 562 193C563.109 194.415 559 196.5 559 196.5C552.151 200.967 536.008 198.097 529 196C529 196 524.932 198.927 529 191.5C533.068 184.073 529.089 173.098 526.5 168.5C523.911 163.902 527 156 527 156Z" fill="#BF0051"/>
<path d="M547.29 147.893C555.868 147.893 562.822 141.243 562.822 133.039C562.822 124.835 555.868 118.185 547.29 118.185C538.712 118.185 531.758 124.835 531.758 133.039C531.758 141.243 538.712 147.893 547.29 147.893Z" fill="#2F2E41"/>
<path d="M557.621 127.538C561.819 127.538 565.222 124.284 565.222 120.269C565.222 116.254 561.819 113 557.621 113C553.423 113 550.021 116.254 550.021 120.269C550.021 124.284 553.423 127.538 557.621 127.538Z" fill="#2F2E41"/>
<defs>
<linearGradient id="paint0_linear" x1="400.515" y1="332.011" x2="400.515" y2="1.00004" gradientUnits="userSpaceOnUse">
<stop offset="0.2" stop-color="#808080" stop-opacity="0.4"/>
<stop offset="0.46" stop-color="#808080" stop-opacity="0.5"/>
<stop offset="1" stop-opacity="0.4"/>
</linearGradient>
</defs>
</svg>
